M48
; DRILL file {KiCad 7.0.7} date Fri Nov  3 20:30:04 2023
; FORMAT={-:-/ absolute / inch / decimal}
; #@! TF.CreationDate,2023-11-03T20:30:04-05:00
; #@! TF.GenerationSoftware,Kicad,Pcbnew,7.0.7
; #@! TF.FileFunction,Plated,1,2,PTH
FMAT,2
INCH
; #@! TA.AperFunction,Plated,PTH,ComponentDrill
T1C0.0295
; #@! TA.AperFunction,Plated,PTH,ComponentDrill
T2C0.0300
; #@! TA.AperFunction,Plated,PTH,ComponentDrill
T3C0.0315
; #@! TA.AperFunction,Plated,PTH,ComponentDrill
T4C0.0354
; #@! TA.AperFunction,Plated,PTH,ComponentDrill
T5C0.0394
; #@! TA.AperFunction,Plated,PTH,ComponentDrill
T6C0.0402
%
G90
G05
T1
X2.1Y-2.6
X2.15Y-2.65
X2.2Y-2.6
T2
X3.0Y-5.55
X3.0Y-5.65
X3.0Y-5.75
X3.0Y-5.85
X3.0Y-5.95
X3.0Y-6.05
T3
X2.2Y-2.9
X2.2Y-3.3
X2.8Y-2.9
X2.8Y-3.3
X3.2Y-2.9
X3.2Y-3.3
X3.5Y-2.9
X3.5Y-3.3
X3.8Y-2.9
X3.8Y-3.3
X4.2Y-2.9
X4.2Y-3.3
T4
X2.8Y-2.6
X2.8Y-2.7
X3.1917Y-2.6
X3.1917Y-2.7
X3.5Y-2.6
X3.5Y-2.7
X3.8Y-2.6
X3.8Y-2.7
X4.2Y-2.6
X4.2Y-2.7
T5
X1.5Y-3.8
X1.5Y-3.9
X1.5Y-4.0
X1.5Y-4.1
X1.5Y-4.2
X1.5Y-4.3
X1.5008Y-2.8
X1.8Y-2.8
X3.5Y-5.7
X3.5Y-5.8
X3.5Y-5.9
T6
X2.7108Y-3.5
X2.7108Y-4.5
X2.8108Y-3.5
X2.8108Y-4.5
X2.9108Y-3.5
X2.9108Y-4.5
X3.0108Y-3.5
X3.0108Y-4.5
X3.1108Y-3.5
X3.1108Y-4.5
X3.2108Y-3.5
X3.2108Y-4.5
X3.3108Y-3.5
X3.3108Y-4.5
X3.4108Y-3.5
X3.4108Y-4.5
X3.5108Y-3.5
X3.5108Y-4.5
X3.6108Y-3.5
X3.6108Y-4.5
X3.7108Y-3.5
X3.7108Y-4.5
X3.8108Y-3.5
X3.8108Y-4.5
X3.9108Y-3.5
X3.9108Y-4.5
X4.0108Y-3.5
X4.0108Y-4.5
X4.1108Y-3.5
X4.1108Y-4.5
T5
G00X1.6Y-5.7229
M15
G01X1.6Y-5.8017
M16
G05
G00X1.6787Y-5.9473
M15
G01X1.7575Y-5.9473
M16
G05
G00X1.8362Y-5.7229
M15
G01X1.8362Y-5.8017
M16
G05
T0
M30
