%TF.GenerationSoftware,KiCad,Pcbnew,7.0.7*%
%TF.CreationDate,2023-11-04T11:15:44-05:00*%
%TF.ProjectId,proyectointroducci_n,70726f79-6563-4746-9f69-6e74726f6475,rev?*%
%TF.SameCoordinates,Original*%
%TF.FileFunction,Copper,L1,Top*%
%TF.FilePolarity,Positive*%
%FSLAX46Y46*%
G04 Gerber Fmt 4.6, Leading zero omitted, Abs format (unit mm)*
G04 Created by KiCad (PCBNEW 7.0.7) date 2023-11-04 11:15:44*
%MOMM*%
%LPD*%
G01*
G04 APERTURE LIST*
G04 Aperture macros list*
%AMRoundRect*
0 Rectangle with rounded corners*
0 $1 Rounding radius*
0 $2 $3 $4 $5 $6 $7 $8 $9 X,Y pos of 4 corners*
0 Add a 4 corners polygon primitive as box body*
4,1,4,$2,$3,$4,$5,$6,$7,$8,$9,$2,$3,0*
0 Add four circle primitives for the rounded corners*
1,1,$1+$1,$2,$3*
1,1,$1+$1,$4,$5*
1,1,$1+$1,$6,$7*
1,1,$1+$1,$8,$9*
0 Add four rect primitives between the rounded corners*
20,1,$1+$1,$2,$3,$4,$5,0*
20,1,$1+$1,$4,$5,$6,$7,0*
20,1,$1+$1,$6,$7,$8,$9,0*
20,1,$1+$1,$8,$9,$2,$3,0*%
G04 Aperture macros list end*
%TA.AperFunction,ComponentPad*%
%ADD10R,1.800000X1.800000*%
%TD*%
%TA.AperFunction,ComponentPad*%
%ADD11C,1.800000*%
%TD*%
%TA.AperFunction,ComponentPad*%
%ADD12R,1.600000X1.600000*%
%TD*%
%TA.AperFunction,ComponentPad*%
%ADD13C,1.600000*%
%TD*%
%TA.AperFunction,ComponentPad*%
%ADD14O,1.600000X1.600000*%
%TD*%
%TA.AperFunction,ComponentPad*%
%ADD15R,1.300000X1.300000*%
%TD*%
%TA.AperFunction,ComponentPad*%
%ADD16C,1.300000*%
%TD*%
%TA.AperFunction,ComponentPad*%
%ADD17R,3.500000X3.500000*%
%TD*%
%TA.AperFunction,ComponentPad*%
%ADD18RoundRect,0.750000X-0.750000X-1.000000X0.750000X-1.000000X0.750000X1.000000X-0.750000X1.000000X0*%
%TD*%
%TA.AperFunction,ComponentPad*%
%ADD19RoundRect,0.875000X-0.875000X-0.875000X0.875000X-0.875000X0.875000X0.875000X-0.875000X0.875000X0*%
%TD*%
%TA.AperFunction,ComponentPad*%
%ADD20R,2.000000X2.000000*%
%TD*%
%TA.AperFunction,ComponentPad*%
%ADD21C,2.000000*%
%TD*%
%TA.AperFunction,ComponentPad*%
%ADD22R,1.700000X1.700000*%
%TD*%
%TA.AperFunction,ComponentPad*%
%ADD23O,1.700000X1.700000*%
%TD*%
%TA.AperFunction,ComponentPad*%
%ADD24C,1.524000*%
%TD*%
G04 APERTURE END LIST*
D10*
%TO.P,D2,1,K*%
%TO.N,GND*%
X81070000Y-66040000D03*
D11*
%TO.P,D2,2,A*%
%TO.N,Net-(D2-A)*%
X81070000Y-68580000D03*
%TD*%
D10*
%TO.P,D4,1,K*%
%TO.N,GND*%
X106680000Y-66040000D03*
D11*
%TO.P,D4,2,A*%
%TO.N,Net-(D4-A)*%
X106680000Y-68580000D03*
%TD*%
D12*
%TO.P,LS1,1,1*%
%TO.N,+5V*%
X38120000Y-71120000D03*
D13*
%TO.P,LS1,2,2*%
%TO.N,Net-(Q1-C)*%
X45720000Y-71120000D03*
%TD*%
%TO.P,R2,1*%
%TO.N,Net-(U3-D23)*%
X55880000Y-83820000D03*
D14*
%TO.P,R2,2*%
%TO.N,Net-(Q1-B)*%
X55880000Y-73660000D03*
%TD*%
D13*
%TO.P,R5,1*%
%TO.N,Net-(U3-D18)*%
X88900000Y-83820000D03*
D14*
%TO.P,R5,2*%
%TO.N,Net-(D3-A)*%
X88900000Y-73660000D03*
%TD*%
D10*
%TO.P,D1,1,K*%
%TO.N,GND*%
X71120000Y-66040000D03*
D11*
%TO.P,D1,2,A*%
%TO.N,Net-(D1-A)*%
X71120000Y-68580000D03*
%TD*%
D13*
%TO.P,R7,1*%
%TO.N,Net-(U3-D5)*%
X96520000Y-83820000D03*
D14*
%TO.P,R7,2*%
%TO.N,Net-(D5-A)*%
X96520000Y-73660000D03*
%TD*%
D10*
%TO.P,D3,1,K*%
%TO.N,GND*%
X88900000Y-66040000D03*
D11*
%TO.P,D3,2,A*%
%TO.N,Net-(D3-A)*%
X88900000Y-68580000D03*
%TD*%
D13*
%TO.P,R3,1*%
%TO.N,Net-(U3-D21)*%
X71120000Y-83820000D03*
D14*
%TO.P,R3,2*%
%TO.N,Net-(D1-A)*%
X71120000Y-73660000D03*
%TD*%
D13*
%TO.P,R4,1*%
%TO.N,Net-(U3-D19)*%
X81280000Y-83820000D03*
D14*
%TO.P,R4,2*%
%TO.N,Net-(D2-A)*%
X81280000Y-73660000D03*
%TD*%
D10*
%TO.P,D5,1,K*%
%TO.N,GND*%
X96520000Y-66040000D03*
D11*
%TO.P,D5,2,A*%
%TO.N,Net-(D5-A)*%
X96520000Y-68580000D03*
%TD*%
D15*
%TO.P,Q1,1,E*%
%TO.N,GND*%
X55880000Y-66040000D03*
D16*
%TO.P,Q1,2,B*%
%TO.N,Net-(Q1-B)*%
X54610000Y-67310000D03*
%TO.P,Q1,3,C*%
%TO.N,Net-(Q1-C)*%
X53340000Y-66040000D03*
%TD*%
D17*
%TO.P,J1,1*%
%TO.N,Net-(U2-VIN)*%
X46640000Y-146362500D03*
D18*
%TO.P,J1,2*%
%TO.N,GND*%
X40640000Y-146362500D03*
D19*
%TO.P,J1,3*%
%TO.N,N/C*%
X43640000Y-151062500D03*
%TD*%
D20*
%TO.P,U3,1,3V3*%
%TO.N,+3V3*%
X104415000Y-88900000D03*
D21*
%TO.P,U3,2,GND*%
%TO.N,GND*%
X101875000Y-88900000D03*
%TO.P,U3,3,D15*%
%TO.N,Net-(U3-D15)*%
X99335000Y-88900000D03*
%TO.P,U3,4,D2*%
%TO.N,/aux1*%
X96795000Y-88900000D03*
%TO.P,U3,5,D4*%
%TO.N,/ADCaux*%
X94255000Y-88900000D03*
%TO.P,U3,6,RX2*%
%TO.N,unconnected-(U3-RX2-Pad6)*%
X91715000Y-88900000D03*
%TO.P,U3,7,TX2*%
%TO.N,unconnected-(U3-TX2-Pad7)*%
X89175000Y-88900000D03*
%TO.P,U3,8,D5*%
%TO.N,Net-(U3-D5)*%
X86635000Y-88900000D03*
%TO.P,U3,9,D18*%
%TO.N,Net-(U3-D18)*%
X84095000Y-88900000D03*
%TO.P,U3,10,D19*%
%TO.N,Net-(U3-D19)*%
X81555000Y-88900000D03*
%TO.P,U3,11,D21*%
%TO.N,Net-(U3-D21)*%
X79015000Y-88900000D03*
%TO.P,U3,12,RX0*%
%TO.N,unconnected-(U3-RX0-Pad12)*%
X76475000Y-88900000D03*
%TO.P,U3,13,TX0*%
%TO.N,unconnected-(U3-TX0-Pad13)*%
X73935000Y-88900000D03*
%TO.P,U3,14,D22*%
%TO.N,/auxled*%
X71395000Y-88900000D03*
%TO.P,U3,15,D23*%
%TO.N,Net-(U3-D23)*%
X68855000Y-88900000D03*
%TO.P,U3,16,EN*%
%TO.N,Net-(U3-EN)*%
X68855000Y-114300000D03*
%TO.P,U3,17,VP*%
%TO.N,unconnected-(U3-VP-Pad17)*%
X71395000Y-114300000D03*
%TO.P,U3,18,VN*%
%TO.N,unconnected-(U3-VN-Pad18)*%
X73935000Y-114300000D03*
%TO.P,U3,19,D34*%
%TO.N,unconnected-(U3-D34-Pad19)*%
X76475000Y-114300000D03*
%TO.P,U3,20,D35*%
%TO.N,unconnected-(U3-D35-Pad20)*%
X79015000Y-114300000D03*
%TO.P,U3,21,D32*%
%TO.N,unconnected-(U3-D32-Pad21)*%
X81555000Y-114300000D03*
%TO.P,U3,22,D33*%
%TO.N,unconnected-(U3-D33-Pad22)*%
X84095000Y-114300000D03*
%TO.P,U3,23,D25*%
%TO.N,/se\u00F1alsensor*%
X86635000Y-114300000D03*
%TO.P,U3,24,D26*%
%TO.N,unconnected-(U3-D26-Pad24)*%
X89175000Y-114300000D03*
%TO.P,U3,25,D27*%
%TO.N,unconnected-(U3-D27-Pad25)*%
X91715000Y-114300000D03*
%TO.P,U3,26,D14*%
%TO.N,unconnected-(U3-D14-Pad26)*%
X94255000Y-114300000D03*
%TO.P,U3,27,D12*%
%TO.N,unconnected-(U3-D12-Pad27)*%
X96795000Y-114300000D03*
%TO.P,U3,28,D13*%
%TO.N,unconnected-(U3-D13-Pad28)*%
X99335000Y-114300000D03*
%TO.P,U3,29,GND*%
%TO.N,GND*%
X101875000Y-114300000D03*
%TO.P,U3,30,VIN*%
%TO.N,+5V*%
X104415000Y-114300000D03*
%TD*%
D22*
%TO.P,J2,1,Pin_1*%
%TO.N,/aux1*%
X38100000Y-96520000D03*
D23*
%TO.P,J2,2,Pin_2*%
%TO.N,/auxled*%
X38100000Y-99060000D03*
%TO.P,J2,3,Pin_3*%
%TO.N,/ADCaux*%
X38100000Y-101600000D03*
%TO.P,J2,4,Pin_4*%
%TO.N,+3V3*%
X38100000Y-104140000D03*
%TO.P,J2,5,Pin_5*%
%TO.N,GND*%
X38100000Y-106680000D03*
%TO.P,J2,6,Pin_6*%
%TO.N,+5V*%
X38100000Y-109220000D03*
%TD*%
D24*
%TO.P,U2,1,VIN*%
%TO.N,Net-(U2-VIN)*%
X76200000Y-153670000D03*
%TO.P,U2,2,GND*%
%TO.N,GND*%
X76200000Y-151130000D03*
%TO.P,U2,3,GND*%
X76200000Y-148590000D03*
%TO.P,U2,4,BAT*%
%TO.N,Net-(BT1-+)*%
X76200000Y-146050000D03*
%TO.P,U2,5,GND*%
%TO.N,Net-(U3-EN)*%
X76200000Y-143510000D03*
%TO.P,U2,6,OUT-5V*%
%TO.N,+5V*%
X76200000Y-140970000D03*
%TD*%
D13*
%TO.P,R6,1*%
%TO.N,Net-(U3-D15)*%
X106680000Y-83820000D03*
D14*
%TO.P,R6,2*%
%TO.N,Net-(D4-A)*%
X106680000Y-73660000D03*
%TD*%
D22*
%TO.P,J3,1,Pin_1*%
%TO.N,+5V*%
X88900000Y-149860000D03*
D23*
%TO.P,J3,2,Pin_2*%
%TO.N,GND*%
X88900000Y-147320000D03*
%TO.P,J3,3,Pin_3*%
%TO.N,/se\u00F1alsensor*%
X88900000Y-144780000D03*
%TD*%
M02*
