%TF.GenerationSoftware,KiCad,Pcbnew,7.0.7*%
%TF.CreationDate,2023-11-04T11:15:37-05:00*%
%TF.ProjectId,proyectointroducci_n,70726f79-6563-4746-9f69-6e74726f6475,rev?*%
%TF.SameCoordinates,Original*%
%TF.FileFunction,Drillmap*%
%TF.FilePolarity,Positive*%
%FSLAX45Y45*%
G04 Gerber Fmt 4.5, Leading zero omitted, Abs format (unit mm)*
G04 Created by KiCad (PCBNEW 7.0.7) date 2023-11-04 11:15:37*
%MOMM*%
%LPD*%
G01*
G04 APERTURE LIST*
%ADD10C,0.200000*%
%ADD11C,0.075000*%
%ADD12C,0.076200*%
%ADD13C,0.080000*%
%ADD14C,0.090000*%
%ADD15C,0.100000*%
%ADD16C,0.102000*%
G04 APERTURE END LIST*
D10*
D11*
X5296500Y-6566500D02*
X5371500Y-6641500D01*
X5371500Y-6566500D02*
X5296500Y-6641500D01*
X5423500Y-6693500D02*
X5498500Y-6768500D01*
X5498500Y-6693500D02*
X5423500Y-6768500D01*
X5550500Y-6566500D02*
X5625500Y-6641500D01*
X5625500Y-6566500D02*
X5550500Y-6641500D01*
D12*
X7658100Y-14097000D02*
G75*
G03*
X7658100Y-14097000I-38100J0D01*
G01*
X7658100Y-14351000D02*
G75*
G03*
X7658100Y-14351000I-38100J0D01*
G01*
X7658100Y-14605000D02*
G75*
G03*
X7658100Y-14605000I-38100J0D01*
G01*
X7658100Y-14859000D02*
G75*
G03*
X7658100Y-14859000I-38100J0D01*
G01*
X7658100Y-15113000D02*
G75*
G03*
X7658100Y-15113000I-38100J0D01*
G01*
X7658100Y-15367000D02*
G75*
G03*
X7658100Y-15367000I-38100J0D01*
G01*
D13*
X5588000Y-7326000D02*
X5588000Y-7406000D01*
X5548000Y-7366000D02*
X5628000Y-7366000D01*
X5588000Y-8342000D02*
X5588000Y-8422000D01*
X5548000Y-8382000D02*
X5628000Y-8382000D01*
X7112000Y-7326000D02*
X7112000Y-7406000D01*
X7072000Y-7366000D02*
X7152000Y-7366000D01*
X7112000Y-8342000D02*
X7112000Y-8422000D01*
X7072000Y-8382000D02*
X7152000Y-8382000D01*
X8128000Y-7326000D02*
X8128000Y-7406000D01*
X8088000Y-7366000D02*
X8168000Y-7366000D01*
X8128000Y-8342000D02*
X8128000Y-8422000D01*
X8088000Y-8382000D02*
X8168000Y-8382000D01*
X8890000Y-7326000D02*
X8890000Y-7406000D01*
X8850000Y-7366000D02*
X8930000Y-7366000D01*
X8890000Y-8342000D02*
X8890000Y-8422000D01*
X8850000Y-8382000D02*
X8930000Y-8382000D01*
X9652000Y-7326000D02*
X9652000Y-7406000D01*
X9612000Y-7366000D02*
X9692000Y-7366000D01*
X9652000Y-8342000D02*
X9652000Y-8422000D01*
X9612000Y-8382000D02*
X9692000Y-8382000D01*
X10668000Y-7326000D02*
X10668000Y-7406000D01*
X10628000Y-7366000D02*
X10708000Y-7366000D01*
X10668000Y-8342000D02*
X10668000Y-8422000D01*
X10628000Y-8382000D02*
X10708000Y-8382000D01*
D14*
X7143820Y-6635820D02*
X7143820Y-6572180D01*
X7080180Y-6572180D01*
X7080180Y-6635820D01*
X7143820Y-6635820D01*
X7143820Y-6889820D02*
X7143820Y-6826180D01*
X7080180Y-6826180D01*
X7080180Y-6889820D01*
X7143820Y-6889820D01*
X8138820Y-6635820D02*
X8138820Y-6572180D01*
X8075180Y-6572180D01*
X8075180Y-6635820D01*
X8138820Y-6635820D01*
X8138820Y-6889820D02*
X8138820Y-6826180D01*
X8075180Y-6826180D01*
X8075180Y-6889820D01*
X8138820Y-6889820D01*
X8921820Y-6635820D02*
X8921820Y-6572180D01*
X8858180Y-6572180D01*
X8858180Y-6635820D01*
X8921820Y-6635820D01*
X8921820Y-6889820D02*
X8921820Y-6826180D01*
X8858180Y-6826180D01*
X8858180Y-6889820D01*
X8921820Y-6889820D01*
X9683820Y-6635820D02*
X9683820Y-6572180D01*
X9620180Y-6572180D01*
X9620180Y-6635820D01*
X9683820Y-6635820D01*
X9683820Y-6889820D02*
X9683820Y-6826180D01*
X9620180Y-6826180D01*
X9620180Y-6889820D01*
X9683820Y-6889820D01*
X10699820Y-6635820D02*
X10699820Y-6572180D01*
X10636180Y-6572180D01*
X10636180Y-6635820D01*
X10699820Y-6635820D01*
X10699820Y-6889820D02*
X10699820Y-6826180D01*
X10636180Y-6826180D01*
X10636180Y-6889820D01*
X10699820Y-6889820D01*
D15*
X3810000Y-9702000D02*
X3860000Y-9652000D01*
X3810000Y-9602000D01*
X3760000Y-9652000D01*
X3810000Y-9702000D01*
X3810000Y-9956000D02*
X3860000Y-9906000D01*
X3810000Y-9856000D01*
X3760000Y-9906000D01*
X3810000Y-9956000D01*
X3810000Y-10210000D02*
X3860000Y-10160000D01*
X3810000Y-10110000D01*
X3760000Y-10160000D01*
X3810000Y-10210000D01*
X3810000Y-10464000D02*
X3860000Y-10414000D01*
X3810000Y-10364000D01*
X3760000Y-10414000D01*
X3810000Y-10464000D01*
X3810000Y-10718000D02*
X3860000Y-10668000D01*
X3810000Y-10618000D01*
X3760000Y-10668000D01*
X3810000Y-10718000D01*
X3810000Y-10972000D02*
X3860000Y-10922000D01*
X3810000Y-10872000D01*
X3760000Y-10922000D01*
X3810000Y-10972000D01*
X3812000Y-7162000D02*
X3862000Y-7112000D01*
X3812000Y-7062000D01*
X3762000Y-7112000D01*
X3812000Y-7162000D01*
X4064000Y-14686250D02*
X4114000Y-14636250D01*
X4064000Y-14586250D01*
X4014000Y-14636250D01*
X4064000Y-14686250D01*
D10*
X4014000Y-14536250D02*
X4014000Y-14736250D01*
X4014000Y-14736250D02*
G75*
G03*
X4114000Y-14736250I50000J0D01*
G01*
X4114000Y-14736250D02*
X4114000Y-14536250D01*
X4114000Y-14536250D02*
G75*
G03*
X4014000Y-14536250I-50000J0D01*
G01*
D15*
X4364000Y-15156250D02*
X4414000Y-15106250D01*
X4364000Y-15056250D01*
X4314000Y-15106250D01*
X4364000Y-15156250D01*
D10*
X4264000Y-15156250D02*
X4464000Y-15156250D01*
X4464000Y-15156250D02*
G75*
G03*
X4464000Y-15056250I0J50000D01*
G01*
X4464000Y-15056250D02*
X4264000Y-15056250D01*
X4264000Y-15056250D02*
G75*
G03*
X4264000Y-15156250I0J-50000D01*
G01*
D15*
X4572000Y-7162000D02*
X4622000Y-7112000D01*
X4572000Y-7062000D01*
X4522000Y-7112000D01*
X4572000Y-7162000D01*
X4664000Y-14686250D02*
X4714000Y-14636250D01*
X4664000Y-14586250D01*
X4614000Y-14636250D01*
X4664000Y-14686250D01*
D10*
X4614000Y-14536250D02*
X4614000Y-14736250D01*
X4614000Y-14736250D02*
G75*
G03*
X4714000Y-14736250I50000J0D01*
G01*
X4714000Y-14736250D02*
X4714000Y-14536250D01*
X4714000Y-14536250D02*
G75*
G03*
X4614000Y-14536250I-50000J0D01*
G01*
D15*
X8890000Y-14528000D02*
X8940000Y-14478000D01*
X8890000Y-14428000D01*
X8840000Y-14478000D01*
X8890000Y-14528000D01*
X8890000Y-14782000D02*
X8940000Y-14732000D01*
X8890000Y-14682000D01*
X8840000Y-14732000D01*
X8890000Y-14782000D01*
X8890000Y-15036000D02*
X8940000Y-14986000D01*
X8890000Y-14936000D01*
X8840000Y-14986000D01*
X8890000Y-15036000D01*
D16*
X6834500Y-8839000D02*
X6936500Y-8941000D01*
X6936500Y-8839000D02*
X6834500Y-8941000D01*
X6936500Y-8890000D02*
G75*
G03*
X6936500Y-8890000I-51000J0D01*
G01*
X6834500Y-11379000D02*
X6936500Y-11481000D01*
X6936500Y-11379000D02*
X6834500Y-11481000D01*
X6936500Y-11430000D02*
G75*
G03*
X6936500Y-11430000I-51000J0D01*
G01*
X7088500Y-8839000D02*
X7190500Y-8941000D01*
X7190500Y-8839000D02*
X7088500Y-8941000D01*
X7190500Y-8890000D02*
G75*
G03*
X7190500Y-8890000I-51000J0D01*
G01*
X7088500Y-11379000D02*
X7190500Y-11481000D01*
X7190500Y-11379000D02*
X7088500Y-11481000D01*
X7190500Y-11430000D02*
G75*
G03*
X7190500Y-11430000I-51000J0D01*
G01*
X7342500Y-8839000D02*
X7444500Y-8941000D01*
X7444500Y-8839000D02*
X7342500Y-8941000D01*
X7444500Y-8890000D02*
G75*
G03*
X7444500Y-8890000I-51000J0D01*
G01*
X7342500Y-11379000D02*
X7444500Y-11481000D01*
X7444500Y-11379000D02*
X7342500Y-11481000D01*
X7444500Y-11430000D02*
G75*
G03*
X7444500Y-11430000I-51000J0D01*
G01*
X7596500Y-8839000D02*
X7698500Y-8941000D01*
X7698500Y-8839000D02*
X7596500Y-8941000D01*
X7698500Y-8890000D02*
G75*
G03*
X7698500Y-8890000I-51000J0D01*
G01*
X7596500Y-11379000D02*
X7698500Y-11481000D01*
X7698500Y-11379000D02*
X7596500Y-11481000D01*
X7698500Y-11430000D02*
G75*
G03*
X7698500Y-11430000I-51000J0D01*
G01*
X7850500Y-8839000D02*
X7952500Y-8941000D01*
X7952500Y-8839000D02*
X7850500Y-8941000D01*
X7952500Y-8890000D02*
G75*
G03*
X7952500Y-8890000I-51000J0D01*
G01*
X7850500Y-11379000D02*
X7952500Y-11481000D01*
X7952500Y-11379000D02*
X7850500Y-11481000D01*
X7952500Y-11430000D02*
G75*
G03*
X7952500Y-11430000I-51000J0D01*
G01*
X8104500Y-8839000D02*
X8206500Y-8941000D01*
X8206500Y-8839000D02*
X8104500Y-8941000D01*
X8206500Y-8890000D02*
G75*
G03*
X8206500Y-8890000I-51000J0D01*
G01*
X8104500Y-11379000D02*
X8206500Y-11481000D01*
X8206500Y-11379000D02*
X8104500Y-11481000D01*
X8206500Y-11430000D02*
G75*
G03*
X8206500Y-11430000I-51000J0D01*
G01*
X8358500Y-8839000D02*
X8460500Y-8941000D01*
X8460500Y-8839000D02*
X8358500Y-8941000D01*
X8460500Y-8890000D02*
G75*
G03*
X8460500Y-8890000I-51000J0D01*
G01*
X8358500Y-11379000D02*
X8460500Y-11481000D01*
X8460500Y-11379000D02*
X8358500Y-11481000D01*
X8460500Y-11430000D02*
G75*
G03*
X8460500Y-11430000I-51000J0D01*
G01*
X8612500Y-8839000D02*
X8714500Y-8941000D01*
X8714500Y-8839000D02*
X8612500Y-8941000D01*
X8714500Y-8890000D02*
G75*
G03*
X8714500Y-8890000I-51000J0D01*
G01*
X8612500Y-11379000D02*
X8714500Y-11481000D01*
X8714500Y-11379000D02*
X8612500Y-11481000D01*
X8714500Y-11430000D02*
G75*
G03*
X8714500Y-11430000I-51000J0D01*
G01*
X8866500Y-8839000D02*
X8968500Y-8941000D01*
X8968500Y-8839000D02*
X8866500Y-8941000D01*
X8968500Y-8890000D02*
G75*
G03*
X8968500Y-8890000I-51000J0D01*
G01*
X8866500Y-11379000D02*
X8968500Y-11481000D01*
X8968500Y-11379000D02*
X8866500Y-11481000D01*
X8968500Y-11430000D02*
G75*
G03*
X8968500Y-11430000I-51000J0D01*
G01*
X9120500Y-8839000D02*
X9222500Y-8941000D01*
X9222500Y-8839000D02*
X9120500Y-8941000D01*
X9222500Y-8890000D02*
G75*
G03*
X9222500Y-8890000I-51000J0D01*
G01*
X9120500Y-11379000D02*
X9222500Y-11481000D01*
X9222500Y-11379000D02*
X9120500Y-11481000D01*
X9222500Y-11430000D02*
G75*
G03*
X9222500Y-11430000I-51000J0D01*
G01*
X9374500Y-8839000D02*
X9476500Y-8941000D01*
X9476500Y-8839000D02*
X9374500Y-8941000D01*
X9476500Y-8890000D02*
G75*
G03*
X9476500Y-8890000I-51000J0D01*
G01*
X9374500Y-11379000D02*
X9476500Y-11481000D01*
X9476500Y-11379000D02*
X9374500Y-11481000D01*
X9476500Y-11430000D02*
G75*
G03*
X9476500Y-11430000I-51000J0D01*
G01*
X9628500Y-8839000D02*
X9730500Y-8941000D01*
X9730500Y-8839000D02*
X9628500Y-8941000D01*
X9730500Y-8890000D02*
G75*
G03*
X9730500Y-8890000I-51000J0D01*
G01*
X9628500Y-11379000D02*
X9730500Y-11481000D01*
X9730500Y-11379000D02*
X9628500Y-11481000D01*
X9730500Y-11430000D02*
G75*
G03*
X9730500Y-11430000I-51000J0D01*
G01*
X9882500Y-8839000D02*
X9984500Y-8941000D01*
X9984500Y-8839000D02*
X9882500Y-8941000D01*
X9984500Y-8890000D02*
G75*
G03*
X9984500Y-8890000I-51000J0D01*
G01*
X9882500Y-11379000D02*
X9984500Y-11481000D01*
X9984500Y-11379000D02*
X9882500Y-11481000D01*
X9984500Y-11430000D02*
G75*
G03*
X9984500Y-11430000I-51000J0D01*
G01*
X10136500Y-8839000D02*
X10238500Y-8941000D01*
X10238500Y-8839000D02*
X10136500Y-8941000D01*
X10238500Y-8890000D02*
G75*
G03*
X10238500Y-8890000I-51000J0D01*
G01*
X10136500Y-11379000D02*
X10238500Y-11481000D01*
X10238500Y-11379000D02*
X10136500Y-11481000D01*
X10238500Y-11430000D02*
G75*
G03*
X10238500Y-11430000I-51000J0D01*
G01*
X10390500Y-8839000D02*
X10492500Y-8941000D01*
X10492500Y-8839000D02*
X10390500Y-8941000D01*
X10492500Y-8890000D02*
G75*
G03*
X10492500Y-8890000I-51000J0D01*
G01*
X10390500Y-11379000D02*
X10492500Y-11481000D01*
X10492500Y-11379000D02*
X10390500Y-11481000D01*
X10492500Y-11430000D02*
G75*
G03*
X10492500Y-11430000I-51000J0D01*
G01*
D10*
X260777Y-311484D02*
X260777Y-111484D01*
X260777Y-111484D02*
X308396Y-111484D01*
X308396Y-111484D02*
X336967Y-121008D01*
X336967Y-121008D02*
X356015Y-140055D01*
X356015Y-140055D02*
X365539Y-159103D01*
X365539Y-159103D02*
X375062Y-197198D01*
X375062Y-197198D02*
X375062Y-225769D01*
X375062Y-225769D02*
X365539Y-263865D01*
X365539Y-263865D02*
X356015Y-282912D01*
X356015Y-282912D02*
X336967Y-301960D01*
X336967Y-301960D02*
X308396Y-311484D01*
X308396Y-311484D02*
X260777Y-311484D01*
X460777Y-311484D02*
X460777Y-178150D01*
X460777Y-216246D02*
X470301Y-197198D01*
X470301Y-197198D02*
X479824Y-187674D01*
X479824Y-187674D02*
X498872Y-178150D01*
X498872Y-178150D02*
X517920Y-178150D01*
X584586Y-311484D02*
X584586Y-178150D01*
X584586Y-111484D02*
X575063Y-121008D01*
X575063Y-121008D02*
X584586Y-130531D01*
X584586Y-130531D02*
X594110Y-121008D01*
X594110Y-121008D02*
X584586Y-111484D01*
X584586Y-111484D02*
X584586Y-130531D01*
X708396Y-311484D02*
X689348Y-301960D01*
X689348Y-301960D02*
X679824Y-282912D01*
X679824Y-282912D02*
X679824Y-111484D01*
X813158Y-311484D02*
X794110Y-301960D01*
X794110Y-301960D02*
X784586Y-282912D01*
X784586Y-282912D02*
X784586Y-111484D01*
X1041729Y-311484D02*
X1041729Y-111484D01*
X1041729Y-111484D02*
X1108396Y-254341D01*
X1108396Y-254341D02*
X1175063Y-111484D01*
X1175063Y-111484D02*
X1175063Y-311484D01*
X1356015Y-311484D02*
X1356015Y-206722D01*
X1356015Y-206722D02*
X1346491Y-187674D01*
X1346491Y-187674D02*
X1327444Y-178150D01*
X1327444Y-178150D02*
X1289348Y-178150D01*
X1289348Y-178150D02*
X1270301Y-187674D01*
X1356015Y-301960D02*
X1336967Y-311484D01*
X1336967Y-311484D02*
X1289348Y-311484D01*
X1289348Y-311484D02*
X1270301Y-301960D01*
X1270301Y-301960D02*
X1260777Y-282912D01*
X1260777Y-282912D02*
X1260777Y-263865D01*
X1260777Y-263865D02*
X1270301Y-244817D01*
X1270301Y-244817D02*
X1289348Y-235293D01*
X1289348Y-235293D02*
X1336967Y-235293D01*
X1336967Y-235293D02*
X1356015Y-225769D01*
X1451253Y-178150D02*
X1451253Y-378150D01*
X1451253Y-187674D02*
X1470301Y-178150D01*
X1470301Y-178150D02*
X1508396Y-178150D01*
X1508396Y-178150D02*
X1527443Y-187674D01*
X1527443Y-187674D02*
X1536967Y-197198D01*
X1536967Y-197198D02*
X1546491Y-216246D01*
X1546491Y-216246D02*
X1546491Y-273389D01*
X1546491Y-273389D02*
X1536967Y-292436D01*
X1536967Y-292436D02*
X1527443Y-301960D01*
X1527443Y-301960D02*
X1508396Y-311484D01*
X1508396Y-311484D02*
X1470301Y-311484D01*
X1470301Y-311484D02*
X1451253Y-301960D01*
X1632205Y-292436D02*
X1641729Y-301960D01*
X1641729Y-301960D02*
X1632205Y-311484D01*
X1632205Y-311484D02*
X1622682Y-301960D01*
X1622682Y-301960D02*
X1632205Y-292436D01*
X1632205Y-292436D02*
X1632205Y-311484D01*
X1632205Y-187674D02*
X1641729Y-197198D01*
X1641729Y-197198D02*
X1632205Y-206722D01*
X1632205Y-206722D02*
X1622682Y-197198D01*
X1622682Y-197198D02*
X1632205Y-187674D01*
X1632205Y-187674D02*
X1632205Y-206722D01*
D11*
X-75000Y-602500D02*
X0Y-677500D01*
X0Y-602500D02*
X-75000Y-677500D01*
D10*
X298872Y-531484D02*
X317920Y-531484D01*
X317920Y-531484D02*
X336967Y-541008D01*
X336967Y-541008D02*
X346491Y-550531D01*
X346491Y-550531D02*
X356015Y-569579D01*
X356015Y-569579D02*
X365539Y-607674D01*
X365539Y-607674D02*
X365539Y-655293D01*
X365539Y-655293D02*
X356015Y-693389D01*
X356015Y-693389D02*
X346491Y-712436D01*
X346491Y-712436D02*
X336967Y-721960D01*
X336967Y-721960D02*
X317920Y-731484D01*
X317920Y-731484D02*
X298872Y-731484D01*
X298872Y-731484D02*
X279824Y-721960D01*
X279824Y-721960D02*
X270301Y-712436D01*
X270301Y-712436D02*
X260777Y-693389D01*
X260777Y-693389D02*
X251253Y-655293D01*
X251253Y-655293D02*
X251253Y-607674D01*
X251253Y-607674D02*
X260777Y-569579D01*
X260777Y-569579D02*
X270301Y-550531D01*
X270301Y-550531D02*
X279824Y-541008D01*
X279824Y-541008D02*
X298872Y-531484D01*
X451253Y-712436D02*
X460777Y-721960D01*
X460777Y-721960D02*
X451253Y-731484D01*
X451253Y-731484D02*
X441729Y-721960D01*
X441729Y-721960D02*
X451253Y-712436D01*
X451253Y-712436D02*
X451253Y-731484D01*
X527444Y-531484D02*
X660777Y-531484D01*
X660777Y-531484D02*
X575063Y-731484D01*
X832205Y-531484D02*
X736967Y-531484D01*
X736967Y-531484D02*
X727443Y-626722D01*
X727443Y-626722D02*
X736967Y-617198D01*
X736967Y-617198D02*
X756015Y-607674D01*
X756015Y-607674D02*
X803634Y-607674D01*
X803634Y-607674D02*
X822682Y-617198D01*
X822682Y-617198D02*
X832205Y-626722D01*
X832205Y-626722D02*
X841729Y-645770D01*
X841729Y-645770D02*
X841729Y-693389D01*
X841729Y-693389D02*
X832205Y-712436D01*
X832205Y-712436D02*
X822682Y-721960D01*
X822682Y-721960D02*
X803634Y-731484D01*
X803634Y-731484D02*
X756015Y-731484D01*
X756015Y-731484D02*
X736967Y-721960D01*
X736967Y-721960D02*
X727443Y-712436D01*
X965539Y-531484D02*
X984586Y-531484D01*
X984586Y-531484D02*
X1003634Y-541008D01*
X1003634Y-541008D02*
X1013158Y-550531D01*
X1013158Y-550531D02*
X1022682Y-569579D01*
X1022682Y-569579D02*
X1032205Y-607674D01*
X1032205Y-607674D02*
X1032205Y-655293D01*
X1032205Y-655293D02*
X1022682Y-693389D01*
X1022682Y-693389D02*
X1013158Y-712436D01*
X1013158Y-712436D02*
X1003634Y-721960D01*
X1003634Y-721960D02*
X984586Y-731484D01*
X984586Y-731484D02*
X965539Y-731484D01*
X965539Y-731484D02*
X946491Y-721960D01*
X946491Y-721960D02*
X936967Y-712436D01*
X936967Y-712436D02*
X927443Y-693389D01*
X927443Y-693389D02*
X917920Y-655293D01*
X917920Y-655293D02*
X917920Y-607674D01*
X917920Y-607674D02*
X927443Y-569579D01*
X927443Y-569579D02*
X936967Y-550531D01*
X936967Y-550531D02*
X946491Y-541008D01*
X946491Y-541008D02*
X965539Y-531484D01*
X1117920Y-731484D02*
X1117920Y-598150D01*
X1117920Y-617198D02*
X1127444Y-607674D01*
X1127444Y-607674D02*
X1146491Y-598150D01*
X1146491Y-598150D02*
X1175063Y-598150D01*
X1175063Y-598150D02*
X1194110Y-607674D01*
X1194110Y-607674D02*
X1203634Y-626722D01*
X1203634Y-626722D02*
X1203634Y-731484D01*
X1203634Y-626722D02*
X1213158Y-607674D01*
X1213158Y-607674D02*
X1232205Y-598150D01*
X1232205Y-598150D02*
X1260777Y-598150D01*
X1260777Y-598150D02*
X1279825Y-607674D01*
X1279825Y-607674D02*
X1289348Y-626722D01*
X1289348Y-626722D02*
X1289348Y-731484D01*
X1384586Y-731484D02*
X1384586Y-598150D01*
X1384586Y-617198D02*
X1394110Y-607674D01*
X1394110Y-607674D02*
X1413158Y-598150D01*
X1413158Y-598150D02*
X1441729Y-598150D01*
X1441729Y-598150D02*
X1460777Y-607674D01*
X1460777Y-607674D02*
X1470301Y-626722D01*
X1470301Y-626722D02*
X1470301Y-731484D01*
X1470301Y-626722D02*
X1479824Y-607674D01*
X1479824Y-607674D02*
X1498872Y-598150D01*
X1498872Y-598150D02*
X1527443Y-598150D01*
X1527443Y-598150D02*
X1546491Y-607674D01*
X1546491Y-607674D02*
X1556015Y-626722D01*
X1556015Y-626722D02*
X1556015Y-731484D01*
X1946491Y-521960D02*
X1775063Y-779103D01*
X2203634Y-531484D02*
X2222682Y-531484D01*
X2222682Y-531484D02*
X2241729Y-541008D01*
X2241729Y-541008D02*
X2251253Y-550531D01*
X2251253Y-550531D02*
X2260777Y-569579D01*
X2260777Y-569579D02*
X2270301Y-607674D01*
X2270301Y-607674D02*
X2270301Y-655293D01*
X2270301Y-655293D02*
X2260777Y-693389D01*
X2260777Y-693389D02*
X2251253Y-712436D01*
X2251253Y-712436D02*
X2241729Y-721960D01*
X2241729Y-721960D02*
X2222682Y-731484D01*
X2222682Y-731484D02*
X2203634Y-731484D01*
X2203634Y-731484D02*
X2184587Y-721960D01*
X2184587Y-721960D02*
X2175063Y-712436D01*
X2175063Y-712436D02*
X2165539Y-693389D01*
X2165539Y-693389D02*
X2156015Y-655293D01*
X2156015Y-655293D02*
X2156015Y-607674D01*
X2156015Y-607674D02*
X2165539Y-569579D01*
X2165539Y-569579D02*
X2175063Y-550531D01*
X2175063Y-550531D02*
X2184587Y-541008D01*
X2184587Y-541008D02*
X2203634Y-531484D01*
X2356015Y-712436D02*
X2365539Y-721960D01*
X2365539Y-721960D02*
X2356015Y-731484D01*
X2356015Y-731484D02*
X2346491Y-721960D01*
X2346491Y-721960D02*
X2356015Y-712436D01*
X2356015Y-712436D02*
X2356015Y-731484D01*
X2489348Y-531484D02*
X2508396Y-531484D01*
X2508396Y-531484D02*
X2527444Y-541008D01*
X2527444Y-541008D02*
X2536968Y-550531D01*
X2536968Y-550531D02*
X2546491Y-569579D01*
X2546491Y-569579D02*
X2556015Y-607674D01*
X2556015Y-607674D02*
X2556015Y-655293D01*
X2556015Y-655293D02*
X2546491Y-693389D01*
X2546491Y-693389D02*
X2536968Y-712436D01*
X2536968Y-712436D02*
X2527444Y-721960D01*
X2527444Y-721960D02*
X2508396Y-731484D01*
X2508396Y-731484D02*
X2489348Y-731484D01*
X2489348Y-731484D02*
X2470301Y-721960D01*
X2470301Y-721960D02*
X2460777Y-712436D01*
X2460777Y-712436D02*
X2451253Y-693389D01*
X2451253Y-693389D02*
X2441729Y-655293D01*
X2441729Y-655293D02*
X2441729Y-607674D01*
X2441729Y-607674D02*
X2451253Y-569579D01*
X2451253Y-569579D02*
X2460777Y-550531D01*
X2460777Y-550531D02*
X2470301Y-541008D01*
X2470301Y-541008D02*
X2489348Y-531484D01*
X2632206Y-550531D02*
X2641729Y-541008D01*
X2641729Y-541008D02*
X2660777Y-531484D01*
X2660777Y-531484D02*
X2708396Y-531484D01*
X2708396Y-531484D02*
X2727444Y-541008D01*
X2727444Y-541008D02*
X2736968Y-550531D01*
X2736968Y-550531D02*
X2746491Y-569579D01*
X2746491Y-569579D02*
X2746491Y-588627D01*
X2746491Y-588627D02*
X2736968Y-617198D01*
X2736968Y-617198D02*
X2622682Y-731484D01*
X2622682Y-731484D02*
X2746491Y-731484D01*
X2841729Y-731484D02*
X2879825Y-731484D01*
X2879825Y-731484D02*
X2898872Y-721960D01*
X2898872Y-721960D02*
X2908396Y-712436D01*
X2908396Y-712436D02*
X2927444Y-683865D01*
X2927444Y-683865D02*
X2936967Y-645770D01*
X2936967Y-645770D02*
X2936967Y-569579D01*
X2936967Y-569579D02*
X2927444Y-550531D01*
X2927444Y-550531D02*
X2917920Y-541008D01*
X2917920Y-541008D02*
X2898872Y-531484D01*
X2898872Y-531484D02*
X2860777Y-531484D01*
X2860777Y-531484D02*
X2841729Y-541008D01*
X2841729Y-541008D02*
X2832206Y-550531D01*
X2832206Y-550531D02*
X2822682Y-569579D01*
X2822682Y-569579D02*
X2822682Y-617198D01*
X2822682Y-617198D02*
X2832206Y-636246D01*
X2832206Y-636246D02*
X2841729Y-645770D01*
X2841729Y-645770D02*
X2860777Y-655293D01*
X2860777Y-655293D02*
X2898872Y-655293D01*
X2898872Y-655293D02*
X2917920Y-645770D01*
X2917920Y-645770D02*
X2927444Y-636246D01*
X2927444Y-636246D02*
X2936967Y-617198D01*
X3117920Y-531484D02*
X3022682Y-531484D01*
X3022682Y-531484D02*
X3013158Y-626722D01*
X3013158Y-626722D02*
X3022682Y-617198D01*
X3022682Y-617198D02*
X3041729Y-607674D01*
X3041729Y-607674D02*
X3089348Y-607674D01*
X3089348Y-607674D02*
X3108396Y-617198D01*
X3108396Y-617198D02*
X3117920Y-626722D01*
X3117920Y-626722D02*
X3127444Y-645770D01*
X3127444Y-645770D02*
X3127444Y-693389D01*
X3127444Y-693389D02*
X3117920Y-712436D01*
X3117920Y-712436D02*
X3108396Y-721960D01*
X3108396Y-721960D02*
X3089348Y-731484D01*
X3089348Y-731484D02*
X3041729Y-731484D01*
X3041729Y-731484D02*
X3022682Y-721960D01*
X3022682Y-721960D02*
X3013158Y-712436D01*
X3203634Y-531484D02*
X3203634Y-569579D01*
X3279825Y-531484D02*
X3279825Y-569579D01*
X3575063Y-807674D02*
X3565539Y-798150D01*
X3565539Y-798150D02*
X3546491Y-769579D01*
X3546491Y-769579D02*
X3536968Y-750531D01*
X3536968Y-750531D02*
X3527444Y-721960D01*
X3527444Y-721960D02*
X3517920Y-674341D01*
X3517920Y-674341D02*
X3517920Y-636246D01*
X3517920Y-636246D02*
X3527444Y-588627D01*
X3527444Y-588627D02*
X3536968Y-560055D01*
X3536968Y-560055D02*
X3546491Y-541008D01*
X3546491Y-541008D02*
X3565539Y-512436D01*
X3565539Y-512436D02*
X3575063Y-502912D01*
X3632206Y-531484D02*
X3756015Y-531484D01*
X3756015Y-531484D02*
X3689348Y-607674D01*
X3689348Y-607674D02*
X3717920Y-607674D01*
X3717920Y-607674D02*
X3736968Y-617198D01*
X3736968Y-617198D02*
X3746491Y-626722D01*
X3746491Y-626722D02*
X3756015Y-645770D01*
X3756015Y-645770D02*
X3756015Y-693389D01*
X3756015Y-693389D02*
X3746491Y-712436D01*
X3746491Y-712436D02*
X3736968Y-721960D01*
X3736968Y-721960D02*
X3717920Y-731484D01*
X3717920Y-731484D02*
X3660777Y-731484D01*
X3660777Y-731484D02*
X3641729Y-721960D01*
X3641729Y-721960D02*
X3632206Y-712436D01*
X3994110Y-731484D02*
X3994110Y-531484D01*
X4079825Y-731484D02*
X4079825Y-626722D01*
X4079825Y-626722D02*
X4070301Y-607674D01*
X4070301Y-607674D02*
X4051253Y-598150D01*
X4051253Y-598150D02*
X4022682Y-598150D01*
X4022682Y-598150D02*
X4003634Y-607674D01*
X4003634Y-607674D02*
X3994110Y-617198D01*
X4203634Y-731484D02*
X4184587Y-721960D01*
X4184587Y-721960D02*
X4175063Y-712436D01*
X4175063Y-712436D02*
X4165539Y-693389D01*
X4165539Y-693389D02*
X4165539Y-636246D01*
X4165539Y-636246D02*
X4175063Y-617198D01*
X4175063Y-617198D02*
X4184587Y-607674D01*
X4184587Y-607674D02*
X4203634Y-598150D01*
X4203634Y-598150D02*
X4232206Y-598150D01*
X4232206Y-598150D02*
X4251253Y-607674D01*
X4251253Y-607674D02*
X4260777Y-617198D01*
X4260777Y-617198D02*
X4270301Y-636246D01*
X4270301Y-636246D02*
X4270301Y-693389D01*
X4270301Y-693389D02*
X4260777Y-712436D01*
X4260777Y-712436D02*
X4251253Y-721960D01*
X4251253Y-721960D02*
X4232206Y-731484D01*
X4232206Y-731484D02*
X4203634Y-731484D01*
X4384587Y-731484D02*
X4365539Y-721960D01*
X4365539Y-721960D02*
X4356015Y-702912D01*
X4356015Y-702912D02*
X4356015Y-531484D01*
X4536968Y-721960D02*
X4517920Y-731484D01*
X4517920Y-731484D02*
X4479825Y-731484D01*
X4479825Y-731484D02*
X4460777Y-721960D01*
X4460777Y-721960D02*
X4451253Y-702912D01*
X4451253Y-702912D02*
X4451253Y-626722D01*
X4451253Y-626722D02*
X4460777Y-607674D01*
X4460777Y-607674D02*
X4479825Y-598150D01*
X4479825Y-598150D02*
X4517920Y-598150D01*
X4517920Y-598150D02*
X4536968Y-607674D01*
X4536968Y-607674D02*
X4546492Y-626722D01*
X4546492Y-626722D02*
X4546492Y-645770D01*
X4546492Y-645770D02*
X4451253Y-664817D01*
X4622682Y-721960D02*
X4641730Y-731484D01*
X4641730Y-731484D02*
X4679825Y-731484D01*
X4679825Y-731484D02*
X4698873Y-721960D01*
X4698873Y-721960D02*
X4708396Y-702912D01*
X4708396Y-702912D02*
X4708396Y-693389D01*
X4708396Y-693389D02*
X4698873Y-674341D01*
X4698873Y-674341D02*
X4679825Y-664817D01*
X4679825Y-664817D02*
X4651253Y-664817D01*
X4651253Y-664817D02*
X4632206Y-655293D01*
X4632206Y-655293D02*
X4622682Y-636246D01*
X4622682Y-636246D02*
X4622682Y-626722D01*
X4622682Y-626722D02*
X4632206Y-607674D01*
X4632206Y-607674D02*
X4651253Y-598150D01*
X4651253Y-598150D02*
X4679825Y-598150D01*
X4679825Y-598150D02*
X4698873Y-607674D01*
X4775063Y-807674D02*
X4784587Y-798150D01*
X4784587Y-798150D02*
X4803634Y-769579D01*
X4803634Y-769579D02*
X4813158Y-750531D01*
X4813158Y-750531D02*
X4822682Y-721960D01*
X4822682Y-721960D02*
X4832206Y-674341D01*
X4832206Y-674341D02*
X4832206Y-636246D01*
X4832206Y-636246D02*
X4822682Y-588627D01*
X4822682Y-588627D02*
X4813158Y-560055D01*
X4813158Y-560055D02*
X4803634Y-541008D01*
X4803634Y-541008D02*
X4784587Y-512436D01*
X4784587Y-512436D02*
X4775063Y-502912D01*
D12*
X0Y-904000D02*
G75*
G03*
X0Y-904000I-38100J0D01*
G01*
D10*
X298872Y-795484D02*
X317920Y-795484D01*
X317920Y-795484D02*
X336967Y-805008D01*
X336967Y-805008D02*
X346491Y-814531D01*
X346491Y-814531D02*
X356015Y-833579D01*
X356015Y-833579D02*
X365539Y-871674D01*
X365539Y-871674D02*
X365539Y-919293D01*
X365539Y-919293D02*
X356015Y-957388D01*
X356015Y-957388D02*
X346491Y-976436D01*
X346491Y-976436D02*
X336967Y-985960D01*
X336967Y-985960D02*
X317920Y-995484D01*
X317920Y-995484D02*
X298872Y-995484D01*
X298872Y-995484D02*
X279824Y-985960D01*
X279824Y-985960D02*
X270301Y-976436D01*
X270301Y-976436D02*
X260777Y-957388D01*
X260777Y-957388D02*
X251253Y-919293D01*
X251253Y-919293D02*
X251253Y-871674D01*
X251253Y-871674D02*
X260777Y-833579D01*
X260777Y-833579D02*
X270301Y-814531D01*
X270301Y-814531D02*
X279824Y-805008D01*
X279824Y-805008D02*
X298872Y-795484D01*
X451253Y-976436D02*
X460777Y-985960D01*
X460777Y-985960D02*
X451253Y-995484D01*
X451253Y-995484D02*
X441729Y-985960D01*
X441729Y-985960D02*
X451253Y-976436D01*
X451253Y-976436D02*
X451253Y-995484D01*
X527444Y-795484D02*
X660777Y-795484D01*
X660777Y-795484D02*
X575063Y-995484D01*
X822682Y-795484D02*
X784586Y-795484D01*
X784586Y-795484D02*
X765539Y-805008D01*
X765539Y-805008D02*
X756015Y-814531D01*
X756015Y-814531D02*
X736967Y-843103D01*
X736967Y-843103D02*
X727443Y-881198D01*
X727443Y-881198D02*
X727443Y-957388D01*
X727443Y-957388D02*
X736967Y-976436D01*
X736967Y-976436D02*
X746491Y-985960D01*
X746491Y-985960D02*
X765539Y-995484D01*
X765539Y-995484D02*
X803634Y-995484D01*
X803634Y-995484D02*
X822682Y-985960D01*
X822682Y-985960D02*
X832205Y-976436D01*
X832205Y-976436D02*
X841729Y-957388D01*
X841729Y-957388D02*
X841729Y-909769D01*
X841729Y-909769D02*
X832205Y-890722D01*
X832205Y-890722D02*
X822682Y-881198D01*
X822682Y-881198D02*
X803634Y-871674D01*
X803634Y-871674D02*
X765539Y-871674D01*
X765539Y-871674D02*
X746491Y-881198D01*
X746491Y-881198D02*
X736967Y-890722D01*
X736967Y-890722D02*
X727443Y-909769D01*
X917920Y-814531D02*
X927443Y-805008D01*
X927443Y-805008D02*
X946491Y-795484D01*
X946491Y-795484D02*
X994110Y-795484D01*
X994110Y-795484D02*
X1013158Y-805008D01*
X1013158Y-805008D02*
X1022682Y-814531D01*
X1022682Y-814531D02*
X1032205Y-833579D01*
X1032205Y-833579D02*
X1032205Y-852627D01*
X1032205Y-852627D02*
X1022682Y-881198D01*
X1022682Y-881198D02*
X908396Y-995484D01*
X908396Y-995484D02*
X1032205Y-995484D01*
X1117920Y-995484D02*
X1117920Y-862150D01*
X1117920Y-881198D02*
X1127444Y-871674D01*
X1127444Y-871674D02*
X1146491Y-862150D01*
X1146491Y-862150D02*
X1175063Y-862150D01*
X1175063Y-862150D02*
X1194110Y-871674D01*
X1194110Y-871674D02*
X1203634Y-890722D01*
X1203634Y-890722D02*
X1203634Y-995484D01*
X1203634Y-890722D02*
X1213158Y-871674D01*
X1213158Y-871674D02*
X1232205Y-862150D01*
X1232205Y-862150D02*
X1260777Y-862150D01*
X1260777Y-862150D02*
X1279825Y-871674D01*
X1279825Y-871674D02*
X1289348Y-890722D01*
X1289348Y-890722D02*
X1289348Y-995484D01*
X1384586Y-995484D02*
X1384586Y-862150D01*
X1384586Y-881198D02*
X1394110Y-871674D01*
X1394110Y-871674D02*
X1413158Y-862150D01*
X1413158Y-862150D02*
X1441729Y-862150D01*
X1441729Y-862150D02*
X1460777Y-871674D01*
X1460777Y-871674D02*
X1470301Y-890722D01*
X1470301Y-890722D02*
X1470301Y-995484D01*
X1470301Y-890722D02*
X1479824Y-871674D01*
X1479824Y-871674D02*
X1498872Y-862150D01*
X1498872Y-862150D02*
X1527443Y-862150D01*
X1527443Y-862150D02*
X1546491Y-871674D01*
X1546491Y-871674D02*
X1556015Y-890722D01*
X1556015Y-890722D02*
X1556015Y-995484D01*
X1946491Y-785960D02*
X1775063Y-1043103D01*
X2203634Y-795484D02*
X2222682Y-795484D01*
X2222682Y-795484D02*
X2241729Y-805008D01*
X2241729Y-805008D02*
X2251253Y-814531D01*
X2251253Y-814531D02*
X2260777Y-833579D01*
X2260777Y-833579D02*
X2270301Y-871674D01*
X2270301Y-871674D02*
X2270301Y-919293D01*
X2270301Y-919293D02*
X2260777Y-957388D01*
X2260777Y-957388D02*
X2251253Y-976436D01*
X2251253Y-976436D02*
X2241729Y-985960D01*
X2241729Y-985960D02*
X2222682Y-995484D01*
X2222682Y-995484D02*
X2203634Y-995484D01*
X2203634Y-995484D02*
X2184587Y-985960D01*
X2184587Y-985960D02*
X2175063Y-976436D01*
X2175063Y-976436D02*
X2165539Y-957388D01*
X2165539Y-957388D02*
X2156015Y-919293D01*
X2156015Y-919293D02*
X2156015Y-871674D01*
X2156015Y-871674D02*
X2165539Y-833579D01*
X2165539Y-833579D02*
X2175063Y-814531D01*
X2175063Y-814531D02*
X2184587Y-805008D01*
X2184587Y-805008D02*
X2203634Y-795484D01*
X2356015Y-976436D02*
X2365539Y-985960D01*
X2365539Y-985960D02*
X2356015Y-995484D01*
X2356015Y-995484D02*
X2346491Y-985960D01*
X2346491Y-985960D02*
X2356015Y-976436D01*
X2356015Y-976436D02*
X2356015Y-995484D01*
X2489348Y-795484D02*
X2508396Y-795484D01*
X2508396Y-795484D02*
X2527444Y-805008D01*
X2527444Y-805008D02*
X2536968Y-814531D01*
X2536968Y-814531D02*
X2546491Y-833579D01*
X2546491Y-833579D02*
X2556015Y-871674D01*
X2556015Y-871674D02*
X2556015Y-919293D01*
X2556015Y-919293D02*
X2546491Y-957388D01*
X2546491Y-957388D02*
X2536968Y-976436D01*
X2536968Y-976436D02*
X2527444Y-985960D01*
X2527444Y-985960D02*
X2508396Y-995484D01*
X2508396Y-995484D02*
X2489348Y-995484D01*
X2489348Y-995484D02*
X2470301Y-985960D01*
X2470301Y-985960D02*
X2460777Y-976436D01*
X2460777Y-976436D02*
X2451253Y-957388D01*
X2451253Y-957388D02*
X2441729Y-919293D01*
X2441729Y-919293D02*
X2441729Y-871674D01*
X2441729Y-871674D02*
X2451253Y-833579D01*
X2451253Y-833579D02*
X2460777Y-814531D01*
X2460777Y-814531D02*
X2470301Y-805008D01*
X2470301Y-805008D02*
X2489348Y-795484D01*
X2622682Y-795484D02*
X2746491Y-795484D01*
X2746491Y-795484D02*
X2679825Y-871674D01*
X2679825Y-871674D02*
X2708396Y-871674D01*
X2708396Y-871674D02*
X2727444Y-881198D01*
X2727444Y-881198D02*
X2736968Y-890722D01*
X2736968Y-890722D02*
X2746491Y-909769D01*
X2746491Y-909769D02*
X2746491Y-957388D01*
X2746491Y-957388D02*
X2736968Y-976436D01*
X2736968Y-976436D02*
X2727444Y-985960D01*
X2727444Y-985960D02*
X2708396Y-995484D01*
X2708396Y-995484D02*
X2651253Y-995484D01*
X2651253Y-995484D02*
X2632206Y-985960D01*
X2632206Y-985960D02*
X2622682Y-976436D01*
X2870301Y-795484D02*
X2889348Y-795484D01*
X2889348Y-795484D02*
X2908396Y-805008D01*
X2908396Y-805008D02*
X2917920Y-814531D01*
X2917920Y-814531D02*
X2927444Y-833579D01*
X2927444Y-833579D02*
X2936967Y-871674D01*
X2936967Y-871674D02*
X2936967Y-919293D01*
X2936967Y-919293D02*
X2927444Y-957388D01*
X2927444Y-957388D02*
X2917920Y-976436D01*
X2917920Y-976436D02*
X2908396Y-985960D01*
X2908396Y-985960D02*
X2889348Y-995484D01*
X2889348Y-995484D02*
X2870301Y-995484D01*
X2870301Y-995484D02*
X2851253Y-985960D01*
X2851253Y-985960D02*
X2841729Y-976436D01*
X2841729Y-976436D02*
X2832206Y-957388D01*
X2832206Y-957388D02*
X2822682Y-919293D01*
X2822682Y-919293D02*
X2822682Y-871674D01*
X2822682Y-871674D02*
X2832206Y-833579D01*
X2832206Y-833579D02*
X2841729Y-814531D01*
X2841729Y-814531D02*
X2851253Y-805008D01*
X2851253Y-805008D02*
X2870301Y-795484D01*
X3060777Y-795484D02*
X3079825Y-795484D01*
X3079825Y-795484D02*
X3098872Y-805008D01*
X3098872Y-805008D02*
X3108396Y-814531D01*
X3108396Y-814531D02*
X3117920Y-833579D01*
X3117920Y-833579D02*
X3127444Y-871674D01*
X3127444Y-871674D02*
X3127444Y-919293D01*
X3127444Y-919293D02*
X3117920Y-957388D01*
X3117920Y-957388D02*
X3108396Y-976436D01*
X3108396Y-976436D02*
X3098872Y-985960D01*
X3098872Y-985960D02*
X3079825Y-995484D01*
X3079825Y-995484D02*
X3060777Y-995484D01*
X3060777Y-995484D02*
X3041729Y-985960D01*
X3041729Y-985960D02*
X3032206Y-976436D01*
X3032206Y-976436D02*
X3022682Y-957388D01*
X3022682Y-957388D02*
X3013158Y-919293D01*
X3013158Y-919293D02*
X3013158Y-871674D01*
X3013158Y-871674D02*
X3022682Y-833579D01*
X3022682Y-833579D02*
X3032206Y-814531D01*
X3032206Y-814531D02*
X3041729Y-805008D01*
X3041729Y-805008D02*
X3060777Y-795484D01*
X3203634Y-795484D02*
X3203634Y-833579D01*
X3279825Y-795484D02*
X3279825Y-833579D01*
X3575063Y-1071674D02*
X3565539Y-1062150D01*
X3565539Y-1062150D02*
X3546491Y-1033579D01*
X3546491Y-1033579D02*
X3536968Y-1014531D01*
X3536968Y-1014531D02*
X3527444Y-985960D01*
X3527444Y-985960D02*
X3517920Y-938341D01*
X3517920Y-938341D02*
X3517920Y-900246D01*
X3517920Y-900246D02*
X3527444Y-852627D01*
X3527444Y-852627D02*
X3536968Y-824055D01*
X3536968Y-824055D02*
X3546491Y-805008D01*
X3546491Y-805008D02*
X3565539Y-776436D01*
X3565539Y-776436D02*
X3575063Y-766912D01*
X3736968Y-795484D02*
X3698872Y-795484D01*
X3698872Y-795484D02*
X3679825Y-805008D01*
X3679825Y-805008D02*
X3670301Y-814531D01*
X3670301Y-814531D02*
X3651253Y-843103D01*
X3651253Y-843103D02*
X3641729Y-881198D01*
X3641729Y-881198D02*
X3641729Y-957388D01*
X3641729Y-957388D02*
X3651253Y-976436D01*
X3651253Y-976436D02*
X3660777Y-985960D01*
X3660777Y-985960D02*
X3679825Y-995484D01*
X3679825Y-995484D02*
X3717920Y-995484D01*
X3717920Y-995484D02*
X3736968Y-985960D01*
X3736968Y-985960D02*
X3746491Y-976436D01*
X3746491Y-976436D02*
X3756015Y-957388D01*
X3756015Y-957388D02*
X3756015Y-909769D01*
X3756015Y-909769D02*
X3746491Y-890722D01*
X3746491Y-890722D02*
X3736968Y-881198D01*
X3736968Y-881198D02*
X3717920Y-871674D01*
X3717920Y-871674D02*
X3679825Y-871674D01*
X3679825Y-871674D02*
X3660777Y-881198D01*
X3660777Y-881198D02*
X3651253Y-890722D01*
X3651253Y-890722D02*
X3641729Y-909769D01*
X3994110Y-995484D02*
X3994110Y-795484D01*
X4079825Y-995484D02*
X4079825Y-890722D01*
X4079825Y-890722D02*
X4070301Y-871674D01*
X4070301Y-871674D02*
X4051253Y-862150D01*
X4051253Y-862150D02*
X4022682Y-862150D01*
X4022682Y-862150D02*
X4003634Y-871674D01*
X4003634Y-871674D02*
X3994110Y-881198D01*
X4203634Y-995484D02*
X4184587Y-985960D01*
X4184587Y-985960D02*
X4175063Y-976436D01*
X4175063Y-976436D02*
X4165539Y-957388D01*
X4165539Y-957388D02*
X4165539Y-900246D01*
X4165539Y-900246D02*
X4175063Y-881198D01*
X4175063Y-881198D02*
X4184587Y-871674D01*
X4184587Y-871674D02*
X4203634Y-862150D01*
X4203634Y-862150D02*
X4232206Y-862150D01*
X4232206Y-862150D02*
X4251253Y-871674D01*
X4251253Y-871674D02*
X4260777Y-881198D01*
X4260777Y-881198D02*
X4270301Y-900246D01*
X4270301Y-900246D02*
X4270301Y-957388D01*
X4270301Y-957388D02*
X4260777Y-976436D01*
X4260777Y-976436D02*
X4251253Y-985960D01*
X4251253Y-985960D02*
X4232206Y-995484D01*
X4232206Y-995484D02*
X4203634Y-995484D01*
X4384587Y-995484D02*
X4365539Y-985960D01*
X4365539Y-985960D02*
X4356015Y-966912D01*
X4356015Y-966912D02*
X4356015Y-795484D01*
X4536968Y-985960D02*
X4517920Y-995484D01*
X4517920Y-995484D02*
X4479825Y-995484D01*
X4479825Y-995484D02*
X4460777Y-985960D01*
X4460777Y-985960D02*
X4451253Y-966912D01*
X4451253Y-966912D02*
X4451253Y-890722D01*
X4451253Y-890722D02*
X4460777Y-871674D01*
X4460777Y-871674D02*
X4479825Y-862150D01*
X4479825Y-862150D02*
X4517920Y-862150D01*
X4517920Y-862150D02*
X4536968Y-871674D01*
X4536968Y-871674D02*
X4546492Y-890722D01*
X4546492Y-890722D02*
X4546492Y-909769D01*
X4546492Y-909769D02*
X4451253Y-928817D01*
X4622682Y-985960D02*
X4641730Y-995484D01*
X4641730Y-995484D02*
X4679825Y-995484D01*
X4679825Y-995484D02*
X4698873Y-985960D01*
X4698873Y-985960D02*
X4708396Y-966912D01*
X4708396Y-966912D02*
X4708396Y-957388D01*
X4708396Y-957388D02*
X4698873Y-938341D01*
X4698873Y-938341D02*
X4679825Y-928817D01*
X4679825Y-928817D02*
X4651253Y-928817D01*
X4651253Y-928817D02*
X4632206Y-919293D01*
X4632206Y-919293D02*
X4622682Y-900246D01*
X4622682Y-900246D02*
X4622682Y-890722D01*
X4622682Y-890722D02*
X4632206Y-871674D01*
X4632206Y-871674D02*
X4651253Y-862150D01*
X4651253Y-862150D02*
X4679825Y-862150D01*
X4679825Y-862150D02*
X4698873Y-871674D01*
X4775063Y-1071674D02*
X4784587Y-1062150D01*
X4784587Y-1062150D02*
X4803634Y-1033579D01*
X4803634Y-1033579D02*
X4813158Y-1014531D01*
X4813158Y-1014531D02*
X4822682Y-985960D01*
X4822682Y-985960D02*
X4832206Y-938341D01*
X4832206Y-938341D02*
X4832206Y-900246D01*
X4832206Y-900246D02*
X4822682Y-852627D01*
X4822682Y-852627D02*
X4813158Y-824055D01*
X4813158Y-824055D02*
X4803634Y-805008D01*
X4803634Y-805008D02*
X4784587Y-776436D01*
X4784587Y-776436D02*
X4775063Y-766912D01*
D13*
X-40000Y-1128000D02*
X-40000Y-1208000D01*
X-80000Y-1168000D02*
X0Y-1168000D01*
D10*
X298872Y-1059484D02*
X317920Y-1059484D01*
X317920Y-1059484D02*
X336967Y-1069008D01*
X336967Y-1069008D02*
X346491Y-1078531D01*
X346491Y-1078531D02*
X356015Y-1097579D01*
X356015Y-1097579D02*
X365539Y-1135674D01*
X365539Y-1135674D02*
X365539Y-1183293D01*
X365539Y-1183293D02*
X356015Y-1221389D01*
X356015Y-1221389D02*
X346491Y-1240436D01*
X346491Y-1240436D02*
X336967Y-1249960D01*
X336967Y-1249960D02*
X317920Y-1259484D01*
X317920Y-1259484D02*
X298872Y-1259484D01*
X298872Y-1259484D02*
X279824Y-1249960D01*
X279824Y-1249960D02*
X270301Y-1240436D01*
X270301Y-1240436D02*
X260777Y-1221389D01*
X260777Y-1221389D02*
X251253Y-1183293D01*
X251253Y-1183293D02*
X251253Y-1135674D01*
X251253Y-1135674D02*
X260777Y-1097579D01*
X260777Y-1097579D02*
X270301Y-1078531D01*
X270301Y-1078531D02*
X279824Y-1069008D01*
X279824Y-1069008D02*
X298872Y-1059484D01*
X451253Y-1240436D02*
X460777Y-1249960D01*
X460777Y-1249960D02*
X451253Y-1259484D01*
X451253Y-1259484D02*
X441729Y-1249960D01*
X441729Y-1249960D02*
X451253Y-1240436D01*
X451253Y-1240436D02*
X451253Y-1259484D01*
X575063Y-1145198D02*
X556015Y-1135674D01*
X556015Y-1135674D02*
X546491Y-1126150D01*
X546491Y-1126150D02*
X536967Y-1107103D01*
X536967Y-1107103D02*
X536967Y-1097579D01*
X536967Y-1097579D02*
X546491Y-1078531D01*
X546491Y-1078531D02*
X556015Y-1069008D01*
X556015Y-1069008D02*
X575063Y-1059484D01*
X575063Y-1059484D02*
X613158Y-1059484D01*
X613158Y-1059484D02*
X632205Y-1069008D01*
X632205Y-1069008D02*
X641729Y-1078531D01*
X641729Y-1078531D02*
X651253Y-1097579D01*
X651253Y-1097579D02*
X651253Y-1107103D01*
X651253Y-1107103D02*
X641729Y-1126150D01*
X641729Y-1126150D02*
X632205Y-1135674D01*
X632205Y-1135674D02*
X613158Y-1145198D01*
X613158Y-1145198D02*
X575063Y-1145198D01*
X575063Y-1145198D02*
X556015Y-1154722D01*
X556015Y-1154722D02*
X546491Y-1164246D01*
X546491Y-1164246D02*
X536967Y-1183293D01*
X536967Y-1183293D02*
X536967Y-1221389D01*
X536967Y-1221389D02*
X546491Y-1240436D01*
X546491Y-1240436D02*
X556015Y-1249960D01*
X556015Y-1249960D02*
X575063Y-1259484D01*
X575063Y-1259484D02*
X613158Y-1259484D01*
X613158Y-1259484D02*
X632205Y-1249960D01*
X632205Y-1249960D02*
X641729Y-1240436D01*
X641729Y-1240436D02*
X651253Y-1221389D01*
X651253Y-1221389D02*
X651253Y-1183293D01*
X651253Y-1183293D02*
X641729Y-1164246D01*
X641729Y-1164246D02*
X632205Y-1154722D01*
X632205Y-1154722D02*
X613158Y-1145198D01*
X775062Y-1059484D02*
X794110Y-1059484D01*
X794110Y-1059484D02*
X813158Y-1069008D01*
X813158Y-1069008D02*
X822682Y-1078531D01*
X822682Y-1078531D02*
X832205Y-1097579D01*
X832205Y-1097579D02*
X841729Y-1135674D01*
X841729Y-1135674D02*
X841729Y-1183293D01*
X841729Y-1183293D02*
X832205Y-1221389D01*
X832205Y-1221389D02*
X822682Y-1240436D01*
X822682Y-1240436D02*
X813158Y-1249960D01*
X813158Y-1249960D02*
X794110Y-1259484D01*
X794110Y-1259484D02*
X775062Y-1259484D01*
X775062Y-1259484D02*
X756015Y-1249960D01*
X756015Y-1249960D02*
X746491Y-1240436D01*
X746491Y-1240436D02*
X736967Y-1221389D01*
X736967Y-1221389D02*
X727443Y-1183293D01*
X727443Y-1183293D02*
X727443Y-1135674D01*
X727443Y-1135674D02*
X736967Y-1097579D01*
X736967Y-1097579D02*
X746491Y-1078531D01*
X746491Y-1078531D02*
X756015Y-1069008D01*
X756015Y-1069008D02*
X775062Y-1059484D01*
X965539Y-1059484D02*
X984586Y-1059484D01*
X984586Y-1059484D02*
X1003634Y-1069008D01*
X1003634Y-1069008D02*
X1013158Y-1078531D01*
X1013158Y-1078531D02*
X1022682Y-1097579D01*
X1022682Y-1097579D02*
X1032205Y-1135674D01*
X1032205Y-1135674D02*
X1032205Y-1183293D01*
X1032205Y-1183293D02*
X1022682Y-1221389D01*
X1022682Y-1221389D02*
X1013158Y-1240436D01*
X1013158Y-1240436D02*
X1003634Y-1249960D01*
X1003634Y-1249960D02*
X984586Y-1259484D01*
X984586Y-1259484D02*
X965539Y-1259484D01*
X965539Y-1259484D02*
X946491Y-1249960D01*
X946491Y-1249960D02*
X936967Y-1240436D01*
X936967Y-1240436D02*
X927443Y-1221389D01*
X927443Y-1221389D02*
X917920Y-1183293D01*
X917920Y-1183293D02*
X917920Y-1135674D01*
X917920Y-1135674D02*
X927443Y-1097579D01*
X927443Y-1097579D02*
X936967Y-1078531D01*
X936967Y-1078531D02*
X946491Y-1069008D01*
X946491Y-1069008D02*
X965539Y-1059484D01*
X1117920Y-1259484D02*
X1117920Y-1126150D01*
X1117920Y-1145198D02*
X1127444Y-1135674D01*
X1127444Y-1135674D02*
X1146491Y-1126150D01*
X1146491Y-1126150D02*
X1175063Y-1126150D01*
X1175063Y-1126150D02*
X1194110Y-1135674D01*
X1194110Y-1135674D02*
X1203634Y-1154722D01*
X1203634Y-1154722D02*
X1203634Y-1259484D01*
X1203634Y-1154722D02*
X1213158Y-1135674D01*
X1213158Y-1135674D02*
X1232205Y-1126150D01*
X1232205Y-1126150D02*
X1260777Y-1126150D01*
X1260777Y-1126150D02*
X1279825Y-1135674D01*
X1279825Y-1135674D02*
X1289348Y-1154722D01*
X1289348Y-1154722D02*
X1289348Y-1259484D01*
X1384586Y-1259484D02*
X1384586Y-1126150D01*
X1384586Y-1145198D02*
X1394110Y-1135674D01*
X1394110Y-1135674D02*
X1413158Y-1126150D01*
X1413158Y-1126150D02*
X1441729Y-1126150D01*
X1441729Y-1126150D02*
X1460777Y-1135674D01*
X1460777Y-1135674D02*
X1470301Y-1154722D01*
X1470301Y-1154722D02*
X1470301Y-1259484D01*
X1470301Y-1154722D02*
X1479824Y-1135674D01*
X1479824Y-1135674D02*
X1498872Y-1126150D01*
X1498872Y-1126150D02*
X1527443Y-1126150D01*
X1527443Y-1126150D02*
X1546491Y-1135674D01*
X1546491Y-1135674D02*
X1556015Y-1154722D01*
X1556015Y-1154722D02*
X1556015Y-1259484D01*
X1946491Y-1049960D02*
X1775063Y-1307103D01*
X2203634Y-1059484D02*
X2222682Y-1059484D01*
X2222682Y-1059484D02*
X2241729Y-1069008D01*
X2241729Y-1069008D02*
X2251253Y-1078531D01*
X2251253Y-1078531D02*
X2260777Y-1097579D01*
X2260777Y-1097579D02*
X2270301Y-1135674D01*
X2270301Y-1135674D02*
X2270301Y-1183293D01*
X2270301Y-1183293D02*
X2260777Y-1221389D01*
X2260777Y-1221389D02*
X2251253Y-1240436D01*
X2251253Y-1240436D02*
X2241729Y-1249960D01*
X2241729Y-1249960D02*
X2222682Y-1259484D01*
X2222682Y-1259484D02*
X2203634Y-1259484D01*
X2203634Y-1259484D02*
X2184587Y-1249960D01*
X2184587Y-1249960D02*
X2175063Y-1240436D01*
X2175063Y-1240436D02*
X2165539Y-1221389D01*
X2165539Y-1221389D02*
X2156015Y-1183293D01*
X2156015Y-1183293D02*
X2156015Y-1135674D01*
X2156015Y-1135674D02*
X2165539Y-1097579D01*
X2165539Y-1097579D02*
X2175063Y-1078531D01*
X2175063Y-1078531D02*
X2184587Y-1069008D01*
X2184587Y-1069008D02*
X2203634Y-1059484D01*
X2356015Y-1240436D02*
X2365539Y-1249960D01*
X2365539Y-1249960D02*
X2356015Y-1259484D01*
X2356015Y-1259484D02*
X2346491Y-1249960D01*
X2346491Y-1249960D02*
X2356015Y-1240436D01*
X2356015Y-1240436D02*
X2356015Y-1259484D01*
X2489348Y-1059484D02*
X2508396Y-1059484D01*
X2508396Y-1059484D02*
X2527444Y-1069008D01*
X2527444Y-1069008D02*
X2536968Y-1078531D01*
X2536968Y-1078531D02*
X2546491Y-1097579D01*
X2546491Y-1097579D02*
X2556015Y-1135674D01*
X2556015Y-1135674D02*
X2556015Y-1183293D01*
X2556015Y-1183293D02*
X2546491Y-1221389D01*
X2546491Y-1221389D02*
X2536968Y-1240436D01*
X2536968Y-1240436D02*
X2527444Y-1249960D01*
X2527444Y-1249960D02*
X2508396Y-1259484D01*
X2508396Y-1259484D02*
X2489348Y-1259484D01*
X2489348Y-1259484D02*
X2470301Y-1249960D01*
X2470301Y-1249960D02*
X2460777Y-1240436D01*
X2460777Y-1240436D02*
X2451253Y-1221389D01*
X2451253Y-1221389D02*
X2441729Y-1183293D01*
X2441729Y-1183293D02*
X2441729Y-1135674D01*
X2441729Y-1135674D02*
X2451253Y-1097579D01*
X2451253Y-1097579D02*
X2460777Y-1078531D01*
X2460777Y-1078531D02*
X2470301Y-1069008D01*
X2470301Y-1069008D02*
X2489348Y-1059484D01*
X2622682Y-1059484D02*
X2746491Y-1059484D01*
X2746491Y-1059484D02*
X2679825Y-1135674D01*
X2679825Y-1135674D02*
X2708396Y-1135674D01*
X2708396Y-1135674D02*
X2727444Y-1145198D01*
X2727444Y-1145198D02*
X2736968Y-1154722D01*
X2736968Y-1154722D02*
X2746491Y-1173770D01*
X2746491Y-1173770D02*
X2746491Y-1221389D01*
X2746491Y-1221389D02*
X2736968Y-1240436D01*
X2736968Y-1240436D02*
X2727444Y-1249960D01*
X2727444Y-1249960D02*
X2708396Y-1259484D01*
X2708396Y-1259484D02*
X2651253Y-1259484D01*
X2651253Y-1259484D02*
X2632206Y-1249960D01*
X2632206Y-1249960D02*
X2622682Y-1240436D01*
X2936967Y-1259484D02*
X2822682Y-1259484D01*
X2879825Y-1259484D02*
X2879825Y-1059484D01*
X2879825Y-1059484D02*
X2860777Y-1088055D01*
X2860777Y-1088055D02*
X2841729Y-1107103D01*
X2841729Y-1107103D02*
X2822682Y-1116627D01*
X3117920Y-1059484D02*
X3022682Y-1059484D01*
X3022682Y-1059484D02*
X3013158Y-1154722D01*
X3013158Y-1154722D02*
X3022682Y-1145198D01*
X3022682Y-1145198D02*
X3041729Y-1135674D01*
X3041729Y-1135674D02*
X3089348Y-1135674D01*
X3089348Y-1135674D02*
X3108396Y-1145198D01*
X3108396Y-1145198D02*
X3117920Y-1154722D01*
X3117920Y-1154722D02*
X3127444Y-1173770D01*
X3127444Y-1173770D02*
X3127444Y-1221389D01*
X3127444Y-1221389D02*
X3117920Y-1240436D01*
X3117920Y-1240436D02*
X3108396Y-1249960D01*
X3108396Y-1249960D02*
X3089348Y-1259484D01*
X3089348Y-1259484D02*
X3041729Y-1259484D01*
X3041729Y-1259484D02*
X3022682Y-1249960D01*
X3022682Y-1249960D02*
X3013158Y-1240436D01*
X3203634Y-1059484D02*
X3203634Y-1097579D01*
X3279825Y-1059484D02*
X3279825Y-1097579D01*
X3575063Y-1335674D02*
X3565539Y-1326150D01*
X3565539Y-1326150D02*
X3546491Y-1297579D01*
X3546491Y-1297579D02*
X3536968Y-1278531D01*
X3536968Y-1278531D02*
X3527444Y-1249960D01*
X3527444Y-1249960D02*
X3517920Y-1202341D01*
X3517920Y-1202341D02*
X3517920Y-1164246D01*
X3517920Y-1164246D02*
X3527444Y-1116627D01*
X3527444Y-1116627D02*
X3536968Y-1088055D01*
X3536968Y-1088055D02*
X3546491Y-1069008D01*
X3546491Y-1069008D02*
X3565539Y-1040436D01*
X3565539Y-1040436D02*
X3575063Y-1030912D01*
X3756015Y-1259484D02*
X3641729Y-1259484D01*
X3698872Y-1259484D02*
X3698872Y-1059484D01*
X3698872Y-1059484D02*
X3679825Y-1088055D01*
X3679825Y-1088055D02*
X3660777Y-1107103D01*
X3660777Y-1107103D02*
X3641729Y-1116627D01*
X3832206Y-1078531D02*
X3841729Y-1069008D01*
X3841729Y-1069008D02*
X3860777Y-1059484D01*
X3860777Y-1059484D02*
X3908396Y-1059484D01*
X3908396Y-1059484D02*
X3927444Y-1069008D01*
X3927444Y-1069008D02*
X3936968Y-1078531D01*
X3936968Y-1078531D02*
X3946491Y-1097579D01*
X3946491Y-1097579D02*
X3946491Y-1116627D01*
X3946491Y-1116627D02*
X3936968Y-1145198D01*
X3936968Y-1145198D02*
X3822682Y-1259484D01*
X3822682Y-1259484D02*
X3946491Y-1259484D01*
X4184587Y-1259484D02*
X4184587Y-1059484D01*
X4270301Y-1259484D02*
X4270301Y-1154722D01*
X4270301Y-1154722D02*
X4260777Y-1135674D01*
X4260777Y-1135674D02*
X4241730Y-1126150D01*
X4241730Y-1126150D02*
X4213158Y-1126150D01*
X4213158Y-1126150D02*
X4194110Y-1135674D01*
X4194110Y-1135674D02*
X4184587Y-1145198D01*
X4394111Y-1259484D02*
X4375063Y-1249960D01*
X4375063Y-1249960D02*
X4365539Y-1240436D01*
X4365539Y-1240436D02*
X4356015Y-1221389D01*
X4356015Y-1221389D02*
X4356015Y-1164246D01*
X4356015Y-1164246D02*
X4365539Y-1145198D01*
X4365539Y-1145198D02*
X4375063Y-1135674D01*
X4375063Y-1135674D02*
X4394111Y-1126150D01*
X4394111Y-1126150D02*
X4422682Y-1126150D01*
X4422682Y-1126150D02*
X4441730Y-1135674D01*
X4441730Y-1135674D02*
X4451253Y-1145198D01*
X4451253Y-1145198D02*
X4460777Y-1164246D01*
X4460777Y-1164246D02*
X4460777Y-1221389D01*
X4460777Y-1221389D02*
X4451253Y-1240436D01*
X4451253Y-1240436D02*
X4441730Y-1249960D01*
X4441730Y-1249960D02*
X4422682Y-1259484D01*
X4422682Y-1259484D02*
X4394111Y-1259484D01*
X4575063Y-1259484D02*
X4556015Y-1249960D01*
X4556015Y-1249960D02*
X4546492Y-1230912D01*
X4546492Y-1230912D02*
X4546492Y-1059484D01*
X4727444Y-1249960D02*
X4708396Y-1259484D01*
X4708396Y-1259484D02*
X4670301Y-1259484D01*
X4670301Y-1259484D02*
X4651253Y-1249960D01*
X4651253Y-1249960D02*
X4641730Y-1230912D01*
X4641730Y-1230912D02*
X4641730Y-1154722D01*
X4641730Y-1154722D02*
X4651253Y-1135674D01*
X4651253Y-1135674D02*
X4670301Y-1126150D01*
X4670301Y-1126150D02*
X4708396Y-1126150D01*
X4708396Y-1126150D02*
X4727444Y-1135674D01*
X4727444Y-1135674D02*
X4736968Y-1154722D01*
X4736968Y-1154722D02*
X4736968Y-1173770D01*
X4736968Y-1173770D02*
X4641730Y-1192817D01*
X4813158Y-1249960D02*
X4832206Y-1259484D01*
X4832206Y-1259484D02*
X4870301Y-1259484D01*
X4870301Y-1259484D02*
X4889349Y-1249960D01*
X4889349Y-1249960D02*
X4898873Y-1230912D01*
X4898873Y-1230912D02*
X4898873Y-1221389D01*
X4898873Y-1221389D02*
X4889349Y-1202341D01*
X4889349Y-1202341D02*
X4870301Y-1192817D01*
X4870301Y-1192817D02*
X4841730Y-1192817D01*
X4841730Y-1192817D02*
X4822682Y-1183293D01*
X4822682Y-1183293D02*
X4813158Y-1164246D01*
X4813158Y-1164246D02*
X4813158Y-1154722D01*
X4813158Y-1154722D02*
X4822682Y-1135674D01*
X4822682Y-1135674D02*
X4841730Y-1126150D01*
X4841730Y-1126150D02*
X4870301Y-1126150D01*
X4870301Y-1126150D02*
X4889349Y-1135674D01*
X4965539Y-1335674D02*
X4975063Y-1326150D01*
X4975063Y-1326150D02*
X4994111Y-1297579D01*
X4994111Y-1297579D02*
X5003634Y-1278531D01*
X5003634Y-1278531D02*
X5013158Y-1249960D01*
X5013158Y-1249960D02*
X5022682Y-1202341D01*
X5022682Y-1202341D02*
X5022682Y-1164246D01*
X5022682Y-1164246D02*
X5013158Y-1116627D01*
X5013158Y-1116627D02*
X5003634Y-1088055D01*
X5003634Y-1088055D02*
X4994111Y-1069008D01*
X4994111Y-1069008D02*
X4975063Y-1040436D01*
X4975063Y-1040436D02*
X4965539Y-1030912D01*
D14*
X-13180Y-1463820D02*
X-13180Y-1400180D01*
X-76820Y-1400180D01*
X-76820Y-1463820D01*
X-13180Y-1463820D01*
D10*
X298872Y-1323484D02*
X317920Y-1323484D01*
X317920Y-1323484D02*
X336967Y-1333008D01*
X336967Y-1333008D02*
X346491Y-1342531D01*
X346491Y-1342531D02*
X356015Y-1361579D01*
X356015Y-1361579D02*
X365539Y-1399674D01*
X365539Y-1399674D02*
X365539Y-1447293D01*
X365539Y-1447293D02*
X356015Y-1485388D01*
X356015Y-1485388D02*
X346491Y-1504436D01*
X346491Y-1504436D02*
X336967Y-1513960D01*
X336967Y-1513960D02*
X317920Y-1523484D01*
X317920Y-1523484D02*
X298872Y-1523484D01*
X298872Y-1523484D02*
X279824Y-1513960D01*
X279824Y-1513960D02*
X270301Y-1504436D01*
X270301Y-1504436D02*
X260777Y-1485388D01*
X260777Y-1485388D02*
X251253Y-1447293D01*
X251253Y-1447293D02*
X251253Y-1399674D01*
X251253Y-1399674D02*
X260777Y-1361579D01*
X260777Y-1361579D02*
X270301Y-1342531D01*
X270301Y-1342531D02*
X279824Y-1333008D01*
X279824Y-1333008D02*
X298872Y-1323484D01*
X451253Y-1504436D02*
X460777Y-1513960D01*
X460777Y-1513960D02*
X451253Y-1523484D01*
X451253Y-1523484D02*
X441729Y-1513960D01*
X441729Y-1513960D02*
X451253Y-1504436D01*
X451253Y-1504436D02*
X451253Y-1523484D01*
X556015Y-1523484D02*
X594110Y-1523484D01*
X594110Y-1523484D02*
X613158Y-1513960D01*
X613158Y-1513960D02*
X622682Y-1504436D01*
X622682Y-1504436D02*
X641729Y-1475865D01*
X641729Y-1475865D02*
X651253Y-1437769D01*
X651253Y-1437769D02*
X651253Y-1361579D01*
X651253Y-1361579D02*
X641729Y-1342531D01*
X641729Y-1342531D02*
X632205Y-1333008D01*
X632205Y-1333008D02*
X613158Y-1323484D01*
X613158Y-1323484D02*
X575063Y-1323484D01*
X575063Y-1323484D02*
X556015Y-1333008D01*
X556015Y-1333008D02*
X546491Y-1342531D01*
X546491Y-1342531D02*
X536967Y-1361579D01*
X536967Y-1361579D02*
X536967Y-1409198D01*
X536967Y-1409198D02*
X546491Y-1428246D01*
X546491Y-1428246D02*
X556015Y-1437769D01*
X556015Y-1437769D02*
X575063Y-1447293D01*
X575063Y-1447293D02*
X613158Y-1447293D01*
X613158Y-1447293D02*
X632205Y-1437769D01*
X632205Y-1437769D02*
X641729Y-1428246D01*
X641729Y-1428246D02*
X651253Y-1409198D01*
X775062Y-1323484D02*
X794110Y-1323484D01*
X794110Y-1323484D02*
X813158Y-1333008D01*
X813158Y-1333008D02*
X822682Y-1342531D01*
X822682Y-1342531D02*
X832205Y-1361579D01*
X832205Y-1361579D02*
X841729Y-1399674D01*
X841729Y-1399674D02*
X841729Y-1447293D01*
X841729Y-1447293D02*
X832205Y-1485388D01*
X832205Y-1485388D02*
X822682Y-1504436D01*
X822682Y-1504436D02*
X813158Y-1513960D01*
X813158Y-1513960D02*
X794110Y-1523484D01*
X794110Y-1523484D02*
X775062Y-1523484D01*
X775062Y-1523484D02*
X756015Y-1513960D01*
X756015Y-1513960D02*
X746491Y-1504436D01*
X746491Y-1504436D02*
X736967Y-1485388D01*
X736967Y-1485388D02*
X727443Y-1447293D01*
X727443Y-1447293D02*
X727443Y-1399674D01*
X727443Y-1399674D02*
X736967Y-1361579D01*
X736967Y-1361579D02*
X746491Y-1342531D01*
X746491Y-1342531D02*
X756015Y-1333008D01*
X756015Y-1333008D02*
X775062Y-1323484D01*
X965539Y-1323484D02*
X984586Y-1323484D01*
X984586Y-1323484D02*
X1003634Y-1333008D01*
X1003634Y-1333008D02*
X1013158Y-1342531D01*
X1013158Y-1342531D02*
X1022682Y-1361579D01*
X1022682Y-1361579D02*
X1032205Y-1399674D01*
X1032205Y-1399674D02*
X1032205Y-1447293D01*
X1032205Y-1447293D02*
X1022682Y-1485388D01*
X1022682Y-1485388D02*
X1013158Y-1504436D01*
X1013158Y-1504436D02*
X1003634Y-1513960D01*
X1003634Y-1513960D02*
X984586Y-1523484D01*
X984586Y-1523484D02*
X965539Y-1523484D01*
X965539Y-1523484D02*
X946491Y-1513960D01*
X946491Y-1513960D02*
X936967Y-1504436D01*
X936967Y-1504436D02*
X927443Y-1485388D01*
X927443Y-1485388D02*
X917920Y-1447293D01*
X917920Y-1447293D02*
X917920Y-1399674D01*
X917920Y-1399674D02*
X927443Y-1361579D01*
X927443Y-1361579D02*
X936967Y-1342531D01*
X936967Y-1342531D02*
X946491Y-1333008D01*
X946491Y-1333008D02*
X965539Y-1323484D01*
X1117920Y-1523484D02*
X1117920Y-1390150D01*
X1117920Y-1409198D02*
X1127444Y-1399674D01*
X1127444Y-1399674D02*
X1146491Y-1390150D01*
X1146491Y-1390150D02*
X1175063Y-1390150D01*
X1175063Y-1390150D02*
X1194110Y-1399674D01*
X1194110Y-1399674D02*
X1203634Y-1418722D01*
X1203634Y-1418722D02*
X1203634Y-1523484D01*
X1203634Y-1418722D02*
X1213158Y-1399674D01*
X1213158Y-1399674D02*
X1232205Y-1390150D01*
X1232205Y-1390150D02*
X1260777Y-1390150D01*
X1260777Y-1390150D02*
X1279825Y-1399674D01*
X1279825Y-1399674D02*
X1289348Y-1418722D01*
X1289348Y-1418722D02*
X1289348Y-1523484D01*
X1384586Y-1523484D02*
X1384586Y-1390150D01*
X1384586Y-1409198D02*
X1394110Y-1399674D01*
X1394110Y-1399674D02*
X1413158Y-1390150D01*
X1413158Y-1390150D02*
X1441729Y-1390150D01*
X1441729Y-1390150D02*
X1460777Y-1399674D01*
X1460777Y-1399674D02*
X1470301Y-1418722D01*
X1470301Y-1418722D02*
X1470301Y-1523484D01*
X1470301Y-1418722D02*
X1479824Y-1399674D01*
X1479824Y-1399674D02*
X1498872Y-1390150D01*
X1498872Y-1390150D02*
X1527443Y-1390150D01*
X1527443Y-1390150D02*
X1546491Y-1399674D01*
X1546491Y-1399674D02*
X1556015Y-1418722D01*
X1556015Y-1418722D02*
X1556015Y-1523484D01*
X1946491Y-1313960D02*
X1775063Y-1571103D01*
X2203634Y-1323484D02*
X2222682Y-1323484D01*
X2222682Y-1323484D02*
X2241729Y-1333008D01*
X2241729Y-1333008D02*
X2251253Y-1342531D01*
X2251253Y-1342531D02*
X2260777Y-1361579D01*
X2260777Y-1361579D02*
X2270301Y-1399674D01*
X2270301Y-1399674D02*
X2270301Y-1447293D01*
X2270301Y-1447293D02*
X2260777Y-1485388D01*
X2260777Y-1485388D02*
X2251253Y-1504436D01*
X2251253Y-1504436D02*
X2241729Y-1513960D01*
X2241729Y-1513960D02*
X2222682Y-1523484D01*
X2222682Y-1523484D02*
X2203634Y-1523484D01*
X2203634Y-1523484D02*
X2184587Y-1513960D01*
X2184587Y-1513960D02*
X2175063Y-1504436D01*
X2175063Y-1504436D02*
X2165539Y-1485388D01*
X2165539Y-1485388D02*
X2156015Y-1447293D01*
X2156015Y-1447293D02*
X2156015Y-1399674D01*
X2156015Y-1399674D02*
X2165539Y-1361579D01*
X2165539Y-1361579D02*
X2175063Y-1342531D01*
X2175063Y-1342531D02*
X2184587Y-1333008D01*
X2184587Y-1333008D02*
X2203634Y-1323484D01*
X2356015Y-1504436D02*
X2365539Y-1513960D01*
X2365539Y-1513960D02*
X2356015Y-1523484D01*
X2356015Y-1523484D02*
X2346491Y-1513960D01*
X2346491Y-1513960D02*
X2356015Y-1504436D01*
X2356015Y-1504436D02*
X2356015Y-1523484D01*
X2489348Y-1323484D02*
X2508396Y-1323484D01*
X2508396Y-1323484D02*
X2527444Y-1333008D01*
X2527444Y-1333008D02*
X2536968Y-1342531D01*
X2536968Y-1342531D02*
X2546491Y-1361579D01*
X2546491Y-1361579D02*
X2556015Y-1399674D01*
X2556015Y-1399674D02*
X2556015Y-1447293D01*
X2556015Y-1447293D02*
X2546491Y-1485388D01*
X2546491Y-1485388D02*
X2536968Y-1504436D01*
X2536968Y-1504436D02*
X2527444Y-1513960D01*
X2527444Y-1513960D02*
X2508396Y-1523484D01*
X2508396Y-1523484D02*
X2489348Y-1523484D01*
X2489348Y-1523484D02*
X2470301Y-1513960D01*
X2470301Y-1513960D02*
X2460777Y-1504436D01*
X2460777Y-1504436D02*
X2451253Y-1485388D01*
X2451253Y-1485388D02*
X2441729Y-1447293D01*
X2441729Y-1447293D02*
X2441729Y-1399674D01*
X2441729Y-1399674D02*
X2451253Y-1361579D01*
X2451253Y-1361579D02*
X2460777Y-1342531D01*
X2460777Y-1342531D02*
X2470301Y-1333008D01*
X2470301Y-1333008D02*
X2489348Y-1323484D01*
X2622682Y-1323484D02*
X2746491Y-1323484D01*
X2746491Y-1323484D02*
X2679825Y-1399674D01*
X2679825Y-1399674D02*
X2708396Y-1399674D01*
X2708396Y-1399674D02*
X2727444Y-1409198D01*
X2727444Y-1409198D02*
X2736968Y-1418722D01*
X2736968Y-1418722D02*
X2746491Y-1437769D01*
X2746491Y-1437769D02*
X2746491Y-1485388D01*
X2746491Y-1485388D02*
X2736968Y-1504436D01*
X2736968Y-1504436D02*
X2727444Y-1513960D01*
X2727444Y-1513960D02*
X2708396Y-1523484D01*
X2708396Y-1523484D02*
X2651253Y-1523484D01*
X2651253Y-1523484D02*
X2632206Y-1513960D01*
X2632206Y-1513960D02*
X2622682Y-1504436D01*
X2927444Y-1323484D02*
X2832206Y-1323484D01*
X2832206Y-1323484D02*
X2822682Y-1418722D01*
X2822682Y-1418722D02*
X2832206Y-1409198D01*
X2832206Y-1409198D02*
X2851253Y-1399674D01*
X2851253Y-1399674D02*
X2898872Y-1399674D01*
X2898872Y-1399674D02*
X2917920Y-1409198D01*
X2917920Y-1409198D02*
X2927444Y-1418722D01*
X2927444Y-1418722D02*
X2936967Y-1437769D01*
X2936967Y-1437769D02*
X2936967Y-1485388D01*
X2936967Y-1485388D02*
X2927444Y-1504436D01*
X2927444Y-1504436D02*
X2917920Y-1513960D01*
X2917920Y-1513960D02*
X2898872Y-1523484D01*
X2898872Y-1523484D02*
X2851253Y-1523484D01*
X2851253Y-1523484D02*
X2832206Y-1513960D01*
X2832206Y-1513960D02*
X2822682Y-1504436D01*
X3108396Y-1390150D02*
X3108396Y-1523484D01*
X3060777Y-1313960D02*
X3013158Y-1456817D01*
X3013158Y-1456817D02*
X3136967Y-1456817D01*
X3203634Y-1323484D02*
X3203634Y-1361579D01*
X3279825Y-1323484D02*
X3279825Y-1361579D01*
X3575063Y-1599674D02*
X3565539Y-1590150D01*
X3565539Y-1590150D02*
X3546491Y-1561579D01*
X3546491Y-1561579D02*
X3536968Y-1542531D01*
X3536968Y-1542531D02*
X3527444Y-1513960D01*
X3527444Y-1513960D02*
X3517920Y-1466341D01*
X3517920Y-1466341D02*
X3517920Y-1428246D01*
X3517920Y-1428246D02*
X3527444Y-1380627D01*
X3527444Y-1380627D02*
X3536968Y-1352055D01*
X3536968Y-1352055D02*
X3546491Y-1333008D01*
X3546491Y-1333008D02*
X3565539Y-1304436D01*
X3565539Y-1304436D02*
X3575063Y-1294912D01*
X3756015Y-1523484D02*
X3641729Y-1523484D01*
X3698872Y-1523484D02*
X3698872Y-1323484D01*
X3698872Y-1323484D02*
X3679825Y-1352055D01*
X3679825Y-1352055D02*
X3660777Y-1371103D01*
X3660777Y-1371103D02*
X3641729Y-1380627D01*
X3879825Y-1323484D02*
X3898872Y-1323484D01*
X3898872Y-1323484D02*
X3917920Y-1333008D01*
X3917920Y-1333008D02*
X3927444Y-1342531D01*
X3927444Y-1342531D02*
X3936968Y-1361579D01*
X3936968Y-1361579D02*
X3946491Y-1399674D01*
X3946491Y-1399674D02*
X3946491Y-1447293D01*
X3946491Y-1447293D02*
X3936968Y-1485388D01*
X3936968Y-1485388D02*
X3927444Y-1504436D01*
X3927444Y-1504436D02*
X3917920Y-1513960D01*
X3917920Y-1513960D02*
X3898872Y-1523484D01*
X3898872Y-1523484D02*
X3879825Y-1523484D01*
X3879825Y-1523484D02*
X3860777Y-1513960D01*
X3860777Y-1513960D02*
X3851253Y-1504436D01*
X3851253Y-1504436D02*
X3841729Y-1485388D01*
X3841729Y-1485388D02*
X3832206Y-1447293D01*
X3832206Y-1447293D02*
X3832206Y-1399674D01*
X3832206Y-1399674D02*
X3841729Y-1361579D01*
X3841729Y-1361579D02*
X3851253Y-1342531D01*
X3851253Y-1342531D02*
X3860777Y-1333008D01*
X3860777Y-1333008D02*
X3879825Y-1323484D01*
X4184587Y-1523484D02*
X4184587Y-1323484D01*
X4270301Y-1523484D02*
X4270301Y-1418722D01*
X4270301Y-1418722D02*
X4260777Y-1399674D01*
X4260777Y-1399674D02*
X4241730Y-1390150D01*
X4241730Y-1390150D02*
X4213158Y-1390150D01*
X4213158Y-1390150D02*
X4194110Y-1399674D01*
X4194110Y-1399674D02*
X4184587Y-1409198D01*
X4394111Y-1523484D02*
X4375063Y-1513960D01*
X4375063Y-1513960D02*
X4365539Y-1504436D01*
X4365539Y-1504436D02*
X4356015Y-1485388D01*
X4356015Y-1485388D02*
X4356015Y-1428246D01*
X4356015Y-1428246D02*
X4365539Y-1409198D01*
X4365539Y-1409198D02*
X4375063Y-1399674D01*
X4375063Y-1399674D02*
X4394111Y-1390150D01*
X4394111Y-1390150D02*
X4422682Y-1390150D01*
X4422682Y-1390150D02*
X4441730Y-1399674D01*
X4441730Y-1399674D02*
X4451253Y-1409198D01*
X4451253Y-1409198D02*
X4460777Y-1428246D01*
X4460777Y-1428246D02*
X4460777Y-1485388D01*
X4460777Y-1485388D02*
X4451253Y-1504436D01*
X4451253Y-1504436D02*
X4441730Y-1513960D01*
X4441730Y-1513960D02*
X4422682Y-1523484D01*
X4422682Y-1523484D02*
X4394111Y-1523484D01*
X4575063Y-1523484D02*
X4556015Y-1513960D01*
X4556015Y-1513960D02*
X4546492Y-1494912D01*
X4546492Y-1494912D02*
X4546492Y-1323484D01*
X4727444Y-1513960D02*
X4708396Y-1523484D01*
X4708396Y-1523484D02*
X4670301Y-1523484D01*
X4670301Y-1523484D02*
X4651253Y-1513960D01*
X4651253Y-1513960D02*
X4641730Y-1494912D01*
X4641730Y-1494912D02*
X4641730Y-1418722D01*
X4641730Y-1418722D02*
X4651253Y-1399674D01*
X4651253Y-1399674D02*
X4670301Y-1390150D01*
X4670301Y-1390150D02*
X4708396Y-1390150D01*
X4708396Y-1390150D02*
X4727444Y-1399674D01*
X4727444Y-1399674D02*
X4736968Y-1418722D01*
X4736968Y-1418722D02*
X4736968Y-1437769D01*
X4736968Y-1437769D02*
X4641730Y-1456817D01*
X4813158Y-1513960D02*
X4832206Y-1523484D01*
X4832206Y-1523484D02*
X4870301Y-1523484D01*
X4870301Y-1523484D02*
X4889349Y-1513960D01*
X4889349Y-1513960D02*
X4898873Y-1494912D01*
X4898873Y-1494912D02*
X4898873Y-1485388D01*
X4898873Y-1485388D02*
X4889349Y-1466341D01*
X4889349Y-1466341D02*
X4870301Y-1456817D01*
X4870301Y-1456817D02*
X4841730Y-1456817D01*
X4841730Y-1456817D02*
X4822682Y-1447293D01*
X4822682Y-1447293D02*
X4813158Y-1428246D01*
X4813158Y-1428246D02*
X4813158Y-1418722D01*
X4813158Y-1418722D02*
X4822682Y-1399674D01*
X4822682Y-1399674D02*
X4841730Y-1390150D01*
X4841730Y-1390150D02*
X4870301Y-1390150D01*
X4870301Y-1390150D02*
X4889349Y-1399674D01*
X4965539Y-1599674D02*
X4975063Y-1590150D01*
X4975063Y-1590150D02*
X4994111Y-1561579D01*
X4994111Y-1561579D02*
X5003634Y-1542531D01*
X5003634Y-1542531D02*
X5013158Y-1513960D01*
X5013158Y-1513960D02*
X5022682Y-1466341D01*
X5022682Y-1466341D02*
X5022682Y-1428246D01*
X5022682Y-1428246D02*
X5013158Y-1380627D01*
X5013158Y-1380627D02*
X5003634Y-1352055D01*
X5003634Y-1352055D02*
X4994111Y-1333008D01*
X4994111Y-1333008D02*
X4975063Y-1304436D01*
X4975063Y-1304436D02*
X4965539Y-1294912D01*
D15*
X-50000Y-1746000D02*
X0Y-1696000D01*
X-50000Y-1646000D01*
X-100000Y-1696000D01*
X-50000Y-1746000D01*
D10*
X365539Y-1787484D02*
X251253Y-1787484D01*
X308396Y-1787484D02*
X308396Y-1587484D01*
X308396Y-1587484D02*
X289348Y-1616055D01*
X289348Y-1616055D02*
X270301Y-1635103D01*
X270301Y-1635103D02*
X251253Y-1644627D01*
X451253Y-1768436D02*
X460777Y-1777960D01*
X460777Y-1777960D02*
X451253Y-1787484D01*
X451253Y-1787484D02*
X441729Y-1777960D01*
X441729Y-1777960D02*
X451253Y-1768436D01*
X451253Y-1768436D02*
X451253Y-1787484D01*
X584586Y-1587484D02*
X603634Y-1587484D01*
X603634Y-1587484D02*
X622682Y-1597008D01*
X622682Y-1597008D02*
X632205Y-1606531D01*
X632205Y-1606531D02*
X641729Y-1625579D01*
X641729Y-1625579D02*
X651253Y-1663674D01*
X651253Y-1663674D02*
X651253Y-1711293D01*
X651253Y-1711293D02*
X641729Y-1749388D01*
X641729Y-1749388D02*
X632205Y-1768436D01*
X632205Y-1768436D02*
X622682Y-1777960D01*
X622682Y-1777960D02*
X603634Y-1787484D01*
X603634Y-1787484D02*
X584586Y-1787484D01*
X584586Y-1787484D02*
X565539Y-1777960D01*
X565539Y-1777960D02*
X556015Y-1768436D01*
X556015Y-1768436D02*
X546491Y-1749388D01*
X546491Y-1749388D02*
X536967Y-1711293D01*
X536967Y-1711293D02*
X536967Y-1663674D01*
X536967Y-1663674D02*
X546491Y-1625579D01*
X546491Y-1625579D02*
X556015Y-1606531D01*
X556015Y-1606531D02*
X565539Y-1597008D01*
X565539Y-1597008D02*
X584586Y-1587484D01*
X775062Y-1587484D02*
X794110Y-1587484D01*
X794110Y-1587484D02*
X813158Y-1597008D01*
X813158Y-1597008D02*
X822682Y-1606531D01*
X822682Y-1606531D02*
X832205Y-1625579D01*
X832205Y-1625579D02*
X841729Y-1663674D01*
X841729Y-1663674D02*
X841729Y-1711293D01*
X841729Y-1711293D02*
X832205Y-1749388D01*
X832205Y-1749388D02*
X822682Y-1768436D01*
X822682Y-1768436D02*
X813158Y-1777960D01*
X813158Y-1777960D02*
X794110Y-1787484D01*
X794110Y-1787484D02*
X775062Y-1787484D01*
X775062Y-1787484D02*
X756015Y-1777960D01*
X756015Y-1777960D02*
X746491Y-1768436D01*
X746491Y-1768436D02*
X736967Y-1749388D01*
X736967Y-1749388D02*
X727443Y-1711293D01*
X727443Y-1711293D02*
X727443Y-1663674D01*
X727443Y-1663674D02*
X736967Y-1625579D01*
X736967Y-1625579D02*
X746491Y-1606531D01*
X746491Y-1606531D02*
X756015Y-1597008D01*
X756015Y-1597008D02*
X775062Y-1587484D01*
X965539Y-1587484D02*
X984586Y-1587484D01*
X984586Y-1587484D02*
X1003634Y-1597008D01*
X1003634Y-1597008D02*
X1013158Y-1606531D01*
X1013158Y-1606531D02*
X1022682Y-1625579D01*
X1022682Y-1625579D02*
X1032205Y-1663674D01*
X1032205Y-1663674D02*
X1032205Y-1711293D01*
X1032205Y-1711293D02*
X1022682Y-1749388D01*
X1022682Y-1749388D02*
X1013158Y-1768436D01*
X1013158Y-1768436D02*
X1003634Y-1777960D01*
X1003634Y-1777960D02*
X984586Y-1787484D01*
X984586Y-1787484D02*
X965539Y-1787484D01*
X965539Y-1787484D02*
X946491Y-1777960D01*
X946491Y-1777960D02*
X936967Y-1768436D01*
X936967Y-1768436D02*
X927443Y-1749388D01*
X927443Y-1749388D02*
X917920Y-1711293D01*
X917920Y-1711293D02*
X917920Y-1663674D01*
X917920Y-1663674D02*
X927443Y-1625579D01*
X927443Y-1625579D02*
X936967Y-1606531D01*
X936967Y-1606531D02*
X946491Y-1597008D01*
X946491Y-1597008D02*
X965539Y-1587484D01*
X1117920Y-1787484D02*
X1117920Y-1654150D01*
X1117920Y-1673198D02*
X1127444Y-1663674D01*
X1127444Y-1663674D02*
X1146491Y-1654150D01*
X1146491Y-1654150D02*
X1175063Y-1654150D01*
X1175063Y-1654150D02*
X1194110Y-1663674D01*
X1194110Y-1663674D02*
X1203634Y-1682722D01*
X1203634Y-1682722D02*
X1203634Y-1787484D01*
X1203634Y-1682722D02*
X1213158Y-1663674D01*
X1213158Y-1663674D02*
X1232205Y-1654150D01*
X1232205Y-1654150D02*
X1260777Y-1654150D01*
X1260777Y-1654150D02*
X1279825Y-1663674D01*
X1279825Y-1663674D02*
X1289348Y-1682722D01*
X1289348Y-1682722D02*
X1289348Y-1787484D01*
X1384586Y-1787484D02*
X1384586Y-1654150D01*
X1384586Y-1673198D02*
X1394110Y-1663674D01*
X1394110Y-1663674D02*
X1413158Y-1654150D01*
X1413158Y-1654150D02*
X1441729Y-1654150D01*
X1441729Y-1654150D02*
X1460777Y-1663674D01*
X1460777Y-1663674D02*
X1470301Y-1682722D01*
X1470301Y-1682722D02*
X1470301Y-1787484D01*
X1470301Y-1682722D02*
X1479824Y-1663674D01*
X1479824Y-1663674D02*
X1498872Y-1654150D01*
X1498872Y-1654150D02*
X1527443Y-1654150D01*
X1527443Y-1654150D02*
X1546491Y-1663674D01*
X1546491Y-1663674D02*
X1556015Y-1682722D01*
X1556015Y-1682722D02*
X1556015Y-1787484D01*
X1946491Y-1577960D02*
X1775063Y-1835103D01*
X2203634Y-1587484D02*
X2222682Y-1587484D01*
X2222682Y-1587484D02*
X2241729Y-1597008D01*
X2241729Y-1597008D02*
X2251253Y-1606531D01*
X2251253Y-1606531D02*
X2260777Y-1625579D01*
X2260777Y-1625579D02*
X2270301Y-1663674D01*
X2270301Y-1663674D02*
X2270301Y-1711293D01*
X2270301Y-1711293D02*
X2260777Y-1749388D01*
X2260777Y-1749388D02*
X2251253Y-1768436D01*
X2251253Y-1768436D02*
X2241729Y-1777960D01*
X2241729Y-1777960D02*
X2222682Y-1787484D01*
X2222682Y-1787484D02*
X2203634Y-1787484D01*
X2203634Y-1787484D02*
X2184587Y-1777960D01*
X2184587Y-1777960D02*
X2175063Y-1768436D01*
X2175063Y-1768436D02*
X2165539Y-1749388D01*
X2165539Y-1749388D02*
X2156015Y-1711293D01*
X2156015Y-1711293D02*
X2156015Y-1663674D01*
X2156015Y-1663674D02*
X2165539Y-1625579D01*
X2165539Y-1625579D02*
X2175063Y-1606531D01*
X2175063Y-1606531D02*
X2184587Y-1597008D01*
X2184587Y-1597008D02*
X2203634Y-1587484D01*
X2356015Y-1768436D02*
X2365539Y-1777960D01*
X2365539Y-1777960D02*
X2356015Y-1787484D01*
X2356015Y-1787484D02*
X2346491Y-1777960D01*
X2346491Y-1777960D02*
X2356015Y-1768436D01*
X2356015Y-1768436D02*
X2356015Y-1787484D01*
X2489348Y-1587484D02*
X2508396Y-1587484D01*
X2508396Y-1587484D02*
X2527444Y-1597008D01*
X2527444Y-1597008D02*
X2536968Y-1606531D01*
X2536968Y-1606531D02*
X2546491Y-1625579D01*
X2546491Y-1625579D02*
X2556015Y-1663674D01*
X2556015Y-1663674D02*
X2556015Y-1711293D01*
X2556015Y-1711293D02*
X2546491Y-1749388D01*
X2546491Y-1749388D02*
X2536968Y-1768436D01*
X2536968Y-1768436D02*
X2527444Y-1777960D01*
X2527444Y-1777960D02*
X2508396Y-1787484D01*
X2508396Y-1787484D02*
X2489348Y-1787484D01*
X2489348Y-1787484D02*
X2470301Y-1777960D01*
X2470301Y-1777960D02*
X2460777Y-1768436D01*
X2460777Y-1768436D02*
X2451253Y-1749388D01*
X2451253Y-1749388D02*
X2441729Y-1711293D01*
X2441729Y-1711293D02*
X2441729Y-1663674D01*
X2441729Y-1663674D02*
X2451253Y-1625579D01*
X2451253Y-1625579D02*
X2460777Y-1606531D01*
X2460777Y-1606531D02*
X2470301Y-1597008D01*
X2470301Y-1597008D02*
X2489348Y-1587484D01*
X2622682Y-1587484D02*
X2746491Y-1587484D01*
X2746491Y-1587484D02*
X2679825Y-1663674D01*
X2679825Y-1663674D02*
X2708396Y-1663674D01*
X2708396Y-1663674D02*
X2727444Y-1673198D01*
X2727444Y-1673198D02*
X2736968Y-1682722D01*
X2736968Y-1682722D02*
X2746491Y-1701769D01*
X2746491Y-1701769D02*
X2746491Y-1749388D01*
X2746491Y-1749388D02*
X2736968Y-1768436D01*
X2736968Y-1768436D02*
X2727444Y-1777960D01*
X2727444Y-1777960D02*
X2708396Y-1787484D01*
X2708396Y-1787484D02*
X2651253Y-1787484D01*
X2651253Y-1787484D02*
X2632206Y-1777960D01*
X2632206Y-1777960D02*
X2622682Y-1768436D01*
X2841729Y-1787484D02*
X2879825Y-1787484D01*
X2879825Y-1787484D02*
X2898872Y-1777960D01*
X2898872Y-1777960D02*
X2908396Y-1768436D01*
X2908396Y-1768436D02*
X2927444Y-1739865D01*
X2927444Y-1739865D02*
X2936967Y-1701769D01*
X2936967Y-1701769D02*
X2936967Y-1625579D01*
X2936967Y-1625579D02*
X2927444Y-1606531D01*
X2927444Y-1606531D02*
X2917920Y-1597008D01*
X2917920Y-1597008D02*
X2898872Y-1587484D01*
X2898872Y-1587484D02*
X2860777Y-1587484D01*
X2860777Y-1587484D02*
X2841729Y-1597008D01*
X2841729Y-1597008D02*
X2832206Y-1606531D01*
X2832206Y-1606531D02*
X2822682Y-1625579D01*
X2822682Y-1625579D02*
X2822682Y-1673198D01*
X2822682Y-1673198D02*
X2832206Y-1692246D01*
X2832206Y-1692246D02*
X2841729Y-1701769D01*
X2841729Y-1701769D02*
X2860777Y-1711293D01*
X2860777Y-1711293D02*
X2898872Y-1711293D01*
X2898872Y-1711293D02*
X2917920Y-1701769D01*
X2917920Y-1701769D02*
X2927444Y-1692246D01*
X2927444Y-1692246D02*
X2936967Y-1673198D01*
X3108396Y-1654150D02*
X3108396Y-1787484D01*
X3060777Y-1577960D02*
X3013158Y-1720817D01*
X3013158Y-1720817D02*
X3136967Y-1720817D01*
X3203634Y-1587484D02*
X3203634Y-1625579D01*
X3279825Y-1587484D02*
X3279825Y-1625579D01*
X3575063Y-1863674D02*
X3565539Y-1854150D01*
X3565539Y-1854150D02*
X3546491Y-1825579D01*
X3546491Y-1825579D02*
X3536968Y-1806531D01*
X3536968Y-1806531D02*
X3527444Y-1777960D01*
X3527444Y-1777960D02*
X3517920Y-1730341D01*
X3517920Y-1730341D02*
X3517920Y-1692246D01*
X3517920Y-1692246D02*
X3527444Y-1644627D01*
X3527444Y-1644627D02*
X3536968Y-1616055D01*
X3536968Y-1616055D02*
X3546491Y-1597008D01*
X3546491Y-1597008D02*
X3565539Y-1568436D01*
X3565539Y-1568436D02*
X3575063Y-1558912D01*
X3756015Y-1787484D02*
X3641729Y-1787484D01*
X3698872Y-1787484D02*
X3698872Y-1587484D01*
X3698872Y-1587484D02*
X3679825Y-1616055D01*
X3679825Y-1616055D02*
X3660777Y-1635103D01*
X3660777Y-1635103D02*
X3641729Y-1644627D01*
X3946491Y-1787484D02*
X3832206Y-1787484D01*
X3889348Y-1787484D02*
X3889348Y-1587484D01*
X3889348Y-1587484D02*
X3870301Y-1616055D01*
X3870301Y-1616055D02*
X3851253Y-1635103D01*
X3851253Y-1635103D02*
X3832206Y-1644627D01*
X4184587Y-1787484D02*
X4184587Y-1587484D01*
X4270301Y-1787484D02*
X4270301Y-1682722D01*
X4270301Y-1682722D02*
X4260777Y-1663674D01*
X4260777Y-1663674D02*
X4241730Y-1654150D01*
X4241730Y-1654150D02*
X4213158Y-1654150D01*
X4213158Y-1654150D02*
X4194110Y-1663674D01*
X4194110Y-1663674D02*
X4184587Y-1673198D01*
X4394111Y-1787484D02*
X4375063Y-1777960D01*
X4375063Y-1777960D02*
X4365539Y-1768436D01*
X4365539Y-1768436D02*
X4356015Y-1749388D01*
X4356015Y-1749388D02*
X4356015Y-1692246D01*
X4356015Y-1692246D02*
X4365539Y-1673198D01*
X4365539Y-1673198D02*
X4375063Y-1663674D01*
X4375063Y-1663674D02*
X4394111Y-1654150D01*
X4394111Y-1654150D02*
X4422682Y-1654150D01*
X4422682Y-1654150D02*
X4441730Y-1663674D01*
X4441730Y-1663674D02*
X4451253Y-1673198D01*
X4451253Y-1673198D02*
X4460777Y-1692246D01*
X4460777Y-1692246D02*
X4460777Y-1749388D01*
X4460777Y-1749388D02*
X4451253Y-1768436D01*
X4451253Y-1768436D02*
X4441730Y-1777960D01*
X4441730Y-1777960D02*
X4422682Y-1787484D01*
X4422682Y-1787484D02*
X4394111Y-1787484D01*
X4575063Y-1787484D02*
X4556015Y-1777960D01*
X4556015Y-1777960D02*
X4546492Y-1758912D01*
X4546492Y-1758912D02*
X4546492Y-1587484D01*
X4727444Y-1777960D02*
X4708396Y-1787484D01*
X4708396Y-1787484D02*
X4670301Y-1787484D01*
X4670301Y-1787484D02*
X4651253Y-1777960D01*
X4651253Y-1777960D02*
X4641730Y-1758912D01*
X4641730Y-1758912D02*
X4641730Y-1682722D01*
X4641730Y-1682722D02*
X4651253Y-1663674D01*
X4651253Y-1663674D02*
X4670301Y-1654150D01*
X4670301Y-1654150D02*
X4708396Y-1654150D01*
X4708396Y-1654150D02*
X4727444Y-1663674D01*
X4727444Y-1663674D02*
X4736968Y-1682722D01*
X4736968Y-1682722D02*
X4736968Y-1701769D01*
X4736968Y-1701769D02*
X4641730Y-1720817D01*
X4813158Y-1777960D02*
X4832206Y-1787484D01*
X4832206Y-1787484D02*
X4870301Y-1787484D01*
X4870301Y-1787484D02*
X4889349Y-1777960D01*
X4889349Y-1777960D02*
X4898873Y-1758912D01*
X4898873Y-1758912D02*
X4898873Y-1749388D01*
X4898873Y-1749388D02*
X4889349Y-1730341D01*
X4889349Y-1730341D02*
X4870301Y-1720817D01*
X4870301Y-1720817D02*
X4841730Y-1720817D01*
X4841730Y-1720817D02*
X4822682Y-1711293D01*
X4822682Y-1711293D02*
X4813158Y-1692246D01*
X4813158Y-1692246D02*
X4813158Y-1682722D01*
X4813158Y-1682722D02*
X4822682Y-1663674D01*
X4822682Y-1663674D02*
X4841730Y-1654150D01*
X4841730Y-1654150D02*
X4870301Y-1654150D01*
X4870301Y-1654150D02*
X4889349Y-1663674D01*
X5136968Y-1711293D02*
X5289349Y-1711293D01*
X5213158Y-1787484D02*
X5213158Y-1635103D01*
X5517920Y-1587484D02*
X5641730Y-1587484D01*
X5641730Y-1587484D02*
X5575063Y-1663674D01*
X5575063Y-1663674D02*
X5603634Y-1663674D01*
X5603634Y-1663674D02*
X5622682Y-1673198D01*
X5622682Y-1673198D02*
X5632206Y-1682722D01*
X5632206Y-1682722D02*
X5641730Y-1701769D01*
X5641730Y-1701769D02*
X5641730Y-1749388D01*
X5641730Y-1749388D02*
X5632206Y-1768436D01*
X5632206Y-1768436D02*
X5622682Y-1777960D01*
X5622682Y-1777960D02*
X5603634Y-1787484D01*
X5603634Y-1787484D02*
X5546492Y-1787484D01*
X5546492Y-1787484D02*
X5527444Y-1777960D01*
X5527444Y-1777960D02*
X5517920Y-1768436D01*
X5870301Y-1777960D02*
X5889349Y-1787484D01*
X5889349Y-1787484D02*
X5927444Y-1787484D01*
X5927444Y-1787484D02*
X5946492Y-1777960D01*
X5946492Y-1777960D02*
X5956015Y-1758912D01*
X5956015Y-1758912D02*
X5956015Y-1749388D01*
X5956015Y-1749388D02*
X5946492Y-1730341D01*
X5946492Y-1730341D02*
X5927444Y-1720817D01*
X5927444Y-1720817D02*
X5898873Y-1720817D01*
X5898873Y-1720817D02*
X5879825Y-1711293D01*
X5879825Y-1711293D02*
X5870301Y-1692246D01*
X5870301Y-1692246D02*
X5870301Y-1682722D01*
X5870301Y-1682722D02*
X5879825Y-1663674D01*
X5879825Y-1663674D02*
X5898873Y-1654150D01*
X5898873Y-1654150D02*
X5927444Y-1654150D01*
X5927444Y-1654150D02*
X5946492Y-1663674D01*
X6070301Y-1787484D02*
X6051254Y-1777960D01*
X6051254Y-1777960D02*
X6041730Y-1758912D01*
X6041730Y-1758912D02*
X6041730Y-1587484D01*
X6175063Y-1787484D02*
X6156015Y-1777960D01*
X6156015Y-1777960D02*
X6146492Y-1768436D01*
X6146492Y-1768436D02*
X6136968Y-1749388D01*
X6136968Y-1749388D02*
X6136968Y-1692246D01*
X6136968Y-1692246D02*
X6146492Y-1673198D01*
X6146492Y-1673198D02*
X6156015Y-1663674D01*
X6156015Y-1663674D02*
X6175063Y-1654150D01*
X6175063Y-1654150D02*
X6203635Y-1654150D01*
X6203635Y-1654150D02*
X6222682Y-1663674D01*
X6222682Y-1663674D02*
X6232206Y-1673198D01*
X6232206Y-1673198D02*
X6241730Y-1692246D01*
X6241730Y-1692246D02*
X6241730Y-1749388D01*
X6241730Y-1749388D02*
X6232206Y-1768436D01*
X6232206Y-1768436D02*
X6222682Y-1777960D01*
X6222682Y-1777960D02*
X6203635Y-1787484D01*
X6203635Y-1787484D02*
X6175063Y-1787484D01*
X6298873Y-1654150D02*
X6375063Y-1654150D01*
X6327444Y-1587484D02*
X6327444Y-1758912D01*
X6327444Y-1758912D02*
X6336968Y-1777960D01*
X6336968Y-1777960D02*
X6356015Y-1787484D01*
X6356015Y-1787484D02*
X6375063Y-1787484D01*
X6432206Y-1777960D02*
X6451254Y-1787484D01*
X6451254Y-1787484D02*
X6489349Y-1787484D01*
X6489349Y-1787484D02*
X6508396Y-1777960D01*
X6508396Y-1777960D02*
X6517920Y-1758912D01*
X6517920Y-1758912D02*
X6517920Y-1749388D01*
X6517920Y-1749388D02*
X6508396Y-1730341D01*
X6508396Y-1730341D02*
X6489349Y-1720817D01*
X6489349Y-1720817D02*
X6460777Y-1720817D01*
X6460777Y-1720817D02*
X6441730Y-1711293D01*
X6441730Y-1711293D02*
X6432206Y-1692246D01*
X6432206Y-1692246D02*
X6432206Y-1682722D01*
X6432206Y-1682722D02*
X6441730Y-1663674D01*
X6441730Y-1663674D02*
X6460777Y-1654150D01*
X6460777Y-1654150D02*
X6489349Y-1654150D01*
X6489349Y-1654150D02*
X6508396Y-1663674D01*
X6584587Y-1863674D02*
X6594111Y-1854150D01*
X6594111Y-1854150D02*
X6613158Y-1825579D01*
X6613158Y-1825579D02*
X6622682Y-1806531D01*
X6622682Y-1806531D02*
X6632206Y-1777960D01*
X6632206Y-1777960D02*
X6641730Y-1730341D01*
X6641730Y-1730341D02*
X6641730Y-1692246D01*
X6641730Y-1692246D02*
X6632206Y-1644627D01*
X6632206Y-1644627D02*
X6622682Y-1616055D01*
X6622682Y-1616055D02*
X6613158Y-1597008D01*
X6613158Y-1597008D02*
X6594111Y-1568436D01*
X6594111Y-1568436D02*
X6584587Y-1558912D01*
D16*
X-102000Y-1909000D02*
X0Y-2011000D01*
X0Y-1909000D02*
X-102000Y-2011000D01*
X0Y-1960000D02*
G75*
G03*
X0Y-1960000I-51000J0D01*
G01*
D10*
X365539Y-2051484D02*
X251253Y-2051484D01*
X308396Y-2051484D02*
X308396Y-1851484D01*
X308396Y-1851484D02*
X289348Y-1880055D01*
X289348Y-1880055D02*
X270301Y-1899103D01*
X270301Y-1899103D02*
X251253Y-1908627D01*
X451253Y-2032436D02*
X460777Y-2041960D01*
X460777Y-2041960D02*
X451253Y-2051484D01*
X451253Y-2051484D02*
X441729Y-2041960D01*
X441729Y-2041960D02*
X451253Y-2032436D01*
X451253Y-2032436D02*
X451253Y-2051484D01*
X584586Y-1851484D02*
X603634Y-1851484D01*
X603634Y-1851484D02*
X622682Y-1861008D01*
X622682Y-1861008D02*
X632205Y-1870531D01*
X632205Y-1870531D02*
X641729Y-1889579D01*
X641729Y-1889579D02*
X651253Y-1927674D01*
X651253Y-1927674D02*
X651253Y-1975293D01*
X651253Y-1975293D02*
X641729Y-2013388D01*
X641729Y-2013388D02*
X632205Y-2032436D01*
X632205Y-2032436D02*
X622682Y-2041960D01*
X622682Y-2041960D02*
X603634Y-2051484D01*
X603634Y-2051484D02*
X584586Y-2051484D01*
X584586Y-2051484D02*
X565539Y-2041960D01*
X565539Y-2041960D02*
X556015Y-2032436D01*
X556015Y-2032436D02*
X546491Y-2013388D01*
X546491Y-2013388D02*
X536967Y-1975293D01*
X536967Y-1975293D02*
X536967Y-1927674D01*
X536967Y-1927674D02*
X546491Y-1889579D01*
X546491Y-1889579D02*
X556015Y-1870531D01*
X556015Y-1870531D02*
X565539Y-1861008D01*
X565539Y-1861008D02*
X584586Y-1851484D01*
X727443Y-1870531D02*
X736967Y-1861008D01*
X736967Y-1861008D02*
X756015Y-1851484D01*
X756015Y-1851484D02*
X803634Y-1851484D01*
X803634Y-1851484D02*
X822682Y-1861008D01*
X822682Y-1861008D02*
X832205Y-1870531D01*
X832205Y-1870531D02*
X841729Y-1889579D01*
X841729Y-1889579D02*
X841729Y-1908627D01*
X841729Y-1908627D02*
X832205Y-1937198D01*
X832205Y-1937198D02*
X717920Y-2051484D01*
X717920Y-2051484D02*
X841729Y-2051484D01*
X965539Y-1851484D02*
X984586Y-1851484D01*
X984586Y-1851484D02*
X1003634Y-1861008D01*
X1003634Y-1861008D02*
X1013158Y-1870531D01*
X1013158Y-1870531D02*
X1022682Y-1889579D01*
X1022682Y-1889579D02*
X1032205Y-1927674D01*
X1032205Y-1927674D02*
X1032205Y-1975293D01*
X1032205Y-1975293D02*
X1022682Y-2013388D01*
X1022682Y-2013388D02*
X1013158Y-2032436D01*
X1013158Y-2032436D02*
X1003634Y-2041960D01*
X1003634Y-2041960D02*
X984586Y-2051484D01*
X984586Y-2051484D02*
X965539Y-2051484D01*
X965539Y-2051484D02*
X946491Y-2041960D01*
X946491Y-2041960D02*
X936967Y-2032436D01*
X936967Y-2032436D02*
X927443Y-2013388D01*
X927443Y-2013388D02*
X917920Y-1975293D01*
X917920Y-1975293D02*
X917920Y-1927674D01*
X917920Y-1927674D02*
X927443Y-1889579D01*
X927443Y-1889579D02*
X936967Y-1870531D01*
X936967Y-1870531D02*
X946491Y-1861008D01*
X946491Y-1861008D02*
X965539Y-1851484D01*
X1117920Y-2051484D02*
X1117920Y-1918150D01*
X1117920Y-1937198D02*
X1127444Y-1927674D01*
X1127444Y-1927674D02*
X1146491Y-1918150D01*
X1146491Y-1918150D02*
X1175063Y-1918150D01*
X1175063Y-1918150D02*
X1194110Y-1927674D01*
X1194110Y-1927674D02*
X1203634Y-1946722D01*
X1203634Y-1946722D02*
X1203634Y-2051484D01*
X1203634Y-1946722D02*
X1213158Y-1927674D01*
X1213158Y-1927674D02*
X1232205Y-1918150D01*
X1232205Y-1918150D02*
X1260777Y-1918150D01*
X1260777Y-1918150D02*
X1279825Y-1927674D01*
X1279825Y-1927674D02*
X1289348Y-1946722D01*
X1289348Y-1946722D02*
X1289348Y-2051484D01*
X1384586Y-2051484D02*
X1384586Y-1918150D01*
X1384586Y-1937198D02*
X1394110Y-1927674D01*
X1394110Y-1927674D02*
X1413158Y-1918150D01*
X1413158Y-1918150D02*
X1441729Y-1918150D01*
X1441729Y-1918150D02*
X1460777Y-1927674D01*
X1460777Y-1927674D02*
X1470301Y-1946722D01*
X1470301Y-1946722D02*
X1470301Y-2051484D01*
X1470301Y-1946722D02*
X1479824Y-1927674D01*
X1479824Y-1927674D02*
X1498872Y-1918150D01*
X1498872Y-1918150D02*
X1527443Y-1918150D01*
X1527443Y-1918150D02*
X1546491Y-1927674D01*
X1546491Y-1927674D02*
X1556015Y-1946722D01*
X1556015Y-1946722D02*
X1556015Y-2051484D01*
X1946491Y-1841960D02*
X1775063Y-2099103D01*
X2203634Y-1851484D02*
X2222682Y-1851484D01*
X2222682Y-1851484D02*
X2241729Y-1861008D01*
X2241729Y-1861008D02*
X2251253Y-1870531D01*
X2251253Y-1870531D02*
X2260777Y-1889579D01*
X2260777Y-1889579D02*
X2270301Y-1927674D01*
X2270301Y-1927674D02*
X2270301Y-1975293D01*
X2270301Y-1975293D02*
X2260777Y-2013388D01*
X2260777Y-2013388D02*
X2251253Y-2032436D01*
X2251253Y-2032436D02*
X2241729Y-2041960D01*
X2241729Y-2041960D02*
X2222682Y-2051484D01*
X2222682Y-2051484D02*
X2203634Y-2051484D01*
X2203634Y-2051484D02*
X2184587Y-2041960D01*
X2184587Y-2041960D02*
X2175063Y-2032436D01*
X2175063Y-2032436D02*
X2165539Y-2013388D01*
X2165539Y-2013388D02*
X2156015Y-1975293D01*
X2156015Y-1975293D02*
X2156015Y-1927674D01*
X2156015Y-1927674D02*
X2165539Y-1889579D01*
X2165539Y-1889579D02*
X2175063Y-1870531D01*
X2175063Y-1870531D02*
X2184587Y-1861008D01*
X2184587Y-1861008D02*
X2203634Y-1851484D01*
X2356015Y-2032436D02*
X2365539Y-2041960D01*
X2365539Y-2041960D02*
X2356015Y-2051484D01*
X2356015Y-2051484D02*
X2346491Y-2041960D01*
X2346491Y-2041960D02*
X2356015Y-2032436D01*
X2356015Y-2032436D02*
X2356015Y-2051484D01*
X2489348Y-1851484D02*
X2508396Y-1851484D01*
X2508396Y-1851484D02*
X2527444Y-1861008D01*
X2527444Y-1861008D02*
X2536968Y-1870531D01*
X2536968Y-1870531D02*
X2546491Y-1889579D01*
X2546491Y-1889579D02*
X2556015Y-1927674D01*
X2556015Y-1927674D02*
X2556015Y-1975293D01*
X2556015Y-1975293D02*
X2546491Y-2013388D01*
X2546491Y-2013388D02*
X2536968Y-2032436D01*
X2536968Y-2032436D02*
X2527444Y-2041960D01*
X2527444Y-2041960D02*
X2508396Y-2051484D01*
X2508396Y-2051484D02*
X2489348Y-2051484D01*
X2489348Y-2051484D02*
X2470301Y-2041960D01*
X2470301Y-2041960D02*
X2460777Y-2032436D01*
X2460777Y-2032436D02*
X2451253Y-2013388D01*
X2451253Y-2013388D02*
X2441729Y-1975293D01*
X2441729Y-1975293D02*
X2441729Y-1927674D01*
X2441729Y-1927674D02*
X2451253Y-1889579D01*
X2451253Y-1889579D02*
X2460777Y-1870531D01*
X2460777Y-1870531D02*
X2470301Y-1861008D01*
X2470301Y-1861008D02*
X2489348Y-1851484D01*
X2727444Y-1918150D02*
X2727444Y-2051484D01*
X2679825Y-1841960D02*
X2632206Y-1984817D01*
X2632206Y-1984817D02*
X2756015Y-1984817D01*
X2870301Y-1851484D02*
X2889348Y-1851484D01*
X2889348Y-1851484D02*
X2908396Y-1861008D01*
X2908396Y-1861008D02*
X2917920Y-1870531D01*
X2917920Y-1870531D02*
X2927444Y-1889579D01*
X2927444Y-1889579D02*
X2936967Y-1927674D01*
X2936967Y-1927674D02*
X2936967Y-1975293D01*
X2936967Y-1975293D02*
X2927444Y-2013388D01*
X2927444Y-2013388D02*
X2917920Y-2032436D01*
X2917920Y-2032436D02*
X2908396Y-2041960D01*
X2908396Y-2041960D02*
X2889348Y-2051484D01*
X2889348Y-2051484D02*
X2870301Y-2051484D01*
X2870301Y-2051484D02*
X2851253Y-2041960D01*
X2851253Y-2041960D02*
X2841729Y-2032436D01*
X2841729Y-2032436D02*
X2832206Y-2013388D01*
X2832206Y-2013388D02*
X2822682Y-1975293D01*
X2822682Y-1975293D02*
X2822682Y-1927674D01*
X2822682Y-1927674D02*
X2832206Y-1889579D01*
X2832206Y-1889579D02*
X2841729Y-1870531D01*
X2841729Y-1870531D02*
X2851253Y-1861008D01*
X2851253Y-1861008D02*
X2870301Y-1851484D01*
X3013158Y-1870531D02*
X3022682Y-1861008D01*
X3022682Y-1861008D02*
X3041729Y-1851484D01*
X3041729Y-1851484D02*
X3089348Y-1851484D01*
X3089348Y-1851484D02*
X3108396Y-1861008D01*
X3108396Y-1861008D02*
X3117920Y-1870531D01*
X3117920Y-1870531D02*
X3127444Y-1889579D01*
X3127444Y-1889579D02*
X3127444Y-1908627D01*
X3127444Y-1908627D02*
X3117920Y-1937198D01*
X3117920Y-1937198D02*
X3003634Y-2051484D01*
X3003634Y-2051484D02*
X3127444Y-2051484D01*
X3203634Y-1851484D02*
X3203634Y-1889579D01*
X3279825Y-1851484D02*
X3279825Y-1889579D01*
X3575063Y-2127674D02*
X3565539Y-2118150D01*
X3565539Y-2118150D02*
X3546491Y-2089579D01*
X3546491Y-2089579D02*
X3536968Y-2070531D01*
X3536968Y-2070531D02*
X3527444Y-2041960D01*
X3527444Y-2041960D02*
X3517920Y-1994341D01*
X3517920Y-1994341D02*
X3517920Y-1956246D01*
X3517920Y-1956246D02*
X3527444Y-1908627D01*
X3527444Y-1908627D02*
X3536968Y-1880055D01*
X3536968Y-1880055D02*
X3546491Y-1861008D01*
X3546491Y-1861008D02*
X3565539Y-1832436D01*
X3565539Y-1832436D02*
X3575063Y-1822912D01*
X3632206Y-1851484D02*
X3756015Y-1851484D01*
X3756015Y-1851484D02*
X3689348Y-1927674D01*
X3689348Y-1927674D02*
X3717920Y-1927674D01*
X3717920Y-1927674D02*
X3736968Y-1937198D01*
X3736968Y-1937198D02*
X3746491Y-1946722D01*
X3746491Y-1946722D02*
X3756015Y-1965769D01*
X3756015Y-1965769D02*
X3756015Y-2013388D01*
X3756015Y-2013388D02*
X3746491Y-2032436D01*
X3746491Y-2032436D02*
X3736968Y-2041960D01*
X3736968Y-2041960D02*
X3717920Y-2051484D01*
X3717920Y-2051484D02*
X3660777Y-2051484D01*
X3660777Y-2051484D02*
X3641729Y-2041960D01*
X3641729Y-2041960D02*
X3632206Y-2032436D01*
X3879825Y-1851484D02*
X3898872Y-1851484D01*
X3898872Y-1851484D02*
X3917920Y-1861008D01*
X3917920Y-1861008D02*
X3927444Y-1870531D01*
X3927444Y-1870531D02*
X3936968Y-1889579D01*
X3936968Y-1889579D02*
X3946491Y-1927674D01*
X3946491Y-1927674D02*
X3946491Y-1975293D01*
X3946491Y-1975293D02*
X3936968Y-2013388D01*
X3936968Y-2013388D02*
X3927444Y-2032436D01*
X3927444Y-2032436D02*
X3917920Y-2041960D01*
X3917920Y-2041960D02*
X3898872Y-2051484D01*
X3898872Y-2051484D02*
X3879825Y-2051484D01*
X3879825Y-2051484D02*
X3860777Y-2041960D01*
X3860777Y-2041960D02*
X3851253Y-2032436D01*
X3851253Y-2032436D02*
X3841729Y-2013388D01*
X3841729Y-2013388D02*
X3832206Y-1975293D01*
X3832206Y-1975293D02*
X3832206Y-1927674D01*
X3832206Y-1927674D02*
X3841729Y-1889579D01*
X3841729Y-1889579D02*
X3851253Y-1870531D01*
X3851253Y-1870531D02*
X3860777Y-1861008D01*
X3860777Y-1861008D02*
X3879825Y-1851484D01*
X4184587Y-2051484D02*
X4184587Y-1851484D01*
X4270301Y-2051484D02*
X4270301Y-1946722D01*
X4270301Y-1946722D02*
X4260777Y-1927674D01*
X4260777Y-1927674D02*
X4241730Y-1918150D01*
X4241730Y-1918150D02*
X4213158Y-1918150D01*
X4213158Y-1918150D02*
X4194110Y-1927674D01*
X4194110Y-1927674D02*
X4184587Y-1937198D01*
X4394111Y-2051484D02*
X4375063Y-2041960D01*
X4375063Y-2041960D02*
X4365539Y-2032436D01*
X4365539Y-2032436D02*
X4356015Y-2013388D01*
X4356015Y-2013388D02*
X4356015Y-1956246D01*
X4356015Y-1956246D02*
X4365539Y-1937198D01*
X4365539Y-1937198D02*
X4375063Y-1927674D01*
X4375063Y-1927674D02*
X4394111Y-1918150D01*
X4394111Y-1918150D02*
X4422682Y-1918150D01*
X4422682Y-1918150D02*
X4441730Y-1927674D01*
X4441730Y-1927674D02*
X4451253Y-1937198D01*
X4451253Y-1937198D02*
X4460777Y-1956246D01*
X4460777Y-1956246D02*
X4460777Y-2013388D01*
X4460777Y-2013388D02*
X4451253Y-2032436D01*
X4451253Y-2032436D02*
X4441730Y-2041960D01*
X4441730Y-2041960D02*
X4422682Y-2051484D01*
X4422682Y-2051484D02*
X4394111Y-2051484D01*
X4575063Y-2051484D02*
X4556015Y-2041960D01*
X4556015Y-2041960D02*
X4546492Y-2022912D01*
X4546492Y-2022912D02*
X4546492Y-1851484D01*
X4727444Y-2041960D02*
X4708396Y-2051484D01*
X4708396Y-2051484D02*
X4670301Y-2051484D01*
X4670301Y-2051484D02*
X4651253Y-2041960D01*
X4651253Y-2041960D02*
X4641730Y-2022912D01*
X4641730Y-2022912D02*
X4641730Y-1946722D01*
X4641730Y-1946722D02*
X4651253Y-1927674D01*
X4651253Y-1927674D02*
X4670301Y-1918150D01*
X4670301Y-1918150D02*
X4708396Y-1918150D01*
X4708396Y-1918150D02*
X4727444Y-1927674D01*
X4727444Y-1927674D02*
X4736968Y-1946722D01*
X4736968Y-1946722D02*
X4736968Y-1965769D01*
X4736968Y-1965769D02*
X4641730Y-1984817D01*
X4813158Y-2041960D02*
X4832206Y-2051484D01*
X4832206Y-2051484D02*
X4870301Y-2051484D01*
X4870301Y-2051484D02*
X4889349Y-2041960D01*
X4889349Y-2041960D02*
X4898873Y-2022912D01*
X4898873Y-2022912D02*
X4898873Y-2013388D01*
X4898873Y-2013388D02*
X4889349Y-1994341D01*
X4889349Y-1994341D02*
X4870301Y-1984817D01*
X4870301Y-1984817D02*
X4841730Y-1984817D01*
X4841730Y-1984817D02*
X4822682Y-1975293D01*
X4822682Y-1975293D02*
X4813158Y-1956246D01*
X4813158Y-1956246D02*
X4813158Y-1946722D01*
X4813158Y-1946722D02*
X4822682Y-1927674D01*
X4822682Y-1927674D02*
X4841730Y-1918150D01*
X4841730Y-1918150D02*
X4870301Y-1918150D01*
X4870301Y-1918150D02*
X4889349Y-1927674D01*
X4965539Y-2127674D02*
X4975063Y-2118150D01*
X4975063Y-2118150D02*
X4994111Y-2089579D01*
X4994111Y-2089579D02*
X5003634Y-2070531D01*
X5003634Y-2070531D02*
X5013158Y-2041960D01*
X5013158Y-2041960D02*
X5022682Y-1994341D01*
X5022682Y-1994341D02*
X5022682Y-1956246D01*
X5022682Y-1956246D02*
X5013158Y-1908627D01*
X5013158Y-1908627D02*
X5003634Y-1880055D01*
X5003634Y-1880055D02*
X4994111Y-1861008D01*
X4994111Y-1861008D02*
X4975063Y-1832436D01*
X4975063Y-1832436D02*
X4965539Y-1822912D01*
M02*
