%TF.GenerationSoftware,KiCad,Pcbnew,7.0.7*%
%TF.CreationDate,2023-11-04T11:15:44-05:00*%
%TF.ProjectId,proyectointroducci_n,70726f79-6563-4746-9f69-6e74726f6475,rev?*%
%TF.SameCoordinates,Original*%
%TF.FileFunction,Copper,L2,Bot*%
%TF.FilePolarity,Positive*%
%FSLAX46Y46*%
G04 Gerber Fmt 4.6, Leading zero omitted, Abs format (unit mm)*
G04 Created by KiCad (PCBNEW 7.0.7) date 2023-11-04 11:15:44*
%MOMM*%
%LPD*%
G01*
G04 APERTURE LIST*
G04 Aperture macros list*
%AMRoundRect*
0 Rectangle with rounded corners*
0 $1 Rounding radius*
0 $2 $3 $4 $5 $6 $7 $8 $9 X,Y pos of 4 corners*
0 Add a 4 corners polygon primitive as box body*
4,1,4,$2,$3,$4,$5,$6,$7,$8,$9,$2,$3,0*
0 Add four circle primitives for the rounded corners*
1,1,$1+$1,$2,$3*
1,1,$1+$1,$4,$5*
1,1,$1+$1,$6,$7*
1,1,$1+$1,$8,$9*
0 Add four rect primitives between the rounded corners*
20,1,$1+$1,$2,$3,$4,$5,0*
20,1,$1+$1,$4,$5,$6,$7,0*
20,1,$1+$1,$6,$7,$8,$9,0*
20,1,$1+$1,$8,$9,$2,$3,0*%
G04 Aperture macros list end*
%ADD10C,0.150000*%
%TA.AperFunction,NonConductor*%
%ADD11C,0.150000*%
%TD*%
%TA.AperFunction,ComponentPad*%
%ADD12R,1.800000X1.800000*%
%TD*%
%TA.AperFunction,ComponentPad*%
%ADD13C,1.800000*%
%TD*%
%TA.AperFunction,ComponentPad*%
%ADD14R,1.600000X1.600000*%
%TD*%
%TA.AperFunction,ComponentPad*%
%ADD15C,1.600000*%
%TD*%
%TA.AperFunction,ComponentPad*%
%ADD16O,1.600000X1.600000*%
%TD*%
%TA.AperFunction,ComponentPad*%
%ADD17R,1.300000X1.300000*%
%TD*%
%TA.AperFunction,ComponentPad*%
%ADD18C,1.300000*%
%TD*%
%TA.AperFunction,ComponentPad*%
%ADD19R,3.500000X3.500000*%
%TD*%
%TA.AperFunction,ComponentPad*%
%ADD20RoundRect,0.750000X-0.750000X-1.000000X0.750000X-1.000000X0.750000X1.000000X-0.750000X1.000000X0*%
%TD*%
%TA.AperFunction,ComponentPad*%
%ADD21RoundRect,0.875000X-0.875000X-0.875000X0.875000X-0.875000X0.875000X0.875000X-0.875000X0.875000X0*%
%TD*%
%TA.AperFunction,ComponentPad*%
%ADD22R,2.000000X2.000000*%
%TD*%
%TA.AperFunction,ComponentPad*%
%ADD23C,2.000000*%
%TD*%
%TA.AperFunction,ComponentPad*%
%ADD24R,1.700000X1.700000*%
%TD*%
%TA.AperFunction,ComponentPad*%
%ADD25O,1.700000X1.700000*%
%TD*%
%TA.AperFunction,ComponentPad*%
%ADD26C,1.524000*%
%TD*%
%TA.AperFunction,SMDPad,CuDef*%
%ADD27R,7.340000X6.350000*%
%TD*%
%TA.AperFunction,Conductor*%
%ADD28C,0.700000*%
%TD*%
%TA.AperFunction,Conductor*%
%ADD29C,1.300000*%
%TD*%
G04 APERTURE END LIST*
D10*
D11*
X105124762Y-147727200D02*
X105267619Y-147774819D01*
X105267619Y-147774819D02*
X105505714Y-147774819D01*
X105505714Y-147774819D02*
X105600952Y-147727200D01*
X105600952Y-147727200D02*
X105648571Y-147679580D01*
X105648571Y-147679580D02*
X105696190Y-147584342D01*
X105696190Y-147584342D02*
X105696190Y-147489104D01*
X105696190Y-147489104D02*
X105648571Y-147393866D01*
X105648571Y-147393866D02*
X105600952Y-147346247D01*
X105600952Y-147346247D02*
X105505714Y-147298628D01*
X105505714Y-147298628D02*
X105315238Y-147251009D01*
X105315238Y-147251009D02*
X105220000Y-147203390D01*
X105220000Y-147203390D02*
X105172381Y-147155771D01*
X105172381Y-147155771D02*
X105124762Y-147060533D01*
X105124762Y-147060533D02*
X105124762Y-146965295D01*
X105124762Y-146965295D02*
X105172381Y-146870057D01*
X105172381Y-146870057D02*
X105220000Y-146822438D01*
X105220000Y-146822438D02*
X105315238Y-146774819D01*
X105315238Y-146774819D02*
X105553333Y-146774819D01*
X105553333Y-146774819D02*
X105696190Y-146822438D01*
X106124762Y-147251009D02*
X106458095Y-147251009D01*
X106600952Y-147774819D02*
X106124762Y-147774819D01*
X106124762Y-147774819D02*
X106124762Y-146774819D01*
X106124762Y-146774819D02*
X106600952Y-146774819D01*
X107029524Y-147774819D02*
X107029524Y-146774819D01*
X107029524Y-146774819D02*
X107600952Y-147774819D01*
X107600952Y-147774819D02*
X107600952Y-146774819D01*
X108029524Y-147727200D02*
X108172381Y-147774819D01*
X108172381Y-147774819D02*
X108410476Y-147774819D01*
X108410476Y-147774819D02*
X108505714Y-147727200D01*
X108505714Y-147727200D02*
X108553333Y-147679580D01*
X108553333Y-147679580D02*
X108600952Y-147584342D01*
X108600952Y-147584342D02*
X108600952Y-147489104D01*
X108600952Y-147489104D02*
X108553333Y-147393866D01*
X108553333Y-147393866D02*
X108505714Y-147346247D01*
X108505714Y-147346247D02*
X108410476Y-147298628D01*
X108410476Y-147298628D02*
X108220000Y-147251009D01*
X108220000Y-147251009D02*
X108124762Y-147203390D01*
X108124762Y-147203390D02*
X108077143Y-147155771D01*
X108077143Y-147155771D02*
X108029524Y-147060533D01*
X108029524Y-147060533D02*
X108029524Y-146965295D01*
X108029524Y-146965295D02*
X108077143Y-146870057D01*
X108077143Y-146870057D02*
X108124762Y-146822438D01*
X108124762Y-146822438D02*
X108220000Y-146774819D01*
X108220000Y-146774819D02*
X108458095Y-146774819D01*
X108458095Y-146774819D02*
X108600952Y-146822438D01*
X109220000Y-146774819D02*
X109410476Y-146774819D01*
X109410476Y-146774819D02*
X109505714Y-146822438D01*
X109505714Y-146822438D02*
X109600952Y-146917676D01*
X109600952Y-146917676D02*
X109648571Y-147108152D01*
X109648571Y-147108152D02*
X109648571Y-147441485D01*
X109648571Y-147441485D02*
X109600952Y-147631961D01*
X109600952Y-147631961D02*
X109505714Y-147727200D01*
X109505714Y-147727200D02*
X109410476Y-147774819D01*
X109410476Y-147774819D02*
X109220000Y-147774819D01*
X109220000Y-147774819D02*
X109124762Y-147727200D01*
X109124762Y-147727200D02*
X109029524Y-147631961D01*
X109029524Y-147631961D02*
X108981905Y-147441485D01*
X108981905Y-147441485D02*
X108981905Y-147108152D01*
X108981905Y-147108152D02*
X109029524Y-146917676D01*
X109029524Y-146917676D02*
X109124762Y-146822438D01*
X109124762Y-146822438D02*
X109220000Y-146774819D01*
X110648571Y-147774819D02*
X110315238Y-147298628D01*
X110077143Y-147774819D02*
X110077143Y-146774819D01*
X110077143Y-146774819D02*
X110458095Y-146774819D01*
X110458095Y-146774819D02*
X110553333Y-146822438D01*
X110553333Y-146822438D02*
X110600952Y-146870057D01*
X110600952Y-146870057D02*
X110648571Y-146965295D01*
X110648571Y-146965295D02*
X110648571Y-147108152D01*
X110648571Y-147108152D02*
X110600952Y-147203390D01*
X110600952Y-147203390D02*
X110553333Y-147251009D01*
X110553333Y-147251009D02*
X110458095Y-147298628D01*
X110458095Y-147298628D02*
X110077143Y-147298628D01*
X111839048Y-146774819D02*
X111839048Y-147584342D01*
X111839048Y-147584342D02*
X111886667Y-147679580D01*
X111886667Y-147679580D02*
X111934286Y-147727200D01*
X111934286Y-147727200D02*
X112029524Y-147774819D01*
X112029524Y-147774819D02*
X112220000Y-147774819D01*
X112220000Y-147774819D02*
X112315238Y-147727200D01*
X112315238Y-147727200D02*
X112362857Y-147679580D01*
X112362857Y-147679580D02*
X112410476Y-147584342D01*
X112410476Y-147584342D02*
X112410476Y-146774819D01*
X112743810Y-146774819D02*
X113077143Y-147774819D01*
X113077143Y-147774819D02*
X113410476Y-146774819D01*
D12*
%TO.P,D2,1,K*%
%TO.N,GND*%
X81070000Y-66040000D03*
D13*
%TO.P,D2,2,A*%
%TO.N,Net-(D2-A)*%
X81070000Y-68580000D03*
%TD*%
D12*
%TO.P,D4,1,K*%
%TO.N,GND*%
X106680000Y-66040000D03*
D13*
%TO.P,D4,2,A*%
%TO.N,Net-(D4-A)*%
X106680000Y-68580000D03*
%TD*%
D14*
%TO.P,LS1,1,1*%
%TO.N,+5V*%
X38120000Y-71120000D03*
D15*
%TO.P,LS1,2,2*%
%TO.N,Net-(Q1-C)*%
X45720000Y-71120000D03*
%TD*%
%TO.P,R2,1*%
%TO.N,Net-(U3-D23)*%
X55880000Y-83820000D03*
D16*
%TO.P,R2,2*%
%TO.N,Net-(Q1-B)*%
X55880000Y-73660000D03*
%TD*%
D15*
%TO.P,R5,1*%
%TO.N,Net-(U3-D18)*%
X88900000Y-83820000D03*
D16*
%TO.P,R5,2*%
%TO.N,Net-(D3-A)*%
X88900000Y-73660000D03*
%TD*%
D12*
%TO.P,D1,1,K*%
%TO.N,GND*%
X71120000Y-66040000D03*
D13*
%TO.P,D1,2,A*%
%TO.N,Net-(D1-A)*%
X71120000Y-68580000D03*
%TD*%
D15*
%TO.P,R7,1*%
%TO.N,Net-(U3-D5)*%
X96520000Y-83820000D03*
D16*
%TO.P,R7,2*%
%TO.N,Net-(D5-A)*%
X96520000Y-73660000D03*
%TD*%
D12*
%TO.P,D3,1,K*%
%TO.N,GND*%
X88900000Y-66040000D03*
D13*
%TO.P,D3,2,A*%
%TO.N,Net-(D3-A)*%
X88900000Y-68580000D03*
%TD*%
D15*
%TO.P,R3,1*%
%TO.N,Net-(U3-D21)*%
X71120000Y-83820000D03*
D16*
%TO.P,R3,2*%
%TO.N,Net-(D1-A)*%
X71120000Y-73660000D03*
%TD*%
D15*
%TO.P,R4,1*%
%TO.N,Net-(U3-D19)*%
X81280000Y-83820000D03*
D16*
%TO.P,R4,2*%
%TO.N,Net-(D2-A)*%
X81280000Y-73660000D03*
%TD*%
D12*
%TO.P,D5,1,K*%
%TO.N,GND*%
X96520000Y-66040000D03*
D13*
%TO.P,D5,2,A*%
%TO.N,Net-(D5-A)*%
X96520000Y-68580000D03*
%TD*%
D17*
%TO.P,Q1,1,E*%
%TO.N,GND*%
X55880000Y-66040000D03*
D18*
%TO.P,Q1,2,B*%
%TO.N,Net-(Q1-B)*%
X54610000Y-67310000D03*
%TO.P,Q1,3,C*%
%TO.N,Net-(Q1-C)*%
X53340000Y-66040000D03*
%TD*%
D19*
%TO.P,J1,1*%
%TO.N,Net-(U2-VIN)*%
X46640000Y-146362500D03*
D20*
%TO.P,J1,2*%
%TO.N,GND*%
X40640000Y-146362500D03*
D21*
%TO.P,J1,3*%
%TO.N,N/C*%
X43640000Y-151062500D03*
%TD*%
D22*
%TO.P,U3,1,3V3*%
%TO.N,+3V3*%
X104415000Y-88900000D03*
D23*
%TO.P,U3,2,GND*%
%TO.N,GND*%
X101875000Y-88900000D03*
%TO.P,U3,3,D15*%
%TO.N,Net-(U3-D15)*%
X99335000Y-88900000D03*
%TO.P,U3,4,D2*%
%TO.N,/aux1*%
X96795000Y-88900000D03*
%TO.P,U3,5,D4*%
%TO.N,/ADCaux*%
X94255000Y-88900000D03*
%TO.P,U3,6,RX2*%
%TO.N,unconnected-(U3-RX2-Pad6)*%
X91715000Y-88900000D03*
%TO.P,U3,7,TX2*%
%TO.N,unconnected-(U3-TX2-Pad7)*%
X89175000Y-88900000D03*
%TO.P,U3,8,D5*%
%TO.N,Net-(U3-D5)*%
X86635000Y-88900000D03*
%TO.P,U3,9,D18*%
%TO.N,Net-(U3-D18)*%
X84095000Y-88900000D03*
%TO.P,U3,10,D19*%
%TO.N,Net-(U3-D19)*%
X81555000Y-88900000D03*
%TO.P,U3,11,D21*%
%TO.N,Net-(U3-D21)*%
X79015000Y-88900000D03*
%TO.P,U3,12,RX0*%
%TO.N,unconnected-(U3-RX0-Pad12)*%
X76475000Y-88900000D03*
%TO.P,U3,13,TX0*%
%TO.N,unconnected-(U3-TX0-Pad13)*%
X73935000Y-88900000D03*
%TO.P,U3,14,D22*%
%TO.N,/auxled*%
X71395000Y-88900000D03*
%TO.P,U3,15,D23*%
%TO.N,Net-(U3-D23)*%
X68855000Y-88900000D03*
%TO.P,U3,16,EN*%
%TO.N,Net-(U3-EN)*%
X68855000Y-114300000D03*
%TO.P,U3,17,VP*%
%TO.N,unconnected-(U3-VP-Pad17)*%
X71395000Y-114300000D03*
%TO.P,U3,18,VN*%
%TO.N,unconnected-(U3-VN-Pad18)*%
X73935000Y-114300000D03*
%TO.P,U3,19,D34*%
%TO.N,unconnected-(U3-D34-Pad19)*%
X76475000Y-114300000D03*
%TO.P,U3,20,D35*%
%TO.N,unconnected-(U3-D35-Pad20)*%
X79015000Y-114300000D03*
%TO.P,U3,21,D32*%
%TO.N,unconnected-(U3-D32-Pad21)*%
X81555000Y-114300000D03*
%TO.P,U3,22,D33*%
%TO.N,unconnected-(U3-D33-Pad22)*%
X84095000Y-114300000D03*
%TO.P,U3,23,D25*%
%TO.N,/se\u00F1alsensor*%
X86635000Y-114300000D03*
%TO.P,U3,24,D26*%
%TO.N,unconnected-(U3-D26-Pad24)*%
X89175000Y-114300000D03*
%TO.P,U3,25,D27*%
%TO.N,unconnected-(U3-D27-Pad25)*%
X91715000Y-114300000D03*
%TO.P,U3,26,D14*%
%TO.N,unconnected-(U3-D14-Pad26)*%
X94255000Y-114300000D03*
%TO.P,U3,27,D12*%
%TO.N,unconnected-(U3-D12-Pad27)*%
X96795000Y-114300000D03*
%TO.P,U3,28,D13*%
%TO.N,unconnected-(U3-D13-Pad28)*%
X99335000Y-114300000D03*
%TO.P,U3,29,GND*%
%TO.N,GND*%
X101875000Y-114300000D03*
%TO.P,U3,30,VIN*%
%TO.N,+5V*%
X104415000Y-114300000D03*
%TD*%
D24*
%TO.P,J2,1,Pin_1*%
%TO.N,/aux1*%
X38100000Y-96520000D03*
D25*
%TO.P,J2,2,Pin_2*%
%TO.N,/auxled*%
X38100000Y-99060000D03*
%TO.P,J2,3,Pin_3*%
%TO.N,/ADCaux*%
X38100000Y-101600000D03*
%TO.P,J2,4,Pin_4*%
%TO.N,+3V3*%
X38100000Y-104140000D03*
%TO.P,J2,5,Pin_5*%
%TO.N,GND*%
X38100000Y-106680000D03*
%TO.P,J2,6,Pin_6*%
%TO.N,+5V*%
X38100000Y-109220000D03*
%TD*%
D26*
%TO.P,U2,1,VIN*%
%TO.N,Net-(U2-VIN)*%
X76200000Y-153670000D03*
%TO.P,U2,2,GND*%
%TO.N,GND*%
X76200000Y-151130000D03*
%TO.P,U2,3,GND*%
X76200000Y-148590000D03*
%TO.P,U2,4,BAT*%
%TO.N,Net-(BT1-+)*%
X76200000Y-146050000D03*
%TO.P,U2,5,GND*%
%TO.N,Net-(U3-EN)*%
X76200000Y-143510000D03*
%TO.P,U2,6,OUT-5V*%
%TO.N,+5V*%
X76200000Y-140970000D03*
%TD*%
D15*
%TO.P,R6,1*%
%TO.N,Net-(U3-D15)*%
X106680000Y-83820000D03*
D16*
%TO.P,R6,2*%
%TO.N,Net-(D4-A)*%
X106680000Y-73660000D03*
%TD*%
D24*
%TO.P,J3,1,Pin_1*%
%TO.N,+5V*%
X88900000Y-149860000D03*
D25*
%TO.P,J3,2,Pin_2*%
%TO.N,GND*%
X88900000Y-147320000D03*
%TO.P,J3,3,Pin_3*%
%TO.N,/se\u00F1alsensor*%
X88900000Y-144780000D03*
%TD*%
D27*
%TO.P,BT1,1,+*%
%TO.N,Net-(BT1-+)*%
X35260000Y-127380000D03*
%TO.P,BT1,2,-*%
%TO.N,GND*%
X113920000Y-127380000D03*
%TD*%
D28*
%TO.N,/aux1*%
X96901000Y-86741000D02*
X96795000Y-88900000D01*
X51054000Y-75819000D02*
X99314000Y-75692000D01*
X99314000Y-75692000D02*
X99060000Y-85979000D01*
X38100000Y-96520000D02*
X38100000Y-94234000D01*
X38100000Y-94234000D02*
X51054000Y-75819000D01*
X99060000Y-85979000D02*
X96901000Y-86741000D01*
%TO.N,Net-(BT1-+)*%
X54610000Y-146050000D02*
X52070000Y-143510000D01*
X44870000Y-127420000D02*
X35760000Y-127420000D01*
X52070000Y-134620000D02*
X44870000Y-127420000D01*
X52070000Y-143510000D02*
X52070000Y-134620000D01*
X76200000Y-146050000D02*
X54610000Y-146050000D01*
%TO.N,Net-(D1-A)*%
X71120000Y-68580000D02*
X71120000Y-73660000D01*
%TO.N,Net-(D2-A)*%
X81070000Y-73450000D02*
X81280000Y-73660000D01*
X81070000Y-68580000D02*
X81070000Y-73450000D01*
%TO.N,Net-(D3-A)*%
X88900000Y-68580000D02*
X88900000Y-73660000D01*
%TO.N,Net-(D4-A)*%
X106680000Y-68580000D02*
X106680000Y-73660000D01*
%TO.N,Net-(D5-A)*%
X96520000Y-68580000D02*
X96520000Y-73660000D01*
%TO.N,Net-(U2-VIN)*%
X76200000Y-153670000D02*
X53947500Y-153670000D01*
X46640000Y-146362500D02*
X46677500Y-146362500D01*
X53947500Y-153670000D02*
X46640000Y-146362500D01*
D29*
%TO.N,+3V3*%
X43053000Y-104140000D02*
X44291472Y-105378472D01*
X104218571Y-100330000D02*
X104415000Y-100133571D01*
X44291472Y-105378472D02*
X44291472Y-111180000D01*
X84420000Y-109468528D02*
X84420000Y-106680000D01*
X82708528Y-111180000D02*
X84420000Y-109468528D01*
X104415000Y-100133571D02*
X104415000Y-88900000D01*
X44291472Y-111180000D02*
X82708528Y-111180000D01*
X38100000Y-104140000D02*
X43053000Y-104140000D01*
X84420000Y-106680000D02*
X104218571Y-100330000D01*
%TO.N,+5V*%
X31496000Y-107569000D02*
X31496000Y-77744000D01*
X82550000Y-152400000D02*
X94361000Y-152400000D01*
X82550000Y-147320000D02*
X82550000Y-152400000D01*
X46248000Y-62992000D02*
X38120000Y-71120000D01*
X107442000Y-118110000D02*
X108384000Y-117168000D01*
X94361000Y-152400000D02*
X94742000Y-152019000D01*
X108384000Y-117168000D02*
X108384000Y-87450000D01*
X33147000Y-109220000D02*
X31496000Y-107569000D01*
X108384000Y-87450000D02*
X112014000Y-83820000D01*
X88900000Y-149860000D02*
X88900000Y-152400000D01*
X76200000Y-140970000D02*
X82550000Y-147320000D01*
X112014000Y-83820000D02*
X112014000Y-62992000D01*
X94742000Y-123698000D02*
X100330000Y-118110000D01*
X104140000Y-118110000D02*
X107442000Y-118110000D01*
X104140000Y-118110000D02*
X104415000Y-117835000D01*
X38100000Y-109220000D02*
X33147000Y-109220000D01*
X112014000Y-62992000D02*
X46248000Y-62992000D01*
X31496000Y-77744000D02*
X38120000Y-71120000D01*
X100330000Y-118110000D02*
X104140000Y-118110000D01*
X94742000Y-152019000D02*
X94742000Y-123698000D01*
X104415000Y-117835000D02*
X104415000Y-114300000D01*
D28*
%TO.N,Net-(Q1-C)*%
X53340000Y-66040000D02*
X50800000Y-66040000D01*
X50800000Y-66040000D02*
X50800000Y-71120000D01*
X50800000Y-71120000D02*
X45720000Y-71120000D01*
%TO.N,Net-(Q1-B)*%
X54610000Y-67310000D02*
X54610000Y-72390000D01*
X54610000Y-72390000D02*
X55880000Y-73660000D01*
%TO.N,Net-(U3-D23)*%
X63775000Y-83820000D02*
X68855000Y-88900000D01*
X55880000Y-83820000D02*
X63775000Y-83820000D01*
%TO.N,Net-(U3-D21)*%
X73660000Y-83820000D02*
X76200000Y-83820000D01*
X71120000Y-83820000D02*
X73660000Y-83820000D01*
X78596321Y-88900000D02*
X79015000Y-88900000D01*
X76200000Y-83820000D02*
X78596321Y-88900000D01*
%TO.N,Net-(U3-D19)*%
X81280000Y-83820000D02*
X81280000Y-88625000D01*
X81280000Y-88625000D02*
X81555000Y-88900000D01*
%TO.N,Net-(U3-D18)*%
X86360000Y-83820000D02*
X84095000Y-86085000D01*
X84095000Y-86085000D02*
X84095000Y-88900000D01*
X88900000Y-83820000D02*
X86360000Y-83820000D01*
%TO.N,Net-(U3-D15)*%
X101600000Y-86085000D02*
X99335000Y-88900000D01*
X106680000Y-83820000D02*
X101600000Y-83820000D01*
X101600000Y-83820000D02*
X101600000Y-86085000D01*
%TO.N,Net-(U3-EN)*%
X68855000Y-136165000D02*
X68855000Y-114300000D01*
X76200000Y-143510000D02*
X68855000Y-136165000D01*
%TO.N,/ADCaux*%
X48260000Y-92040000D02*
X91440000Y-92040000D01*
X48260000Y-92040000D02*
X48260000Y-101600000D01*
X48260000Y-101600000D02*
X38100000Y-101600000D01*
X91440000Y-92040000D02*
X94255000Y-88900000D01*
%TO.N,/auxled*%
X66929000Y-81280000D02*
X66929000Y-83566000D01*
X38100000Y-99060000D02*
X41910000Y-99060000D01*
X41910000Y-99060000D02*
X45720000Y-95250000D01*
X45720000Y-95250000D02*
X45720000Y-90170000D01*
X54610000Y-81280000D02*
X66929000Y-81280000D01*
X66929000Y-83566000D02*
X71395000Y-88900000D01*
X45720000Y-90170000D02*
X54610000Y-81280000D01*
%TO.N,Net-(U3-D5)*%
X86995000Y-86360000D02*
X86635000Y-88900000D01*
X91694000Y-86233000D02*
X86995000Y-86360000D01*
X96520000Y-83820000D02*
X93980000Y-83820000D01*
X93980000Y-83820000D02*
X91694000Y-86233000D01*
%TO.N,/se\u00F1alsensor*%
X88900000Y-144780000D02*
X88900000Y-116565000D01*
X88900000Y-116565000D02*
X86635000Y-114300000D01*
%TD*%
%TA.AperFunction,Conductor*%
%TO.N,GND*%
G36*
X119247539Y-61055185D02*
G01*
X119293294Y-61107989D01*
X119304500Y-61159500D01*
X119304500Y-157280500D01*
X119284815Y-157347539D01*
X119232011Y-157393294D01*
X119180500Y-157404500D01*
X28139500Y-157404500D01*
X28072461Y-157384815D01*
X28026706Y-157332011D01*
X28015500Y-157280500D01*
X28015500Y-152031126D01*
X41389500Y-152031126D01*
X41392295Y-152083743D01*
X41392295Y-152083744D01*
X41425811Y-152257040D01*
X41436755Y-152313626D01*
X41477627Y-152421929D01*
X41519425Y-152532689D01*
X41637929Y-152734631D01*
X41637934Y-152734638D01*
X41788856Y-152913641D01*
X41788858Y-152913643D01*
X41967861Y-153064565D01*
X41967868Y-153064570D01*
X42169810Y-153183074D01*
X42388874Y-153265745D01*
X42618759Y-153310205D01*
X42660194Y-153312405D01*
X42671374Y-153313000D01*
X42671378Y-153313000D01*
X44608626Y-153313000D01*
X44618731Y-153312462D01*
X44661241Y-153310205D01*
X44891126Y-153265745D01*
X45110190Y-153183074D01*
X45312132Y-153064570D01*
X45325476Y-153053319D01*
X45491141Y-152913643D01*
X45491143Y-152913641D01*
X45642065Y-152734638D01*
X45642065Y-152734637D01*
X45642070Y-152734632D01*
X45760574Y-152532690D01*
X45843245Y-152313626D01*
X45887705Y-152083741D01*
X45890500Y-152031122D01*
X45890500Y-150093878D01*
X45887705Y-150041259D01*
X45843245Y-149811374D01*
X45760574Y-149592310D01*
X45642070Y-149390368D01*
X45642065Y-149390361D01*
X45491143Y-149211358D01*
X45491141Y-149211356D01*
X45312138Y-149060434D01*
X45312131Y-149060429D01*
X45110189Y-148941925D01*
X45005760Y-148902516D01*
X44891126Y-148859255D01*
X44891121Y-148859254D01*
X44891116Y-148859252D01*
X44888470Y-148858740D01*
X44887451Y-148858213D01*
X44886050Y-148857817D01*
X44886130Y-148857531D01*
X44826392Y-148826677D01*
X44791503Y-148766141D01*
X44794881Y-148696353D01*
X44835452Y-148639470D01*
X44900337Y-148613552D01*
X44912009Y-148612999D01*
X47636348Y-148612999D01*
X47703387Y-148632684D01*
X47724029Y-148649318D01*
X53319885Y-154245173D01*
X53323288Y-154248865D01*
X53359162Y-154291099D01*
X53423626Y-154340104D01*
X53486742Y-154390838D01*
X53486747Y-154390842D01*
X53486752Y-154390844D01*
X53487663Y-154391427D01*
X53505455Y-154402463D01*
X53506433Y-154403052D01*
X53506436Y-154403054D01*
X53579929Y-154437055D01*
X53652479Y-154473037D01*
X53652482Y-154473037D01*
X53652487Y-154473040D01*
X53653519Y-154473419D01*
X53673353Y-154480402D01*
X53674335Y-154480733D01*
X53753416Y-154498139D01*
X53832006Y-154517684D01*
X53832010Y-154517684D01*
X53832014Y-154517685D01*
X53833104Y-154517833D01*
X53853875Y-154520377D01*
X53855002Y-154520499D01*
X53855003Y-154520500D01*
X53855004Y-154520500D01*
X53935970Y-154520500D01*
X54016933Y-154522693D01*
X54016933Y-154522692D01*
X54016936Y-154522693D01*
X54017980Y-154522608D01*
X54040149Y-154520500D01*
X75213692Y-154520500D01*
X75280731Y-154540185D01*
X75301373Y-154556819D01*
X75385378Y-154640824D01*
X75385384Y-154640829D01*
X75566333Y-154767531D01*
X75566335Y-154767532D01*
X75566338Y-154767534D01*
X75766550Y-154860894D01*
X75979932Y-154918070D01*
X76137123Y-154931822D01*
X76199998Y-154937323D01*
X76200000Y-154937323D01*
X76200002Y-154937323D01*
X76255017Y-154932509D01*
X76420068Y-154918070D01*
X76633450Y-154860894D01*
X76833662Y-154767534D01*
X77014620Y-154640826D01*
X77170826Y-154484620D01*
X77297534Y-154303662D01*
X77390894Y-154103450D01*
X77448070Y-153890068D01*
X77467323Y-153670000D01*
X77448070Y-153449932D01*
X77390894Y-153236550D01*
X77297534Y-153036339D01*
X77170826Y-152855380D01*
X77014620Y-152699174D01*
X77014616Y-152699171D01*
X77014615Y-152699170D01*
X76833666Y-152572468D01*
X76833662Y-152572466D01*
X76833660Y-152572465D01*
X76633450Y-152479106D01*
X76633447Y-152479105D01*
X76633445Y-152479104D01*
X76420070Y-152421930D01*
X76420062Y-152421929D01*
X76200002Y-152402677D01*
X76199998Y-152402677D01*
X75979937Y-152421929D01*
X75979929Y-152421930D01*
X75766554Y-152479104D01*
X75766548Y-152479107D01*
X75566340Y-152572465D01*
X75566338Y-152572466D01*
X75385381Y-152699172D01*
X75352094Y-152732460D01*
X75301371Y-152783182D01*
X75240051Y-152816666D01*
X75213692Y-152819500D01*
X54351151Y-152819500D01*
X54284112Y-152799815D01*
X54263470Y-152783181D01*
X48926818Y-147446529D01*
X48893333Y-147385206D01*
X48890499Y-147358848D01*
X48890499Y-146049997D01*
X48890499Y-144564628D01*
X48884091Y-144505017D01*
X48875069Y-144480829D01*
X48833797Y-144370171D01*
X48833793Y-144370164D01*
X48747547Y-144254955D01*
X48747544Y-144254952D01*
X48632335Y-144168706D01*
X48632328Y-144168702D01*
X48497482Y-144118408D01*
X48497483Y-144118408D01*
X48437883Y-144112001D01*
X48437881Y-144112000D01*
X48437873Y-144112000D01*
X48437864Y-144112000D01*
X44842129Y-144112000D01*
X44842123Y-144112001D01*
X44782516Y-144118408D01*
X44647671Y-144168702D01*
X44647664Y-144168706D01*
X44532455Y-144254952D01*
X44532452Y-144254955D01*
X44446206Y-144370164D01*
X44446202Y-144370171D01*
X44395908Y-144505017D01*
X44389501Y-144564616D01*
X44389501Y-144564623D01*
X44389500Y-144564635D01*
X44389500Y-148160370D01*
X44389501Y-148160376D01*
X44395908Y-148219983D01*
X44446202Y-148354828D01*
X44446206Y-148354835D01*
X44532452Y-148470044D01*
X44532455Y-148470047D01*
X44647664Y-148556293D01*
X44647673Y-148556298D01*
X44694937Y-148573926D01*
X44750871Y-148615796D01*
X44775289Y-148681260D01*
X44760438Y-148749533D01*
X44711033Y-148798939D01*
X44645028Y-148813933D01*
X44608627Y-148812000D01*
X44608622Y-148812000D01*
X42671378Y-148812000D01*
X42671374Y-148812000D01*
X42618756Y-148814795D01*
X42618755Y-148814795D01*
X42388878Y-148859254D01*
X42388876Y-148859254D01*
X42388874Y-148859255D01*
X42314933Y-148887158D01*
X42169810Y-148941925D01*
X41967868Y-149060429D01*
X41967861Y-149060434D01*
X41788858Y-149211356D01*
X41788856Y-149211358D01*
X41637934Y-149390361D01*
X41637929Y-149390368D01*
X41519425Y-149592310D01*
X41464659Y-149737433D01*
X41436755Y-149811374D01*
X41436754Y-149811376D01*
X41436754Y-149811378D01*
X41392295Y-150041255D01*
X41392295Y-150041256D01*
X41389500Y-150093874D01*
X41389500Y-152031126D01*
X28015500Y-152031126D01*
X28015500Y-135499776D01*
X37214500Y-135499776D01*
X37253930Y-135736067D01*
X37331711Y-135962637D01*
X37331713Y-135962642D01*
X37445730Y-136173325D01*
X37445734Y-136173331D01*
X37569918Y-136332882D01*
X37592866Y-136362366D01*
X37769113Y-136524612D01*
X37969660Y-136655636D01*
X38189038Y-136751864D01*
X38421263Y-136810672D01*
X38600213Y-136825500D01*
X38600215Y-136825500D01*
X38719785Y-136825500D01*
X38719787Y-136825500D01*
X38898737Y-136810672D01*
X39130962Y-136751864D01*
X39350340Y-136655636D01*
X39550887Y-136524612D01*
X39727134Y-136362366D01*
X39874271Y-136173323D01*
X39988287Y-135962641D01*
X40066070Y-135736065D01*
X40105500Y-135499778D01*
X40105500Y-135260222D01*
X40066070Y-135023935D01*
X39988287Y-134797359D01*
X39874271Y-134586677D01*
X39874269Y-134586674D01*
X39874265Y-134586668D01*
X39757065Y-134436090D01*
X39727134Y-134397634D01*
X39550887Y-134235388D01*
X39550884Y-134235386D01*
X39550883Y-134235385D01*
X39453300Y-134171631D01*
X39350340Y-134104364D01*
X39350337Y-134104362D01*
X39350336Y-134104362D01*
X39130963Y-134008136D01*
X38898737Y-133949328D01*
X38898740Y-133949328D01*
X38791366Y-133940431D01*
X38719787Y-133934500D01*
X38600213Y-133934500D01*
X38528632Y-133940431D01*
X38421260Y-133949328D01*
X38189036Y-134008136D01*
X37969663Y-134104362D01*
X37769116Y-134235385D01*
X37592869Y-134397631D01*
X37592860Y-134397641D01*
X37445734Y-134586668D01*
X37445730Y-134586674D01*
X37331713Y-134797357D01*
X37331711Y-134797362D01*
X37253930Y-135023932D01*
X37214500Y-135260223D01*
X37214500Y-135499776D01*
X28015500Y-135499776D01*
X28015500Y-119380001D01*
X45009454Y-119380001D01*
X45029613Y-119661866D01*
X45089678Y-119937977D01*
X45089680Y-119937984D01*
X45150993Y-120102372D01*
X45188432Y-120202750D01*
X45188434Y-120202754D01*
X45323855Y-120450758D01*
X45323860Y-120450766D01*
X45493196Y-120676974D01*
X45493212Y-120676992D01*
X45693007Y-120876787D01*
X45693025Y-120876803D01*
X45919233Y-121046139D01*
X45919241Y-121046144D01*
X46167245Y-121181565D01*
X46167249Y-121181567D01*
X46167251Y-121181568D01*
X46432016Y-121280320D01*
X46570077Y-121310353D01*
X46708133Y-121340386D01*
X46708135Y-121340386D01*
X46708139Y-121340387D01*
X46919447Y-121355500D01*
X47060553Y-121355500D01*
X47271861Y-121340387D01*
X47547984Y-121280320D01*
X47812749Y-121181568D01*
X48060764Y-121046141D01*
X48286982Y-120876797D01*
X48486797Y-120676982D01*
X48656141Y-120450764D01*
X48791568Y-120202749D01*
X48890320Y-119937984D01*
X48950387Y-119661861D01*
X48970546Y-119380000D01*
X48950387Y-119098139D01*
X48946190Y-119078847D01*
X48890321Y-118822022D01*
X48890320Y-118822016D01*
X48791568Y-118557251D01*
X48656141Y-118309236D01*
X48656139Y-118309233D01*
X48486803Y-118083025D01*
X48486787Y-118083007D01*
X48286992Y-117883212D01*
X48286974Y-117883196D01*
X48060766Y-117713860D01*
X48060758Y-117713855D01*
X47812754Y-117578434D01*
X47812750Y-117578432D01*
X47712372Y-117540993D01*
X47547984Y-117479680D01*
X47547980Y-117479679D01*
X47547977Y-117479678D01*
X47271866Y-117419613D01*
X47060553Y-117404500D01*
X46919447Y-117404500D01*
X46708133Y-117419613D01*
X46432022Y-117479678D01*
X46432017Y-117479679D01*
X46432016Y-117479680D01*
X46368003Y-117503555D01*
X46167249Y-117578432D01*
X46167245Y-117578434D01*
X45919241Y-117713855D01*
X45919233Y-117713860D01*
X45693025Y-117883196D01*
X45693007Y-117883212D01*
X45493212Y-118083007D01*
X45493196Y-118083025D01*
X45323860Y-118309233D01*
X45323855Y-118309241D01*
X45188434Y-118557245D01*
X45188432Y-118557249D01*
X45089678Y-118822022D01*
X45029613Y-119098133D01*
X45009454Y-119379998D01*
X45009454Y-119380001D01*
X28015500Y-119380001D01*
X28015500Y-107622365D01*
X30341804Y-107622365D01*
X30352661Y-107700197D01*
X30352991Y-107703041D01*
X30360244Y-107781310D01*
X30366385Y-107802895D01*
X30368159Y-107811303D01*
X30371260Y-107833533D01*
X30371260Y-107833534D01*
X30396241Y-107908065D01*
X30397088Y-107910801D01*
X30418595Y-107986391D01*
X30428599Y-108006480D01*
X30431887Y-108014420D01*
X30439019Y-108035698D01*
X30439021Y-108035703D01*
X30477267Y-108104370D01*
X30478602Y-108106903D01*
X30513630Y-108177249D01*
X30513636Y-108177258D01*
X30527156Y-108195161D01*
X30531850Y-108202364D01*
X30542773Y-108221975D01*
X30593001Y-108282464D01*
X30594778Y-108284707D01*
X30642128Y-108347407D01*
X30643436Y-108348599D01*
X30700216Y-108400362D01*
X30702265Y-108402318D01*
X32313669Y-110013721D01*
X32315626Y-110015771D01*
X32368593Y-110073872D01*
X32431301Y-110121227D01*
X32433547Y-110123006D01*
X32494025Y-110173227D01*
X32513637Y-110184150D01*
X32520839Y-110188844D01*
X32538745Y-110202366D01*
X32609120Y-110237408D01*
X32611622Y-110238727D01*
X32680298Y-110276979D01*
X32701579Y-110284111D01*
X32709519Y-110287401D01*
X32729423Y-110297311D01*
X32729611Y-110297405D01*
X32805262Y-110318929D01*
X32807869Y-110319736D01*
X32882464Y-110344739D01*
X32904701Y-110347840D01*
X32913097Y-110349611D01*
X32934690Y-110355756D01*
X33012957Y-110363008D01*
X33015789Y-110363336D01*
X33093638Y-110374196D01*
X33166505Y-110370827D01*
X33172159Y-110370566D01*
X33175022Y-110370500D01*
X37349462Y-110370500D01*
X37416501Y-110390185D01*
X37420578Y-110392920D01*
X37421449Y-110393530D01*
X37422171Y-110394036D01*
X37493558Y-110427324D01*
X37636337Y-110493903D01*
X37864592Y-110555063D01*
X38052918Y-110571539D01*
X38099999Y-110575659D01*
X38100000Y-110575659D01*
X38100001Y-110575659D01*
X38139234Y-110572226D01*
X38335408Y-110555063D01*
X38563663Y-110493903D01*
X38777830Y-110394035D01*
X38971401Y-110258495D01*
X39138495Y-110091401D01*
X39274035Y-109897830D01*
X39373903Y-109683663D01*
X39435063Y-109455408D01*
X39455659Y-109220000D01*
X39435063Y-108984592D01*
X39373903Y-108756337D01*
X39274035Y-108542171D01*
X39138495Y-108348599D01*
X39138494Y-108348597D01*
X38971402Y-108181506D01*
X38971395Y-108181501D01*
X38965335Y-108177258D01*
X38932521Y-108154281D01*
X38777834Y-108045967D01*
X38777830Y-108045965D01*
X38750415Y-108033181D01*
X38563663Y-107946097D01*
X38563659Y-107946096D01*
X38563655Y-107946094D01*
X38335413Y-107884938D01*
X38335403Y-107884936D01*
X38100001Y-107864341D01*
X38099999Y-107864341D01*
X37864596Y-107884936D01*
X37864586Y-107884938D01*
X37636344Y-107946094D01*
X37636335Y-107946097D01*
X37422173Y-108045964D01*
X37422171Y-108045965D01*
X37420581Y-108047077D01*
X37419770Y-108047351D01*
X37417485Y-108048671D01*
X37417219Y-108048211D01*
X37354377Y-108069403D01*
X37349463Y-108069500D01*
X33674914Y-108069500D01*
X33607875Y-108049815D01*
X33587233Y-108033181D01*
X33163729Y-107609677D01*
X32682816Y-107128763D01*
X32649333Y-107067443D01*
X32646499Y-107041094D01*
X32646499Y-78271912D01*
X32666184Y-78204874D01*
X32682813Y-78184237D01*
X38410233Y-72456818D01*
X38471556Y-72423333D01*
X38497914Y-72420499D01*
X38967871Y-72420499D01*
X38967872Y-72420499D01*
X39027483Y-72414091D01*
X39162331Y-72363796D01*
X39277546Y-72277546D01*
X39363796Y-72162331D01*
X39414091Y-72027483D01*
X39420500Y-71967873D01*
X39420499Y-71497913D01*
X39440183Y-71430875D01*
X39456813Y-71410238D01*
X46688232Y-64178819D01*
X46749556Y-64145334D01*
X46775914Y-64142500D01*
X110739500Y-64142500D01*
X110806539Y-64162185D01*
X110852294Y-64214989D01*
X110863500Y-64266500D01*
X110863500Y-83292084D01*
X110843815Y-83359123D01*
X110827181Y-83379765D01*
X107590276Y-86616670D01*
X107588205Y-86618647D01*
X107530125Y-86671595D01*
X107530123Y-86671597D01*
X107482770Y-86734301D01*
X107480993Y-86736545D01*
X107430773Y-86797024D01*
X107430770Y-86797029D01*
X107419847Y-86816639D01*
X107415155Y-86823839D01*
X107401634Y-86841742D01*
X107401634Y-86841743D01*
X107366598Y-86912105D01*
X107365263Y-86914637D01*
X107327021Y-86983297D01*
X107319889Y-87004575D01*
X107316601Y-87012513D01*
X107306599Y-87032601D01*
X107306595Y-87032612D01*
X107285088Y-87108197D01*
X107284241Y-87110932D01*
X107259261Y-87185463D01*
X107259260Y-87185464D01*
X107256160Y-87207690D01*
X107254386Y-87216099D01*
X107248243Y-87237691D01*
X107240991Y-87315957D01*
X107240661Y-87318801D01*
X107229804Y-87396633D01*
X107229804Y-87396636D01*
X107229804Y-87396638D01*
X107230083Y-87402672D01*
X107233434Y-87475158D01*
X107233500Y-87478021D01*
X107233500Y-116640085D01*
X107213815Y-116707124D01*
X107197181Y-116727766D01*
X107001766Y-116923181D01*
X106940443Y-116956666D01*
X106914085Y-116959500D01*
X105689500Y-116959500D01*
X105622461Y-116939815D01*
X105576706Y-116887011D01*
X105565500Y-116835500D01*
X105565500Y-115314084D01*
X105585185Y-115247045D01*
X105598270Y-115230101D01*
X105603164Y-115224785D01*
X105739173Y-115016607D01*
X105839063Y-114788881D01*
X105900108Y-114547821D01*
X105906447Y-114471323D01*
X105920643Y-114300005D01*
X105920643Y-114299994D01*
X105900109Y-114052187D01*
X105900107Y-114052175D01*
X105839063Y-113811118D01*
X105739173Y-113583393D01*
X105603166Y-113375217D01*
X105581557Y-113351744D01*
X105434744Y-113192262D01*
X105238509Y-113039526D01*
X105238507Y-113039525D01*
X105238506Y-113039524D01*
X105019811Y-112921172D01*
X105019802Y-112921169D01*
X104784616Y-112840429D01*
X104539335Y-112799500D01*
X104290665Y-112799500D01*
X104045383Y-112840429D01*
X103810197Y-112921169D01*
X103810188Y-112921172D01*
X103591493Y-113039524D01*
X103395257Y-113192261D01*
X103226833Y-113375217D01*
X103090826Y-113583393D01*
X102990936Y-113811118D01*
X102929892Y-114052175D01*
X102929890Y-114052187D01*
X102909357Y-114299994D01*
X102909357Y-114300005D01*
X102929890Y-114547812D01*
X102929892Y-114547824D01*
X102990936Y-114788881D01*
X103090826Y-115016606D01*
X103226833Y-115224782D01*
X103231730Y-115230101D01*
X103262652Y-115292756D01*
X103264500Y-115314084D01*
X103264500Y-116835500D01*
X103244815Y-116902539D01*
X103192011Y-116948294D01*
X103140500Y-116959500D01*
X100358007Y-116959500D01*
X100355144Y-116959434D01*
X100323327Y-116957963D01*
X100276638Y-116955805D01*
X100276637Y-116955805D01*
X100276634Y-116955805D01*
X100219305Y-116963801D01*
X100198805Y-116966660D01*
X100195975Y-116966989D01*
X100117690Y-116974244D01*
X100117689Y-116974244D01*
X100096097Y-116980387D01*
X100087689Y-116982160D01*
X100065460Y-116985261D01*
X99990928Y-117010241D01*
X99988194Y-117011088D01*
X99912609Y-117032594D01*
X99892520Y-117042598D01*
X99884583Y-117045886D01*
X99863300Y-117053019D01*
X99863290Y-117053024D01*
X99794634Y-117091265D01*
X99792101Y-117092599D01*
X99721744Y-117127633D01*
X99721743Y-117127634D01*
X99703832Y-117141160D01*
X99696634Y-117145850D01*
X99677027Y-117156772D01*
X99677023Y-117156774D01*
X99616552Y-117206988D01*
X99614309Y-117208765D01*
X99551593Y-117256127D01*
X99551590Y-117256130D01*
X99498647Y-117314205D01*
X99496669Y-117316276D01*
X93948276Y-122864669D01*
X93946205Y-122866647D01*
X93888125Y-122919595D01*
X93888123Y-122919597D01*
X93840770Y-122982301D01*
X93838993Y-122984545D01*
X93788773Y-123045024D01*
X93788770Y-123045029D01*
X93777847Y-123064639D01*
X93773155Y-123071839D01*
X93759634Y-123089742D01*
X93759634Y-123089743D01*
X93724598Y-123160105D01*
X93723263Y-123162637D01*
X93685021Y-123231297D01*
X93677889Y-123252575D01*
X93674601Y-123260513D01*
X93664599Y-123280601D01*
X93664595Y-123280612D01*
X93643088Y-123356197D01*
X93642241Y-123358932D01*
X93617261Y-123433463D01*
X93617260Y-123433464D01*
X93614160Y-123455690D01*
X93612386Y-123464099D01*
X93606243Y-123485691D01*
X93598991Y-123563957D01*
X93598661Y-123566801D01*
X93587804Y-123644633D01*
X93591434Y-123723158D01*
X93591500Y-123726021D01*
X93591500Y-151125500D01*
X93571815Y-151192539D01*
X93519011Y-151238294D01*
X93467500Y-151249500D01*
X90219058Y-151249500D01*
X90152019Y-151229815D01*
X90106264Y-151177011D01*
X90096320Y-151107853D01*
X90119791Y-151051189D01*
X90125369Y-151043736D01*
X90193796Y-150952331D01*
X90244091Y-150817483D01*
X90250500Y-150757873D01*
X90250499Y-148962128D01*
X90244091Y-148902517D01*
X90227955Y-148859255D01*
X90193797Y-148767671D01*
X90193793Y-148767664D01*
X90107547Y-148652455D01*
X90107544Y-148652452D01*
X89992335Y-148566206D01*
X89992328Y-148566202D01*
X89857482Y-148515908D01*
X89857483Y-148515908D01*
X89797883Y-148509501D01*
X89797881Y-148509500D01*
X89797873Y-148509500D01*
X89797864Y-148509500D01*
X88002129Y-148509500D01*
X88002123Y-148509501D01*
X87942516Y-148515908D01*
X87807671Y-148566202D01*
X87807664Y-148566206D01*
X87692455Y-148652452D01*
X87692452Y-148652455D01*
X87606206Y-148767664D01*
X87606202Y-148767671D01*
X87555908Y-148902517D01*
X87549501Y-148962116D01*
X87549501Y-148962123D01*
X87549500Y-148962135D01*
X87549500Y-150757870D01*
X87549501Y-150757876D01*
X87555908Y-150817483D01*
X87606202Y-150952328D01*
X87606203Y-150952329D01*
X87606204Y-150952331D01*
X87668370Y-151035374D01*
X87680209Y-151051189D01*
X87704626Y-151116653D01*
X87689774Y-151184926D01*
X87640369Y-151234332D01*
X87580942Y-151249500D01*
X83824500Y-151249500D01*
X83757461Y-151229815D01*
X83711706Y-151177011D01*
X83700500Y-151125500D01*
X83700500Y-147348007D01*
X83700566Y-147345144D01*
X83701852Y-147317323D01*
X83704195Y-147266638D01*
X83693336Y-147188796D01*
X83693008Y-147185961D01*
X83689447Y-147147531D01*
X83685756Y-147107690D01*
X83679613Y-147086104D01*
X83677839Y-147077693D01*
X83674739Y-147055464D01*
X83674739Y-147055463D01*
X83649735Y-146980865D01*
X83648928Y-146978258D01*
X83630925Y-146914985D01*
X83627407Y-146902617D01*
X83627403Y-146902608D01*
X83617400Y-146882519D01*
X83614111Y-146874577D01*
X83609471Y-146860733D01*
X83606979Y-146853298D01*
X83568727Y-146784622D01*
X83567408Y-146782120D01*
X83561792Y-146770841D01*
X83532366Y-146711745D01*
X83518844Y-146693839D01*
X83514150Y-146686637D01*
X83503227Y-146667025D01*
X83453010Y-146606551D01*
X83451231Y-146604306D01*
X83403870Y-146541590D01*
X83345782Y-146488636D01*
X83343732Y-146486679D01*
X77403988Y-140546935D01*
X77379287Y-140511659D01*
X77297534Y-140336340D01*
X77297533Y-140336338D01*
X77170827Y-140155381D01*
X77170823Y-140155377D01*
X77014620Y-139999174D01*
X77014616Y-139999171D01*
X77014615Y-139999170D01*
X76833666Y-139872468D01*
X76833662Y-139872466D01*
X76833662Y-139872465D01*
X76633450Y-139779106D01*
X76633447Y-139779105D01*
X76633445Y-139779104D01*
X76420070Y-139721930D01*
X76420062Y-139721929D01*
X76200002Y-139702677D01*
X76199998Y-139702677D01*
X75979937Y-139721929D01*
X75979929Y-139721930D01*
X75766554Y-139779104D01*
X75766548Y-139779107D01*
X75566340Y-139872465D01*
X75566338Y-139872466D01*
X75385377Y-139999175D01*
X75229175Y-140155377D01*
X75102466Y-140336338D01*
X75102465Y-140336340D01*
X75009107Y-140536548D01*
X75009104Y-140536554D01*
X74951930Y-140749929D01*
X74951929Y-140749935D01*
X74950230Y-140769361D01*
X74924776Y-140834429D01*
X74868184Y-140875407D01*
X74798422Y-140879283D01*
X74739021Y-140846232D01*
X69741819Y-135849030D01*
X69708334Y-135787707D01*
X69705500Y-135761349D01*
X69705500Y-115600085D01*
X69725185Y-115533046D01*
X69753334Y-115502235D01*
X69874744Y-115407738D01*
X70033771Y-115234988D01*
X70093657Y-115198999D01*
X70163495Y-115201099D01*
X70216228Y-115234988D01*
X70375256Y-115407738D01*
X70571491Y-115560474D01*
X70790190Y-115678828D01*
X71025386Y-115759571D01*
X71270665Y-115800500D01*
X71519335Y-115800500D01*
X71764614Y-115759571D01*
X71999810Y-115678828D01*
X72218509Y-115560474D01*
X72414744Y-115407738D01*
X72573771Y-115234988D01*
X72633657Y-115198999D01*
X72703495Y-115201099D01*
X72756228Y-115234988D01*
X72915256Y-115407738D01*
X73111491Y-115560474D01*
X73330190Y-115678828D01*
X73565386Y-115759571D01*
X73810665Y-115800500D01*
X74059335Y-115800500D01*
X74304614Y-115759571D01*
X74539810Y-115678828D01*
X74758509Y-115560474D01*
X74954744Y-115407738D01*
X75113772Y-115234986D01*
X75173656Y-115198999D01*
X75243494Y-115201099D01*
X75296228Y-115234989D01*
X75369041Y-115314084D01*
X75455256Y-115407738D01*
X75651491Y-115560474D01*
X75870190Y-115678828D01*
X76105386Y-115759571D01*
X76350665Y-115800500D01*
X76599335Y-115800500D01*
X76844614Y-115759571D01*
X77079810Y-115678828D01*
X77298509Y-115560474D01*
X77494744Y-115407738D01*
X77653771Y-115234988D01*
X77713657Y-115198999D01*
X77783495Y-115201099D01*
X77836228Y-115234988D01*
X77995256Y-115407738D01*
X78191491Y-115560474D01*
X78410190Y-115678828D01*
X78645386Y-115759571D01*
X78890665Y-115800500D01*
X79139335Y-115800500D01*
X79384614Y-115759571D01*
X79619810Y-115678828D01*
X79838509Y-115560474D01*
X80034744Y-115407738D01*
X80193771Y-115234988D01*
X80253657Y-115198999D01*
X80323495Y-115201099D01*
X80376228Y-115234988D01*
X80535256Y-115407738D01*
X80731491Y-115560474D01*
X80950190Y-115678828D01*
X81185386Y-115759571D01*
X81430665Y-115800500D01*
X81679335Y-115800500D01*
X81924614Y-115759571D01*
X82159810Y-115678828D01*
X82378509Y-115560474D01*
X82574744Y-115407738D01*
X82733771Y-115234988D01*
X82793657Y-115198999D01*
X82863495Y-115201099D01*
X82916228Y-115234988D01*
X83075256Y-115407738D01*
X83271491Y-115560474D01*
X83490190Y-115678828D01*
X83725386Y-115759571D01*
X83970665Y-115800500D01*
X84219335Y-115800500D01*
X84464614Y-115759571D01*
X84699810Y-115678828D01*
X84918509Y-115560474D01*
X85114744Y-115407738D01*
X85273771Y-115234988D01*
X85333657Y-115198999D01*
X85403495Y-115201099D01*
X85456228Y-115234988D01*
X85615256Y-115407738D01*
X85811491Y-115560474D01*
X86030190Y-115678828D01*
X86265386Y-115759571D01*
X86510665Y-115800500D01*
X86759333Y-115800500D01*
X86759335Y-115800500D01*
X86844961Y-115786211D01*
X86914324Y-115794593D01*
X86953050Y-115820839D01*
X88013180Y-116880969D01*
X88046665Y-116942292D01*
X88049499Y-116968650D01*
X88049500Y-143669241D01*
X88029815Y-143736280D01*
X88013181Y-143756922D01*
X87861505Y-143908597D01*
X87725965Y-144102169D01*
X87725964Y-144102171D01*
X87626098Y-144316335D01*
X87626094Y-144316344D01*
X87564938Y-144544586D01*
X87564936Y-144544596D01*
X87544341Y-144779999D01*
X87544341Y-144780000D01*
X87564936Y-145015403D01*
X87564938Y-145015413D01*
X87626094Y-145243655D01*
X87626096Y-145243659D01*
X87626097Y-145243663D01*
X87706617Y-145416338D01*
X87725965Y-145457830D01*
X87725967Y-145457834D01*
X87834281Y-145612521D01*
X87861505Y-145651401D01*
X88028599Y-145818495D01*
X88044933Y-145829932D01*
X88222165Y-145954032D01*
X88222167Y-145954033D01*
X88222170Y-145954035D01*
X88436337Y-146053903D01*
X88664592Y-146115063D01*
X88852918Y-146131539D01*
X88899999Y-146135659D01*
X88900000Y-146135659D01*
X88900001Y-146135659D01*
X88939234Y-146132226D01*
X89135408Y-146115063D01*
X89363663Y-146053903D01*
X89577830Y-145954035D01*
X89771401Y-145818495D01*
X89938495Y-145651401D01*
X90074035Y-145457830D01*
X90173903Y-145243663D01*
X90235063Y-145015408D01*
X90255659Y-144780000D01*
X90235063Y-144544592D01*
X90176123Y-144324621D01*
X90173905Y-144316344D01*
X90173904Y-144316343D01*
X90173903Y-144316337D01*
X90074035Y-144102171D01*
X90034697Y-144045989D01*
X89938494Y-143908597D01*
X89786819Y-143756922D01*
X89753334Y-143695599D01*
X89750500Y-143669241D01*
X89750500Y-116602087D01*
X89750705Y-116597052D01*
X89755201Y-116541836D01*
X89744270Y-116461607D01*
X89735513Y-116381084D01*
X89735280Y-116380026D01*
X89730507Y-116359663D01*
X89730227Y-116358536D01*
X89730227Y-116358532D01*
X89702294Y-116282499D01*
X89676444Y-116205779D01*
X89676441Y-116205774D01*
X89675950Y-116204712D01*
X89666930Y-116185886D01*
X89666434Y-116184886D01*
X89622806Y-116116631D01*
X89581068Y-116047261D01*
X89580409Y-116046395D01*
X89567541Y-116029934D01*
X89566802Y-116029014D01*
X89566801Y-116029013D01*
X89566800Y-116029011D01*
X89538171Y-116000382D01*
X89509540Y-115971750D01*
X89499059Y-115960686D01*
X89467245Y-115898479D01*
X89474113Y-115828948D01*
X89517483Y-115774168D01*
X89548817Y-115758128D01*
X89779810Y-115678828D01*
X89998509Y-115560474D01*
X90194744Y-115407738D01*
X90353771Y-115234988D01*
X90413657Y-115198999D01*
X90483495Y-115201099D01*
X90536228Y-115234988D01*
X90695256Y-115407738D01*
X90891491Y-115560474D01*
X91110190Y-115678828D01*
X91345386Y-115759571D01*
X91590665Y-115800500D01*
X91839335Y-115800500D01*
X92084614Y-115759571D01*
X92319810Y-115678828D01*
X92538509Y-115560474D01*
X92734744Y-115407738D01*
X92893771Y-115234988D01*
X92953657Y-115198999D01*
X93023495Y-115201099D01*
X93076228Y-115234988D01*
X93235256Y-115407738D01*
X93431491Y-115560474D01*
X93650190Y-115678828D01*
X93885386Y-115759571D01*
X94130665Y-115800500D01*
X94379335Y-115800500D01*
X94624614Y-115759571D01*
X94859810Y-115678828D01*
X95078509Y-115560474D01*
X95274744Y-115407738D01*
X95433771Y-115234988D01*
X95493657Y-115198999D01*
X95563495Y-115201099D01*
X95616228Y-115234988D01*
X95775256Y-115407738D01*
X95971491Y-115560474D01*
X96190190Y-115678828D01*
X96425386Y-115759571D01*
X96670665Y-115800500D01*
X96919335Y-115800500D01*
X97164614Y-115759571D01*
X97399810Y-115678828D01*
X97618509Y-115560474D01*
X97814744Y-115407738D01*
X97973771Y-115234988D01*
X98033657Y-115198999D01*
X98103495Y-115201099D01*
X98156228Y-115234988D01*
X98315256Y-115407738D01*
X98511491Y-115560474D01*
X98730190Y-115678828D01*
X98965386Y-115759571D01*
X99210665Y-115800500D01*
X99459335Y-115800500D01*
X99704614Y-115759571D01*
X99939810Y-115678828D01*
X100158509Y-115560474D01*
X100354744Y-115407738D01*
X100523164Y-115224785D01*
X100659173Y-115016607D01*
X100759063Y-114788881D01*
X100820108Y-114547821D01*
X100826447Y-114471323D01*
X100840643Y-114300005D01*
X100840643Y-114299994D01*
X100820109Y-114052187D01*
X100820107Y-114052175D01*
X100759063Y-113811118D01*
X100659173Y-113583393D01*
X100523166Y-113375217D01*
X100501557Y-113351744D01*
X100354744Y-113192262D01*
X100158509Y-113039526D01*
X100158507Y-113039525D01*
X100158506Y-113039524D01*
X99939811Y-112921172D01*
X99939802Y-112921169D01*
X99704616Y-112840429D01*
X99459335Y-112799500D01*
X99210665Y-112799500D01*
X98965383Y-112840429D01*
X98730197Y-112921169D01*
X98730188Y-112921172D01*
X98511493Y-113039524D01*
X98315257Y-113192261D01*
X98156230Y-113365010D01*
X98096342Y-113401001D01*
X98026504Y-113398900D01*
X97973770Y-113365010D01*
X97934108Y-113321926D01*
X97814744Y-113192262D01*
X97618509Y-113039526D01*
X97618507Y-113039525D01*
X97618506Y-113039524D01*
X97399811Y-112921172D01*
X97399802Y-112921169D01*
X97164616Y-112840429D01*
X96919335Y-112799500D01*
X96670665Y-112799500D01*
X96425383Y-112840429D01*
X96190197Y-112921169D01*
X96190188Y-112921172D01*
X95971493Y-113039524D01*
X95775257Y-113192261D01*
X95616230Y-113365010D01*
X95556342Y-113401001D01*
X95486504Y-113398900D01*
X95433770Y-113365010D01*
X95394108Y-113321926D01*
X95274744Y-113192262D01*
X95078509Y-113039526D01*
X95078507Y-113039525D01*
X95078506Y-113039524D01*
X94859811Y-112921172D01*
X94859802Y-112921169D01*
X94624616Y-112840429D01*
X94379335Y-112799500D01*
X94130665Y-112799500D01*
X93885383Y-112840429D01*
X93650197Y-112921169D01*
X93650188Y-112921172D01*
X93431493Y-113039524D01*
X93235257Y-113192261D01*
X93076230Y-113365010D01*
X93016342Y-113401001D01*
X92946504Y-113398900D01*
X92893770Y-113365010D01*
X92854108Y-113321926D01*
X92734744Y-113192262D01*
X92538509Y-113039526D01*
X92538507Y-113039525D01*
X92538506Y-113039524D01*
X92319811Y-112921172D01*
X92319802Y-112921169D01*
X92084616Y-112840429D01*
X91839335Y-112799500D01*
X91590665Y-112799500D01*
X91345383Y-112840429D01*
X91110197Y-112921169D01*
X91110188Y-112921172D01*
X90891493Y-113039524D01*
X90695257Y-113192261D01*
X90536230Y-113365010D01*
X90476342Y-113401001D01*
X90406504Y-113398900D01*
X90353770Y-113365010D01*
X90314108Y-113321926D01*
X90194744Y-113192262D01*
X89998509Y-113039526D01*
X89998507Y-113039525D01*
X89998506Y-113039524D01*
X89779811Y-112921172D01*
X89779802Y-112921169D01*
X89544616Y-112840429D01*
X89299335Y-112799500D01*
X89050665Y-112799500D01*
X88805383Y-112840429D01*
X88570197Y-112921169D01*
X88570188Y-112921172D01*
X88351493Y-113039524D01*
X88155257Y-113192261D01*
X87996230Y-113365010D01*
X87936342Y-113401001D01*
X87866504Y-113398900D01*
X87813770Y-113365010D01*
X87774108Y-113321926D01*
X87654744Y-113192262D01*
X87458509Y-113039526D01*
X87458507Y-113039525D01*
X87458506Y-113039524D01*
X87239811Y-112921172D01*
X87239802Y-112921169D01*
X87004616Y-112840429D01*
X86759335Y-112799500D01*
X86510665Y-112799500D01*
X86265383Y-112840429D01*
X86030197Y-112921169D01*
X86030188Y-112921172D01*
X85811493Y-113039524D01*
X85615257Y-113192261D01*
X85456230Y-113365010D01*
X85396342Y-113401001D01*
X85326504Y-113398900D01*
X85273770Y-113365010D01*
X85234108Y-113321926D01*
X85114744Y-113192262D01*
X84918509Y-113039526D01*
X84918507Y-113039525D01*
X84918506Y-113039524D01*
X84699811Y-112921172D01*
X84699802Y-112921169D01*
X84464616Y-112840429D01*
X84219335Y-112799500D01*
X83970665Y-112799500D01*
X83725383Y-112840429D01*
X83490197Y-112921169D01*
X83490188Y-112921172D01*
X83271493Y-113039524D01*
X83075257Y-113192261D01*
X82916230Y-113365010D01*
X82856342Y-113401001D01*
X82786504Y-113398900D01*
X82733770Y-113365010D01*
X82694108Y-113321926D01*
X82574744Y-113192262D01*
X82378509Y-113039526D01*
X82378507Y-113039525D01*
X82378506Y-113039524D01*
X82159811Y-112921172D01*
X82159802Y-112921169D01*
X81924616Y-112840429D01*
X81679335Y-112799500D01*
X81430665Y-112799500D01*
X81185383Y-112840429D01*
X80950197Y-112921169D01*
X80950188Y-112921172D01*
X80731493Y-113039524D01*
X80535257Y-113192261D01*
X80376230Y-113365010D01*
X80316342Y-113401001D01*
X80246504Y-113398900D01*
X80193770Y-113365010D01*
X80154108Y-113321926D01*
X80034744Y-113192262D01*
X79838509Y-113039526D01*
X79838507Y-113039525D01*
X79838506Y-113039524D01*
X79619811Y-112921172D01*
X79619802Y-112921169D01*
X79384616Y-112840429D01*
X79139335Y-112799500D01*
X78890665Y-112799500D01*
X78645383Y-112840429D01*
X78410197Y-112921169D01*
X78410188Y-112921172D01*
X78191493Y-113039524D01*
X77995257Y-113192261D01*
X77836230Y-113365010D01*
X77776342Y-113401001D01*
X77706504Y-113398900D01*
X77653770Y-113365010D01*
X77614108Y-113321926D01*
X77494744Y-113192262D01*
X77298509Y-113039526D01*
X77298507Y-113039525D01*
X77298506Y-113039524D01*
X77079811Y-112921172D01*
X77079802Y-112921169D01*
X76844616Y-112840429D01*
X76599335Y-112799500D01*
X76350665Y-112799500D01*
X76105383Y-112840429D01*
X75870197Y-112921169D01*
X75870188Y-112921172D01*
X75651493Y-113039524D01*
X75455257Y-113192261D01*
X75296230Y-113365010D01*
X75236342Y-113401001D01*
X75166504Y-113398900D01*
X75113770Y-113365010D01*
X75074108Y-113321926D01*
X74954744Y-113192262D01*
X74758509Y-113039526D01*
X74758507Y-113039525D01*
X74758506Y-113039524D01*
X74539811Y-112921172D01*
X74539802Y-112921169D01*
X74304616Y-112840429D01*
X74059335Y-112799500D01*
X73810665Y-112799500D01*
X73565383Y-112840429D01*
X73330197Y-112921169D01*
X73330188Y-112921172D01*
X73111493Y-113039524D01*
X72915257Y-113192261D01*
X72756230Y-113365010D01*
X72696342Y-113401001D01*
X72626504Y-113398900D01*
X72573770Y-113365010D01*
X72534108Y-113321926D01*
X72414744Y-113192262D01*
X72218509Y-113039526D01*
X72218507Y-113039525D01*
X72218506Y-113039524D01*
X71999811Y-112921172D01*
X71999802Y-112921169D01*
X71764616Y-112840429D01*
X71519335Y-112799500D01*
X71270665Y-112799500D01*
X71025383Y-112840429D01*
X70790197Y-112921169D01*
X70790188Y-112921172D01*
X70571493Y-113039524D01*
X70375257Y-113192261D01*
X70216230Y-113365010D01*
X70156342Y-113401001D01*
X70086504Y-113398900D01*
X70033770Y-113365010D01*
X69994108Y-113321926D01*
X69874744Y-113192262D01*
X69678509Y-113039526D01*
X69678507Y-113039525D01*
X69678506Y-113039524D01*
X69459811Y-112921172D01*
X69459802Y-112921169D01*
X69224616Y-112840429D01*
X68979335Y-112799500D01*
X68730665Y-112799500D01*
X68485383Y-112840429D01*
X68250197Y-112921169D01*
X68250188Y-112921172D01*
X68031493Y-113039524D01*
X67835257Y-113192261D01*
X67666833Y-113375217D01*
X67530826Y-113583393D01*
X67430937Y-113811117D01*
X67419706Y-113855469D01*
X67384166Y-113915624D01*
X67321745Y-113947016D01*
X67252262Y-113939678D01*
X67197777Y-113895939D01*
X67175588Y-113829686D01*
X67175500Y-113825028D01*
X67175500Y-113698817D01*
X67175499Y-113698812D01*
X67136396Y-113439385D01*
X67059063Y-113188677D01*
X66987235Y-113039524D01*
X66945232Y-112952303D01*
X66945231Y-112952302D01*
X66945230Y-112952301D01*
X66945228Y-112952296D01*
X66797433Y-112735521D01*
X66618984Y-112543198D01*
X66615825Y-112539793D01*
X66617237Y-112538482D01*
X66585602Y-112485370D01*
X66587977Y-112415540D01*
X66627728Y-112358080D01*
X66692234Y-112331233D01*
X66705698Y-112330500D01*
X82680506Y-112330500D01*
X82683369Y-112330566D01*
X82693723Y-112331044D01*
X82761890Y-112334196D01*
X82839779Y-112323330D01*
X82842536Y-112323011D01*
X82920838Y-112315756D01*
X82942423Y-112309613D01*
X82950832Y-112307839D01*
X82973064Y-112304739D01*
X83047610Y-112279752D01*
X83050315Y-112278915D01*
X83125917Y-112257405D01*
X83146013Y-112247397D01*
X83153930Y-112244117D01*
X83175230Y-112236979D01*
X83243923Y-112198716D01*
X83246385Y-112197418D01*
X83316783Y-112162366D01*
X83334700Y-112148834D01*
X83341883Y-112144154D01*
X83361503Y-112133227D01*
X83422000Y-112082989D01*
X83424232Y-112081223D01*
X83441747Y-112067996D01*
X83486935Y-112033872D01*
X83539899Y-111975771D01*
X83541847Y-111973732D01*
X85213721Y-110301857D01*
X85215760Y-110299910D01*
X85273872Y-110246935D01*
X85317739Y-110188845D01*
X85321231Y-110184221D01*
X85322998Y-110181988D01*
X85373227Y-110121503D01*
X85384158Y-110101875D01*
X85388832Y-110094703D01*
X85402366Y-110076783D01*
X85437418Y-110006385D01*
X85438716Y-110003923D01*
X85476979Y-109935230D01*
X85484117Y-109913930D01*
X85487397Y-109906013D01*
X85497405Y-109885917D01*
X85518915Y-109810312D01*
X85519752Y-109807610D01*
X85544739Y-109733064D01*
X85547839Y-109710832D01*
X85549613Y-109702423D01*
X85555756Y-109680838D01*
X85563011Y-109602536D01*
X85563330Y-109599779D01*
X85574196Y-109521890D01*
X85570566Y-109443368D01*
X85570500Y-109440505D01*
X85570500Y-107609677D01*
X85590185Y-107542638D01*
X85642989Y-107496883D01*
X85656622Y-107491603D01*
X104465453Y-101459043D01*
X104477574Y-101456276D01*
X104477522Y-101456053D01*
X104483099Y-101454741D01*
X104483103Y-101454739D01*
X104483107Y-101454739D01*
X104577066Y-101423246D01*
X104620594Y-101409286D01*
X104625261Y-101407296D01*
X104629832Y-101405560D01*
X104685273Y-101386979D01*
X104722515Y-101366234D01*
X104728369Y-101363366D01*
X104767605Y-101346651D01*
X104816263Y-101314240D01*
X104820450Y-101311685D01*
X104871546Y-101283227D01*
X104904364Y-101255973D01*
X104909571Y-101252094D01*
X104945065Y-101228455D01*
X104986968Y-101187629D01*
X104990590Y-101184372D01*
X104994484Y-101181140D01*
X105010635Y-101164988D01*
X105026786Y-101148838D01*
X105097786Y-101079666D01*
X105101503Y-101075306D01*
X105101678Y-101075455D01*
X105109688Y-101065934D01*
X105208732Y-100966890D01*
X105210782Y-100964933D01*
X105268872Y-100911978D01*
X105316261Y-100849223D01*
X105317969Y-100847067D01*
X105368227Y-100786546D01*
X105379152Y-100766929D01*
X105383836Y-100759740D01*
X105397366Y-100741826D01*
X105432405Y-100671456D01*
X105433739Y-100668927D01*
X105471979Y-100600272D01*
X105479114Y-100578982D01*
X105482399Y-100571055D01*
X105487156Y-100561501D01*
X105492405Y-100550960D01*
X105513918Y-100475349D01*
X105514759Y-100472632D01*
X105539739Y-100398107D01*
X105542839Y-100375875D01*
X105544613Y-100367466D01*
X105550756Y-100345881D01*
X105558011Y-100267577D01*
X105558330Y-100264821D01*
X105569196Y-100186932D01*
X105565566Y-100108410D01*
X105565500Y-100105547D01*
X105565500Y-90464141D01*
X105585185Y-90397102D01*
X105637989Y-90351347D01*
X105646149Y-90347966D01*
X105657331Y-90343796D01*
X105772546Y-90257546D01*
X105858796Y-90142331D01*
X105909091Y-90007483D01*
X105915500Y-89947873D01*
X105915499Y-87852128D01*
X105909091Y-87792517D01*
X105908995Y-87792260D01*
X105858797Y-87657671D01*
X105858793Y-87657664D01*
X105772547Y-87542455D01*
X105772544Y-87542452D01*
X105657335Y-87456206D01*
X105657328Y-87456202D01*
X105522482Y-87405908D01*
X105522483Y-87405908D01*
X105462883Y-87399501D01*
X105462881Y-87399500D01*
X105462873Y-87399500D01*
X105462864Y-87399500D01*
X103367129Y-87399500D01*
X103367123Y-87399501D01*
X103307516Y-87405908D01*
X103172671Y-87456202D01*
X103172664Y-87456206D01*
X103057455Y-87542452D01*
X103057452Y-87542455D01*
X102971206Y-87657664D01*
X102971202Y-87657671D01*
X102920908Y-87792517D01*
X102916668Y-87831959D01*
X102914501Y-87852123D01*
X102914500Y-87852135D01*
X102914500Y-89947870D01*
X102914501Y-89947876D01*
X102920908Y-90007483D01*
X102971202Y-90142328D01*
X102971206Y-90142335D01*
X103057452Y-90257544D01*
X103057455Y-90257547D01*
X103172664Y-90343793D01*
X103172666Y-90343794D01*
X103172669Y-90343796D01*
X103183828Y-90347958D01*
X103239763Y-90389826D01*
X103264183Y-90455289D01*
X103264499Y-90464141D01*
X103264499Y-99337321D01*
X103244814Y-99404360D01*
X103192010Y-99450115D01*
X103178369Y-99455397D01*
X84141206Y-105561190D01*
X84133656Y-105563098D01*
X84103807Y-105568677D01*
X84103792Y-105568681D01*
X84037893Y-105594211D01*
X84034436Y-105595434D01*
X84017986Y-105600711D01*
X84017959Y-105600720D01*
X83986588Y-105614087D01*
X83904984Y-105645699D01*
X83896645Y-105650863D01*
X83879980Y-105659508D01*
X83870968Y-105663347D01*
X83822381Y-105695708D01*
X83798122Y-105711866D01*
X83744383Y-105745139D01*
X83723696Y-105757949D01*
X83716447Y-105764557D01*
X83701667Y-105776108D01*
X83693507Y-105781543D01*
X83630804Y-105842632D01*
X83566129Y-105901590D01*
X83566128Y-105901592D01*
X83560227Y-105909406D01*
X83547814Y-105923485D01*
X83540782Y-105930336D01*
X83490381Y-106001897D01*
X83437634Y-106071744D01*
X83433259Y-106080530D01*
X83423646Y-106096646D01*
X83418005Y-106104655D01*
X83381616Y-106184244D01*
X83342596Y-106262606D01*
X83342594Y-106262612D01*
X83339911Y-106272042D01*
X83333421Y-106289654D01*
X83329348Y-106298562D01*
X83329345Y-106298569D01*
X83308197Y-106383504D01*
X83284244Y-106467687D01*
X83284242Y-106467695D01*
X83283338Y-106477453D01*
X83280196Y-106495955D01*
X83277829Y-106505463D01*
X83277827Y-106505475D01*
X83272646Y-106592845D01*
X83269500Y-106626798D01*
X83269500Y-106644070D01*
X83269391Y-106647740D01*
X83265207Y-106718315D01*
X83269011Y-106748455D01*
X83269500Y-106756227D01*
X83269500Y-108940613D01*
X83249815Y-109007652D01*
X83233181Y-109028294D01*
X82268294Y-109993181D01*
X82206971Y-110026666D01*
X82180613Y-110029500D01*
X70039000Y-110029500D01*
X69971961Y-110009815D01*
X69926206Y-109957011D01*
X69915000Y-109905500D01*
X69915000Y-93014500D01*
X69934685Y-92947461D01*
X69987489Y-92901706D01*
X70039000Y-92890500D01*
X91428644Y-92890500D01*
X91509737Y-92892668D01*
X91564009Y-92882233D01*
X91568967Y-92881488D01*
X91623910Y-92875514D01*
X91653092Y-92865680D01*
X91661160Y-92863556D01*
X91691404Y-92857742D01*
X91742153Y-92835888D01*
X91746866Y-92834083D01*
X91799221Y-92816444D01*
X91825604Y-92800569D01*
X91833035Y-92796757D01*
X91861318Y-92784579D01*
X91906202Y-92752313D01*
X91910381Y-92749561D01*
X91957736Y-92721070D01*
X91980090Y-92699893D01*
X91986525Y-92694573D01*
X92011530Y-92676600D01*
X92048418Y-92635452D01*
X92051909Y-92631863D01*
X92092041Y-92593849D01*
X92109317Y-92568368D01*
X92114464Y-92561780D01*
X94016776Y-90439841D01*
X94076181Y-90403066D01*
X94125517Y-90400516D01*
X94125554Y-90400077D01*
X94128803Y-90400346D01*
X94129521Y-90400309D01*
X94130665Y-90400500D01*
X94130668Y-90400500D01*
X94379335Y-90400500D01*
X94624614Y-90359571D01*
X94859810Y-90278828D01*
X95078509Y-90160474D01*
X95274744Y-90007738D01*
X95433771Y-89834988D01*
X95493657Y-89798999D01*
X95563495Y-89801099D01*
X95616228Y-89834988D01*
X95775256Y-90007738D01*
X95971491Y-90160474D01*
X96190190Y-90278828D01*
X96425386Y-90359571D01*
X96670665Y-90400500D01*
X96919335Y-90400500D01*
X97164614Y-90359571D01*
X97399810Y-90278828D01*
X97618509Y-90160474D01*
X97814744Y-90007738D01*
X97973771Y-89834988D01*
X98033657Y-89798999D01*
X98103495Y-89801099D01*
X98156228Y-89834988D01*
X98315256Y-90007738D01*
X98511491Y-90160474D01*
X98730190Y-90278828D01*
X98965386Y-90359571D01*
X99210665Y-90400500D01*
X99459335Y-90400500D01*
X99704614Y-90359571D01*
X99939810Y-90278828D01*
X100158509Y-90160474D01*
X100354744Y-90007738D01*
X100523164Y-89824785D01*
X100659173Y-89616607D01*
X100759063Y-89388881D01*
X100820108Y-89147821D01*
X100820109Y-89147812D01*
X100840643Y-88900005D01*
X100840643Y-88899994D01*
X100820109Y-88652187D01*
X100820108Y-88652183D01*
X100820108Y-88652179D01*
X100820105Y-88652166D01*
X100788836Y-88528688D01*
X100791460Y-88458867D01*
X100812428Y-88420517D01*
X102204706Y-86690159D01*
X102221042Y-86673386D01*
X102221100Y-86673337D01*
X102262674Y-86618647D01*
X102269978Y-86609039D01*
X102283991Y-86591623D01*
X102291541Y-86582240D01*
X102296528Y-86574444D01*
X102299384Y-86570354D01*
X102333054Y-86526064D01*
X102345815Y-86498480D01*
X102349867Y-86491085D01*
X102366247Y-86465487D01*
X102366248Y-86465486D01*
X102385458Y-86413271D01*
X102387358Y-86408684D01*
X102410732Y-86358167D01*
X102417270Y-86328458D01*
X102419630Y-86320395D01*
X102430126Y-86291870D01*
X102437662Y-86236749D01*
X102438538Y-86231836D01*
X102446274Y-86196694D01*
X102450500Y-86177497D01*
X102450500Y-86147103D01*
X102451072Y-86138693D01*
X102455190Y-86108580D01*
X102450702Y-86053131D01*
X102450500Y-86048128D01*
X102450500Y-84794500D01*
X102470185Y-84727461D01*
X102522989Y-84681706D01*
X102574500Y-84670500D01*
X105639952Y-84670500D01*
X105706991Y-84690185D01*
X105727628Y-84706814D01*
X105840861Y-84820047D01*
X106027266Y-84950568D01*
X106233504Y-85046739D01*
X106453308Y-85105635D01*
X106615230Y-85119801D01*
X106679998Y-85125468D01*
X106680000Y-85125468D01*
X106680002Y-85125468D01*
X106736672Y-85120509D01*
X106906692Y-85105635D01*
X107126496Y-85046739D01*
X107332734Y-84950568D01*
X107519139Y-84820047D01*
X107680047Y-84659139D01*
X107810568Y-84472734D01*
X107906739Y-84266496D01*
X107965635Y-84046692D01*
X107985468Y-83820000D01*
X107983143Y-83793430D01*
X107977889Y-83733372D01*
X107965635Y-83593308D01*
X107913847Y-83400030D01*
X107906741Y-83373511D01*
X107906738Y-83373502D01*
X107881676Y-83319756D01*
X107810568Y-83167266D01*
X107703361Y-83014157D01*
X107680045Y-82980858D01*
X107519141Y-82819954D01*
X107332734Y-82689432D01*
X107332732Y-82689431D01*
X107126497Y-82593261D01*
X107126488Y-82593258D01*
X106906697Y-82534366D01*
X106906693Y-82534365D01*
X106906692Y-82534365D01*
X106906691Y-82534364D01*
X106906686Y-82534364D01*
X106680002Y-82514532D01*
X106679998Y-82514532D01*
X106453313Y-82534364D01*
X106453302Y-82534366D01*
X106233511Y-82593258D01*
X106233502Y-82593261D01*
X106027267Y-82689431D01*
X106027265Y-82689432D01*
X105840862Y-82819951D01*
X105784248Y-82876565D01*
X105727631Y-82933182D01*
X105666311Y-82966666D01*
X105639952Y-82969500D01*
X101679347Y-82969500D01*
X101659285Y-82967866D01*
X101646318Y-82965740D01*
X101646316Y-82965739D01*
X101583593Y-82969140D01*
X101578641Y-82969409D01*
X101575288Y-82969500D01*
X101553882Y-82969500D01*
X101532607Y-82971813D01*
X101529263Y-82972085D01*
X101461591Y-82975755D01*
X101448922Y-82979272D01*
X101429168Y-82983062D01*
X101416100Y-82984483D01*
X101416090Y-82984485D01*
X101351867Y-83006125D01*
X101348657Y-83007111D01*
X101283341Y-83025245D01*
X101283340Y-83025246D01*
X101271712Y-83031410D01*
X101253239Y-83039356D01*
X101240784Y-83043553D01*
X101240782Y-83043554D01*
X101240778Y-83043556D01*
X101240779Y-83043556D01*
X101182699Y-83078500D01*
X101179789Y-83080145D01*
X101119894Y-83111901D01*
X101109871Y-83120414D01*
X101093543Y-83132142D01*
X101082268Y-83138927D01*
X101082263Y-83138930D01*
X101033048Y-83185549D01*
X101030549Y-83187791D01*
X100978900Y-83231661D01*
X100978898Y-83231664D01*
X100970940Y-83242132D01*
X100957507Y-83257105D01*
X100947959Y-83266149D01*
X100947958Y-83266150D01*
X100909918Y-83322255D01*
X100907960Y-83324981D01*
X100866943Y-83378939D01*
X100861419Y-83390878D01*
X100851523Y-83408381D01*
X100844144Y-83419265D01*
X100844138Y-83419275D01*
X100819053Y-83482233D01*
X100817727Y-83485315D01*
X100789266Y-83546836D01*
X100789266Y-83546837D01*
X100786438Y-83559683D01*
X100780537Y-83578903D01*
X100775668Y-83591126D01*
X100764705Y-83658000D01*
X100764072Y-83661297D01*
X100749500Y-83727500D01*
X100749500Y-83740653D01*
X100747866Y-83760715D01*
X100745740Y-83773681D01*
X100745739Y-83773683D01*
X100749409Y-83841355D01*
X100749500Y-83844712D01*
X100749500Y-85741624D01*
X100729815Y-85808663D01*
X100722110Y-85819358D01*
X99487926Y-87353234D01*
X99430563Y-87393125D01*
X99391316Y-87399500D01*
X99210665Y-87399500D01*
X98965383Y-87440429D01*
X98730197Y-87521169D01*
X98730188Y-87521172D01*
X98511493Y-87639524D01*
X98315255Y-87792262D01*
X98315252Y-87792265D01*
X98156228Y-87965010D01*
X98096341Y-88001001D01*
X98026503Y-87998900D01*
X97973770Y-87965011D01*
X97814744Y-87792262D01*
X97755946Y-87746498D01*
X97715134Y-87689789D01*
X97708259Y-87642569D01*
X97718395Y-87436125D01*
X97741342Y-87370135D01*
X97796326Y-87327024D01*
X97800936Y-87325292D01*
X99170990Y-86841745D01*
X99302956Y-86795169D01*
X99308488Y-86793502D01*
X99356941Y-86781329D01*
X99356940Y-86781329D01*
X99356945Y-86781328D01*
X99433913Y-86742924D01*
X99511501Y-86705673D01*
X99511508Y-86705666D01*
X99516983Y-86702265D01*
X99522476Y-86698737D01*
X99522477Y-86698735D01*
X99522479Y-86698735D01*
X99589406Y-86644672D01*
X99657158Y-86591623D01*
X99657160Y-86591621D01*
X99661820Y-86587077D01*
X99666384Y-86582492D01*
X99666383Y-86582492D01*
X99666388Y-86582489D01*
X99702212Y-86537701D01*
X99720119Y-86515315D01*
X99742121Y-86488649D01*
X99774894Y-86448929D01*
X99774899Y-86448917D01*
X99778438Y-86443535D01*
X99781941Y-86438027D01*
X99781941Y-86438025D01*
X99781943Y-86438024D01*
X99819977Y-86360872D01*
X99859200Y-86284262D01*
X99859202Y-86284252D01*
X99861547Y-86278113D01*
X99863737Y-86272105D01*
X99863742Y-86272096D01*
X99884311Y-86188527D01*
X99906138Y-86105320D01*
X99906138Y-86105318D01*
X99906139Y-86105315D01*
X99907096Y-86098901D01*
X99907956Y-86092468D01*
X99907958Y-86092462D01*
X99910082Y-86006407D01*
X99913510Y-85920473D01*
X99913050Y-85913758D01*
X99913605Y-85913719D01*
X99912672Y-85901519D01*
X100162715Y-75774725D01*
X100163484Y-75766418D01*
X100168379Y-75736069D01*
X100165238Y-75680846D01*
X100165158Y-75675818D01*
X100165379Y-75666895D01*
X100162480Y-75632319D01*
X100157878Y-75551372D01*
X100157875Y-75551364D01*
X100157552Y-75549421D01*
X100154177Y-75530717D01*
X100153799Y-75528769D01*
X100129820Y-75451340D01*
X100107918Y-75373251D01*
X100107209Y-75371487D01*
X100099845Y-75353835D01*
X100099074Y-75352054D01*
X100059007Y-75281579D01*
X100044296Y-75254008D01*
X100020834Y-75210034D01*
X100020827Y-75210026D01*
X100019720Y-75208402D01*
X100008765Y-75192789D01*
X100007644Y-75191237D01*
X100007642Y-75191233D01*
X99953335Y-75130991D01*
X99900700Y-75069354D01*
X99900694Y-75069349D01*
X99899326Y-75068060D01*
X99885162Y-75055068D01*
X99883769Y-75053824D01*
X99817802Y-75006679D01*
X99753128Y-74957784D01*
X99751593Y-74956866D01*
X99734892Y-74947179D01*
X99733263Y-74946263D01*
X99704908Y-74934146D01*
X99658715Y-74914406D01*
X99605807Y-74890097D01*
X99585031Y-74880551D01*
X99583262Y-74879960D01*
X99564985Y-74874128D01*
X99563154Y-74873570D01*
X99563153Y-74873570D01*
X99563151Y-74873569D01*
X99563149Y-74873569D01*
X99483506Y-74858484D01*
X99404257Y-74841259D01*
X99402513Y-74841074D01*
X99383274Y-74839293D01*
X99381392Y-74839144D01*
X99381389Y-74839144D01*
X99381385Y-74839144D01*
X99381384Y-74839144D01*
X99300346Y-74841533D01*
X97472531Y-74846343D01*
X97405440Y-74826834D01*
X97359547Y-74774151D01*
X97349421Y-74705019D01*
X97378279Y-74641387D01*
X97384511Y-74634674D01*
X97520047Y-74499139D01*
X97650568Y-74312734D01*
X97746739Y-74106496D01*
X97805635Y-73886692D01*
X97825468Y-73660000D01*
X97825467Y-73659994D01*
X97805635Y-73433313D01*
X97805635Y-73433308D01*
X97746739Y-73213504D01*
X97650568Y-73007266D01*
X97520047Y-72820861D01*
X97406816Y-72707630D01*
X97373333Y-72646310D01*
X97370499Y-72619960D01*
X97370499Y-69753364D01*
X97390184Y-69686326D01*
X97418334Y-69655513D01*
X97471784Y-69613913D01*
X97628979Y-69443153D01*
X97755924Y-69248849D01*
X97849157Y-69036300D01*
X97906134Y-68811305D01*
X97925300Y-68580006D01*
X105274700Y-68580006D01*
X105293864Y-68811297D01*
X105293866Y-68811308D01*
X105350842Y-69036300D01*
X105444075Y-69248848D01*
X105571016Y-69443147D01*
X105571019Y-69443151D01*
X105571021Y-69443153D01*
X105728216Y-69613913D01*
X105781664Y-69655513D01*
X105822475Y-69712220D01*
X105829500Y-69753364D01*
X105829500Y-72619950D01*
X105809815Y-72686989D01*
X105793182Y-72707631D01*
X105679951Y-72820862D01*
X105549432Y-73007265D01*
X105549431Y-73007267D01*
X105453261Y-73213502D01*
X105453258Y-73213511D01*
X105394366Y-73433302D01*
X105394364Y-73433313D01*
X105374532Y-73659998D01*
X105374532Y-73660001D01*
X105394364Y-73886686D01*
X105394366Y-73886697D01*
X105453258Y-74106488D01*
X105453261Y-74106497D01*
X105549431Y-74312732D01*
X105549432Y-74312734D01*
X105679954Y-74499141D01*
X105840858Y-74660045D01*
X105871649Y-74681605D01*
X106027266Y-74790568D01*
X106233504Y-74886739D01*
X106453308Y-74945635D01*
X106593715Y-74957919D01*
X106679998Y-74965468D01*
X106680000Y-74965468D01*
X106680002Y-74965468D01*
X106736672Y-74960509D01*
X106906692Y-74945635D01*
X107126496Y-74886739D01*
X107332734Y-74790568D01*
X107519139Y-74660047D01*
X107680047Y-74499139D01*
X107810568Y-74312734D01*
X107906739Y-74106496D01*
X107965635Y-73886692D01*
X107985468Y-73660000D01*
X107985467Y-73659994D01*
X107965635Y-73433313D01*
X107965635Y-73433308D01*
X107906739Y-73213504D01*
X107810568Y-73007266D01*
X107680047Y-72820861D01*
X107628452Y-72769266D01*
X107566818Y-72707631D01*
X107533334Y-72646308D01*
X107530500Y-72619950D01*
X107530500Y-69753364D01*
X107550185Y-69686325D01*
X107578333Y-69655514D01*
X107631784Y-69613913D01*
X107788979Y-69443153D01*
X107915924Y-69248849D01*
X108009157Y-69036300D01*
X108066134Y-68811305D01*
X108085300Y-68580000D01*
X108085300Y-68579993D01*
X108066135Y-68348702D01*
X108066133Y-68348691D01*
X108009157Y-68123699D01*
X107915924Y-67911151D01*
X107788983Y-67716852D01*
X107788980Y-67716849D01*
X107788979Y-67716847D01*
X107631784Y-67546087D01*
X107631779Y-67546083D01*
X107631777Y-67546081D01*
X107448634Y-67403535D01*
X107448628Y-67403531D01*
X107244504Y-67293064D01*
X107244495Y-67293061D01*
X107024984Y-67217702D01*
X106840269Y-67186879D01*
X106796049Y-67179500D01*
X106563951Y-67179500D01*
X106519731Y-67186879D01*
X106335015Y-67217702D01*
X106115504Y-67293061D01*
X106115495Y-67293064D01*
X105911371Y-67403531D01*
X105911365Y-67403535D01*
X105728222Y-67546081D01*
X105728219Y-67546084D01*
X105571016Y-67716852D01*
X105444075Y-67911151D01*
X105350842Y-68123699D01*
X105293866Y-68348691D01*
X105293864Y-68348702D01*
X105274700Y-68579993D01*
X105274700Y-68580006D01*
X97925300Y-68580006D01*
X97925300Y-68580000D01*
X97925300Y-68579993D01*
X97906135Y-68348702D01*
X97906133Y-68348691D01*
X97849157Y-68123699D01*
X97755924Y-67911151D01*
X97628983Y-67716852D01*
X97628980Y-67716849D01*
X97628979Y-67716847D01*
X97471784Y-67546087D01*
X97471779Y-67546083D01*
X97471777Y-67546081D01*
X97288634Y-67403535D01*
X97288628Y-67403531D01*
X97084504Y-67293064D01*
X97084495Y-67293061D01*
X96864984Y-67217702D01*
X96680269Y-67186879D01*
X96636049Y-67179500D01*
X96403951Y-67179500D01*
X96359731Y-67186879D01*
X96175015Y-67217702D01*
X95955504Y-67293061D01*
X95955495Y-67293064D01*
X95751371Y-67403531D01*
X95751365Y-67403535D01*
X95568222Y-67546081D01*
X95568219Y-67546084D01*
X95411016Y-67716852D01*
X95284075Y-67911151D01*
X95190842Y-68123699D01*
X95133866Y-68348691D01*
X95133864Y-68348702D01*
X95114700Y-68579993D01*
X95114700Y-68580006D01*
X95133864Y-68811297D01*
X95133866Y-68811308D01*
X95190842Y-69036300D01*
X95284075Y-69248848D01*
X95411016Y-69443147D01*
X95411019Y-69443151D01*
X95411021Y-69443153D01*
X95568216Y-69613913D01*
X95621664Y-69655513D01*
X95662475Y-69712220D01*
X95669500Y-69753364D01*
X95669500Y-72619951D01*
X95649815Y-72686990D01*
X95633181Y-72707632D01*
X95519954Y-72820858D01*
X95389432Y-73007265D01*
X95389431Y-73007267D01*
X95293261Y-73213502D01*
X95293258Y-73213511D01*
X95234366Y-73433302D01*
X95234364Y-73433313D01*
X95214532Y-73659998D01*
X95214532Y-73660001D01*
X95234364Y-73886686D01*
X95234366Y-73886697D01*
X95293258Y-74106488D01*
X95293261Y-74106497D01*
X95389431Y-74312732D01*
X95389432Y-74312734D01*
X95519954Y-74499141D01*
X95660473Y-74639660D01*
X95693958Y-74700983D01*
X95688974Y-74770675D01*
X95647102Y-74826608D01*
X95581638Y-74851025D01*
X95573118Y-74851341D01*
X89832426Y-74866448D01*
X89765335Y-74846939D01*
X89719442Y-74794256D01*
X89709316Y-74725124D01*
X89738174Y-74661492D01*
X89744406Y-74654779D01*
X89900047Y-74499139D01*
X90030568Y-74312734D01*
X90126739Y-74106496D01*
X90185635Y-73886692D01*
X90205468Y-73660000D01*
X90205467Y-73659994D01*
X90185635Y-73433313D01*
X90185635Y-73433308D01*
X90126739Y-73213504D01*
X90030568Y-73007266D01*
X89900047Y-72820861D01*
X89900045Y-72820858D01*
X89786819Y-72707632D01*
X89753334Y-72646309D01*
X89750500Y-72619951D01*
X89750500Y-69753364D01*
X89770185Y-69686325D01*
X89798333Y-69655514D01*
X89851784Y-69613913D01*
X90008979Y-69443153D01*
X90135924Y-69248849D01*
X90229157Y-69036300D01*
X90286134Y-68811305D01*
X90305300Y-68580000D01*
X90305300Y-68579993D01*
X90286135Y-68348702D01*
X90286133Y-68348691D01*
X90229157Y-68123699D01*
X90135924Y-67911151D01*
X90008983Y-67716852D01*
X90008980Y-67716849D01*
X90008979Y-67716847D01*
X89851784Y-67546087D01*
X89851779Y-67546083D01*
X89851777Y-67546081D01*
X89668634Y-67403535D01*
X89668628Y-67403531D01*
X89464504Y-67293064D01*
X89464495Y-67293061D01*
X89244984Y-67217702D01*
X89060269Y-67186879D01*
X89016049Y-67179500D01*
X88783951Y-67179500D01*
X88739731Y-67186879D01*
X88555015Y-67217702D01*
X88335504Y-67293061D01*
X88335495Y-67293064D01*
X88131371Y-67403531D01*
X88131365Y-67403535D01*
X87948222Y-67546081D01*
X87948219Y-67546084D01*
X87791016Y-67716852D01*
X87664075Y-67911151D01*
X87570842Y-68123699D01*
X87513866Y-68348691D01*
X87513864Y-68348702D01*
X87494700Y-68579993D01*
X87494700Y-68580006D01*
X87513864Y-68811297D01*
X87513866Y-68811308D01*
X87570842Y-69036300D01*
X87664075Y-69248848D01*
X87791016Y-69443147D01*
X87791019Y-69443151D01*
X87791021Y-69443153D01*
X87948216Y-69613913D01*
X88001664Y-69655513D01*
X88042475Y-69712220D01*
X88049500Y-69753364D01*
X88049500Y-72619950D01*
X88029815Y-72686989D01*
X88013182Y-72707631D01*
X87899951Y-72820862D01*
X87769432Y-73007265D01*
X87769431Y-73007267D01*
X87673261Y-73213502D01*
X87673258Y-73213511D01*
X87614366Y-73433302D01*
X87614364Y-73433313D01*
X87594532Y-73659998D01*
X87594532Y-73660001D01*
X87614364Y-73886686D01*
X87614366Y-73886697D01*
X87673258Y-74106488D01*
X87673261Y-74106497D01*
X87769431Y-74312732D01*
X87769432Y-74312734D01*
X87899954Y-74499141D01*
X88060473Y-74659660D01*
X88093958Y-74720983D01*
X88088974Y-74790675D01*
X88047102Y-74846608D01*
X87981638Y-74871025D01*
X87973118Y-74871341D01*
X82189246Y-74886561D01*
X82122155Y-74867052D01*
X82076262Y-74814369D01*
X82066136Y-74745237D01*
X82094994Y-74681605D01*
X82117802Y-74660982D01*
X82119139Y-74660047D01*
X82280047Y-74499139D01*
X82410568Y-74312734D01*
X82506739Y-74106496D01*
X82565635Y-73886692D01*
X82585468Y-73660000D01*
X82585467Y-73659994D01*
X82565635Y-73433313D01*
X82565635Y-73433308D01*
X82506739Y-73213504D01*
X82410568Y-73007266D01*
X82280047Y-72820861D01*
X82280045Y-72820858D01*
X82119140Y-72659953D01*
X81973377Y-72557889D01*
X81929752Y-72503312D01*
X81920500Y-72456314D01*
X81920500Y-69753364D01*
X81940185Y-69686325D01*
X81968333Y-69655514D01*
X82021784Y-69613913D01*
X82178979Y-69443153D01*
X82305924Y-69248849D01*
X82399157Y-69036300D01*
X82456134Y-68811305D01*
X82475300Y-68580000D01*
X82475300Y-68579993D01*
X82456135Y-68348702D01*
X82456133Y-68348691D01*
X82399157Y-68123699D01*
X82305924Y-67911151D01*
X82178983Y-67716852D01*
X82178980Y-67716849D01*
X82178979Y-67716847D01*
X82021784Y-67546087D01*
X82021779Y-67546083D01*
X82021777Y-67546081D01*
X81838634Y-67403535D01*
X81838628Y-67403531D01*
X81634504Y-67293064D01*
X81634495Y-67293061D01*
X81414984Y-67217702D01*
X81230269Y-67186879D01*
X81186049Y-67179500D01*
X80953951Y-67179500D01*
X80909731Y-67186879D01*
X80725015Y-67217702D01*
X80505504Y-67293061D01*
X80505495Y-67293064D01*
X80301371Y-67403531D01*
X80301365Y-67403535D01*
X80118222Y-67546081D01*
X80118219Y-67546084D01*
X79961016Y-67716852D01*
X79834075Y-67911151D01*
X79740842Y-68123699D01*
X79683866Y-68348691D01*
X79683864Y-68348702D01*
X79664700Y-68579993D01*
X79664700Y-68580006D01*
X79683864Y-68811297D01*
X79683866Y-68811308D01*
X79740842Y-69036300D01*
X79834075Y-69248848D01*
X79961016Y-69443147D01*
X79961019Y-69443151D01*
X79961021Y-69443153D01*
X80118216Y-69613913D01*
X80171664Y-69655513D01*
X80212475Y-69712220D01*
X80219500Y-69753364D01*
X80219500Y-72868100D01*
X80199815Y-72935139D01*
X80197076Y-72939222D01*
X80149431Y-73007267D01*
X80053261Y-73213502D01*
X80053258Y-73213511D01*
X79994366Y-73433302D01*
X79994364Y-73433313D01*
X79974532Y-73659998D01*
X79974532Y-73660001D01*
X79994364Y-73886686D01*
X79994366Y-73886697D01*
X80053258Y-74106488D01*
X80053261Y-74106497D01*
X80149431Y-74312732D01*
X80149432Y-74312734D01*
X80279954Y-74499141D01*
X80440858Y-74660045D01*
X80449011Y-74665754D01*
X80492635Y-74720332D01*
X80499827Y-74789830D01*
X80468304Y-74852185D01*
X80408073Y-74887597D01*
X80378212Y-74891328D01*
X71990917Y-74913399D01*
X71923826Y-74893890D01*
X71877933Y-74841207D01*
X71867807Y-74772075D01*
X71896665Y-74708443D01*
X71919470Y-74687823D01*
X71959139Y-74660047D01*
X72120047Y-74499139D01*
X72250568Y-74312734D01*
X72346739Y-74106496D01*
X72405635Y-73886692D01*
X72425468Y-73660000D01*
X72425467Y-73659994D01*
X72405635Y-73433313D01*
X72405635Y-73433308D01*
X72346739Y-73213504D01*
X72250568Y-73007266D01*
X72120047Y-72820861D01*
X72120045Y-72820858D01*
X72006819Y-72707632D01*
X71973334Y-72646309D01*
X71970500Y-72619951D01*
X71970500Y-69753364D01*
X71990185Y-69686325D01*
X72018333Y-69655514D01*
X72071784Y-69613913D01*
X72228979Y-69443153D01*
X72355924Y-69248849D01*
X72449157Y-69036300D01*
X72506134Y-68811305D01*
X72525300Y-68580000D01*
X72525300Y-68579993D01*
X72506135Y-68348702D01*
X72506133Y-68348691D01*
X72449157Y-68123699D01*
X72355924Y-67911151D01*
X72228983Y-67716852D01*
X72228980Y-67716849D01*
X72228979Y-67716847D01*
X72071784Y-67546087D01*
X72071779Y-67546083D01*
X72071777Y-67546081D01*
X71888634Y-67403535D01*
X71888628Y-67403531D01*
X71684504Y-67293064D01*
X71684495Y-67293061D01*
X71464984Y-67217702D01*
X71280269Y-67186879D01*
X71236049Y-67179500D01*
X71003951Y-67179500D01*
X70959731Y-67186879D01*
X70775015Y-67217702D01*
X70555504Y-67293061D01*
X70555495Y-67293064D01*
X70351371Y-67403531D01*
X70351365Y-67403535D01*
X70168222Y-67546081D01*
X70168219Y-67546084D01*
X70011016Y-67716852D01*
X69884075Y-67911151D01*
X69790842Y-68123699D01*
X69733866Y-68348691D01*
X69733864Y-68348702D01*
X69714700Y-68579993D01*
X69714700Y-68580006D01*
X69733864Y-68811297D01*
X69733866Y-68811308D01*
X69790842Y-69036300D01*
X69884075Y-69248848D01*
X70011016Y-69443147D01*
X70011019Y-69443151D01*
X70011021Y-69443153D01*
X70168216Y-69613913D01*
X70221664Y-69655513D01*
X70262475Y-69712220D01*
X70269500Y-69753364D01*
X70269500Y-72619951D01*
X70249815Y-72686990D01*
X70233181Y-72707632D01*
X70119954Y-72820858D01*
X69989432Y-73007265D01*
X69989431Y-73007267D01*
X69893261Y-73213502D01*
X69893258Y-73213511D01*
X69834366Y-73433302D01*
X69834364Y-73433313D01*
X69814532Y-73659998D01*
X69814532Y-73660001D01*
X69834364Y-73886686D01*
X69834366Y-73886697D01*
X69893258Y-74106488D01*
X69893261Y-74106497D01*
X69989431Y-74312732D01*
X69989432Y-74312734D01*
X70119954Y-74499141D01*
X70280858Y-74660045D01*
X70327050Y-74692389D01*
X70370675Y-74746966D01*
X70377869Y-74816464D01*
X70346346Y-74878819D01*
X70286117Y-74914233D01*
X70256253Y-74917964D01*
X56693424Y-74953655D01*
X56626333Y-74934146D01*
X56580440Y-74881463D01*
X56570314Y-74812331D01*
X56599172Y-74748699D01*
X56621967Y-74728086D01*
X56719139Y-74660047D01*
X56880047Y-74499139D01*
X57010568Y-74312734D01*
X57106739Y-74106496D01*
X57165635Y-73886692D01*
X57185468Y-73660000D01*
X57185467Y-73659994D01*
X57165635Y-73433313D01*
X57165635Y-73433308D01*
X57106739Y-73213504D01*
X57010568Y-73007266D01*
X56880047Y-72820861D01*
X56880045Y-72820858D01*
X56719141Y-72659954D01*
X56532734Y-72529432D01*
X56532732Y-72529431D01*
X56326497Y-72433261D01*
X56326488Y-72433258D01*
X56106697Y-72374366D01*
X56106693Y-72374365D01*
X56106692Y-72374365D01*
X56106691Y-72374364D01*
X56106686Y-72374364D01*
X55880002Y-72354532D01*
X55879994Y-72354532D01*
X55843179Y-72357752D01*
X55774680Y-72343984D01*
X55744694Y-72321905D01*
X55496819Y-72074030D01*
X55463334Y-72012707D01*
X55460500Y-71986349D01*
X55460500Y-68134433D01*
X55480185Y-68067394D01*
X55485546Y-68059706D01*
X55592366Y-67918255D01*
X55687405Y-67727389D01*
X55745756Y-67522310D01*
X55765429Y-67310000D01*
X55745756Y-67097690D01*
X55687405Y-66892611D01*
X55687403Y-66892606D01*
X55687403Y-66892605D01*
X55592367Y-66701746D01*
X55463872Y-66531593D01*
X55306302Y-66387948D01*
X55125019Y-66275702D01*
X55125017Y-66275701D01*
X55025608Y-66237190D01*
X54926198Y-66198679D01*
X54716610Y-66159500D01*
X54619429Y-66159500D01*
X54552390Y-66139815D01*
X54506635Y-66087011D01*
X54497616Y-66045554D01*
X54495958Y-66045708D01*
X54491137Y-65993681D01*
X54475756Y-65827690D01*
X54417405Y-65622611D01*
X54417403Y-65622606D01*
X54417403Y-65622605D01*
X54322367Y-65431746D01*
X54193872Y-65261593D01*
X54155555Y-65226662D01*
X54036302Y-65117948D01*
X53855019Y-65005702D01*
X53855017Y-65005701D01*
X53755608Y-64967190D01*
X53656198Y-64928679D01*
X53446610Y-64889500D01*
X53233390Y-64889500D01*
X53023802Y-64928679D01*
X53023799Y-64928679D01*
X53023799Y-64928680D01*
X52824982Y-65005701D01*
X52824980Y-65005702D01*
X52643696Y-65117949D01*
X52600709Y-65157137D01*
X52537905Y-65187754D01*
X52517171Y-65189500D01*
X50879347Y-65189500D01*
X50859285Y-65187866D01*
X50846318Y-65185740D01*
X50846316Y-65185739D01*
X50783593Y-65189140D01*
X50778641Y-65189409D01*
X50775288Y-65189500D01*
X50753882Y-65189500D01*
X50732607Y-65191813D01*
X50729263Y-65192085D01*
X50661591Y-65195755D01*
X50648922Y-65199272D01*
X50629168Y-65203062D01*
X50616100Y-65204483D01*
X50616090Y-65204485D01*
X50551867Y-65226125D01*
X50548657Y-65227111D01*
X50483341Y-65245245D01*
X50483340Y-65245246D01*
X50471712Y-65251410D01*
X50453239Y-65259356D01*
X50440784Y-65263553D01*
X50440782Y-65263554D01*
X50440778Y-65263556D01*
X50440779Y-65263556D01*
X50382699Y-65298500D01*
X50379789Y-65300145D01*
X50319894Y-65331901D01*
X50309871Y-65340414D01*
X50293543Y-65352142D01*
X50282268Y-65358927D01*
X50282263Y-65358930D01*
X50233048Y-65405549D01*
X50230549Y-65407791D01*
X50178900Y-65451661D01*
X50178898Y-65451664D01*
X50170940Y-65462132D01*
X50157507Y-65477105D01*
X50147959Y-65486149D01*
X50147958Y-65486150D01*
X50109918Y-65542255D01*
X50107960Y-65544981D01*
X50066943Y-65598939D01*
X50061419Y-65610878D01*
X50051523Y-65628381D01*
X50044144Y-65639265D01*
X50044138Y-65639275D01*
X50019053Y-65702233D01*
X50017727Y-65705315D01*
X49989266Y-65766836D01*
X49989266Y-65766837D01*
X49986438Y-65779683D01*
X49980537Y-65798903D01*
X49975668Y-65811126D01*
X49964705Y-65878000D01*
X49964072Y-65881297D01*
X49949500Y-65947500D01*
X49949500Y-65960653D01*
X49947866Y-65980715D01*
X49945740Y-65993681D01*
X49945739Y-65993683D01*
X49949409Y-66061355D01*
X49949500Y-66064712D01*
X49949500Y-70145500D01*
X49929815Y-70212539D01*
X49877011Y-70258294D01*
X49825500Y-70269500D01*
X46760048Y-70269500D01*
X46693009Y-70249815D01*
X46672371Y-70233185D01*
X46559139Y-70119953D01*
X46559138Y-70119952D01*
X46559137Y-70119951D01*
X46372734Y-69989432D01*
X46372732Y-69989431D01*
X46166497Y-69893261D01*
X46166488Y-69893258D01*
X45946697Y-69834366D01*
X45946693Y-69834365D01*
X45946692Y-69834365D01*
X45946691Y-69834364D01*
X45946686Y-69834364D01*
X45720002Y-69814532D01*
X45719998Y-69814532D01*
X45493313Y-69834364D01*
X45493302Y-69834366D01*
X45273511Y-69893258D01*
X45273502Y-69893261D01*
X45067267Y-69989431D01*
X45067265Y-69989432D01*
X44880858Y-70119954D01*
X44719954Y-70280858D01*
X44589432Y-70467265D01*
X44589431Y-70467267D01*
X44493261Y-70673502D01*
X44493258Y-70673511D01*
X44434366Y-70893302D01*
X44434364Y-70893313D01*
X44414532Y-71119998D01*
X44414532Y-71120001D01*
X44434364Y-71346686D01*
X44434366Y-71346697D01*
X44493258Y-71566488D01*
X44493261Y-71566497D01*
X44589431Y-71772732D01*
X44589432Y-71772734D01*
X44719954Y-71959141D01*
X44880858Y-72120045D01*
X44880861Y-72120047D01*
X45067266Y-72250568D01*
X45273504Y-72346739D01*
X45273509Y-72346740D01*
X45273511Y-72346741D01*
X45326415Y-72360916D01*
X45493308Y-72405635D01*
X45655230Y-72419801D01*
X45719998Y-72425468D01*
X45720000Y-72425468D01*
X45720002Y-72425468D01*
X45776807Y-72420498D01*
X45946692Y-72405635D01*
X46166496Y-72346739D01*
X46372734Y-72250568D01*
X46559139Y-72120047D01*
X46672368Y-72006817D01*
X46733689Y-71973334D01*
X46760048Y-71970500D01*
X50720653Y-71970500D01*
X50740714Y-71972133D01*
X50753683Y-71974260D01*
X50821358Y-71970590D01*
X50824712Y-71970500D01*
X50846107Y-71970500D01*
X50846113Y-71970500D01*
X50867403Y-71968184D01*
X50870732Y-71967914D01*
X50938407Y-71964245D01*
X50951078Y-71960726D01*
X50970840Y-71956935D01*
X50983910Y-71955514D01*
X51048139Y-71933871D01*
X51051336Y-71932890D01*
X51062545Y-71929777D01*
X51116659Y-71914754D01*
X51128283Y-71908591D01*
X51146754Y-71900644D01*
X51159221Y-71896444D01*
X51217312Y-71861491D01*
X51220203Y-71859856D01*
X51280104Y-71828100D01*
X51290122Y-71819590D01*
X51306466Y-71807850D01*
X51317736Y-71801070D01*
X51366973Y-71754428D01*
X51369421Y-71752232D01*
X51421100Y-71708337D01*
X51429060Y-71697863D01*
X51442491Y-71682894D01*
X51452041Y-71673849D01*
X51490086Y-71617735D01*
X51492032Y-71615026D01*
X51533054Y-71561064D01*
X51538577Y-71549123D01*
X51548482Y-71531608D01*
X51555858Y-71520730D01*
X51580945Y-71457764D01*
X51582267Y-71454691D01*
X51586032Y-71446553D01*
X51610732Y-71393167D01*
X51613560Y-71380316D01*
X51619469Y-71361076D01*
X51624331Y-71348875D01*
X51635298Y-71281970D01*
X51635919Y-71278734D01*
X51650500Y-71212497D01*
X51650500Y-71199346D01*
X51652134Y-71179283D01*
X51654260Y-71166316D01*
X51650591Y-71098643D01*
X51650500Y-71095286D01*
X51650500Y-67014500D01*
X51670185Y-66947461D01*
X51722989Y-66901706D01*
X51774500Y-66890500D01*
X52517171Y-66890500D01*
X52584210Y-66910185D01*
X52600709Y-66922863D01*
X52637520Y-66956420D01*
X52643698Y-66962052D01*
X52824981Y-67074298D01*
X53023802Y-67151321D01*
X53233390Y-67190500D01*
X53233392Y-67190500D01*
X53330571Y-67190500D01*
X53397610Y-67210185D01*
X53443365Y-67262989D01*
X53452383Y-67304445D01*
X53454042Y-67304292D01*
X53454571Y-67309999D01*
X53454571Y-67310000D01*
X53474244Y-67522310D01*
X53529595Y-67716847D01*
X53532596Y-67727392D01*
X53532596Y-67727394D01*
X53627632Y-67918253D01*
X53734454Y-68059706D01*
X53759146Y-68125067D01*
X53759500Y-68134433D01*
X53759500Y-72352911D01*
X53759295Y-72357945D01*
X53754798Y-72413163D01*
X53765729Y-72493392D01*
X53774486Y-72573913D01*
X53774710Y-72574930D01*
X53779525Y-72595473D01*
X53779773Y-72596470D01*
X53807700Y-72672486D01*
X53833557Y-72749223D01*
X53834001Y-72750185D01*
X53843146Y-72769266D01*
X53843564Y-72770109D01*
X53843567Y-72770114D01*
X53843568Y-72770116D01*
X53876004Y-72820862D01*
X53887184Y-72838353D01*
X53928930Y-72907736D01*
X53929538Y-72908536D01*
X53942578Y-72925216D01*
X53943201Y-72925991D01*
X54000459Y-72983249D01*
X54056152Y-73042042D01*
X54056983Y-73042747D01*
X54074119Y-73056908D01*
X54541905Y-73524694D01*
X54575390Y-73586017D01*
X54577752Y-73623179D01*
X54574532Y-73659994D01*
X54574532Y-73660001D01*
X54594364Y-73886686D01*
X54594366Y-73886697D01*
X54653258Y-74106488D01*
X54653261Y-74106497D01*
X54749431Y-74312732D01*
X54749432Y-74312734D01*
X54879954Y-74499141D01*
X55040858Y-74660045D01*
X55071649Y-74681605D01*
X55133801Y-74725124D01*
X55144113Y-74732344D01*
X55187738Y-74786920D01*
X55194932Y-74856419D01*
X55163410Y-74918773D01*
X55103180Y-74954188D01*
X55073316Y-74957919D01*
X51110320Y-74968348D01*
X51102389Y-74967860D01*
X51079043Y-74964913D01*
X51068730Y-74963612D01*
X51068729Y-74963612D01*
X51059580Y-74964447D01*
X51016848Y-74968351D01*
X51011382Y-74968608D01*
X51005658Y-74968623D01*
X51005649Y-74968624D01*
X50968187Y-74972797D01*
X50884497Y-74980444D01*
X50877910Y-74981776D01*
X50877851Y-74981486D01*
X50874381Y-74982223D01*
X50874446Y-74982513D01*
X50867882Y-74983975D01*
X50803876Y-75005729D01*
X50788323Y-75011016D01*
X50775588Y-75015063D01*
X50708200Y-75036484D01*
X50702053Y-75039201D01*
X50701934Y-75038932D01*
X50698703Y-75040399D01*
X50698828Y-75040667D01*
X50692732Y-75043506D01*
X50620848Y-75087015D01*
X50548059Y-75129122D01*
X50542644Y-75133093D01*
X50542470Y-75132856D01*
X50539630Y-75134983D01*
X50539809Y-75135217D01*
X50534471Y-75139297D01*
X50473612Y-75197250D01*
X50411590Y-75254007D01*
X50407147Y-75259059D01*
X50406925Y-75258864D01*
X50404614Y-75261545D01*
X50404840Y-75261736D01*
X50400503Y-75266868D01*
X50353528Y-75336546D01*
X37413415Y-93731806D01*
X37366946Y-93792935D01*
X37366942Y-93792941D01*
X37341784Y-93847317D01*
X37339785Y-93851263D01*
X37310815Y-93903706D01*
X37304683Y-93924401D01*
X37298335Y-93941231D01*
X37289269Y-93960828D01*
X37289268Y-93960832D01*
X37276384Y-94019360D01*
X37275280Y-94023644D01*
X37258265Y-94081073D01*
X37258264Y-94081079D01*
X37256723Y-94102613D01*
X37254141Y-94120410D01*
X37249501Y-94141494D01*
X37249500Y-94141505D01*
X37249500Y-94201415D01*
X37249342Y-94205839D01*
X37245067Y-94265600D01*
X37248194Y-94286968D01*
X37249500Y-94304919D01*
X37249500Y-95053023D01*
X37229815Y-95120062D01*
X37177011Y-95165817D01*
X37149865Y-95173266D01*
X37150068Y-95174124D01*
X37142520Y-95175907D01*
X37007671Y-95226202D01*
X37007664Y-95226206D01*
X36892455Y-95312452D01*
X36892452Y-95312455D01*
X36806206Y-95427664D01*
X36806202Y-95427671D01*
X36755908Y-95562517D01*
X36749990Y-95617570D01*
X36749501Y-95622123D01*
X36749500Y-95622135D01*
X36749500Y-97417870D01*
X36749501Y-97417876D01*
X36755908Y-97477483D01*
X36806202Y-97612328D01*
X36806206Y-97612335D01*
X36892452Y-97727544D01*
X36892455Y-97727547D01*
X37007664Y-97813793D01*
X37007671Y-97813797D01*
X37139081Y-97862810D01*
X37195015Y-97904681D01*
X37219432Y-97970145D01*
X37204580Y-98038418D01*
X37183430Y-98066673D01*
X37061503Y-98188600D01*
X36925965Y-98382169D01*
X36925964Y-98382171D01*
X36826098Y-98596335D01*
X36826094Y-98596344D01*
X36764938Y-98824586D01*
X36764936Y-98824596D01*
X36744341Y-99059999D01*
X36744341Y-99060000D01*
X36764936Y-99295403D01*
X36764938Y-99295413D01*
X36826094Y-99523655D01*
X36826096Y-99523659D01*
X36826097Y-99523663D01*
X36859772Y-99595878D01*
X36925965Y-99737830D01*
X36925967Y-99737834D01*
X36990815Y-99830446D01*
X37047013Y-99910705D01*
X37061501Y-99931395D01*
X37061506Y-99931402D01*
X37228597Y-100098493D01*
X37228603Y-100098498D01*
X37414158Y-100228425D01*
X37457783Y-100283002D01*
X37464977Y-100352500D01*
X37433454Y-100414855D01*
X37414158Y-100431575D01*
X37228597Y-100561505D01*
X37061505Y-100728597D01*
X36925965Y-100922169D01*
X36925964Y-100922171D01*
X36826098Y-101136335D01*
X36826094Y-101136344D01*
X36764938Y-101364586D01*
X36764936Y-101364596D01*
X36744341Y-101599999D01*
X36744341Y-101600000D01*
X36764936Y-101835403D01*
X36764938Y-101835413D01*
X36826094Y-102063655D01*
X36826096Y-102063659D01*
X36826097Y-102063663D01*
X36868151Y-102153848D01*
X36925965Y-102277830D01*
X36925967Y-102277834D01*
X37061501Y-102471395D01*
X37061506Y-102471402D01*
X37228597Y-102638493D01*
X37228603Y-102638498D01*
X37414158Y-102768425D01*
X37457783Y-102823002D01*
X37464977Y-102892500D01*
X37433454Y-102954855D01*
X37414158Y-102971575D01*
X37228597Y-103101505D01*
X37061505Y-103268597D01*
X36925965Y-103462169D01*
X36925964Y-103462171D01*
X36826098Y-103676335D01*
X36826094Y-103676344D01*
X36764938Y-103904586D01*
X36764936Y-103904596D01*
X36744341Y-104139999D01*
X36744341Y-104140000D01*
X36764936Y-104375403D01*
X36764938Y-104375413D01*
X36826094Y-104603655D01*
X36826096Y-104603659D01*
X36826097Y-104603663D01*
X36895414Y-104752313D01*
X36925965Y-104817830D01*
X36925967Y-104817834D01*
X37009503Y-104937135D01*
X37061505Y-105011401D01*
X37228599Y-105178495D01*
X37322750Y-105244420D01*
X37422165Y-105314032D01*
X37422167Y-105314033D01*
X37422170Y-105314035D01*
X37636337Y-105413903D01*
X37864592Y-105475063D01*
X38052918Y-105491539D01*
X38099999Y-105495659D01*
X38100000Y-105495659D01*
X38100001Y-105495659D01*
X38139234Y-105492226D01*
X38335408Y-105475063D01*
X38563663Y-105413903D01*
X38777830Y-105314035D01*
X38779409Y-105312928D01*
X38780219Y-105312655D01*
X38782517Y-105311329D01*
X38782783Y-105311790D01*
X38845614Y-105290598D01*
X38850538Y-105290500D01*
X42525085Y-105290500D01*
X42592124Y-105310185D01*
X42612766Y-105326819D01*
X43104653Y-105818705D01*
X43138138Y-105880028D01*
X43140972Y-105906386D01*
X43140972Y-111286612D01*
X43150258Y-111336294D01*
X43151050Y-111341966D01*
X43155715Y-111392307D01*
X43169549Y-111440930D01*
X43170861Y-111446506D01*
X43180151Y-111496198D01*
X43198412Y-111543337D01*
X43200233Y-111548769D01*
X43214067Y-111597388D01*
X43214069Y-111597393D01*
X43236601Y-111642645D01*
X43238910Y-111647875D01*
X43257174Y-111695019D01*
X43283789Y-111738004D01*
X43286576Y-111743009D01*
X43309104Y-111788253D01*
X43339568Y-111828594D01*
X43342805Y-111833319D01*
X43369419Y-111876301D01*
X43369420Y-111876302D01*
X43403475Y-111913658D01*
X43407136Y-111918067D01*
X43437600Y-111958407D01*
X43474957Y-111992463D01*
X43479007Y-111996513D01*
X43513066Y-112033873D01*
X43553405Y-112064336D01*
X43557812Y-112067996D01*
X43595168Y-112102051D01*
X43638150Y-112128665D01*
X43642877Y-112131903D01*
X43665315Y-112148847D01*
X43683217Y-112162366D01*
X43716336Y-112178857D01*
X43728468Y-112184898D01*
X43733462Y-112187678D01*
X43776453Y-112214298D01*
X43823602Y-112232563D01*
X43828819Y-112234866D01*
X43856063Y-112248432D01*
X43874076Y-112257402D01*
X43874080Y-112257403D01*
X43874083Y-112257405D01*
X43874085Y-112257405D01*
X43874094Y-112257409D01*
X43922709Y-112271241D01*
X43928136Y-112273059D01*
X43975274Y-112291321D01*
X43975283Y-112291322D01*
X43975284Y-112291323D01*
X43985355Y-112293205D01*
X44024966Y-112300609D01*
X44030536Y-112301920D01*
X44040444Y-112304739D01*
X44079162Y-112315756D01*
X44129515Y-112320421D01*
X44135167Y-112321210D01*
X44184862Y-112330500D01*
X44238278Y-112330500D01*
X64144302Y-112330500D01*
X64211341Y-112350185D01*
X64257096Y-112402989D01*
X64267040Y-112472147D01*
X64238015Y-112535703D01*
X64234115Y-112539737D01*
X64234175Y-112539793D01*
X64052567Y-112735520D01*
X63904768Y-112952302D01*
X63904767Y-112952303D01*
X63790938Y-113188673D01*
X63713606Y-113439376D01*
X63713605Y-113439381D01*
X63713604Y-113439385D01*
X63704396Y-113500474D01*
X63674500Y-113698812D01*
X63674500Y-113961187D01*
X63688215Y-114052175D01*
X63713604Y-114220615D01*
X63713605Y-114220617D01*
X63713606Y-114220623D01*
X63790938Y-114471326D01*
X63904767Y-114707696D01*
X63904768Y-114707697D01*
X63904770Y-114707700D01*
X63904772Y-114707704D01*
X63960118Y-114788881D01*
X64052567Y-114924479D01*
X64231014Y-115116801D01*
X64231018Y-115116804D01*
X64231019Y-115116805D01*
X64436143Y-115280386D01*
X64663357Y-115411568D01*
X64907584Y-115507420D01*
X65163370Y-115565802D01*
X65163376Y-115565802D01*
X65163379Y-115565803D01*
X65359500Y-115580500D01*
X65359506Y-115580500D01*
X65490500Y-115580500D01*
X65686620Y-115565803D01*
X65686622Y-115565802D01*
X65686630Y-115565802D01*
X65942416Y-115507420D01*
X66186643Y-115411568D01*
X66413857Y-115280386D01*
X66618981Y-115116805D01*
X66635015Y-115099525D01*
X66711951Y-115016607D01*
X66797433Y-114924479D01*
X66945228Y-114707704D01*
X67059063Y-114471323D01*
X67109986Y-114306231D01*
X67148556Y-114247974D01*
X67212501Y-114219816D01*
X67281518Y-114230700D01*
X67333695Y-114277168D01*
X67352053Y-114332543D01*
X67369890Y-114547812D01*
X67369892Y-114547824D01*
X67430936Y-114788881D01*
X67530826Y-115016606D01*
X67666833Y-115224782D01*
X67666836Y-115224785D01*
X67835256Y-115407738D01*
X67956663Y-115502233D01*
X67997475Y-115558942D01*
X68004500Y-115600085D01*
X68004500Y-136127911D01*
X68004295Y-136132945D01*
X67999798Y-136188163D01*
X68010729Y-136268392D01*
X68019486Y-136348913D01*
X68019710Y-136349930D01*
X68024525Y-136370473D01*
X68024773Y-136371470D01*
X68052700Y-136447486D01*
X68078557Y-136524223D01*
X68079001Y-136525185D01*
X68088146Y-136544266D01*
X68088564Y-136545109D01*
X68132184Y-136613353D01*
X68173930Y-136682736D01*
X68174538Y-136683536D01*
X68187578Y-136700216D01*
X68188201Y-136700991D01*
X68245459Y-136758249D01*
X68301152Y-136817042D01*
X68301983Y-136817747D01*
X68319119Y-136831908D01*
X74896982Y-143409770D01*
X74930467Y-143471093D01*
X74932597Y-143504587D01*
X74932677Y-143504587D01*
X74932677Y-143505846D01*
X74932830Y-143508253D01*
X74932677Y-143510002D01*
X74951929Y-143730062D01*
X74951930Y-143730070D01*
X75009104Y-143943445D01*
X75009105Y-143943447D01*
X75009106Y-143943450D01*
X75083118Y-144102169D01*
X75102466Y-144143662D01*
X75102468Y-144143666D01*
X75229170Y-144324615D01*
X75229175Y-144324621D01*
X75385378Y-144480824D01*
X75385384Y-144480829D01*
X75566333Y-144607531D01*
X75566335Y-144607532D01*
X75566338Y-144607534D01*
X75685748Y-144663215D01*
X75695189Y-144667618D01*
X75747628Y-144713790D01*
X75766780Y-144780984D01*
X75746564Y-144847865D01*
X75695189Y-144892382D01*
X75566340Y-144952465D01*
X75566338Y-144952466D01*
X75385381Y-145079172D01*
X75343377Y-145121176D01*
X75301371Y-145163182D01*
X75240051Y-145196666D01*
X75213692Y-145199500D01*
X55013650Y-145199500D01*
X54946611Y-145179815D01*
X54925969Y-145163181D01*
X52956819Y-143194030D01*
X52923334Y-143132707D01*
X52920500Y-143106349D01*
X52920500Y-134657087D01*
X52920705Y-134652052D01*
X52925201Y-134596836D01*
X52923816Y-134586674D01*
X52914270Y-134516607D01*
X52905514Y-134436090D01*
X52905513Y-134436088D01*
X52905513Y-134436084D01*
X52905280Y-134435026D01*
X52900507Y-134414663D01*
X52900227Y-134413536D01*
X52900227Y-134413532D01*
X52894386Y-134397634D01*
X52872294Y-134337499D01*
X52846444Y-134260779D01*
X52846441Y-134260774D01*
X52845950Y-134259712D01*
X52836930Y-134240886D01*
X52836434Y-134239886D01*
X52792806Y-134171631D01*
X52792805Y-134171630D01*
X52751070Y-134102264D01*
X52751069Y-134102263D01*
X52751068Y-134102261D01*
X52750409Y-134101395D01*
X52737541Y-134084934D01*
X52736802Y-134084014D01*
X52736801Y-134084013D01*
X52736800Y-134084011D01*
X52679539Y-134026750D01*
X52623849Y-133967959D01*
X52623088Y-133967312D01*
X52605881Y-133953092D01*
X49255653Y-130602864D01*
X45497607Y-126844818D01*
X45494204Y-126841126D01*
X45458336Y-126798899D01*
X45393891Y-126749909D01*
X45330759Y-126699162D01*
X45330758Y-126699161D01*
X45330754Y-126699158D01*
X45330748Y-126699155D01*
X45329854Y-126698583D01*
X45312019Y-126687520D01*
X45311064Y-126686946D01*
X45237560Y-126652939D01*
X45165027Y-126616966D01*
X45163981Y-126616582D01*
X45144160Y-126609602D01*
X45143164Y-126609266D01*
X45064073Y-126591858D01*
X44985494Y-126572315D01*
X44984584Y-126572191D01*
X44963506Y-126569610D01*
X44962501Y-126569501D01*
X44962497Y-126569500D01*
X44962492Y-126569500D01*
X44881531Y-126569500D01*
X44800564Y-126567306D01*
X44799520Y-126567391D01*
X44777352Y-126569500D01*
X39554499Y-126569500D01*
X39487460Y-126549815D01*
X39441705Y-126497011D01*
X39430499Y-126445500D01*
X39430499Y-124157129D01*
X39430498Y-124157123D01*
X39430497Y-124157116D01*
X39424091Y-124097517D01*
X39373796Y-123962669D01*
X39373795Y-123962668D01*
X39373793Y-123962664D01*
X39287547Y-123847455D01*
X39287544Y-123847452D01*
X39172335Y-123761206D01*
X39172328Y-123761202D01*
X39037482Y-123710908D01*
X39037483Y-123710908D01*
X38977883Y-123704501D01*
X38977881Y-123704500D01*
X38977873Y-123704500D01*
X38977864Y-123704500D01*
X31542129Y-123704500D01*
X31542123Y-123704501D01*
X31482516Y-123710908D01*
X31347671Y-123761202D01*
X31347664Y-123761206D01*
X31232455Y-123847452D01*
X31232452Y-123847455D01*
X31146206Y-123962664D01*
X31146202Y-123962671D01*
X31095908Y-124097517D01*
X31091531Y-124138234D01*
X31089501Y-124157123D01*
X31089500Y-124157135D01*
X31089500Y-130602870D01*
X31089501Y-130602876D01*
X31095908Y-130662483D01*
X31146202Y-130797328D01*
X31146206Y-130797335D01*
X31232452Y-130912544D01*
X31232455Y-130912547D01*
X31347664Y-130998793D01*
X31347671Y-130998797D01*
X31482517Y-131049091D01*
X31482516Y-131049091D01*
X31489444Y-131049835D01*
X31542127Y-131055500D01*
X38977872Y-131055499D01*
X39037483Y-131049091D01*
X39172331Y-130998796D01*
X39287546Y-130912546D01*
X39373796Y-130797331D01*
X39424091Y-130662483D01*
X39430500Y-130602873D01*
X39430500Y-128394500D01*
X39450185Y-128327461D01*
X39502989Y-128281706D01*
X39554500Y-128270500D01*
X44466349Y-128270500D01*
X44533388Y-128290185D01*
X44554030Y-128306819D01*
X51183181Y-134935969D01*
X51216666Y-134997292D01*
X51219500Y-135023650D01*
X51219500Y-143472911D01*
X51219295Y-143477945D01*
X51214798Y-143533163D01*
X51225729Y-143613392D01*
X51234486Y-143693913D01*
X51234710Y-143694930D01*
X51239525Y-143715473D01*
X51239773Y-143716470D01*
X51267700Y-143792486D01*
X51293557Y-143869223D01*
X51294001Y-143870185D01*
X51303146Y-143889266D01*
X51303564Y-143890109D01*
X51303567Y-143890114D01*
X51303568Y-143890116D01*
X51337655Y-143943445D01*
X51347184Y-143958353D01*
X51388930Y-144027736D01*
X51389538Y-144028536D01*
X51402578Y-144045216D01*
X51403201Y-144045991D01*
X51460459Y-144103249D01*
X51516152Y-144162042D01*
X51516983Y-144162747D01*
X51534118Y-144176908D01*
X53982391Y-146625180D01*
X53985784Y-146628860D01*
X54003564Y-146649792D01*
X54021663Y-146671101D01*
X54021664Y-146671102D01*
X54057341Y-146698221D01*
X54086118Y-146720097D01*
X54149246Y-146770841D01*
X54149247Y-146770841D01*
X54149248Y-146770842D01*
X54150157Y-146771423D01*
X54168009Y-146782497D01*
X54168931Y-146783051D01*
X54168933Y-146783052D01*
X54168936Y-146783054D01*
X54242444Y-146817062D01*
X54314978Y-146853036D01*
X54314979Y-146853036D01*
X54314981Y-146853037D01*
X54316057Y-146853433D01*
X54335856Y-146860402D01*
X54336830Y-146860730D01*
X54336833Y-146860732D01*
X54336835Y-146860732D01*
X54336837Y-146860733D01*
X54415923Y-146878140D01*
X54494508Y-146897685D01*
X54495570Y-146897829D01*
X54516375Y-146900377D01*
X54517502Y-146900499D01*
X54517503Y-146900500D01*
X54517504Y-146900500D01*
X54598469Y-146900500D01*
X54679432Y-146902693D01*
X54679432Y-146902692D01*
X54679435Y-146902693D01*
X54680479Y-146902608D01*
X54702648Y-146900500D01*
X75213692Y-146900500D01*
X75280731Y-146920185D01*
X75301373Y-146936819D01*
X75385378Y-147020824D01*
X75385384Y-147020829D01*
X75566333Y-147147531D01*
X75566335Y-147147532D01*
X75566338Y-147147534D01*
X75766550Y-147240894D01*
X75979932Y-147298070D01*
X76137123Y-147311822D01*
X76199998Y-147317323D01*
X76200000Y-147317323D01*
X76200002Y-147317323D01*
X76255017Y-147312509D01*
X76420068Y-147298070D01*
X76633450Y-147240894D01*
X76833662Y-147147534D01*
X77014620Y-147020826D01*
X77170826Y-146864620D01*
X77297534Y-146683662D01*
X77390894Y-146483450D01*
X77448070Y-146270068D01*
X77462509Y-146105016D01*
X77467323Y-146050002D01*
X77467323Y-146049997D01*
X77448070Y-145829937D01*
X77448070Y-145829932D01*
X77390894Y-145616550D01*
X77297534Y-145416339D01*
X77234179Y-145325859D01*
X77170827Y-145235381D01*
X77098627Y-145163181D01*
X77014620Y-145079174D01*
X77014616Y-145079171D01*
X77014615Y-145079170D01*
X76833666Y-144952468D01*
X76833658Y-144952464D01*
X76704811Y-144892382D01*
X76652371Y-144846210D01*
X76633219Y-144779017D01*
X76653435Y-144712135D01*
X76704811Y-144667618D01*
X76710802Y-144664824D01*
X76833662Y-144607534D01*
X77014620Y-144480826D01*
X77170826Y-144324620D01*
X77297534Y-144143662D01*
X77365507Y-143997892D01*
X77411675Y-143945458D01*
X77478869Y-143926305D01*
X77545750Y-143946520D01*
X77565567Y-143962620D01*
X81363181Y-147760234D01*
X81396666Y-147821557D01*
X81399500Y-147847915D01*
X81399500Y-152506612D01*
X81408786Y-152556294D01*
X81409578Y-152561966D01*
X81414243Y-152612307D01*
X81428077Y-152660930D01*
X81429389Y-152666506D01*
X81438679Y-152716198D01*
X81456940Y-152763337D01*
X81458761Y-152768769D01*
X81472389Y-152816666D01*
X81472595Y-152817388D01*
X81472597Y-152817393D01*
X81495129Y-152862645D01*
X81497438Y-152867875D01*
X81515168Y-152913641D01*
X81515702Y-152915019D01*
X81542317Y-152958004D01*
X81545104Y-152963009D01*
X81567632Y-153008253D01*
X81598096Y-153048594D01*
X81601333Y-153053319D01*
X81627947Y-153096301D01*
X81627948Y-153096302D01*
X81662003Y-153133658D01*
X81665664Y-153138067D01*
X81696128Y-153178407D01*
X81733485Y-153212463D01*
X81737533Y-153216511D01*
X81755805Y-153236554D01*
X81771594Y-153253873D01*
X81811933Y-153284336D01*
X81816340Y-153287996D01*
X81853696Y-153322051D01*
X81896678Y-153348665D01*
X81901405Y-153351903D01*
X81923843Y-153368847D01*
X81941745Y-153382366D01*
X81974864Y-153398857D01*
X81986996Y-153404898D01*
X81991990Y-153407678D01*
X82034981Y-153434298D01*
X82082130Y-153452563D01*
X82087347Y-153454866D01*
X82119569Y-153470911D01*
X82132604Y-153477402D01*
X82132608Y-153477403D01*
X82132611Y-153477405D01*
X82132613Y-153477405D01*
X82132622Y-153477409D01*
X82181237Y-153491241D01*
X82186664Y-153493059D01*
X82233802Y-153511321D01*
X82233811Y-153511322D01*
X82233812Y-153511323D01*
X82243883Y-153513205D01*
X82283494Y-153520609D01*
X82289064Y-153521920D01*
X82298972Y-153524739D01*
X82337690Y-153535756D01*
X82388043Y-153540421D01*
X82393695Y-153541210D01*
X82443390Y-153550500D01*
X82496806Y-153550500D01*
X88793390Y-153550500D01*
X89006610Y-153550500D01*
X94332978Y-153550500D01*
X94335841Y-153550566D01*
X94346195Y-153551044D01*
X94414362Y-153554196D01*
X94492251Y-153543330D01*
X94495008Y-153543011D01*
X94573310Y-153535756D01*
X94594895Y-153529613D01*
X94603304Y-153527839D01*
X94625536Y-153524739D01*
X94700082Y-153499752D01*
X94702787Y-153498915D01*
X94778389Y-153477405D01*
X94798485Y-153467397D01*
X94806402Y-153464117D01*
X94827702Y-153456979D01*
X94896395Y-153418716D01*
X94898857Y-153417418D01*
X94969255Y-153382366D01*
X94987172Y-153368834D01*
X94994355Y-153364154D01*
X95013975Y-153353227D01*
X95074472Y-153302989D01*
X95076704Y-153301223D01*
X95094219Y-153287996D01*
X95139407Y-153253872D01*
X95192371Y-153195771D01*
X95194319Y-153193732D01*
X95535732Y-152852319D01*
X95537782Y-152850362D01*
X95595872Y-152797407D01*
X95643251Y-152734665D01*
X95644999Y-152732460D01*
X95695226Y-152671975D01*
X95706155Y-152652351D01*
X95710823Y-152645186D01*
X95724366Y-152627255D01*
X95759426Y-152556842D01*
X95760705Y-152554415D01*
X95798979Y-152485702D01*
X95806115Y-152464409D01*
X95809400Y-152456482D01*
X95811447Y-152452370D01*
X95819405Y-152436389D01*
X95840916Y-152360785D01*
X95841757Y-152358068D01*
X95866739Y-152283537D01*
X95869838Y-152261307D01*
X95871615Y-152252890D01*
X95871836Y-152252111D01*
X95877756Y-152231310D01*
X95885010Y-152153019D01*
X95885335Y-152150212D01*
X95896195Y-152072362D01*
X95892566Y-151993855D01*
X95892500Y-151990992D01*
X95892500Y-146195029D01*
X104544972Y-146195029D01*
X104544972Y-148354609D01*
X113986309Y-148354609D01*
X113986309Y-146195029D01*
X104544972Y-146195029D01*
X95892500Y-146195029D01*
X95892500Y-135380001D01*
X100209454Y-135380001D01*
X100229613Y-135661866D01*
X100262428Y-135812711D01*
X100289680Y-135937984D01*
X100298877Y-135962641D01*
X100388432Y-136202750D01*
X100388434Y-136202754D01*
X100523855Y-136450758D01*
X100523860Y-136450766D01*
X100693196Y-136676974D01*
X100693212Y-136676992D01*
X100893007Y-136876787D01*
X100893025Y-136876803D01*
X101119233Y-137046139D01*
X101119241Y-137046144D01*
X101367245Y-137181565D01*
X101367249Y-137181567D01*
X101367251Y-137181568D01*
X101632016Y-137280320D01*
X101770077Y-137310353D01*
X101908133Y-137340386D01*
X101908135Y-137340386D01*
X101908139Y-137340387D01*
X102119447Y-137355500D01*
X102260553Y-137355500D01*
X102471861Y-137340387D01*
X102747984Y-137280320D01*
X103012749Y-137181568D01*
X103260764Y-137046141D01*
X103486982Y-136876797D01*
X103686797Y-136676982D01*
X103856141Y-136450764D01*
X103991568Y-136202749D01*
X104090320Y-135937984D01*
X104150387Y-135661861D01*
X104170546Y-135380000D01*
X104150387Y-135098139D01*
X104090320Y-134822016D01*
X103991568Y-134557251D01*
X103856141Y-134309236D01*
X103819867Y-134260779D01*
X103686803Y-134083025D01*
X103686787Y-134083007D01*
X103486992Y-133883212D01*
X103486974Y-133883196D01*
X103260766Y-133713860D01*
X103260758Y-133713855D01*
X103012754Y-133578434D01*
X103012750Y-133578432D01*
X102912372Y-133540993D01*
X102747984Y-133479680D01*
X102747980Y-133479679D01*
X102747977Y-133479678D01*
X102471866Y-133419613D01*
X102260553Y-133404500D01*
X102119447Y-133404500D01*
X101908133Y-133419613D01*
X101632022Y-133479678D01*
X101632017Y-133479679D01*
X101632016Y-133479680D01*
X101568003Y-133503555D01*
X101367249Y-133578432D01*
X101367245Y-133578434D01*
X101119241Y-133713855D01*
X101119233Y-133713860D01*
X100893025Y-133883196D01*
X100893007Y-133883212D01*
X100693212Y-134083007D01*
X100693196Y-134083025D01*
X100523860Y-134309233D01*
X100523855Y-134309241D01*
X100388434Y-134557245D01*
X100388432Y-134557249D01*
X100351195Y-134657087D01*
X100298876Y-134797362D01*
X100289678Y-134822022D01*
X100229613Y-135098133D01*
X100209454Y-135379998D01*
X100209454Y-135380001D01*
X95892500Y-135380001D01*
X95892500Y-124225915D01*
X95912185Y-124158876D01*
X95928819Y-124138234D01*
X100770234Y-119296819D01*
X100831557Y-119263334D01*
X100857915Y-119260500D01*
X104086806Y-119260500D01*
X104111978Y-119260500D01*
X104114841Y-119260566D01*
X104124828Y-119261027D01*
X104193362Y-119264196D01*
X104215594Y-119261094D01*
X104224167Y-119260500D01*
X107413978Y-119260500D01*
X107416841Y-119260566D01*
X107427195Y-119261044D01*
X107495362Y-119264196D01*
X107573251Y-119253330D01*
X107576008Y-119253011D01*
X107654310Y-119245756D01*
X107675895Y-119239613D01*
X107684304Y-119237839D01*
X107706536Y-119234739D01*
X107781082Y-119209752D01*
X107783787Y-119208915D01*
X107859389Y-119187405D01*
X107879485Y-119177397D01*
X107887402Y-119174117D01*
X107908702Y-119166979D01*
X107977395Y-119128716D01*
X107979857Y-119127418D01*
X108050255Y-119092366D01*
X108068172Y-119078834D01*
X108075355Y-119074154D01*
X108094975Y-119063227D01*
X108155472Y-119012989D01*
X108157704Y-119011223D01*
X108220407Y-118963872D01*
X108273371Y-118905771D01*
X108275319Y-118903732D01*
X109177732Y-118001319D01*
X109179782Y-117999362D01*
X109237872Y-117946407D01*
X109285251Y-117883665D01*
X109286999Y-117881460D01*
X109337226Y-117820975D01*
X109348155Y-117801351D01*
X109352823Y-117794186D01*
X109366366Y-117776255D01*
X109401426Y-117705842D01*
X109402705Y-117703415D01*
X109440979Y-117634702D01*
X109448115Y-117613409D01*
X109451400Y-117605482D01*
X109453447Y-117601370D01*
X109461405Y-117585389D01*
X109482916Y-117509785D01*
X109483757Y-117507068D01*
X109508739Y-117432537D01*
X109511838Y-117410307D01*
X109513615Y-117401890D01*
X109513836Y-117401111D01*
X109519756Y-117380310D01*
X109527010Y-117302019D01*
X109527335Y-117299212D01*
X109538195Y-117221362D01*
X109534566Y-117142855D01*
X109534500Y-117139992D01*
X109534500Y-113961187D01*
X110624500Y-113961187D01*
X110638215Y-114052175D01*
X110663604Y-114220615D01*
X110663605Y-114220617D01*
X110663606Y-114220623D01*
X110740938Y-114471326D01*
X110854767Y-114707696D01*
X110854768Y-114707697D01*
X110854770Y-114707700D01*
X110854772Y-114707704D01*
X110910118Y-114788881D01*
X111002567Y-114924479D01*
X111181014Y-115116801D01*
X111181018Y-115116804D01*
X111181019Y-115116805D01*
X111386143Y-115280386D01*
X111613357Y-115411568D01*
X111857584Y-115507420D01*
X112113370Y-115565802D01*
X112113376Y-115565802D01*
X112113379Y-115565803D01*
X112309500Y-115580500D01*
X112309506Y-115580500D01*
X112440500Y-115580500D01*
X112636620Y-115565803D01*
X112636622Y-115565802D01*
X112636630Y-115565802D01*
X112892416Y-115507420D01*
X113136643Y-115411568D01*
X113363857Y-115280386D01*
X113568981Y-115116805D01*
X113585015Y-115099525D01*
X113661951Y-115016607D01*
X113747433Y-114924479D01*
X113895228Y-114707704D01*
X114009063Y-114471323D01*
X114086396Y-114220615D01*
X114125500Y-113961182D01*
X114125500Y-113698818D01*
X114086396Y-113439385D01*
X114009063Y-113188677D01*
X113937235Y-113039524D01*
X113895232Y-112952303D01*
X113895231Y-112952302D01*
X113895230Y-112952301D01*
X113895228Y-112952296D01*
X113747433Y-112735521D01*
X113737441Y-112724753D01*
X113568985Y-112543198D01*
X113496471Y-112485370D01*
X113363857Y-112379614D01*
X113136643Y-112248432D01*
X112892416Y-112152580D01*
X112892411Y-112152578D01*
X112892402Y-112152576D01*
X112671036Y-112102051D01*
X112636630Y-112094198D01*
X112636629Y-112094197D01*
X112636625Y-112094197D01*
X112636620Y-112094196D01*
X112440500Y-112079500D01*
X112440494Y-112079500D01*
X112309506Y-112079500D01*
X112309500Y-112079500D01*
X112113379Y-112094196D01*
X112113374Y-112094197D01*
X111857597Y-112152576D01*
X111857578Y-112152582D01*
X111613356Y-112248432D01*
X111386143Y-112379614D01*
X111181014Y-112543198D01*
X111002567Y-112735520D01*
X110854768Y-112952302D01*
X110854767Y-112952303D01*
X110740938Y-113188673D01*
X110663606Y-113439376D01*
X110663605Y-113439381D01*
X110663604Y-113439385D01*
X110654396Y-113500474D01*
X110624500Y-113698812D01*
X110624500Y-113961187D01*
X109534500Y-113961187D01*
X109534500Y-102638493D01*
X109534500Y-89451187D01*
X110624500Y-89451187D01*
X110638246Y-89542380D01*
X110663604Y-89710615D01*
X110663605Y-89710617D01*
X110663606Y-89710623D01*
X110730296Y-89926826D01*
X110736785Y-89947864D01*
X110740938Y-89961326D01*
X110854767Y-90197696D01*
X110854768Y-90197697D01*
X110854770Y-90197700D01*
X110854772Y-90197704D01*
X110985256Y-90389088D01*
X111002567Y-90414479D01*
X111181014Y-90606801D01*
X111181018Y-90606804D01*
X111181019Y-90606805D01*
X111386143Y-90770386D01*
X111613357Y-90901568D01*
X111857584Y-90997420D01*
X112113370Y-91055802D01*
X112113376Y-91055802D01*
X112113379Y-91055803D01*
X112309500Y-91070500D01*
X112309506Y-91070500D01*
X112440500Y-91070500D01*
X112636620Y-91055803D01*
X112636622Y-91055802D01*
X112636630Y-91055802D01*
X112892416Y-90997420D01*
X113136643Y-90901568D01*
X113363857Y-90770386D01*
X113568981Y-90606805D01*
X113747433Y-90414479D01*
X113895228Y-90197704D01*
X114009063Y-89961323D01*
X114086396Y-89710615D01*
X114125500Y-89451182D01*
X114125500Y-89188818D01*
X114086396Y-88929385D01*
X114009063Y-88678677D01*
X113990919Y-88641001D01*
X113895232Y-88442303D01*
X113895231Y-88442302D01*
X113895230Y-88442301D01*
X113895228Y-88442296D01*
X113747433Y-88225521D01*
X113631407Y-88100474D01*
X113568985Y-88033198D01*
X113483482Y-87965012D01*
X113363857Y-87869614D01*
X113136643Y-87738432D01*
X112892416Y-87642580D01*
X112892411Y-87642578D01*
X112892402Y-87642576D01*
X112674818Y-87592914D01*
X112636630Y-87584198D01*
X112636629Y-87584197D01*
X112636625Y-87584197D01*
X112636620Y-87584196D01*
X112440500Y-87569500D01*
X112440494Y-87569500D01*
X112309506Y-87569500D01*
X112309500Y-87569500D01*
X112113379Y-87584196D01*
X112113374Y-87584197D01*
X111857597Y-87642576D01*
X111857578Y-87642582D01*
X111613356Y-87738432D01*
X111386143Y-87869614D01*
X111181014Y-88033198D01*
X111002567Y-88225520D01*
X110854768Y-88442302D01*
X110854767Y-88442303D01*
X110740938Y-88678673D01*
X110663606Y-88929376D01*
X110663605Y-88929381D01*
X110663604Y-88929385D01*
X110648853Y-89027247D01*
X110624500Y-89188812D01*
X110624500Y-89451187D01*
X109534500Y-89451187D01*
X109534500Y-87977910D01*
X109554184Y-87910875D01*
X109570813Y-87890238D01*
X112807732Y-84653319D01*
X112809782Y-84651362D01*
X112867872Y-84598407D01*
X112915251Y-84535665D01*
X112916999Y-84533460D01*
X112967226Y-84472975D01*
X112978155Y-84453351D01*
X112982823Y-84446186D01*
X112996366Y-84428255D01*
X113031426Y-84357842D01*
X113032705Y-84355415D01*
X113070979Y-84286702D01*
X113078115Y-84265409D01*
X113081400Y-84257482D01*
X113083447Y-84253370D01*
X113091405Y-84237389D01*
X113112916Y-84161785D01*
X113113757Y-84159068D01*
X113138739Y-84084537D01*
X113141838Y-84062307D01*
X113143615Y-84053890D01*
X113147264Y-84041067D01*
X113149756Y-84032310D01*
X113157010Y-83954019D01*
X113157335Y-83951212D01*
X113168195Y-83873362D01*
X113164566Y-83794855D01*
X113164500Y-83791992D01*
X113164500Y-62885392D01*
X113155211Y-62835700D01*
X113154421Y-62830043D01*
X113149756Y-62779690D01*
X113135920Y-62731064D01*
X113134609Y-62725494D01*
X113125321Y-62675802D01*
X113107059Y-62628664D01*
X113105241Y-62623237D01*
X113091409Y-62574622D01*
X113091402Y-62574604D01*
X113084911Y-62561569D01*
X113068866Y-62529347D01*
X113066561Y-62524125D01*
X113048298Y-62476981D01*
X113048297Y-62476980D01*
X113021678Y-62433990D01*
X113018898Y-62428996D01*
X113012857Y-62416864D01*
X112996366Y-62383745D01*
X112996364Y-62383742D01*
X112965903Y-62343405D01*
X112962665Y-62338678D01*
X112936051Y-62295696D01*
X112901996Y-62258340D01*
X112898336Y-62253933D01*
X112867873Y-62213594D01*
X112867872Y-62213593D01*
X112830511Y-62179533D01*
X112826463Y-62175485D01*
X112792407Y-62138128D01*
X112752067Y-62107664D01*
X112747663Y-62104007D01*
X112710302Y-62069948D01*
X112710301Y-62069947D01*
X112667319Y-62043333D01*
X112662594Y-62040096D01*
X112622253Y-62009632D01*
X112577009Y-61987104D01*
X112572004Y-61984317D01*
X112529019Y-61957702D01*
X112481875Y-61939438D01*
X112476645Y-61937129D01*
X112431393Y-61914597D01*
X112431389Y-61914595D01*
X112382769Y-61900761D01*
X112377337Y-61898940D01*
X112330198Y-61880679D01*
X112280506Y-61871389D01*
X112274930Y-61870077D01*
X112226307Y-61856243D01*
X112175966Y-61851578D01*
X112170294Y-61850786D01*
X112120612Y-61841500D01*
X112120610Y-61841500D01*
X112067194Y-61841500D01*
X46276022Y-61841500D01*
X46273159Y-61841434D01*
X46240344Y-61839917D01*
X46194638Y-61837804D01*
X46194636Y-61837804D01*
X46194633Y-61837804D01*
X46116801Y-61848661D01*
X46113957Y-61848991D01*
X46035691Y-61856243D01*
X46014099Y-61862386D01*
X46005690Y-61864160D01*
X45983464Y-61867260D01*
X45983463Y-61867261D01*
X45908932Y-61892241D01*
X45906197Y-61893088D01*
X45885631Y-61898940D01*
X45830611Y-61914595D01*
X45830608Y-61914596D01*
X45830601Y-61914599D01*
X45810513Y-61924601D01*
X45802575Y-61927889D01*
X45781297Y-61935021D01*
X45712637Y-61973263D01*
X45710105Y-61974598D01*
X45639743Y-62009634D01*
X45639742Y-62009634D01*
X45621839Y-62023155D01*
X45614639Y-62027847D01*
X45595031Y-62038769D01*
X45595021Y-62038775D01*
X45534553Y-62088987D01*
X45532309Y-62090765D01*
X45469593Y-62138127D01*
X45469590Y-62138130D01*
X45416637Y-62196216D01*
X45414659Y-62198287D01*
X37829764Y-69783181D01*
X37768441Y-69816666D01*
X37742083Y-69819500D01*
X37272129Y-69819500D01*
X37272123Y-69819501D01*
X37212516Y-69825908D01*
X37077671Y-69876202D01*
X37077664Y-69876206D01*
X36962455Y-69962452D01*
X36962452Y-69962455D01*
X36876206Y-70077664D01*
X36876202Y-70077671D01*
X36825908Y-70212517D01*
X36819501Y-70272116D01*
X36819500Y-70272135D01*
X36819500Y-70742084D01*
X36799815Y-70809123D01*
X36783181Y-70829765D01*
X30702276Y-76910669D01*
X30700205Y-76912647D01*
X30642125Y-76965595D01*
X30642123Y-76965597D01*
X30594770Y-77028301D01*
X30592993Y-77030545D01*
X30542773Y-77091024D01*
X30542770Y-77091029D01*
X30531847Y-77110639D01*
X30527155Y-77117839D01*
X30513634Y-77135742D01*
X30513634Y-77135743D01*
X30478598Y-77206105D01*
X30477263Y-77208637D01*
X30439021Y-77277297D01*
X30431889Y-77298575D01*
X30428601Y-77306513D01*
X30418599Y-77326601D01*
X30418595Y-77326612D01*
X30397088Y-77402197D01*
X30396241Y-77404932D01*
X30371261Y-77479463D01*
X30371260Y-77479464D01*
X30368160Y-77501690D01*
X30366386Y-77510099D01*
X30360243Y-77531691D01*
X30352991Y-77609957D01*
X30352661Y-77612801D01*
X30341804Y-77690633D01*
X30345434Y-77769158D01*
X30345500Y-77772021D01*
X30345500Y-107540977D01*
X30345434Y-107543840D01*
X30342391Y-107609677D01*
X30341804Y-107622365D01*
X28015500Y-107622365D01*
X28015500Y-61159500D01*
X28035185Y-61092461D01*
X28087989Y-61046706D01*
X28139500Y-61035500D01*
X119180500Y-61035500D01*
X119247539Y-61055185D01*
G37*
%TD.AperFunction*%
%TD*%
%TA.AperFunction,NonConductor*%
G36*
X67229720Y-88477508D02*
G01*
X67331890Y-88579678D01*
X67365375Y-88641001D01*
X67367785Y-88677600D01*
X67355318Y-88828044D01*
X67330165Y-88893228D01*
X67273762Y-88934466D01*
X67204019Y-88938664D01*
X67143077Y-88904490D01*
X67113251Y-88854352D01*
X67105136Y-88828044D01*
X67059063Y-88678677D01*
X67030318Y-88618988D01*
X67018967Y-88550050D01*
X67046689Y-88485915D01*
X67104684Y-88446949D01*
X67174539Y-88445524D01*
X67229720Y-88477508D01*
G37*
%TD.AperFunction*%
%TA.AperFunction,NonConductor*%
G36*
X67380703Y-89281258D02*
G01*
X67418477Y-89340036D01*
X67419706Y-89344531D01*
X67430937Y-89388881D01*
X67530826Y-89616606D01*
X67666833Y-89824782D01*
X67666836Y-89824785D01*
X67835256Y-90007738D01*
X68031491Y-90160474D01*
X68250190Y-90278828D01*
X68485386Y-90359571D01*
X68730665Y-90400500D01*
X68979335Y-90400500D01*
X69224614Y-90359571D01*
X69459810Y-90278828D01*
X69678509Y-90160474D01*
X69874744Y-90007738D01*
X70033771Y-89834988D01*
X70093657Y-89798999D01*
X70163495Y-89801099D01*
X70216228Y-89834988D01*
X70375256Y-90007738D01*
X70571491Y-90160474D01*
X70790190Y-90278828D01*
X71025386Y-90359571D01*
X71270665Y-90400500D01*
X71519335Y-90400500D01*
X71764614Y-90359571D01*
X71999810Y-90278828D01*
X72218509Y-90160474D01*
X72414744Y-90007738D01*
X72573771Y-89834988D01*
X72633657Y-89798999D01*
X72703495Y-89801099D01*
X72756228Y-89834988D01*
X72915256Y-90007738D01*
X73111491Y-90160474D01*
X73330190Y-90278828D01*
X73565386Y-90359571D01*
X73810665Y-90400500D01*
X74059335Y-90400500D01*
X74304614Y-90359571D01*
X74539810Y-90278828D01*
X74758509Y-90160474D01*
X74954744Y-90007738D01*
X75113771Y-89834988D01*
X75173657Y-89798999D01*
X75243495Y-89801099D01*
X75296228Y-89834988D01*
X75455256Y-90007738D01*
X75651491Y-90160474D01*
X75870190Y-90278828D01*
X76105386Y-90359571D01*
X76350665Y-90400500D01*
X76599335Y-90400500D01*
X76844614Y-90359571D01*
X77079810Y-90278828D01*
X77298509Y-90160474D01*
X77494744Y-90007738D01*
X77653771Y-89834988D01*
X77713657Y-89798999D01*
X77783495Y-89801099D01*
X77836228Y-89834988D01*
X77995256Y-90007738D01*
X78191491Y-90160474D01*
X78410190Y-90278828D01*
X78645386Y-90359571D01*
X78890665Y-90400500D01*
X79139335Y-90400500D01*
X79384614Y-90359571D01*
X79619810Y-90278828D01*
X79838509Y-90160474D01*
X80034744Y-90007738D01*
X80193771Y-89834988D01*
X80253657Y-89798999D01*
X80323495Y-89801099D01*
X80376228Y-89834988D01*
X80535256Y-90007738D01*
X80731491Y-90160474D01*
X80950190Y-90278828D01*
X81185386Y-90359571D01*
X81430665Y-90400500D01*
X81679335Y-90400500D01*
X81924614Y-90359571D01*
X82159810Y-90278828D01*
X82378509Y-90160474D01*
X82574744Y-90007738D01*
X82733771Y-89834988D01*
X82793657Y-89798999D01*
X82863495Y-89801099D01*
X82916228Y-89834988D01*
X83075256Y-90007738D01*
X83271491Y-90160474D01*
X83490190Y-90278828D01*
X83725386Y-90359571D01*
X83970665Y-90400500D01*
X84219335Y-90400500D01*
X84464614Y-90359571D01*
X84699810Y-90278828D01*
X84918509Y-90160474D01*
X85114744Y-90007738D01*
X85273771Y-89834988D01*
X85333657Y-89798999D01*
X85403495Y-89801099D01*
X85456228Y-89834988D01*
X85615256Y-90007738D01*
X85811491Y-90160474D01*
X86030190Y-90278828D01*
X86265386Y-90359571D01*
X86510665Y-90400500D01*
X86759335Y-90400500D01*
X87004614Y-90359571D01*
X87239810Y-90278828D01*
X87458509Y-90160474D01*
X87654744Y-90007738D01*
X87813771Y-89834988D01*
X87873657Y-89798999D01*
X87943495Y-89801099D01*
X87996228Y-89834988D01*
X88155256Y-90007738D01*
X88351491Y-90160474D01*
X88570190Y-90278828D01*
X88805386Y-90359571D01*
X89050665Y-90400500D01*
X89299335Y-90400500D01*
X89544614Y-90359571D01*
X89779810Y-90278828D01*
X89998509Y-90160474D01*
X90194744Y-90007738D01*
X90353771Y-89834988D01*
X90413657Y-89798999D01*
X90483495Y-89801099D01*
X90536228Y-89834988D01*
X90695256Y-90007738D01*
X90891491Y-90160474D01*
X91110190Y-90278828D01*
X91345386Y-90359571D01*
X91522055Y-90389051D01*
X91584940Y-90419501D01*
X91621380Y-90479116D01*
X91619805Y-90548968D01*
X91593975Y-90594133D01*
X91097191Y-91148273D01*
X91037784Y-91185050D01*
X91004862Y-91189500D01*
X66108359Y-91189500D01*
X66041320Y-91169815D01*
X65995565Y-91117011D01*
X65985621Y-91047853D01*
X66014646Y-90984297D01*
X66063057Y-90950072D01*
X66072900Y-90946208D01*
X66186643Y-90901568D01*
X66413857Y-90770386D01*
X66618981Y-90606805D01*
X66797433Y-90414479D01*
X66945228Y-90197704D01*
X67059063Y-89961323D01*
X67136396Y-89710615D01*
X67175500Y-89451182D01*
X67175500Y-89374971D01*
X67195185Y-89307932D01*
X67247989Y-89262177D01*
X67317147Y-89252233D01*
X67380703Y-89281258D01*
G37*
%TD.AperFunction*%
%TA.AperFunction,NonConductor*%
G36*
X98381840Y-76564641D02*
G01*
X98427733Y-76617324D01*
X98439037Y-76672193D01*
X98226336Y-85286630D01*
X98205003Y-85353163D01*
X98151086Y-85397600D01*
X98143644Y-85400500D01*
X96668565Y-85921116D01*
X96661563Y-85923134D01*
X96640694Y-85927839D01*
X96623695Y-85931673D01*
X96623693Y-85931673D01*
X96623692Y-85931674D01*
X96580928Y-85951725D01*
X96575254Y-85954050D01*
X96574468Y-85954327D01*
X96574448Y-85954336D01*
X96536451Y-85972578D01*
X96456195Y-86010208D01*
X96452827Y-86012258D01*
X96449499Y-86014326D01*
X96379784Y-86068913D01*
X96309493Y-86122915D01*
X96306769Y-86125522D01*
X96306738Y-86125553D01*
X96306708Y-86125580D01*
X96303843Y-86128374D01*
X96281506Y-86155447D01*
X96247473Y-86196694D01*
X96215876Y-86234281D01*
X96190451Y-86264526D01*
X96188263Y-86267787D01*
X96188252Y-86267805D01*
X96186105Y-86271070D01*
X96145726Y-86349941D01*
X96104636Y-86428410D01*
X96103220Y-86432017D01*
X96101798Y-86435739D01*
X96079332Y-86521392D01*
X96056057Y-86606911D01*
X96055446Y-86610757D01*
X96055436Y-86610828D01*
X96055415Y-86610955D01*
X96054861Y-86614674D01*
X96051333Y-86703162D01*
X96009496Y-87555291D01*
X95986547Y-87621284D01*
X95961807Y-87647063D01*
X95775262Y-87792256D01*
X95775258Y-87792259D01*
X95616230Y-87965010D01*
X95556342Y-88001001D01*
X95486504Y-87998900D01*
X95433770Y-87965010D01*
X95380499Y-87907143D01*
X95274744Y-87792262D01*
X95078509Y-87639526D01*
X95078507Y-87639525D01*
X95078506Y-87639524D01*
X94859811Y-87521172D01*
X94859802Y-87521169D01*
X94624616Y-87440429D01*
X94379335Y-87399500D01*
X94130665Y-87399500D01*
X93885383Y-87440429D01*
X93650197Y-87521169D01*
X93650188Y-87521172D01*
X93431493Y-87639524D01*
X93235257Y-87792261D01*
X93076230Y-87965010D01*
X93016342Y-88001001D01*
X92946504Y-87998900D01*
X92893770Y-87965010D01*
X92840499Y-87907143D01*
X92734744Y-87792262D01*
X92538509Y-87639526D01*
X92538507Y-87639525D01*
X92538506Y-87639524D01*
X92319811Y-87521172D01*
X92319802Y-87521169D01*
X92084616Y-87440429D01*
X91839335Y-87399500D01*
X91590665Y-87399500D01*
X91345383Y-87440429D01*
X91110197Y-87521169D01*
X91110188Y-87521172D01*
X90891493Y-87639524D01*
X90695257Y-87792261D01*
X90536230Y-87965010D01*
X90476342Y-88001001D01*
X90406504Y-87998900D01*
X90353770Y-87965010D01*
X90300499Y-87907143D01*
X90194744Y-87792262D01*
X89998509Y-87639526D01*
X89998507Y-87639525D01*
X89998506Y-87639524D01*
X89779811Y-87521172D01*
X89779802Y-87521169D01*
X89544616Y-87440429D01*
X89299335Y-87399500D01*
X89191177Y-87399500D01*
X89124138Y-87379815D01*
X89106481Y-87359438D01*
X89049382Y-87398353D01*
X89031655Y-87402672D01*
X88805383Y-87440429D01*
X88570197Y-87521169D01*
X88570188Y-87521172D01*
X88351493Y-87639524D01*
X88155257Y-87792261D01*
X87996230Y-87965010D01*
X87936342Y-88001001D01*
X87866504Y-87998900D01*
X87813771Y-87965010D01*
X87691288Y-87831959D01*
X87660365Y-87769305D01*
X87659744Y-87730575D01*
X87665525Y-87689789D01*
X87721550Y-87294496D01*
X87750446Y-87230887D01*
X87809148Y-87192994D01*
X87840966Y-87187946D01*
X89007896Y-87156408D01*
X89075443Y-87174274D01*
X89096231Y-87196995D01*
X89097464Y-87194297D01*
X89156242Y-87156523D01*
X89187827Y-87151545D01*
X91679909Y-87084191D01*
X91684944Y-87084260D01*
X91701465Y-87085156D01*
X91740264Y-87087263D01*
X91820169Y-87074168D01*
X91900416Y-87063240D01*
X91900424Y-87063236D01*
X91901545Y-87062958D01*
X91921787Y-87057634D01*
X91922813Y-87057349D01*
X91922818Y-87057346D01*
X91922823Y-87057346D01*
X91998082Y-87027365D01*
X92074067Y-86999455D01*
X92074077Y-86999448D01*
X92075143Y-86998920D01*
X92093733Y-86989386D01*
X92094676Y-86988885D01*
X92094684Y-86988883D01*
X92161709Y-86943443D01*
X92229948Y-86899834D01*
X92229952Y-86899829D01*
X92230775Y-86899169D01*
X92246888Y-86885855D01*
X92247801Y-86885079D01*
X92247808Y-86885075D01*
X92303464Y-86826326D01*
X92360767Y-86769031D01*
X92360771Y-86769023D01*
X92361424Y-86768213D01*
X92375150Y-86750657D01*
X92388520Y-86736545D01*
X94309144Y-84709220D01*
X94369541Y-84674090D01*
X94399163Y-84670500D01*
X95479952Y-84670500D01*
X95546991Y-84690185D01*
X95567628Y-84706814D01*
X95680861Y-84820047D01*
X95867266Y-84950568D01*
X96073504Y-85046739D01*
X96293308Y-85105635D01*
X96455230Y-85119801D01*
X96519998Y-85125468D01*
X96520000Y-85125468D01*
X96520002Y-85125468D01*
X96576673Y-85120509D01*
X96746692Y-85105635D01*
X96966496Y-85046739D01*
X97172734Y-84950568D01*
X97359139Y-84820047D01*
X97520047Y-84659139D01*
X97650568Y-84472734D01*
X97746739Y-84266496D01*
X97805635Y-84046692D01*
X97825468Y-83820000D01*
X97823143Y-83793430D01*
X97817889Y-83733372D01*
X97805635Y-83593308D01*
X97753847Y-83400030D01*
X97746741Y-83373511D01*
X97746738Y-83373502D01*
X97721676Y-83319756D01*
X97650568Y-83167266D01*
X97543361Y-83014157D01*
X97520045Y-82980858D01*
X97359141Y-82819954D01*
X97172734Y-82689432D01*
X97172732Y-82689431D01*
X96966497Y-82593261D01*
X96966488Y-82593258D01*
X96746697Y-82534366D01*
X96746693Y-82534365D01*
X96746692Y-82534365D01*
X96746691Y-82534364D01*
X96746686Y-82534364D01*
X96520002Y-82514532D01*
X96519998Y-82514532D01*
X96293313Y-82534364D01*
X96293302Y-82534366D01*
X96073511Y-82593258D01*
X96073502Y-82593261D01*
X95867267Y-82689431D01*
X95867265Y-82689432D01*
X95680862Y-82819951D01*
X95624247Y-82876565D01*
X95567631Y-82933182D01*
X95506311Y-82966666D01*
X95479952Y-82969500D01*
X94004747Y-82969500D01*
X94001386Y-82969409D01*
X93933737Y-82965737D01*
X93933731Y-82965737D01*
X93866826Y-82976701D01*
X93863505Y-82977153D01*
X93796090Y-82984486D01*
X93796089Y-82984486D01*
X93783645Y-82988679D01*
X93764111Y-82993535D01*
X93751184Y-82995653D01*
X93751178Y-82995654D01*
X93751177Y-82995655D01*
X93740051Y-83000087D01*
X93688172Y-83020752D01*
X93685026Y-83021907D01*
X93620786Y-83043552D01*
X93620776Y-83043557D01*
X93609543Y-83050316D01*
X93591509Y-83059259D01*
X93579320Y-83064114D01*
X93579316Y-83064116D01*
X93523190Y-83102166D01*
X93520364Y-83103971D01*
X93462264Y-83138929D01*
X93462260Y-83138933D01*
X93452730Y-83147959D01*
X93437058Y-83160556D01*
X93426192Y-83167923D01*
X93426188Y-83167926D01*
X93379569Y-83217136D01*
X93377198Y-83219507D01*
X93327960Y-83266148D01*
X93327958Y-83266150D01*
X93320593Y-83277013D01*
X93307982Y-83292699D01*
X91354185Y-85355039D01*
X91293789Y-85390169D01*
X91267517Y-85393714D01*
X87023910Y-85508407D01*
X87016865Y-85508197D01*
X86976439Y-85504685D01*
X86976437Y-85504686D01*
X86976436Y-85504686D01*
X86976435Y-85504686D01*
X86949583Y-85508197D01*
X86932191Y-85510471D01*
X86929197Y-85510788D01*
X86925941Y-85511054D01*
X86882477Y-85516973D01*
X86792990Y-85528675D01*
X86791653Y-85529000D01*
X86791594Y-85529011D01*
X86790903Y-85529183D01*
X86789997Y-85529402D01*
X86789908Y-85529430D01*
X86788595Y-85529756D01*
X86788584Y-85529759D01*
X86788584Y-85529760D01*
X86703948Y-85560848D01*
X86619014Y-85591534D01*
X86619011Y-85591535D01*
X86619010Y-85591536D01*
X86617718Y-85592168D01*
X86617640Y-85592200D01*
X86617068Y-85592485D01*
X86616184Y-85592917D01*
X86616119Y-85592954D01*
X86614950Y-85593534D01*
X86538861Y-85642161D01*
X86462599Y-85690330D01*
X86461490Y-85691212D01*
X86461406Y-85691271D01*
X86460702Y-85691838D01*
X86460203Y-85692234D01*
X86460151Y-85692281D01*
X86459054Y-85693162D01*
X86395138Y-85757072D01*
X86331087Y-85820437D01*
X86330222Y-85821502D01*
X86330165Y-85821564D01*
X86329618Y-85822246D01*
X86329140Y-85822834D01*
X86329101Y-85822888D01*
X86328238Y-85823960D01*
X86279622Y-85900009D01*
X86230617Y-85975776D01*
X86229990Y-85977024D01*
X86229944Y-85977104D01*
X86229568Y-85977863D01*
X86229277Y-85978440D01*
X86229245Y-85978516D01*
X86228590Y-85979836D01*
X86215917Y-86014327D01*
X86197459Y-86064560D01*
X86187038Y-86092462D01*
X86165893Y-86149073D01*
X86165547Y-86150436D01*
X86165521Y-86150517D01*
X86165339Y-86151252D01*
X86165144Y-86152018D01*
X86165129Y-86152096D01*
X86164787Y-86153468D01*
X86152596Y-86242900D01*
X85975315Y-87493717D01*
X85946418Y-87557331D01*
X85911560Y-87585370D01*
X85811500Y-87639519D01*
X85811494Y-87639523D01*
X85615257Y-87792261D01*
X85456230Y-87965010D01*
X85396342Y-88001001D01*
X85326504Y-87998900D01*
X85273770Y-87965010D01*
X85220499Y-87907143D01*
X85114744Y-87792262D01*
X84993335Y-87697765D01*
X84952523Y-87641056D01*
X84945499Y-87599918D01*
X84945499Y-86488648D01*
X84965184Y-86421610D01*
X84981813Y-86400973D01*
X86675968Y-84706819D01*
X86737292Y-84673334D01*
X86763650Y-84670500D01*
X87859952Y-84670500D01*
X87926991Y-84690185D01*
X87947628Y-84706814D01*
X88060861Y-84820047D01*
X88247266Y-84950568D01*
X88453504Y-85046739D01*
X88673308Y-85105635D01*
X88835230Y-85119801D01*
X88899998Y-85125468D01*
X88900000Y-85125468D01*
X88900002Y-85125468D01*
X88956673Y-85120509D01*
X89126692Y-85105635D01*
X89346496Y-85046739D01*
X89552734Y-84950568D01*
X89739139Y-84820047D01*
X89900047Y-84659139D01*
X90030568Y-84472734D01*
X90126739Y-84266496D01*
X90185635Y-84046692D01*
X90205468Y-83820000D01*
X90203143Y-83793430D01*
X90197889Y-83733372D01*
X90185635Y-83593308D01*
X90133847Y-83400030D01*
X90126741Y-83373511D01*
X90126738Y-83373502D01*
X90101676Y-83319756D01*
X90030568Y-83167266D01*
X89923361Y-83014157D01*
X89900045Y-82980858D01*
X89739141Y-82819954D01*
X89552734Y-82689432D01*
X89552732Y-82689431D01*
X89346497Y-82593261D01*
X89346488Y-82593258D01*
X89126697Y-82534366D01*
X89126693Y-82534365D01*
X89126692Y-82534365D01*
X89126691Y-82534364D01*
X89126686Y-82534364D01*
X88900002Y-82514532D01*
X88899998Y-82514532D01*
X88673313Y-82534364D01*
X88673302Y-82534366D01*
X88453511Y-82593258D01*
X88453502Y-82593261D01*
X88247267Y-82689431D01*
X88247265Y-82689432D01*
X88060862Y-82819951D01*
X88004247Y-82876565D01*
X87947631Y-82933182D01*
X87886311Y-82966666D01*
X87859952Y-82969500D01*
X86397087Y-82969500D01*
X86392052Y-82969295D01*
X86336835Y-82964798D01*
X86336828Y-82964799D01*
X86256607Y-82975729D01*
X86176092Y-82984485D01*
X86175131Y-82984697D01*
X86154471Y-82989538D01*
X86153541Y-82989770D01*
X86153533Y-82989772D01*
X86153532Y-82989773D01*
X86109021Y-83006125D01*
X86077499Y-83017705D01*
X86000775Y-83043557D01*
X85999796Y-83044010D01*
X85980697Y-83053162D01*
X85979884Y-83053565D01*
X85911632Y-83097192D01*
X85842256Y-83138935D01*
X85841520Y-83139494D01*
X85824828Y-83152542D01*
X85824014Y-83153197D01*
X85766750Y-83210459D01*
X85707956Y-83266153D01*
X85707322Y-83266899D01*
X85693093Y-83284116D01*
X83519830Y-85457380D01*
X83516127Y-85460794D01*
X83473898Y-85496665D01*
X83424909Y-85561108D01*
X83374155Y-85624249D01*
X83373649Y-85625041D01*
X83362469Y-85643066D01*
X83361944Y-85643938D01*
X83327939Y-85717439D01*
X83291963Y-85789980D01*
X83291582Y-85791017D01*
X83284580Y-85810906D01*
X83284267Y-85811833D01*
X83266858Y-85890926D01*
X83247314Y-85969513D01*
X83247191Y-85970416D01*
X83244607Y-85991516D01*
X83244500Y-85992501D01*
X83244500Y-86073468D01*
X83242306Y-86154438D01*
X83242389Y-86155447D01*
X83244500Y-86177649D01*
X83244500Y-87599913D01*
X83224815Y-87666952D01*
X83196663Y-87697766D01*
X83075257Y-87792260D01*
X83075252Y-87792265D01*
X82916228Y-87965010D01*
X82856341Y-88001001D01*
X82786503Y-87998900D01*
X82733770Y-87965011D01*
X82574744Y-87792262D01*
X82378509Y-87639526D01*
X82378508Y-87639525D01*
X82378505Y-87639523D01*
X82378503Y-87639522D01*
X82195483Y-87540477D01*
X82145892Y-87491257D01*
X82130500Y-87431422D01*
X82130500Y-84860048D01*
X82150185Y-84793009D01*
X82166814Y-84772371D01*
X82280047Y-84659139D01*
X82410568Y-84472734D01*
X82506739Y-84266496D01*
X82565635Y-84046692D01*
X82585468Y-83820000D01*
X82583143Y-83793430D01*
X82577889Y-83733372D01*
X82565635Y-83593308D01*
X82513847Y-83400030D01*
X82506741Y-83373511D01*
X82506738Y-83373502D01*
X82481676Y-83319756D01*
X82410568Y-83167266D01*
X82303361Y-83014157D01*
X82280045Y-82980858D01*
X82119141Y-82819954D01*
X81932734Y-82689432D01*
X81932732Y-82689431D01*
X81726497Y-82593261D01*
X81726488Y-82593258D01*
X81506697Y-82534366D01*
X81506693Y-82534365D01*
X81506692Y-82534365D01*
X81506691Y-82534364D01*
X81506686Y-82534364D01*
X81280002Y-82514532D01*
X81279998Y-82514532D01*
X81053313Y-82534364D01*
X81053302Y-82534366D01*
X80833511Y-82593258D01*
X80833502Y-82593261D01*
X80627267Y-82689431D01*
X80627265Y-82689432D01*
X80440858Y-82819954D01*
X80279954Y-82980858D01*
X80149432Y-83167265D01*
X80149431Y-83167267D01*
X80053261Y-83373502D01*
X80053258Y-83373511D01*
X79994366Y-83593302D01*
X79994364Y-83593313D01*
X79974532Y-83819998D01*
X79974532Y-83820001D01*
X79994364Y-84046686D01*
X79994366Y-84046697D01*
X80053258Y-84266488D01*
X80053261Y-84266497D01*
X80149431Y-84472732D01*
X80149432Y-84472734D01*
X80279951Y-84659137D01*
X80279952Y-84659138D01*
X80279953Y-84659139D01*
X80393182Y-84772368D01*
X80426666Y-84833689D01*
X80429500Y-84860048D01*
X80429500Y-87858758D01*
X80409815Y-87925797D01*
X80396728Y-87942743D01*
X80376227Y-87965012D01*
X80316339Y-88001001D01*
X80246501Y-87998899D01*
X80193770Y-87965011D01*
X80034744Y-87792262D01*
X79838509Y-87639526D01*
X79838507Y-87639525D01*
X79838506Y-87639524D01*
X79619811Y-87521172D01*
X79619802Y-87521169D01*
X79384616Y-87440429D01*
X79139335Y-87399500D01*
X78907497Y-87399500D01*
X78840458Y-87379815D01*
X78795348Y-87328402D01*
X78793874Y-87325278D01*
X77673684Y-84950568D01*
X77004626Y-83532221D01*
X76997295Y-83512492D01*
X76994755Y-83503344D01*
X76994754Y-83503343D01*
X76994754Y-83503341D01*
X76961419Y-83440464D01*
X76960123Y-83437876D01*
X76949542Y-83415447D01*
X76940145Y-83400087D01*
X76938252Y-83396769D01*
X76928799Y-83378939D01*
X76908100Y-83339896D01*
X76897225Y-83327094D01*
X76885966Y-83311540D01*
X76877198Y-83297210D01*
X76832571Y-83250796D01*
X76830019Y-83247973D01*
X76788337Y-83198900D01*
X76774964Y-83188734D01*
X76760620Y-83175962D01*
X76748980Y-83163855D01*
X76732024Y-83152542D01*
X76695421Y-83128120D01*
X76692320Y-83125910D01*
X76641064Y-83086946D01*
X76641062Y-83086945D01*
X76625822Y-83079894D01*
X76609066Y-83070502D01*
X76595099Y-83061183D01*
X76595092Y-83061179D01*
X76535097Y-83037791D01*
X76531590Y-83036297D01*
X76473167Y-83009268D01*
X76473165Y-83009267D01*
X76456759Y-83005656D01*
X76438380Y-83000087D01*
X76422734Y-82993988D01*
X76422733Y-82993987D01*
X76359132Y-82984046D01*
X76355387Y-82983342D01*
X76325213Y-82976701D01*
X76292499Y-82969500D01*
X76292497Y-82969500D01*
X76275697Y-82969500D01*
X76256547Y-82968012D01*
X76242011Y-82965740D01*
X76239958Y-82965419D01*
X76239956Y-82965418D01*
X76175703Y-82969382D01*
X76171885Y-82969500D01*
X72160048Y-82969500D01*
X72093009Y-82949815D01*
X72072371Y-82933185D01*
X71959139Y-82819953D01*
X71959138Y-82819952D01*
X71959137Y-82819951D01*
X71772734Y-82689432D01*
X71772732Y-82689431D01*
X71566497Y-82593261D01*
X71566488Y-82593258D01*
X71346697Y-82534366D01*
X71346693Y-82534365D01*
X71346692Y-82534365D01*
X71346691Y-82534364D01*
X71346686Y-82534364D01*
X71120002Y-82514532D01*
X71119998Y-82514532D01*
X70893313Y-82534364D01*
X70893302Y-82534366D01*
X70673511Y-82593258D01*
X70673502Y-82593261D01*
X70467267Y-82689431D01*
X70467265Y-82689432D01*
X70280858Y-82819954D01*
X70119954Y-82980858D01*
X69989432Y-83167265D01*
X69989431Y-83167267D01*
X69893261Y-83373502D01*
X69893258Y-83373511D01*
X69834366Y-83593302D01*
X69834364Y-83593313D01*
X69814532Y-83819998D01*
X69814532Y-83820001D01*
X69834364Y-84046686D01*
X69834366Y-84046697D01*
X69893258Y-84266488D01*
X69893261Y-84266497D01*
X69989431Y-84472732D01*
X69989432Y-84472734D01*
X70119954Y-84659141D01*
X70280858Y-84820045D01*
X70280861Y-84820047D01*
X70467266Y-84950568D01*
X70673504Y-85046739D01*
X70893308Y-85105635D01*
X71055230Y-85119801D01*
X71119998Y-85125468D01*
X71120000Y-85125468D01*
X71120002Y-85125468D01*
X71176673Y-85120509D01*
X71346692Y-85105635D01*
X71566496Y-85046739D01*
X71772734Y-84950568D01*
X71959139Y-84820047D01*
X72072368Y-84706817D01*
X72133689Y-84673334D01*
X72160048Y-84670500D01*
X73567503Y-84670500D01*
X75582208Y-84670500D01*
X75649247Y-84690185D01*
X75694357Y-84741598D01*
X76188896Y-85789979D01*
X76754437Y-86988881D01*
X76876897Y-87248485D01*
X76887695Y-87317515D01*
X76859458Y-87381425D01*
X76801152Y-87419923D01*
X76744339Y-87423696D01*
X76599335Y-87399500D01*
X76350665Y-87399500D01*
X76105383Y-87440429D01*
X75870197Y-87521169D01*
X75870188Y-87521172D01*
X75651493Y-87639524D01*
X75455257Y-87792261D01*
X75296230Y-87965010D01*
X75236342Y-88001001D01*
X75166504Y-87998900D01*
X75113770Y-87965010D01*
X75060499Y-87907143D01*
X74954744Y-87792262D01*
X74758509Y-87639526D01*
X74758507Y-87639525D01*
X74758506Y-87639524D01*
X74539811Y-87521172D01*
X74539802Y-87521169D01*
X74304616Y-87440429D01*
X74059335Y-87399500D01*
X73810665Y-87399500D01*
X73565383Y-87440429D01*
X73330197Y-87521169D01*
X73330188Y-87521172D01*
X73111493Y-87639524D01*
X72915257Y-87792261D01*
X72756230Y-87965010D01*
X72696342Y-88001001D01*
X72626504Y-87998900D01*
X72573770Y-87965010D01*
X72520499Y-87907143D01*
X72414744Y-87792262D01*
X72218509Y-87639526D01*
X72218507Y-87639525D01*
X72218506Y-87639524D01*
X71999811Y-87521172D01*
X71999802Y-87521169D01*
X71764616Y-87440429D01*
X71519335Y-87399500D01*
X71305829Y-87399500D01*
X71238790Y-87379815D01*
X71210754Y-87355104D01*
X71209188Y-87353234D01*
X69993711Y-85901519D01*
X67808425Y-83291506D01*
X67780481Y-83227467D01*
X67779500Y-83211902D01*
X67779500Y-81359346D01*
X67781134Y-81339283D01*
X67783260Y-81326316D01*
X67779591Y-81258643D01*
X67779500Y-81255286D01*
X67779500Y-81233893D01*
X67779500Y-81233887D01*
X67777184Y-81212592D01*
X67776914Y-81209268D01*
X67773245Y-81141593D01*
X67769727Y-81128922D01*
X67765935Y-81109158D01*
X67764514Y-81096092D01*
X67764514Y-81096090D01*
X67742865Y-81031841D01*
X67741891Y-81028668D01*
X67723754Y-80963341D01*
X67717591Y-80951716D01*
X67709640Y-80933233D01*
X67705444Y-80920779D01*
X67683694Y-80884630D01*
X67670497Y-80862695D01*
X67668844Y-80859772D01*
X67637099Y-80799895D01*
X67628589Y-80789876D01*
X67616848Y-80773529D01*
X67610070Y-80762263D01*
X67576570Y-80726899D01*
X67563440Y-80713038D01*
X67561208Y-80710549D01*
X67517338Y-80658901D01*
X67517337Y-80658900D01*
X67506867Y-80650940D01*
X67491892Y-80637506D01*
X67482849Y-80627959D01*
X67482848Y-80627958D01*
X67482847Y-80627957D01*
X67440866Y-80599494D01*
X67426731Y-80589910D01*
X67424036Y-80587974D01*
X67383544Y-80557193D01*
X67370065Y-80546946D01*
X67358127Y-80541423D01*
X67340610Y-80531518D01*
X67329734Y-80524144D01*
X67329728Y-80524141D01*
X67266773Y-80499056D01*
X67263689Y-80497730D01*
X67202169Y-80469269D01*
X67202167Y-80469268D01*
X67202164Y-80469267D01*
X67202163Y-80469267D01*
X67189321Y-80466440D01*
X67170087Y-80460534D01*
X67157877Y-80455669D01*
X67157870Y-80455667D01*
X67091005Y-80444706D01*
X67087708Y-80444073D01*
X67021501Y-80429500D01*
X67021497Y-80429500D01*
X67008347Y-80429500D01*
X66988285Y-80427866D01*
X66975318Y-80425740D01*
X66975316Y-80425739D01*
X66912593Y-80429140D01*
X66907641Y-80429409D01*
X66904288Y-80429500D01*
X54647087Y-80429500D01*
X54642052Y-80429295D01*
X54586835Y-80424798D01*
X54586828Y-80424799D01*
X54506607Y-80435729D01*
X54426092Y-80444485D01*
X54425131Y-80444697D01*
X54404471Y-80449538D01*
X54403541Y-80449770D01*
X54403533Y-80449772D01*
X54403532Y-80449773D01*
X54327499Y-80477704D01*
X54327499Y-80477705D01*
X54250775Y-80503557D01*
X54249796Y-80504010D01*
X54230697Y-80513162D01*
X54229884Y-80513565D01*
X54161632Y-80557192D01*
X54092256Y-80598935D01*
X54091520Y-80599494D01*
X54074828Y-80612542D01*
X54074014Y-80613197D01*
X54016750Y-80670459D01*
X53957956Y-80726153D01*
X53957322Y-80726899D01*
X53943093Y-80744116D01*
X45144830Y-89542380D01*
X45141127Y-89545794D01*
X45098898Y-89581665D01*
X45049909Y-89646108D01*
X44999155Y-89709249D01*
X44998649Y-89710041D01*
X44987469Y-89728066D01*
X44986944Y-89728938D01*
X44952939Y-89802439D01*
X44916963Y-89874980D01*
X44916582Y-89876017D01*
X44909580Y-89895906D01*
X44909267Y-89896833D01*
X44891858Y-89975926D01*
X44872314Y-90054513D01*
X44872191Y-90055416D01*
X44869607Y-90076516D01*
X44869500Y-90077501D01*
X44869500Y-90158468D01*
X44867306Y-90239438D01*
X44867389Y-90240447D01*
X44869500Y-90262649D01*
X44869500Y-94846348D01*
X44849815Y-94913387D01*
X44833181Y-94934029D01*
X41594030Y-98173181D01*
X41532707Y-98206666D01*
X41506349Y-98209500D01*
X39210759Y-98209500D01*
X39143720Y-98189815D01*
X39123078Y-98173182D01*
X39123078Y-98173181D01*
X39016567Y-98066671D01*
X38983084Y-98005351D01*
X38988068Y-97935659D01*
X39029939Y-97879725D01*
X39060915Y-97862810D01*
X39192331Y-97813796D01*
X39307546Y-97727546D01*
X39393796Y-97612331D01*
X39444091Y-97477483D01*
X39450500Y-97417873D01*
X39450499Y-95622128D01*
X39444091Y-95562517D01*
X39437565Y-95545021D01*
X39393797Y-95427671D01*
X39393793Y-95427664D01*
X39307547Y-95312455D01*
X39307544Y-95312452D01*
X39192335Y-95226206D01*
X39192328Y-95226202D01*
X39057482Y-95175908D01*
X39049938Y-95174126D01*
X39050474Y-95171853D01*
X38996688Y-95149571D01*
X38956843Y-95092177D01*
X38950500Y-95053024D01*
X38950500Y-94542420D01*
X38970185Y-94475381D01*
X38973065Y-94471098D01*
X51459464Y-76720824D01*
X51514135Y-76677319D01*
X51560557Y-76668169D01*
X98314750Y-76545132D01*
X98381840Y-76564641D01*
G37*
%TD.AperFunction*%
%TA.AperFunction,NonConductor*%
G36*
X66021539Y-82150185D02*
G01*
X66067294Y-82202989D01*
X66078500Y-82254500D01*
X66078500Y-83483172D01*
X66076721Y-83504101D01*
X66075090Y-83513624D01*
X66078431Y-83584562D01*
X66078500Y-83587480D01*
X66078500Y-83612113D01*
X66080415Y-83629724D01*
X66080463Y-83630163D01*
X66080757Y-83633947D01*
X66083795Y-83698413D01*
X66083796Y-83698421D01*
X66088128Y-83714465D01*
X66091687Y-83733372D01*
X66093486Y-83749910D01*
X66093487Y-83749917D01*
X66114093Y-83811071D01*
X66115194Y-83814705D01*
X66132017Y-83877006D01*
X66132018Y-83877009D01*
X66132020Y-83877014D01*
X66139017Y-83890443D01*
X66139708Y-83891768D01*
X66147245Y-83909463D01*
X66152553Y-83925213D01*
X66152556Y-83925221D01*
X66152558Y-83925225D01*
X66152559Y-83925226D01*
X66185827Y-83980520D01*
X66187684Y-83983832D01*
X66217512Y-84041070D01*
X66222224Y-84046697D01*
X66228184Y-84053816D01*
X66239357Y-84069489D01*
X66247927Y-84083733D01*
X66247931Y-84083738D01*
X66292308Y-84130586D01*
X66294830Y-84133416D01*
X67108840Y-85105635D01*
X68858954Y-87195896D01*
X68886898Y-87259935D01*
X68875785Y-87328915D01*
X68829142Y-87380936D01*
X68763879Y-87399500D01*
X68730664Y-87399500D01*
X68645036Y-87413787D01*
X68575671Y-87405404D01*
X68536948Y-87379159D01*
X66510952Y-85353163D01*
X64402607Y-83244818D01*
X64399204Y-83241126D01*
X64380841Y-83219507D01*
X64363337Y-83198900D01*
X64363334Y-83198898D01*
X64298891Y-83149909D01*
X64235759Y-83099162D01*
X64235758Y-83099161D01*
X64235754Y-83099158D01*
X64235748Y-83099155D01*
X64234854Y-83098583D01*
X64217019Y-83087520D01*
X64216064Y-83086946D01*
X64142560Y-83052939D01*
X64070027Y-83016966D01*
X64068981Y-83016582D01*
X64049160Y-83009602D01*
X64048164Y-83009266D01*
X63969073Y-82991858D01*
X63890494Y-82972315D01*
X63889584Y-82972191D01*
X63868506Y-82969610D01*
X63867501Y-82969501D01*
X63867497Y-82969500D01*
X63867492Y-82969500D01*
X63786531Y-82969500D01*
X63705564Y-82967306D01*
X63704520Y-82967391D01*
X63682352Y-82969500D01*
X56920048Y-82969500D01*
X56853009Y-82949815D01*
X56832371Y-82933185D01*
X56719139Y-82819953D01*
X56719138Y-82819952D01*
X56719137Y-82819951D01*
X56532734Y-82689432D01*
X56532732Y-82689431D01*
X56326497Y-82593261D01*
X56326488Y-82593258D01*
X56106697Y-82534366D01*
X56106693Y-82534365D01*
X56106692Y-82534365D01*
X56106691Y-82534364D01*
X56106686Y-82534364D01*
X55880002Y-82514532D01*
X55879998Y-82514532D01*
X55653313Y-82534364D01*
X55653302Y-82534366D01*
X55433511Y-82593258D01*
X55433502Y-82593261D01*
X55227267Y-82689431D01*
X55227265Y-82689432D01*
X55040858Y-82819954D01*
X54879954Y-82980858D01*
X54749432Y-83167265D01*
X54749431Y-83167267D01*
X54653261Y-83373502D01*
X54653258Y-83373511D01*
X54594366Y-83593302D01*
X54594364Y-83593313D01*
X54574532Y-83819998D01*
X54574532Y-83820001D01*
X54594364Y-84046686D01*
X54594366Y-84046697D01*
X54653258Y-84266488D01*
X54653261Y-84266497D01*
X54749431Y-84472732D01*
X54749432Y-84472734D01*
X54879954Y-84659141D01*
X55040858Y-84820045D01*
X55040861Y-84820047D01*
X55227266Y-84950568D01*
X55433504Y-85046739D01*
X55653308Y-85105635D01*
X55815230Y-85119801D01*
X55879998Y-85125468D01*
X55880000Y-85125468D01*
X55880002Y-85125468D01*
X55936673Y-85120509D01*
X56106692Y-85105635D01*
X56326496Y-85046739D01*
X56532734Y-84950568D01*
X56719139Y-84820047D01*
X56832368Y-84706817D01*
X56893689Y-84673334D01*
X56920048Y-84670500D01*
X63371349Y-84670500D01*
X63438388Y-84690185D01*
X63459030Y-84706819D01*
X65396883Y-86644672D01*
X66266803Y-87514591D01*
X66300288Y-87575914D01*
X66295304Y-87645606D01*
X66253432Y-87701539D01*
X66187968Y-87725956D01*
X66133820Y-87717700D01*
X65955635Y-87647768D01*
X65942416Y-87642580D01*
X65942411Y-87642578D01*
X65942402Y-87642576D01*
X65724818Y-87592914D01*
X65686630Y-87584198D01*
X65686629Y-87584197D01*
X65686625Y-87584197D01*
X65686620Y-87584196D01*
X65490500Y-87569500D01*
X65490494Y-87569500D01*
X65359506Y-87569500D01*
X65359500Y-87569500D01*
X65163379Y-87584196D01*
X65163374Y-87584197D01*
X64907597Y-87642576D01*
X64907578Y-87642582D01*
X64663356Y-87738432D01*
X64436143Y-87869614D01*
X64231014Y-88033198D01*
X64052567Y-88225520D01*
X63904768Y-88442302D01*
X63904767Y-88442303D01*
X63790938Y-88678673D01*
X63713606Y-88929376D01*
X63713605Y-88929381D01*
X63713604Y-88929385D01*
X63698853Y-89027247D01*
X63674500Y-89188812D01*
X63674500Y-89451187D01*
X63688246Y-89542380D01*
X63713604Y-89710615D01*
X63713605Y-89710617D01*
X63713606Y-89710623D01*
X63780296Y-89926826D01*
X63786785Y-89947864D01*
X63790938Y-89961326D01*
X63904767Y-90197696D01*
X63904768Y-90197697D01*
X63904770Y-90197700D01*
X63904772Y-90197704D01*
X64035256Y-90389088D01*
X64052567Y-90414479D01*
X64231014Y-90606801D01*
X64231018Y-90606804D01*
X64231019Y-90606805D01*
X64436143Y-90770386D01*
X64663357Y-90901568D01*
X64771533Y-90944024D01*
X64786943Y-90950072D01*
X64842157Y-90992888D01*
X64865458Y-91058758D01*
X64849447Y-91126768D01*
X64799209Y-91175327D01*
X64741641Y-91189500D01*
X48339347Y-91189500D01*
X48319285Y-91187866D01*
X48306318Y-91185740D01*
X48306316Y-91185739D01*
X48243593Y-91189140D01*
X48238641Y-91189409D01*
X48235288Y-91189500D01*
X48213882Y-91189500D01*
X48192607Y-91191813D01*
X48189263Y-91192085D01*
X48121591Y-91195755D01*
X48108922Y-91199272D01*
X48089168Y-91203062D01*
X48076100Y-91204483D01*
X48076090Y-91204485D01*
X48011867Y-91226125D01*
X48008657Y-91227111D01*
X47943341Y-91245245D01*
X47943340Y-91245246D01*
X47931712Y-91251410D01*
X47913239Y-91259356D01*
X47900784Y-91263553D01*
X47900782Y-91263554D01*
X47900778Y-91263556D01*
X47900779Y-91263556D01*
X47842699Y-91298500D01*
X47839789Y-91300145D01*
X47779894Y-91331901D01*
X47769871Y-91340414D01*
X47753543Y-91352142D01*
X47742268Y-91358927D01*
X47742263Y-91358930D01*
X47693048Y-91405549D01*
X47690549Y-91407791D01*
X47638900Y-91451661D01*
X47638898Y-91451664D01*
X47630940Y-91462132D01*
X47617507Y-91477105D01*
X47607959Y-91486149D01*
X47607958Y-91486150D01*
X47569918Y-91542255D01*
X47567960Y-91544981D01*
X47526943Y-91598939D01*
X47521419Y-91610878D01*
X47511523Y-91628381D01*
X47504144Y-91639265D01*
X47504138Y-91639275D01*
X47479053Y-91702233D01*
X47477727Y-91705315D01*
X47449266Y-91766836D01*
X47449266Y-91766837D01*
X47446438Y-91779683D01*
X47440537Y-91798903D01*
X47435668Y-91811126D01*
X47424705Y-91878000D01*
X47424072Y-91881297D01*
X47409500Y-91947500D01*
X47409500Y-91960653D01*
X47407866Y-91980715D01*
X47405740Y-91993681D01*
X47405739Y-91993683D01*
X47409409Y-92061355D01*
X47409500Y-92064712D01*
X47409500Y-100625500D01*
X47389815Y-100692539D01*
X47337011Y-100738294D01*
X47285500Y-100749500D01*
X39210759Y-100749500D01*
X39143720Y-100729815D01*
X39123078Y-100713182D01*
X39078823Y-100668927D01*
X38971401Y-100561505D01*
X38971397Y-100561502D01*
X38971396Y-100561501D01*
X38785842Y-100431575D01*
X38742217Y-100376998D01*
X38735023Y-100307500D01*
X38766546Y-100245145D01*
X38785842Y-100228425D01*
X38808026Y-100212891D01*
X38971401Y-100098495D01*
X39123078Y-99946818D01*
X39184401Y-99913334D01*
X39210759Y-99910500D01*
X41872913Y-99910500D01*
X41877948Y-99910705D01*
X41897562Y-99912301D01*
X41933167Y-99915201D01*
X42013392Y-99904270D01*
X42093910Y-99895514D01*
X42093914Y-99895512D01*
X42095036Y-99895266D01*
X42115307Y-99890515D01*
X42116462Y-99890228D01*
X42116462Y-99890227D01*
X42116468Y-99890227D01*
X42192486Y-99862299D01*
X42269221Y-99836444D01*
X42269227Y-99836439D01*
X42270351Y-99835920D01*
X42289123Y-99826923D01*
X42290112Y-99826433D01*
X42290116Y-99826432D01*
X42358353Y-99782815D01*
X42427736Y-99741070D01*
X42427741Y-99741065D01*
X42428669Y-99740360D01*
X42445076Y-99727533D01*
X42445986Y-99726802D01*
X42445986Y-99726801D01*
X42445989Y-99726800D01*
X42474618Y-99698170D01*
X42503249Y-99669540D01*
X42534281Y-99640144D01*
X42562041Y-99613849D01*
X42562045Y-99613842D01*
X42562757Y-99613005D01*
X42576904Y-99595883D01*
X46295185Y-95877601D01*
X46298852Y-95874221D01*
X46341100Y-95838337D01*
X46390104Y-95773872D01*
X46440842Y-95710753D01*
X46440842Y-95710751D01*
X46440844Y-95710750D01*
X46441432Y-95709829D01*
X46452426Y-95692105D01*
X46453050Y-95691069D01*
X46453054Y-95691064D01*
X46487055Y-95617570D01*
X46523037Y-95545021D01*
X46523037Y-95545017D01*
X46523440Y-95543923D01*
X46530329Y-95524361D01*
X46530727Y-95523177D01*
X46530732Y-95523167D01*
X46548139Y-95444083D01*
X46567684Y-95365494D01*
X46567684Y-95365492D01*
X46567833Y-95364400D01*
X46570371Y-95343677D01*
X46570500Y-95342496D01*
X46570500Y-95261530D01*
X46572693Y-95180563D01*
X46572608Y-95179520D01*
X46570500Y-95157352D01*
X46570500Y-90573650D01*
X46590185Y-90506611D01*
X46606819Y-90485969D01*
X54925969Y-82166819D01*
X54987292Y-82133334D01*
X55013650Y-82130500D01*
X65954500Y-82130500D01*
X66021539Y-82150185D01*
G37*
%TD.AperFunction*%
%TA.AperFunction,NonConductor*%
G36*
X63368039Y-92910185D02*
G01*
X63413794Y-92962989D01*
X63425000Y-93014500D01*
X63425000Y-109905500D01*
X63405315Y-109972539D01*
X63352511Y-110018294D01*
X63301000Y-110029500D01*
X45565972Y-110029500D01*
X45498933Y-110009815D01*
X45453178Y-109957011D01*
X45441972Y-109905500D01*
X45441972Y-105406493D01*
X45442038Y-105403630D01*
X45442481Y-105394026D01*
X45445668Y-105325110D01*
X45434808Y-105247261D01*
X45434479Y-105244420D01*
X45428370Y-105178493D01*
X45427228Y-105166162D01*
X45421083Y-105144569D01*
X45419312Y-105136173D01*
X45416211Y-105113936D01*
X45391208Y-105039341D01*
X45390401Y-105036734D01*
X45368877Y-104961083D01*
X45368783Y-104960895D01*
X45358873Y-104940991D01*
X45355582Y-104933048D01*
X45348451Y-104911771D01*
X45348449Y-104911767D01*
X45310199Y-104843094D01*
X45308880Y-104840592D01*
X45273841Y-104770224D01*
X45273838Y-104770217D01*
X45260317Y-104752313D01*
X45255622Y-104745109D01*
X45244699Y-104725497D01*
X45194478Y-104665019D01*
X45192699Y-104662773D01*
X45145344Y-104600065D01*
X45087243Y-104547098D01*
X45085193Y-104545141D01*
X43886318Y-103346265D01*
X43884362Y-103344216D01*
X43831405Y-103286126D01*
X43768708Y-103238779D01*
X43766464Y-103237001D01*
X43705975Y-103186773D01*
X43686364Y-103175850D01*
X43679161Y-103171156D01*
X43661258Y-103157636D01*
X43661249Y-103157630D01*
X43590903Y-103122602D01*
X43588370Y-103121267D01*
X43519703Y-103083021D01*
X43519698Y-103083019D01*
X43498420Y-103075887D01*
X43490480Y-103072599D01*
X43470391Y-103062595D01*
X43394801Y-103041088D01*
X43392065Y-103040241D01*
X43317533Y-103015260D01*
X43295303Y-103012159D01*
X43286895Y-103010385D01*
X43265310Y-103004244D01*
X43265309Y-103004244D01*
X43187035Y-102996990D01*
X43184205Y-102996662D01*
X43158373Y-102993058D01*
X43106365Y-102985804D01*
X43106362Y-102985804D01*
X43070614Y-102987456D01*
X43027841Y-102989434D01*
X43024978Y-102989500D01*
X38863392Y-102989500D01*
X38796353Y-102969815D01*
X38750598Y-102917011D01*
X38740654Y-102847853D01*
X38769679Y-102784297D01*
X38792269Y-102763925D01*
X38828643Y-102738455D01*
X38971401Y-102638495D01*
X39123078Y-102486818D01*
X39184401Y-102453334D01*
X39210759Y-102450500D01*
X48180653Y-102450500D01*
X48200714Y-102452133D01*
X48213683Y-102454260D01*
X48281358Y-102450590D01*
X48284712Y-102450500D01*
X48306107Y-102450500D01*
X48306113Y-102450500D01*
X48327403Y-102448184D01*
X48330732Y-102447914D01*
X48398407Y-102444245D01*
X48411078Y-102440726D01*
X48430840Y-102436935D01*
X48443910Y-102435514D01*
X48508139Y-102413871D01*
X48511336Y-102412890D01*
X48522545Y-102409777D01*
X48576659Y-102394754D01*
X48588283Y-102388591D01*
X48606754Y-102380644D01*
X48619221Y-102376444D01*
X48677312Y-102341491D01*
X48680203Y-102339856D01*
X48740104Y-102308100D01*
X48750122Y-102299590D01*
X48766466Y-102287850D01*
X48777736Y-102281070D01*
X48826973Y-102234428D01*
X48829421Y-102232232D01*
X48881100Y-102188337D01*
X48889060Y-102177863D01*
X48902491Y-102162894D01*
X48912041Y-102153849D01*
X48950086Y-102097735D01*
X48952032Y-102095026D01*
X48993054Y-102041064D01*
X48998577Y-102029123D01*
X49008482Y-102011608D01*
X49015858Y-102000730D01*
X49040945Y-101937764D01*
X49042267Y-101934691D01*
X49070732Y-101873167D01*
X49073560Y-101860316D01*
X49079469Y-101841076D01*
X49084331Y-101828875D01*
X49095298Y-101761970D01*
X49095919Y-101758734D01*
X49110500Y-101692497D01*
X49110500Y-101679346D01*
X49112134Y-101659283D01*
X49114260Y-101646316D01*
X49110591Y-101578643D01*
X49110500Y-101575286D01*
X49110500Y-93014500D01*
X49130185Y-92947461D01*
X49182989Y-92901706D01*
X49234500Y-92890500D01*
X63301000Y-92890500D01*
X63368039Y-92910185D01*
G37*
%TD.AperFunction*%
M02*
