%TF.GenerationSoftware,KiCad,Pcbnew,7.0.7*%
%TF.CreationDate,2023-11-04T11:15:44-05:00*%
%TF.ProjectId,proyectointroducci_n,70726f79-6563-4746-9f69-6e74726f6475,rev?*%
%TF.SameCoordinates,Original*%
%TF.FileFunction,Legend,Top*%
%TF.FilePolarity,Positive*%
%FSLAX46Y46*%
G04 Gerber Fmt 4.6, Leading zero omitted, Abs format (unit mm)*
G04 Created by KiCad (PCBNEW 7.0.7) date 2023-11-04 11:15:44*
%MOMM*%
%LPD*%
G01*
G04 APERTURE LIST*
%ADD10C,0.150000*%
%ADD11C,0.120000*%
%ADD12C,0.127000*%
%ADD13C,0.200000*%
G04 APERTURE END LIST*
D10*
X43934285Y-98709819D02*
X43934285Y-98186009D01*
X43934285Y-98186009D02*
X43886666Y-98090771D01*
X43886666Y-98090771D02*
X43791428Y-98043152D01*
X43791428Y-98043152D02*
X43600952Y-98043152D01*
X43600952Y-98043152D02*
X43505714Y-98090771D01*
X43934285Y-98662200D02*
X43839047Y-98709819D01*
X43839047Y-98709819D02*
X43600952Y-98709819D01*
X43600952Y-98709819D02*
X43505714Y-98662200D01*
X43505714Y-98662200D02*
X43458095Y-98566961D01*
X43458095Y-98566961D02*
X43458095Y-98471723D01*
X43458095Y-98471723D02*
X43505714Y-98376485D01*
X43505714Y-98376485D02*
X43600952Y-98328866D01*
X43600952Y-98328866D02*
X43839047Y-98328866D01*
X43839047Y-98328866D02*
X43934285Y-98281247D01*
X44839047Y-98043152D02*
X44839047Y-98709819D01*
X44410476Y-98043152D02*
X44410476Y-98566961D01*
X44410476Y-98566961D02*
X44458095Y-98662200D01*
X44458095Y-98662200D02*
X44553333Y-98709819D01*
X44553333Y-98709819D02*
X44696190Y-98709819D01*
X44696190Y-98709819D02*
X44791428Y-98662200D01*
X44791428Y-98662200D02*
X44839047Y-98614580D01*
X45220000Y-98709819D02*
X45743809Y-98043152D01*
X45220000Y-98043152D02*
X45743809Y-98709819D01*
X46267619Y-98709819D02*
X46172381Y-98662200D01*
X46172381Y-98662200D02*
X46124762Y-98566961D01*
X46124762Y-98566961D02*
X46124762Y-97709819D01*
X47029524Y-98662200D02*
X46934286Y-98709819D01*
X46934286Y-98709819D02*
X46743810Y-98709819D01*
X46743810Y-98709819D02*
X46648572Y-98662200D01*
X46648572Y-98662200D02*
X46600953Y-98566961D01*
X46600953Y-98566961D02*
X46600953Y-98186009D01*
X46600953Y-98186009D02*
X46648572Y-98090771D01*
X46648572Y-98090771D02*
X46743810Y-98043152D01*
X46743810Y-98043152D02*
X46934286Y-98043152D01*
X46934286Y-98043152D02*
X47029524Y-98090771D01*
X47029524Y-98090771D02*
X47077143Y-98186009D01*
X47077143Y-98186009D02*
X47077143Y-98281247D01*
X47077143Y-98281247D02*
X46600953Y-98376485D01*
X47934286Y-98709819D02*
X47934286Y-97709819D01*
X47934286Y-98662200D02*
X47839048Y-98709819D01*
X47839048Y-98709819D02*
X47648572Y-98709819D01*
X47648572Y-98709819D02*
X47553334Y-98662200D01*
X47553334Y-98662200D02*
X47505715Y-98614580D01*
X47505715Y-98614580D02*
X47458096Y-98519342D01*
X47458096Y-98519342D02*
X47458096Y-98233628D01*
X47458096Y-98233628D02*
X47505715Y-98138390D01*
X47505715Y-98138390D02*
X47553334Y-98090771D01*
X47553334Y-98090771D02*
X47648572Y-98043152D01*
X47648572Y-98043152D02*
X47839048Y-98043152D01*
X47839048Y-98043152D02*
X47934286Y-98090771D01*
X44958095Y-96022438D02*
X44862857Y-95974819D01*
X44862857Y-95974819D02*
X44720000Y-95974819D01*
X44720000Y-95974819D02*
X44577143Y-96022438D01*
X44577143Y-96022438D02*
X44481905Y-96117676D01*
X44481905Y-96117676D02*
X44434286Y-96212914D01*
X44434286Y-96212914D02*
X44386667Y-96403390D01*
X44386667Y-96403390D02*
X44386667Y-96546247D01*
X44386667Y-96546247D02*
X44434286Y-96736723D01*
X44434286Y-96736723D02*
X44481905Y-96831961D01*
X44481905Y-96831961D02*
X44577143Y-96927200D01*
X44577143Y-96927200D02*
X44720000Y-96974819D01*
X44720000Y-96974819D02*
X44815238Y-96974819D01*
X44815238Y-96974819D02*
X44958095Y-96927200D01*
X44958095Y-96927200D02*
X45005714Y-96879580D01*
X45005714Y-96879580D02*
X45005714Y-96546247D01*
X45005714Y-96546247D02*
X44815238Y-96546247D01*
X45434286Y-96974819D02*
X45434286Y-95974819D01*
X45434286Y-95974819D02*
X46005714Y-96974819D01*
X46005714Y-96974819D02*
X46005714Y-95974819D01*
X46481905Y-96974819D02*
X46481905Y-95974819D01*
X46481905Y-95974819D02*
X46720000Y-95974819D01*
X46720000Y-95974819D02*
X46862857Y-96022438D01*
X46862857Y-96022438D02*
X46958095Y-96117676D01*
X46958095Y-96117676D02*
X47005714Y-96212914D01*
X47005714Y-96212914D02*
X47053333Y-96403390D01*
X47053333Y-96403390D02*
X47053333Y-96546247D01*
X47053333Y-96546247D02*
X47005714Y-96736723D01*
X47005714Y-96736723D02*
X46958095Y-96831961D01*
X46958095Y-96831961D02*
X46862857Y-96927200D01*
X46862857Y-96927200D02*
X46720000Y-96974819D01*
X46720000Y-96974819D02*
X46481905Y-96974819D01*
X92956191Y-145187200D02*
X93099048Y-145234819D01*
X93099048Y-145234819D02*
X93337143Y-145234819D01*
X93337143Y-145234819D02*
X93432381Y-145187200D01*
X93432381Y-145187200D02*
X93480000Y-145139580D01*
X93480000Y-145139580D02*
X93527619Y-145044342D01*
X93527619Y-145044342D02*
X93527619Y-144949104D01*
X93527619Y-144949104D02*
X93480000Y-144853866D01*
X93480000Y-144853866D02*
X93432381Y-144806247D01*
X93432381Y-144806247D02*
X93337143Y-144758628D01*
X93337143Y-144758628D02*
X93146667Y-144711009D01*
X93146667Y-144711009D02*
X93051429Y-144663390D01*
X93051429Y-144663390D02*
X93003810Y-144615771D01*
X93003810Y-144615771D02*
X92956191Y-144520533D01*
X92956191Y-144520533D02*
X92956191Y-144425295D01*
X92956191Y-144425295D02*
X93003810Y-144330057D01*
X93003810Y-144330057D02*
X93051429Y-144282438D01*
X93051429Y-144282438D02*
X93146667Y-144234819D01*
X93146667Y-144234819D02*
X93384762Y-144234819D01*
X93384762Y-144234819D02*
X93527619Y-144282438D01*
X93956191Y-145234819D02*
X93956191Y-144234819D01*
X94956190Y-144282438D02*
X94860952Y-144234819D01*
X94860952Y-144234819D02*
X94718095Y-144234819D01*
X94718095Y-144234819D02*
X94575238Y-144282438D01*
X94575238Y-144282438D02*
X94480000Y-144377676D01*
X94480000Y-144377676D02*
X94432381Y-144472914D01*
X94432381Y-144472914D02*
X94384762Y-144663390D01*
X94384762Y-144663390D02*
X94384762Y-144806247D01*
X94384762Y-144806247D02*
X94432381Y-144996723D01*
X94432381Y-144996723D02*
X94480000Y-145091961D01*
X94480000Y-145091961D02*
X94575238Y-145187200D01*
X94575238Y-145187200D02*
X94718095Y-145234819D01*
X94718095Y-145234819D02*
X94813333Y-145234819D01*
X94813333Y-145234819D02*
X94956190Y-145187200D01*
X94956190Y-145187200D02*
X95003809Y-145139580D01*
X95003809Y-145139580D02*
X95003809Y-144806247D01*
X95003809Y-144806247D02*
X94813333Y-144806247D01*
X43053333Y-104309104D02*
X43529523Y-104309104D01*
X42958095Y-104594819D02*
X43291428Y-103594819D01*
X43291428Y-103594819D02*
X43624761Y-104594819D01*
X43958095Y-104594819D02*
X43958095Y-103594819D01*
X43958095Y-103594819D02*
X44196190Y-103594819D01*
X44196190Y-103594819D02*
X44339047Y-103642438D01*
X44339047Y-103642438D02*
X44434285Y-103737676D01*
X44434285Y-103737676D02*
X44481904Y-103832914D01*
X44481904Y-103832914D02*
X44529523Y-104023390D01*
X44529523Y-104023390D02*
X44529523Y-104166247D01*
X44529523Y-104166247D02*
X44481904Y-104356723D01*
X44481904Y-104356723D02*
X44434285Y-104451961D01*
X44434285Y-104451961D02*
X44339047Y-104547200D01*
X44339047Y-104547200D02*
X44196190Y-104594819D01*
X44196190Y-104594819D02*
X43958095Y-104594819D01*
X45529523Y-104499580D02*
X45481904Y-104547200D01*
X45481904Y-104547200D02*
X45339047Y-104594819D01*
X45339047Y-104594819D02*
X45243809Y-104594819D01*
X45243809Y-104594819D02*
X45100952Y-104547200D01*
X45100952Y-104547200D02*
X45005714Y-104451961D01*
X45005714Y-104451961D02*
X44958095Y-104356723D01*
X44958095Y-104356723D02*
X44910476Y-104166247D01*
X44910476Y-104166247D02*
X44910476Y-104023390D01*
X44910476Y-104023390D02*
X44958095Y-103832914D01*
X44958095Y-103832914D02*
X45005714Y-103737676D01*
X45005714Y-103737676D02*
X45100952Y-103642438D01*
X45100952Y-103642438D02*
X45243809Y-103594819D01*
X45243809Y-103594819D02*
X45339047Y-103594819D01*
X45339047Y-103594819D02*
X45481904Y-103642438D01*
X45481904Y-103642438D02*
X45529523Y-103690057D01*
X45910476Y-104309104D02*
X46386666Y-104309104D01*
X45815238Y-104594819D02*
X46148571Y-103594819D01*
X46148571Y-103594819D02*
X46481904Y-104594819D01*
X46815238Y-103594819D02*
X46815238Y-104404342D01*
X46815238Y-104404342D02*
X46862857Y-104499580D01*
X46862857Y-104499580D02*
X46910476Y-104547200D01*
X46910476Y-104547200D02*
X47005714Y-104594819D01*
X47005714Y-104594819D02*
X47196190Y-104594819D01*
X47196190Y-104594819D02*
X47291428Y-104547200D01*
X47291428Y-104547200D02*
X47339047Y-104499580D01*
X47339047Y-104499580D02*
X47386666Y-104404342D01*
X47386666Y-104404342D02*
X47386666Y-103594819D01*
X47767619Y-103594819D02*
X48434285Y-104594819D01*
X48434285Y-103594819D02*
X47767619Y-104594819D01*
X45529523Y-108674819D02*
X45053333Y-108674819D01*
X45053333Y-108674819D02*
X45005714Y-109151009D01*
X45005714Y-109151009D02*
X45053333Y-109103390D01*
X45053333Y-109103390D02*
X45148571Y-109055771D01*
X45148571Y-109055771D02*
X45386666Y-109055771D01*
X45386666Y-109055771D02*
X45481904Y-109103390D01*
X45481904Y-109103390D02*
X45529523Y-109151009D01*
X45529523Y-109151009D02*
X45577142Y-109246247D01*
X45577142Y-109246247D02*
X45577142Y-109484342D01*
X45577142Y-109484342D02*
X45529523Y-109579580D01*
X45529523Y-109579580D02*
X45481904Y-109627200D01*
X45481904Y-109627200D02*
X45386666Y-109674819D01*
X45386666Y-109674819D02*
X45148571Y-109674819D01*
X45148571Y-109674819D02*
X45053333Y-109627200D01*
X45053333Y-109627200D02*
X45005714Y-109579580D01*
X45862857Y-108674819D02*
X46196190Y-109674819D01*
X46196190Y-109674819D02*
X46529523Y-108674819D01*
X92646667Y-149314819D02*
X92980000Y-150314819D01*
X92980000Y-150314819D02*
X93313333Y-149314819D01*
X94218095Y-150219580D02*
X94170476Y-150267200D01*
X94170476Y-150267200D02*
X94027619Y-150314819D01*
X94027619Y-150314819D02*
X93932381Y-150314819D01*
X93932381Y-150314819D02*
X93789524Y-150267200D01*
X93789524Y-150267200D02*
X93694286Y-150171961D01*
X93694286Y-150171961D02*
X93646667Y-150076723D01*
X93646667Y-150076723D02*
X93599048Y-149886247D01*
X93599048Y-149886247D02*
X93599048Y-149743390D01*
X93599048Y-149743390D02*
X93646667Y-149552914D01*
X93646667Y-149552914D02*
X93694286Y-149457676D01*
X93694286Y-149457676D02*
X93789524Y-149362438D01*
X93789524Y-149362438D02*
X93932381Y-149314819D01*
X93932381Y-149314819D02*
X94027619Y-149314819D01*
X94027619Y-149314819D02*
X94170476Y-149362438D01*
X94170476Y-149362438D02*
X94218095Y-149410057D01*
X95218095Y-150219580D02*
X95170476Y-150267200D01*
X95170476Y-150267200D02*
X95027619Y-150314819D01*
X95027619Y-150314819D02*
X94932381Y-150314819D01*
X94932381Y-150314819D02*
X94789524Y-150267200D01*
X94789524Y-150267200D02*
X94694286Y-150171961D01*
X94694286Y-150171961D02*
X94646667Y-150076723D01*
X94646667Y-150076723D02*
X94599048Y-149886247D01*
X94599048Y-149886247D02*
X94599048Y-149743390D01*
X94599048Y-149743390D02*
X94646667Y-149552914D01*
X94646667Y-149552914D02*
X94694286Y-149457676D01*
X94694286Y-149457676D02*
X94789524Y-149362438D01*
X94789524Y-149362438D02*
X94932381Y-149314819D01*
X94932381Y-149314819D02*
X95027619Y-149314819D01*
X95027619Y-149314819D02*
X95170476Y-149362438D01*
X95170476Y-149362438D02*
X95218095Y-149410057D01*
X93218095Y-146822438D02*
X93122857Y-146774819D01*
X93122857Y-146774819D02*
X92980000Y-146774819D01*
X92980000Y-146774819D02*
X92837143Y-146822438D01*
X92837143Y-146822438D02*
X92741905Y-146917676D01*
X92741905Y-146917676D02*
X92694286Y-147012914D01*
X92694286Y-147012914D02*
X92646667Y-147203390D01*
X92646667Y-147203390D02*
X92646667Y-147346247D01*
X92646667Y-147346247D02*
X92694286Y-147536723D01*
X92694286Y-147536723D02*
X92741905Y-147631961D01*
X92741905Y-147631961D02*
X92837143Y-147727200D01*
X92837143Y-147727200D02*
X92980000Y-147774819D01*
X92980000Y-147774819D02*
X93075238Y-147774819D01*
X93075238Y-147774819D02*
X93218095Y-147727200D01*
X93218095Y-147727200D02*
X93265714Y-147679580D01*
X93265714Y-147679580D02*
X93265714Y-147346247D01*
X93265714Y-147346247D02*
X93075238Y-147346247D01*
X93694286Y-147774819D02*
X93694286Y-146774819D01*
X93694286Y-146774819D02*
X94265714Y-147774819D01*
X94265714Y-147774819D02*
X94265714Y-146774819D01*
X94741905Y-147774819D02*
X94741905Y-146774819D01*
X94741905Y-146774819D02*
X94980000Y-146774819D01*
X94980000Y-146774819D02*
X95122857Y-146822438D01*
X95122857Y-146822438D02*
X95218095Y-146917676D01*
X95218095Y-146917676D02*
X95265714Y-147012914D01*
X95265714Y-147012914D02*
X95313333Y-147203390D01*
X95313333Y-147203390D02*
X95313333Y-147346247D01*
X95313333Y-147346247D02*
X95265714Y-147536723D01*
X95265714Y-147536723D02*
X95218095Y-147631961D01*
X95218095Y-147631961D02*
X95122857Y-147727200D01*
X95122857Y-147727200D02*
X94980000Y-147774819D01*
X94980000Y-147774819D02*
X94741905Y-147774819D01*
X44005714Y-101769104D02*
X44481904Y-101769104D01*
X43910476Y-102054819D02*
X44243809Y-101054819D01*
X44243809Y-101054819D02*
X44577142Y-102054819D01*
X44910476Y-101054819D02*
X44910476Y-101864342D01*
X44910476Y-101864342D02*
X44958095Y-101959580D01*
X44958095Y-101959580D02*
X45005714Y-102007200D01*
X45005714Y-102007200D02*
X45100952Y-102054819D01*
X45100952Y-102054819D02*
X45291428Y-102054819D01*
X45291428Y-102054819D02*
X45386666Y-102007200D01*
X45386666Y-102007200D02*
X45434285Y-101959580D01*
X45434285Y-101959580D02*
X45481904Y-101864342D01*
X45481904Y-101864342D02*
X45481904Y-101054819D01*
X45862857Y-101054819D02*
X46529523Y-102054819D01*
X46529523Y-101054819D02*
X45862857Y-102054819D01*
X47434285Y-102054819D02*
X46862857Y-102054819D01*
X47148571Y-102054819D02*
X47148571Y-101054819D01*
X47148571Y-101054819D02*
X47053333Y-101197676D01*
X47053333Y-101197676D02*
X46958095Y-101292914D01*
X46958095Y-101292914D02*
X46862857Y-101340533D01*
X44529524Y-106134819D02*
X45148571Y-106134819D01*
X45148571Y-106134819D02*
X44815238Y-106515771D01*
X44815238Y-106515771D02*
X44958095Y-106515771D01*
X44958095Y-106515771D02*
X45053333Y-106563390D01*
X45053333Y-106563390D02*
X45100952Y-106611009D01*
X45100952Y-106611009D02*
X45148571Y-106706247D01*
X45148571Y-106706247D02*
X45148571Y-106944342D01*
X45148571Y-106944342D02*
X45100952Y-107039580D01*
X45100952Y-107039580D02*
X45053333Y-107087200D01*
X45053333Y-107087200D02*
X44958095Y-107134819D01*
X44958095Y-107134819D02*
X44672381Y-107134819D01*
X44672381Y-107134819D02*
X44577143Y-107087200D01*
X44577143Y-107087200D02*
X44529524Y-107039580D01*
X45481905Y-106468152D02*
X45720000Y-107134819D01*
X45720000Y-107134819D02*
X45958095Y-106468152D01*
X46243810Y-106134819D02*
X46862857Y-106134819D01*
X46862857Y-106134819D02*
X46529524Y-106515771D01*
X46529524Y-106515771D02*
X46672381Y-106515771D01*
X46672381Y-106515771D02*
X46767619Y-106563390D01*
X46767619Y-106563390D02*
X46815238Y-106611009D01*
X46815238Y-106611009D02*
X46862857Y-106706247D01*
X46862857Y-106706247D02*
X46862857Y-106944342D01*
X46862857Y-106944342D02*
X46815238Y-107039580D01*
X46815238Y-107039580D02*
X46767619Y-107087200D01*
X46767619Y-107087200D02*
X46672381Y-107134819D01*
X46672381Y-107134819D02*
X46386667Y-107134819D01*
X46386667Y-107134819D02*
X46291429Y-107087200D01*
X46291429Y-107087200D02*
X46243810Y-107039580D01*
X47088569Y-124697438D02*
X47088569Y-122697438D01*
X47088569Y-122697438D02*
X47850474Y-122697438D01*
X47850474Y-122697438D02*
X48040950Y-122792676D01*
X48040950Y-122792676D02*
X48136188Y-122887914D01*
X48136188Y-122887914D02*
X48231426Y-123078390D01*
X48231426Y-123078390D02*
X48231426Y-123364104D01*
X48231426Y-123364104D02*
X48136188Y-123554580D01*
X48136188Y-123554580D02*
X48040950Y-123649819D01*
X48040950Y-123649819D02*
X47850474Y-123745057D01*
X47850474Y-123745057D02*
X47088569Y-123745057D01*
X50231426Y-124506961D02*
X50136188Y-124602200D01*
X50136188Y-124602200D02*
X49850474Y-124697438D01*
X49850474Y-124697438D02*
X49659998Y-124697438D01*
X49659998Y-124697438D02*
X49374283Y-124602200D01*
X49374283Y-124602200D02*
X49183807Y-124411723D01*
X49183807Y-124411723D02*
X49088569Y-124221247D01*
X49088569Y-124221247D02*
X48993331Y-123840295D01*
X48993331Y-123840295D02*
X48993331Y-123554580D01*
X48993331Y-123554580D02*
X49088569Y-123173628D01*
X49088569Y-123173628D02*
X49183807Y-122983152D01*
X49183807Y-122983152D02*
X49374283Y-122792676D01*
X49374283Y-122792676D02*
X49659998Y-122697438D01*
X49659998Y-122697438D02*
X49850474Y-122697438D01*
X49850474Y-122697438D02*
X50136188Y-122792676D01*
X50136188Y-122792676D02*
X50231426Y-122887914D01*
X51755236Y-123649819D02*
X52040950Y-123745057D01*
X52040950Y-123745057D02*
X52136188Y-123840295D01*
X52136188Y-123840295D02*
X52231426Y-124030771D01*
X52231426Y-124030771D02*
X52231426Y-124316485D01*
X52231426Y-124316485D02*
X52136188Y-124506961D01*
X52136188Y-124506961D02*
X52040950Y-124602200D01*
X52040950Y-124602200D02*
X51850474Y-124697438D01*
X51850474Y-124697438D02*
X51088569Y-124697438D01*
X51088569Y-124697438D02*
X51088569Y-122697438D01*
X51088569Y-122697438D02*
X51755236Y-122697438D01*
X51755236Y-122697438D02*
X51945712Y-122792676D01*
X51945712Y-122792676D02*
X52040950Y-122887914D01*
X52040950Y-122887914D02*
X52136188Y-123078390D01*
X52136188Y-123078390D02*
X52136188Y-123268866D01*
X52136188Y-123268866D02*
X52040950Y-123459342D01*
X52040950Y-123459342D02*
X51945712Y-123554580D01*
X51945712Y-123554580D02*
X51755236Y-123649819D01*
X51755236Y-123649819D02*
X51088569Y-123649819D01*
X54612379Y-124697438D02*
X54612379Y-122697438D01*
X54612379Y-122697438D02*
X55088569Y-122697438D01*
X55088569Y-122697438D02*
X55374284Y-122792676D01*
X55374284Y-122792676D02*
X55564760Y-122983152D01*
X55564760Y-122983152D02*
X55659998Y-123173628D01*
X55659998Y-123173628D02*
X55755236Y-123554580D01*
X55755236Y-123554580D02*
X55755236Y-123840295D01*
X55755236Y-123840295D02*
X55659998Y-124221247D01*
X55659998Y-124221247D02*
X55564760Y-124411723D01*
X55564760Y-124411723D02*
X55374284Y-124602200D01*
X55374284Y-124602200D02*
X55088569Y-124697438D01*
X55088569Y-124697438D02*
X54612379Y-124697438D01*
X56612379Y-124697438D02*
X56612379Y-122697438D01*
X57469522Y-124602200D02*
X57755236Y-124697438D01*
X57755236Y-124697438D02*
X58231427Y-124697438D01*
X58231427Y-124697438D02*
X58421903Y-124602200D01*
X58421903Y-124602200D02*
X58517141Y-124506961D01*
X58517141Y-124506961D02*
X58612379Y-124316485D01*
X58612379Y-124316485D02*
X58612379Y-124126009D01*
X58612379Y-124126009D02*
X58517141Y-123935533D01*
X58517141Y-123935533D02*
X58421903Y-123840295D01*
X58421903Y-123840295D02*
X58231427Y-123745057D01*
X58231427Y-123745057D02*
X57850474Y-123649819D01*
X57850474Y-123649819D02*
X57659998Y-123554580D01*
X57659998Y-123554580D02*
X57564760Y-123459342D01*
X57564760Y-123459342D02*
X57469522Y-123268866D01*
X57469522Y-123268866D02*
X57469522Y-123078390D01*
X57469522Y-123078390D02*
X57564760Y-122887914D01*
X57564760Y-122887914D02*
X57659998Y-122792676D01*
X57659998Y-122792676D02*
X57850474Y-122697438D01*
X57850474Y-122697438D02*
X58326665Y-122697438D01*
X58326665Y-122697438D02*
X58612379Y-122792676D01*
X59469522Y-124697438D02*
X59469522Y-122697438D01*
X59469522Y-122697438D02*
X60231427Y-122697438D01*
X60231427Y-122697438D02*
X60421903Y-122792676D01*
X60421903Y-122792676D02*
X60517141Y-122887914D01*
X60517141Y-122887914D02*
X60612379Y-123078390D01*
X60612379Y-123078390D02*
X60612379Y-123364104D01*
X60612379Y-123364104D02*
X60517141Y-123554580D01*
X60517141Y-123554580D02*
X60421903Y-123649819D01*
X60421903Y-123649819D02*
X60231427Y-123745057D01*
X60231427Y-123745057D02*
X59469522Y-123745057D01*
X61850474Y-122697438D02*
X62231427Y-122697438D01*
X62231427Y-122697438D02*
X62421903Y-122792676D01*
X62421903Y-122792676D02*
X62612379Y-122983152D01*
X62612379Y-122983152D02*
X62707617Y-123364104D01*
X62707617Y-123364104D02*
X62707617Y-124030771D01*
X62707617Y-124030771D02*
X62612379Y-124411723D01*
X62612379Y-124411723D02*
X62421903Y-124602200D01*
X62421903Y-124602200D02*
X62231427Y-124697438D01*
X62231427Y-124697438D02*
X61850474Y-124697438D01*
X61850474Y-124697438D02*
X61659998Y-124602200D01*
X61659998Y-124602200D02*
X61469522Y-124411723D01*
X61469522Y-124411723D02*
X61374284Y-124030771D01*
X61374284Y-124030771D02*
X61374284Y-123364104D01*
X61374284Y-123364104D02*
X61469522Y-122983152D01*
X61469522Y-122983152D02*
X61659998Y-122792676D01*
X61659998Y-122792676D02*
X61850474Y-122697438D01*
X63469522Y-124602200D02*
X63755236Y-124697438D01*
X63755236Y-124697438D02*
X64231427Y-124697438D01*
X64231427Y-124697438D02*
X64421903Y-124602200D01*
X64421903Y-124602200D02*
X64517141Y-124506961D01*
X64517141Y-124506961D02*
X64612379Y-124316485D01*
X64612379Y-124316485D02*
X64612379Y-124126009D01*
X64612379Y-124126009D02*
X64517141Y-123935533D01*
X64517141Y-123935533D02*
X64421903Y-123840295D01*
X64421903Y-123840295D02*
X64231427Y-123745057D01*
X64231427Y-123745057D02*
X63850474Y-123649819D01*
X63850474Y-123649819D02*
X63659998Y-123554580D01*
X63659998Y-123554580D02*
X63564760Y-123459342D01*
X63564760Y-123459342D02*
X63469522Y-123268866D01*
X63469522Y-123268866D02*
X63469522Y-123078390D01*
X63469522Y-123078390D02*
X63564760Y-122887914D01*
X63564760Y-122887914D02*
X63659998Y-122792676D01*
X63659998Y-122792676D02*
X63850474Y-122697438D01*
X63850474Y-122697438D02*
X64326665Y-122697438D01*
X64326665Y-122697438D02*
X64612379Y-122792676D01*
X65469522Y-124697438D02*
X65469522Y-122697438D01*
X66136189Y-122697438D02*
X67279046Y-122697438D01*
X66707617Y-124697438D02*
X66707617Y-122697438D01*
X67945713Y-124697438D02*
X67945713Y-122697438D01*
X68612380Y-122697438D02*
X69279046Y-124697438D01*
X69279046Y-124697438D02*
X69945713Y-122697438D01*
X70993332Y-122697438D02*
X71374285Y-122697438D01*
X71374285Y-122697438D02*
X71564761Y-122792676D01*
X71564761Y-122792676D02*
X71755237Y-122983152D01*
X71755237Y-122983152D02*
X71850475Y-123364104D01*
X71850475Y-123364104D02*
X71850475Y-124030771D01*
X71850475Y-124030771D02*
X71755237Y-124411723D01*
X71755237Y-124411723D02*
X71564761Y-124602200D01*
X71564761Y-124602200D02*
X71374285Y-124697438D01*
X71374285Y-124697438D02*
X70993332Y-124697438D01*
X70993332Y-124697438D02*
X70802856Y-124602200D01*
X70802856Y-124602200D02*
X70612380Y-124411723D01*
X70612380Y-124411723D02*
X70517142Y-124030771D01*
X70517142Y-124030771D02*
X70517142Y-123364104D01*
X70517142Y-123364104D02*
X70612380Y-122983152D01*
X70612380Y-122983152D02*
X70802856Y-122792676D01*
X70802856Y-122792676D02*
X70993332Y-122697438D01*
X74231428Y-124697438D02*
X74231428Y-122697438D01*
X74231428Y-122697438D02*
X74707618Y-122697438D01*
X74707618Y-122697438D02*
X74993333Y-122792676D01*
X74993333Y-122792676D02*
X75183809Y-122983152D01*
X75183809Y-122983152D02*
X75279047Y-123173628D01*
X75279047Y-123173628D02*
X75374285Y-123554580D01*
X75374285Y-123554580D02*
X75374285Y-123840295D01*
X75374285Y-123840295D02*
X75279047Y-124221247D01*
X75279047Y-124221247D02*
X75183809Y-124411723D01*
X75183809Y-124411723D02*
X74993333Y-124602200D01*
X74993333Y-124602200D02*
X74707618Y-124697438D01*
X74707618Y-124697438D02*
X74231428Y-124697438D01*
X76231428Y-123649819D02*
X76898095Y-123649819D01*
X77183809Y-124697438D02*
X76231428Y-124697438D01*
X76231428Y-124697438D02*
X76231428Y-122697438D01*
X76231428Y-122697438D02*
X77183809Y-122697438D01*
X79564762Y-124697438D02*
X79564762Y-122697438D01*
X79564762Y-122697438D02*
X80040952Y-122697438D01*
X80040952Y-122697438D02*
X80326667Y-122792676D01*
X80326667Y-122792676D02*
X80517143Y-122983152D01*
X80517143Y-122983152D02*
X80612381Y-123173628D01*
X80612381Y-123173628D02*
X80707619Y-123554580D01*
X80707619Y-123554580D02*
X80707619Y-123840295D01*
X80707619Y-123840295D02*
X80612381Y-124221247D01*
X80612381Y-124221247D02*
X80517143Y-124411723D01*
X80517143Y-124411723D02*
X80326667Y-124602200D01*
X80326667Y-124602200D02*
X80040952Y-124697438D01*
X80040952Y-124697438D02*
X79564762Y-124697438D01*
X81564762Y-123649819D02*
X82231429Y-123649819D01*
X82517143Y-124697438D02*
X81564762Y-124697438D01*
X81564762Y-124697438D02*
X81564762Y-122697438D01*
X81564762Y-122697438D02*
X82517143Y-122697438D01*
X83088572Y-122697438D02*
X84231429Y-122697438D01*
X83660000Y-124697438D02*
X83660000Y-122697438D01*
X84898096Y-123649819D02*
X85564763Y-123649819D01*
X85850477Y-124697438D02*
X84898096Y-124697438D01*
X84898096Y-124697438D02*
X84898096Y-122697438D01*
X84898096Y-122697438D02*
X85850477Y-122697438D01*
X87850477Y-124506961D02*
X87755239Y-124602200D01*
X87755239Y-124602200D02*
X87469525Y-124697438D01*
X87469525Y-124697438D02*
X87279049Y-124697438D01*
X87279049Y-124697438D02*
X86993334Y-124602200D01*
X86993334Y-124602200D02*
X86802858Y-124411723D01*
X86802858Y-124411723D02*
X86707620Y-124221247D01*
X86707620Y-124221247D02*
X86612382Y-123840295D01*
X86612382Y-123840295D02*
X86612382Y-123554580D01*
X86612382Y-123554580D02*
X86707620Y-123173628D01*
X86707620Y-123173628D02*
X86802858Y-122983152D01*
X86802858Y-122983152D02*
X86993334Y-122792676D01*
X86993334Y-122792676D02*
X87279049Y-122697438D01*
X87279049Y-122697438D02*
X87469525Y-122697438D01*
X87469525Y-122697438D02*
X87755239Y-122792676D01*
X87755239Y-122792676D02*
X87850477Y-122887914D01*
X89850477Y-124506961D02*
X89755239Y-124602200D01*
X89755239Y-124602200D02*
X89469525Y-124697438D01*
X89469525Y-124697438D02*
X89279049Y-124697438D01*
X89279049Y-124697438D02*
X88993334Y-124602200D01*
X88993334Y-124602200D02*
X88802858Y-124411723D01*
X88802858Y-124411723D02*
X88707620Y-124221247D01*
X88707620Y-124221247D02*
X88612382Y-123840295D01*
X88612382Y-123840295D02*
X88612382Y-123554580D01*
X88612382Y-123554580D02*
X88707620Y-123173628D01*
X88707620Y-123173628D02*
X88802858Y-122983152D01*
X88802858Y-122983152D02*
X88993334Y-122792676D01*
X88993334Y-122792676D02*
X89279049Y-122697438D01*
X89279049Y-122697438D02*
X89469525Y-122697438D01*
X89469525Y-122697438D02*
X89755239Y-122792676D01*
X89755239Y-122792676D02*
X89850477Y-122887914D01*
X90707620Y-124697438D02*
X90707620Y-122697438D01*
X92040953Y-122697438D02*
X92421906Y-122697438D01*
X92421906Y-122697438D02*
X92612382Y-122792676D01*
X92612382Y-122792676D02*
X92802858Y-122983152D01*
X92802858Y-122983152D02*
X92898096Y-123364104D01*
X92898096Y-123364104D02*
X92898096Y-124030771D01*
X92898096Y-124030771D02*
X92802858Y-124411723D01*
X92802858Y-124411723D02*
X92612382Y-124602200D01*
X92612382Y-124602200D02*
X92421906Y-124697438D01*
X92421906Y-124697438D02*
X92040953Y-124697438D01*
X92040953Y-124697438D02*
X91850477Y-124602200D01*
X91850477Y-124602200D02*
X91660001Y-124411723D01*
X91660001Y-124411723D02*
X91564763Y-124030771D01*
X91564763Y-124030771D02*
X91564763Y-123364104D01*
X91564763Y-123364104D02*
X91660001Y-122983152D01*
X91660001Y-122983152D02*
X91850477Y-122792676D01*
X91850477Y-122792676D02*
X92040953Y-122697438D01*
X92421906Y-121935533D02*
X92136191Y-122221247D01*
X93755239Y-124697438D02*
X93755239Y-122697438D01*
X93755239Y-122697438D02*
X94898096Y-124697438D01*
X94898096Y-124697438D02*
X94898096Y-122697438D01*
X97374287Y-122697438D02*
X97374287Y-124316485D01*
X97374287Y-124316485D02*
X97469525Y-124506961D01*
X97469525Y-124506961D02*
X97564763Y-124602200D01*
X97564763Y-124602200D02*
X97755239Y-124697438D01*
X97755239Y-124697438D02*
X98136192Y-124697438D01*
X98136192Y-124697438D02*
X98326668Y-124602200D01*
X98326668Y-124602200D02*
X98421906Y-124506961D01*
X98421906Y-124506961D02*
X98517144Y-124316485D01*
X98517144Y-124316485D02*
X98517144Y-122697438D01*
X99183811Y-122697438D02*
X99850477Y-124697438D01*
X99850477Y-124697438D02*
X100517144Y-122697438D01*
X49326664Y-126584104D02*
X50088568Y-126584104D01*
X49612378Y-125917438D02*
X49612378Y-127631723D01*
X49612378Y-127631723D02*
X49707616Y-127822200D01*
X49707616Y-127822200D02*
X49898092Y-127917438D01*
X49898092Y-127917438D02*
X50088568Y-127917438D01*
X51612378Y-127917438D02*
X51612378Y-126869819D01*
X51612378Y-126869819D02*
X51517140Y-126679342D01*
X51517140Y-126679342D02*
X51326664Y-126584104D01*
X51326664Y-126584104D02*
X50945711Y-126584104D01*
X50945711Y-126584104D02*
X50755235Y-126679342D01*
X51612378Y-127822200D02*
X51421902Y-127917438D01*
X51421902Y-127917438D02*
X50945711Y-127917438D01*
X50945711Y-127917438D02*
X50755235Y-127822200D01*
X50755235Y-127822200D02*
X50659997Y-127631723D01*
X50659997Y-127631723D02*
X50659997Y-127441247D01*
X50659997Y-127441247D02*
X50755235Y-127250771D01*
X50755235Y-127250771D02*
X50945711Y-127155533D01*
X50945711Y-127155533D02*
X51421902Y-127155533D01*
X51421902Y-127155533D02*
X51612378Y-127060295D01*
X52850473Y-127917438D02*
X52659997Y-127822200D01*
X52659997Y-127822200D02*
X52564759Y-127631723D01*
X52564759Y-127631723D02*
X52564759Y-125917438D01*
X53898092Y-127917438D02*
X53707616Y-127822200D01*
X53707616Y-127822200D02*
X53612378Y-127631723D01*
X53612378Y-127631723D02*
X53612378Y-125917438D01*
X55421902Y-127822200D02*
X55231426Y-127917438D01*
X55231426Y-127917438D02*
X54850473Y-127917438D01*
X54850473Y-127917438D02*
X54659997Y-127822200D01*
X54659997Y-127822200D02*
X54564759Y-127631723D01*
X54564759Y-127631723D02*
X54564759Y-126869819D01*
X54564759Y-126869819D02*
X54659997Y-126679342D01*
X54659997Y-126679342D02*
X54850473Y-126584104D01*
X54850473Y-126584104D02*
X55231426Y-126584104D01*
X55231426Y-126584104D02*
X55421902Y-126679342D01*
X55421902Y-126679342D02*
X55517140Y-126869819D01*
X55517140Y-126869819D02*
X55517140Y-127060295D01*
X55517140Y-127060295D02*
X54564759Y-127250771D01*
X56374283Y-127917438D02*
X56374283Y-126584104D01*
X56374283Y-126965057D02*
X56469521Y-126774580D01*
X56469521Y-126774580D02*
X56564759Y-126679342D01*
X56564759Y-126679342D02*
X56755235Y-126584104D01*
X56755235Y-126584104D02*
X56945712Y-126584104D01*
X59993331Y-127917438D02*
X59993331Y-125917438D01*
X59993331Y-127822200D02*
X59802855Y-127917438D01*
X59802855Y-127917438D02*
X59421902Y-127917438D01*
X59421902Y-127917438D02*
X59231426Y-127822200D01*
X59231426Y-127822200D02*
X59136188Y-127726961D01*
X59136188Y-127726961D02*
X59040950Y-127536485D01*
X59040950Y-127536485D02*
X59040950Y-126965057D01*
X59040950Y-126965057D02*
X59136188Y-126774580D01*
X59136188Y-126774580D02*
X59231426Y-126679342D01*
X59231426Y-126679342D02*
X59421902Y-126584104D01*
X59421902Y-126584104D02*
X59802855Y-126584104D01*
X59802855Y-126584104D02*
X59993331Y-126679342D01*
X61707617Y-127822200D02*
X61517141Y-127917438D01*
X61517141Y-127917438D02*
X61136188Y-127917438D01*
X61136188Y-127917438D02*
X60945712Y-127822200D01*
X60945712Y-127822200D02*
X60850474Y-127631723D01*
X60850474Y-127631723D02*
X60850474Y-126869819D01*
X60850474Y-126869819D02*
X60945712Y-126679342D01*
X60945712Y-126679342D02*
X61136188Y-126584104D01*
X61136188Y-126584104D02*
X61517141Y-126584104D01*
X61517141Y-126584104D02*
X61707617Y-126679342D01*
X61707617Y-126679342D02*
X61802855Y-126869819D01*
X61802855Y-126869819D02*
X61802855Y-127060295D01*
X61802855Y-127060295D02*
X60850474Y-127250771D01*
X64183808Y-127917438D02*
X64183808Y-126584104D01*
X64183808Y-125917438D02*
X64088570Y-126012676D01*
X64088570Y-126012676D02*
X64183808Y-126107914D01*
X64183808Y-126107914D02*
X64279046Y-126012676D01*
X64279046Y-126012676D02*
X64183808Y-125917438D01*
X64183808Y-125917438D02*
X64183808Y-126107914D01*
X65136189Y-126584104D02*
X65136189Y-127917438D01*
X65136189Y-126774580D02*
X65231427Y-126679342D01*
X65231427Y-126679342D02*
X65421903Y-126584104D01*
X65421903Y-126584104D02*
X65707618Y-126584104D01*
X65707618Y-126584104D02*
X65898094Y-126679342D01*
X65898094Y-126679342D02*
X65993332Y-126869819D01*
X65993332Y-126869819D02*
X65993332Y-127917438D01*
X67802856Y-126584104D02*
X67802856Y-128203152D01*
X67802856Y-128203152D02*
X67707618Y-128393628D01*
X67707618Y-128393628D02*
X67612380Y-128488866D01*
X67612380Y-128488866D02*
X67421903Y-128584104D01*
X67421903Y-128584104D02*
X67136189Y-128584104D01*
X67136189Y-128584104D02*
X66945713Y-128488866D01*
X67802856Y-127822200D02*
X67612380Y-127917438D01*
X67612380Y-127917438D02*
X67231427Y-127917438D01*
X67231427Y-127917438D02*
X67040951Y-127822200D01*
X67040951Y-127822200D02*
X66945713Y-127726961D01*
X66945713Y-127726961D02*
X66850475Y-127536485D01*
X66850475Y-127536485D02*
X66850475Y-126965057D01*
X66850475Y-126965057D02*
X66945713Y-126774580D01*
X66945713Y-126774580D02*
X67040951Y-126679342D01*
X67040951Y-126679342D02*
X67231427Y-126584104D01*
X67231427Y-126584104D02*
X67612380Y-126584104D01*
X67612380Y-126584104D02*
X67802856Y-126679342D01*
X69517142Y-127822200D02*
X69326666Y-127917438D01*
X69326666Y-127917438D02*
X68945713Y-127917438D01*
X68945713Y-127917438D02*
X68755237Y-127822200D01*
X68755237Y-127822200D02*
X68659999Y-127631723D01*
X68659999Y-127631723D02*
X68659999Y-126869819D01*
X68659999Y-126869819D02*
X68755237Y-126679342D01*
X68755237Y-126679342D02*
X68945713Y-126584104D01*
X68945713Y-126584104D02*
X69326666Y-126584104D01*
X69326666Y-126584104D02*
X69517142Y-126679342D01*
X69517142Y-126679342D02*
X69612380Y-126869819D01*
X69612380Y-126869819D02*
X69612380Y-127060295D01*
X69612380Y-127060295D02*
X68659999Y-127250771D01*
X70469523Y-126584104D02*
X70469523Y-127917438D01*
X70469523Y-126774580D02*
X70564761Y-126679342D01*
X70564761Y-126679342D02*
X70755237Y-126584104D01*
X70755237Y-126584104D02*
X71040952Y-126584104D01*
X71040952Y-126584104D02*
X71231428Y-126679342D01*
X71231428Y-126679342D02*
X71326666Y-126869819D01*
X71326666Y-126869819D02*
X71326666Y-127917438D01*
X72279047Y-127917438D02*
X72279047Y-126584104D01*
X72279047Y-125917438D02*
X72183809Y-126012676D01*
X72183809Y-126012676D02*
X72279047Y-126107914D01*
X72279047Y-126107914D02*
X72374285Y-126012676D01*
X72374285Y-126012676D02*
X72279047Y-125917438D01*
X72279047Y-125917438D02*
X72279047Y-126107914D01*
X73993333Y-127822200D02*
X73802857Y-127917438D01*
X73802857Y-127917438D02*
X73421904Y-127917438D01*
X73421904Y-127917438D02*
X73231428Y-127822200D01*
X73231428Y-127822200D02*
X73136190Y-127631723D01*
X73136190Y-127631723D02*
X73136190Y-126869819D01*
X73136190Y-126869819D02*
X73231428Y-126679342D01*
X73231428Y-126679342D02*
X73421904Y-126584104D01*
X73421904Y-126584104D02*
X73802857Y-126584104D01*
X73802857Y-126584104D02*
X73993333Y-126679342D01*
X73993333Y-126679342D02*
X74088571Y-126869819D01*
X74088571Y-126869819D02*
X74088571Y-127060295D01*
X74088571Y-127060295D02*
X73136190Y-127250771D01*
X74945714Y-127917438D02*
X74945714Y-126584104D01*
X74945714Y-126965057D02*
X75040952Y-126774580D01*
X75040952Y-126774580D02*
X75136190Y-126679342D01*
X75136190Y-126679342D02*
X75326666Y-126584104D01*
X75326666Y-126584104D02*
X75517143Y-126584104D01*
X76183809Y-127917438D02*
X76183809Y-126584104D01*
X76183809Y-125917438D02*
X76088571Y-126012676D01*
X76088571Y-126012676D02*
X76183809Y-126107914D01*
X76183809Y-126107914D02*
X76279047Y-126012676D01*
X76279047Y-126012676D02*
X76183809Y-125917438D01*
X76183809Y-125917438D02*
X76183809Y-126107914D01*
X77993333Y-127917438D02*
X77993333Y-126869819D01*
X77993333Y-126869819D02*
X77898095Y-126679342D01*
X77898095Y-126679342D02*
X77707619Y-126584104D01*
X77707619Y-126584104D02*
X77326666Y-126584104D01*
X77326666Y-126584104D02*
X77136190Y-126679342D01*
X77993333Y-127822200D02*
X77802857Y-127917438D01*
X77802857Y-127917438D02*
X77326666Y-127917438D01*
X77326666Y-127917438D02*
X77136190Y-127822200D01*
X77136190Y-127822200D02*
X77040952Y-127631723D01*
X77040952Y-127631723D02*
X77040952Y-127441247D01*
X77040952Y-127441247D02*
X77136190Y-127250771D01*
X77136190Y-127250771D02*
X77326666Y-127155533D01*
X77326666Y-127155533D02*
X77802857Y-127155533D01*
X77802857Y-127155533D02*
X77993333Y-127060295D01*
X81231429Y-127822200D02*
X81040953Y-127917438D01*
X81040953Y-127917438D02*
X80660000Y-127917438D01*
X80660000Y-127917438D02*
X80469524Y-127822200D01*
X80469524Y-127822200D02*
X80374286Y-127631723D01*
X80374286Y-127631723D02*
X80374286Y-126869819D01*
X80374286Y-126869819D02*
X80469524Y-126679342D01*
X80469524Y-126679342D02*
X80660000Y-126584104D01*
X80660000Y-126584104D02*
X81040953Y-126584104D01*
X81040953Y-126584104D02*
X81231429Y-126679342D01*
X81231429Y-126679342D02*
X81326667Y-126869819D01*
X81326667Y-126869819D02*
X81326667Y-127060295D01*
X81326667Y-127060295D02*
X80374286Y-127250771D01*
X82469524Y-127917438D02*
X82279048Y-127822200D01*
X82279048Y-127822200D02*
X82183810Y-127631723D01*
X82183810Y-127631723D02*
X82183810Y-125917438D01*
X83993334Y-127822200D02*
X83802858Y-127917438D01*
X83802858Y-127917438D02*
X83421905Y-127917438D01*
X83421905Y-127917438D02*
X83231429Y-127822200D01*
X83231429Y-127822200D02*
X83136191Y-127631723D01*
X83136191Y-127631723D02*
X83136191Y-126869819D01*
X83136191Y-126869819D02*
X83231429Y-126679342D01*
X83231429Y-126679342D02*
X83421905Y-126584104D01*
X83421905Y-126584104D02*
X83802858Y-126584104D01*
X83802858Y-126584104D02*
X83993334Y-126679342D01*
X83993334Y-126679342D02*
X84088572Y-126869819D01*
X84088572Y-126869819D02*
X84088572Y-127060295D01*
X84088572Y-127060295D02*
X83136191Y-127250771D01*
X85802858Y-127822200D02*
X85612382Y-127917438D01*
X85612382Y-127917438D02*
X85231429Y-127917438D01*
X85231429Y-127917438D02*
X85040953Y-127822200D01*
X85040953Y-127822200D02*
X84945715Y-127726961D01*
X84945715Y-127726961D02*
X84850477Y-127536485D01*
X84850477Y-127536485D02*
X84850477Y-126965057D01*
X84850477Y-126965057D02*
X84945715Y-126774580D01*
X84945715Y-126774580D02*
X85040953Y-126679342D01*
X85040953Y-126679342D02*
X85231429Y-126584104D01*
X85231429Y-126584104D02*
X85612382Y-126584104D01*
X85612382Y-126584104D02*
X85802858Y-126679342D01*
X86374287Y-126584104D02*
X87136191Y-126584104D01*
X86660001Y-125917438D02*
X86660001Y-127631723D01*
X86660001Y-127631723D02*
X86755239Y-127822200D01*
X86755239Y-127822200D02*
X86945715Y-127917438D01*
X86945715Y-127917438D02*
X87136191Y-127917438D01*
X87802858Y-127917438D02*
X87802858Y-126584104D01*
X87802858Y-126965057D02*
X87898096Y-126774580D01*
X87898096Y-126774580D02*
X87993334Y-126679342D01*
X87993334Y-126679342D02*
X88183810Y-126584104D01*
X88183810Y-126584104D02*
X88374287Y-126584104D01*
X89326667Y-127917438D02*
X89136191Y-127822200D01*
X89136191Y-127822200D02*
X89040953Y-127726961D01*
X89040953Y-127726961D02*
X88945715Y-127536485D01*
X88945715Y-127536485D02*
X88945715Y-126965057D01*
X88945715Y-126965057D02*
X89040953Y-126774580D01*
X89040953Y-126774580D02*
X89136191Y-126679342D01*
X89136191Y-126679342D02*
X89326667Y-126584104D01*
X89326667Y-126584104D02*
X89612382Y-126584104D01*
X89612382Y-126584104D02*
X89802858Y-126679342D01*
X89802858Y-126679342D02*
X89898096Y-126774580D01*
X89898096Y-126774580D02*
X89993334Y-126965057D01*
X89993334Y-126965057D02*
X89993334Y-127536485D01*
X89993334Y-127536485D02*
X89898096Y-127726961D01*
X89898096Y-127726961D02*
X89802858Y-127822200D01*
X89802858Y-127822200D02*
X89612382Y-127917438D01*
X89612382Y-127917438D02*
X89326667Y-127917438D01*
X90850477Y-126584104D02*
X90850477Y-127917438D01*
X90850477Y-126774580D02*
X90945715Y-126679342D01*
X90945715Y-126679342D02*
X91136191Y-126584104D01*
X91136191Y-126584104D02*
X91421906Y-126584104D01*
X91421906Y-126584104D02*
X91612382Y-126679342D01*
X91612382Y-126679342D02*
X91707620Y-126869819D01*
X91707620Y-126869819D02*
X91707620Y-127917438D01*
X92660001Y-127917438D02*
X92660001Y-126584104D01*
X92660001Y-125917438D02*
X92564763Y-126012676D01*
X92564763Y-126012676D02*
X92660001Y-126107914D01*
X92660001Y-126107914D02*
X92755239Y-126012676D01*
X92755239Y-126012676D02*
X92660001Y-125917438D01*
X92660001Y-125917438D02*
X92660001Y-126107914D01*
X94469525Y-127822200D02*
X94279049Y-127917438D01*
X94279049Y-127917438D02*
X93898096Y-127917438D01*
X93898096Y-127917438D02*
X93707620Y-127822200D01*
X93707620Y-127822200D02*
X93612382Y-127726961D01*
X93612382Y-127726961D02*
X93517144Y-127536485D01*
X93517144Y-127536485D02*
X93517144Y-126965057D01*
X93517144Y-126965057D02*
X93612382Y-126774580D01*
X93612382Y-126774580D02*
X93707620Y-126679342D01*
X93707620Y-126679342D02*
X93898096Y-126584104D01*
X93898096Y-126584104D02*
X94279049Y-126584104D01*
X94279049Y-126584104D02*
X94469525Y-126679342D01*
X96183811Y-127917438D02*
X96183811Y-126869819D01*
X96183811Y-126869819D02*
X96088573Y-126679342D01*
X96088573Y-126679342D02*
X95898097Y-126584104D01*
X95898097Y-126584104D02*
X95517144Y-126584104D01*
X95517144Y-126584104D02*
X95326668Y-126679342D01*
X96183811Y-127822200D02*
X95993335Y-127917438D01*
X95993335Y-127917438D02*
X95517144Y-127917438D01*
X95517144Y-127917438D02*
X95326668Y-127822200D01*
X95326668Y-127822200D02*
X95231430Y-127631723D01*
X95231430Y-127631723D02*
X95231430Y-127441247D01*
X95231430Y-127441247D02*
X95326668Y-127250771D01*
X95326668Y-127250771D02*
X95517144Y-127155533D01*
X95517144Y-127155533D02*
X95993335Y-127155533D01*
X95993335Y-127155533D02*
X96183811Y-127060295D01*
X70231428Y-129327914D02*
X70326666Y-129232676D01*
X70326666Y-129232676D02*
X70517142Y-129137438D01*
X70517142Y-129137438D02*
X70993333Y-129137438D01*
X70993333Y-129137438D02*
X71183809Y-129232676D01*
X71183809Y-129232676D02*
X71279047Y-129327914D01*
X71279047Y-129327914D02*
X71374285Y-129518390D01*
X71374285Y-129518390D02*
X71374285Y-129708866D01*
X71374285Y-129708866D02*
X71279047Y-129994580D01*
X71279047Y-129994580D02*
X70136190Y-131137438D01*
X70136190Y-131137438D02*
X71374285Y-131137438D01*
X72612380Y-129137438D02*
X72802857Y-129137438D01*
X72802857Y-129137438D02*
X72993333Y-129232676D01*
X72993333Y-129232676D02*
X73088571Y-129327914D01*
X73088571Y-129327914D02*
X73183809Y-129518390D01*
X73183809Y-129518390D02*
X73279047Y-129899342D01*
X73279047Y-129899342D02*
X73279047Y-130375533D01*
X73279047Y-130375533D02*
X73183809Y-130756485D01*
X73183809Y-130756485D02*
X73088571Y-130946961D01*
X73088571Y-130946961D02*
X72993333Y-131042200D01*
X72993333Y-131042200D02*
X72802857Y-131137438D01*
X72802857Y-131137438D02*
X72612380Y-131137438D01*
X72612380Y-131137438D02*
X72421904Y-131042200D01*
X72421904Y-131042200D02*
X72326666Y-130946961D01*
X72326666Y-130946961D02*
X72231428Y-130756485D01*
X72231428Y-130756485D02*
X72136190Y-130375533D01*
X72136190Y-130375533D02*
X72136190Y-129899342D01*
X72136190Y-129899342D02*
X72231428Y-129518390D01*
X72231428Y-129518390D02*
X72326666Y-129327914D01*
X72326666Y-129327914D02*
X72421904Y-129232676D01*
X72421904Y-129232676D02*
X72612380Y-129137438D01*
X74040952Y-129327914D02*
X74136190Y-129232676D01*
X74136190Y-129232676D02*
X74326666Y-129137438D01*
X74326666Y-129137438D02*
X74802857Y-129137438D01*
X74802857Y-129137438D02*
X74993333Y-129232676D01*
X74993333Y-129232676D02*
X75088571Y-129327914D01*
X75088571Y-129327914D02*
X75183809Y-129518390D01*
X75183809Y-129518390D02*
X75183809Y-129708866D01*
X75183809Y-129708866D02*
X75088571Y-129994580D01*
X75088571Y-129994580D02*
X73945714Y-131137438D01*
X73945714Y-131137438D02*
X75183809Y-131137438D01*
X75850476Y-129137438D02*
X77088571Y-129137438D01*
X77088571Y-129137438D02*
X76421904Y-129899342D01*
X76421904Y-129899342D02*
X76707619Y-129899342D01*
X76707619Y-129899342D02*
X76898095Y-129994580D01*
X76898095Y-129994580D02*
X76993333Y-130089819D01*
X76993333Y-130089819D02*
X77088571Y-130280295D01*
X77088571Y-130280295D02*
X77088571Y-130756485D01*
X77088571Y-130756485D02*
X76993333Y-130946961D01*
X76993333Y-130946961D02*
X76898095Y-131042200D01*
X76898095Y-131042200D02*
X76707619Y-131137438D01*
X76707619Y-131137438D02*
X76136190Y-131137438D01*
X76136190Y-131137438D02*
X75945714Y-131042200D01*
X75945714Y-131042200D02*
X75850476Y-130946961D01*
X84984819Y-68048094D02*
X83984819Y-68048094D01*
X83984819Y-68048094D02*
X83984819Y-67809999D01*
X83984819Y-67809999D02*
X84032438Y-67667142D01*
X84032438Y-67667142D02*
X84127676Y-67571904D01*
X84127676Y-67571904D02*
X84222914Y-67524285D01*
X84222914Y-67524285D02*
X84413390Y-67476666D01*
X84413390Y-67476666D02*
X84556247Y-67476666D01*
X84556247Y-67476666D02*
X84746723Y-67524285D01*
X84746723Y-67524285D02*
X84841961Y-67571904D01*
X84841961Y-67571904D02*
X84937200Y-67667142D01*
X84937200Y-67667142D02*
X84984819Y-67809999D01*
X84984819Y-67809999D02*
X84984819Y-68048094D01*
X84080057Y-67095713D02*
X84032438Y-67048094D01*
X84032438Y-67048094D02*
X83984819Y-66952856D01*
X83984819Y-66952856D02*
X83984819Y-66714761D01*
X83984819Y-66714761D02*
X84032438Y-66619523D01*
X84032438Y-66619523D02*
X84080057Y-66571904D01*
X84080057Y-66571904D02*
X84175295Y-66524285D01*
X84175295Y-66524285D02*
X84270533Y-66524285D01*
X84270533Y-66524285D02*
X84413390Y-66571904D01*
X84413390Y-66571904D02*
X84984819Y-67143332D01*
X84984819Y-67143332D02*
X84984819Y-66524285D01*
X112214819Y-66778094D02*
X111214819Y-66778094D01*
X111214819Y-66778094D02*
X111214819Y-66539999D01*
X111214819Y-66539999D02*
X111262438Y-66397142D01*
X111262438Y-66397142D02*
X111357676Y-66301904D01*
X111357676Y-66301904D02*
X111452914Y-66254285D01*
X111452914Y-66254285D02*
X111643390Y-66206666D01*
X111643390Y-66206666D02*
X111786247Y-66206666D01*
X111786247Y-66206666D02*
X111976723Y-66254285D01*
X111976723Y-66254285D02*
X112071961Y-66301904D01*
X112071961Y-66301904D02*
X112167200Y-66397142D01*
X112167200Y-66397142D02*
X112214819Y-66539999D01*
X112214819Y-66539999D02*
X112214819Y-66778094D01*
X111548152Y-65349523D02*
X112214819Y-65349523D01*
X111167200Y-65587618D02*
X111881485Y-65825713D01*
X111881485Y-65825713D02*
X111881485Y-65206666D01*
X41277142Y-64574819D02*
X40800952Y-64574819D01*
X40800952Y-64574819D02*
X40800952Y-63574819D01*
X41562857Y-64527200D02*
X41705714Y-64574819D01*
X41705714Y-64574819D02*
X41943809Y-64574819D01*
X41943809Y-64574819D02*
X42039047Y-64527200D01*
X42039047Y-64527200D02*
X42086666Y-64479580D01*
X42086666Y-64479580D02*
X42134285Y-64384342D01*
X42134285Y-64384342D02*
X42134285Y-64289104D01*
X42134285Y-64289104D02*
X42086666Y-64193866D01*
X42086666Y-64193866D02*
X42039047Y-64146247D01*
X42039047Y-64146247D02*
X41943809Y-64098628D01*
X41943809Y-64098628D02*
X41753333Y-64051009D01*
X41753333Y-64051009D02*
X41658095Y-64003390D01*
X41658095Y-64003390D02*
X41610476Y-63955771D01*
X41610476Y-63955771D02*
X41562857Y-63860533D01*
X41562857Y-63860533D02*
X41562857Y-63765295D01*
X41562857Y-63765295D02*
X41610476Y-63670057D01*
X41610476Y-63670057D02*
X41658095Y-63622438D01*
X41658095Y-63622438D02*
X41753333Y-63574819D01*
X41753333Y-63574819D02*
X41991428Y-63574819D01*
X41991428Y-63574819D02*
X42134285Y-63622438D01*
X43086666Y-64574819D02*
X42515238Y-64574819D01*
X42800952Y-64574819D02*
X42800952Y-63574819D01*
X42800952Y-63574819D02*
X42705714Y-63717676D01*
X42705714Y-63717676D02*
X42610476Y-63812914D01*
X42610476Y-63812914D02*
X42515238Y-63860533D01*
X37739048Y-69393866D02*
X38500953Y-69393866D01*
X38120000Y-69774819D02*
X38120000Y-69012914D01*
X53964819Y-78906666D02*
X53488628Y-79239999D01*
X53964819Y-79478094D02*
X52964819Y-79478094D01*
X52964819Y-79478094D02*
X52964819Y-79097142D01*
X52964819Y-79097142D02*
X53012438Y-79001904D01*
X53012438Y-79001904D02*
X53060057Y-78954285D01*
X53060057Y-78954285D02*
X53155295Y-78906666D01*
X53155295Y-78906666D02*
X53298152Y-78906666D01*
X53298152Y-78906666D02*
X53393390Y-78954285D01*
X53393390Y-78954285D02*
X53441009Y-79001904D01*
X53441009Y-79001904D02*
X53488628Y-79097142D01*
X53488628Y-79097142D02*
X53488628Y-79478094D01*
X53060057Y-78525713D02*
X53012438Y-78478094D01*
X53012438Y-78478094D02*
X52964819Y-78382856D01*
X52964819Y-78382856D02*
X52964819Y-78144761D01*
X52964819Y-78144761D02*
X53012438Y-78049523D01*
X53012438Y-78049523D02*
X53060057Y-78001904D01*
X53060057Y-78001904D02*
X53155295Y-77954285D01*
X53155295Y-77954285D02*
X53250533Y-77954285D01*
X53250533Y-77954285D02*
X53393390Y-78001904D01*
X53393390Y-78001904D02*
X53964819Y-78573332D01*
X53964819Y-78573332D02*
X53964819Y-77954285D01*
X86984819Y-78906666D02*
X86508628Y-79239999D01*
X86984819Y-79478094D02*
X85984819Y-79478094D01*
X85984819Y-79478094D02*
X85984819Y-79097142D01*
X85984819Y-79097142D02*
X86032438Y-79001904D01*
X86032438Y-79001904D02*
X86080057Y-78954285D01*
X86080057Y-78954285D02*
X86175295Y-78906666D01*
X86175295Y-78906666D02*
X86318152Y-78906666D01*
X86318152Y-78906666D02*
X86413390Y-78954285D01*
X86413390Y-78954285D02*
X86461009Y-79001904D01*
X86461009Y-79001904D02*
X86508628Y-79097142D01*
X86508628Y-79097142D02*
X86508628Y-79478094D01*
X85984819Y-78001904D02*
X85984819Y-78478094D01*
X85984819Y-78478094D02*
X86461009Y-78525713D01*
X86461009Y-78525713D02*
X86413390Y-78478094D01*
X86413390Y-78478094D02*
X86365771Y-78382856D01*
X86365771Y-78382856D02*
X86365771Y-78144761D01*
X86365771Y-78144761D02*
X86413390Y-78049523D01*
X86413390Y-78049523D02*
X86461009Y-78001904D01*
X86461009Y-78001904D02*
X86556247Y-77954285D01*
X86556247Y-77954285D02*
X86794342Y-77954285D01*
X86794342Y-77954285D02*
X86889580Y-78001904D01*
X86889580Y-78001904D02*
X86937200Y-78049523D01*
X86937200Y-78049523D02*
X86984819Y-78144761D01*
X86984819Y-78144761D02*
X86984819Y-78382856D01*
X86984819Y-78382856D02*
X86937200Y-78478094D01*
X86937200Y-78478094D02*
X86889580Y-78525713D01*
X75034819Y-68048094D02*
X74034819Y-68048094D01*
X74034819Y-68048094D02*
X74034819Y-67809999D01*
X74034819Y-67809999D02*
X74082438Y-67667142D01*
X74082438Y-67667142D02*
X74177676Y-67571904D01*
X74177676Y-67571904D02*
X74272914Y-67524285D01*
X74272914Y-67524285D02*
X74463390Y-67476666D01*
X74463390Y-67476666D02*
X74606247Y-67476666D01*
X74606247Y-67476666D02*
X74796723Y-67524285D01*
X74796723Y-67524285D02*
X74891961Y-67571904D01*
X74891961Y-67571904D02*
X74987200Y-67667142D01*
X74987200Y-67667142D02*
X75034819Y-67809999D01*
X75034819Y-67809999D02*
X75034819Y-68048094D01*
X75034819Y-66524285D02*
X75034819Y-67095713D01*
X75034819Y-66809999D02*
X74034819Y-66809999D01*
X74034819Y-66809999D02*
X74177676Y-66905237D01*
X74177676Y-66905237D02*
X74272914Y-67000475D01*
X74272914Y-67000475D02*
X74320533Y-67095713D01*
X94604819Y-78906666D02*
X94128628Y-79239999D01*
X94604819Y-79478094D02*
X93604819Y-79478094D01*
X93604819Y-79478094D02*
X93604819Y-79097142D01*
X93604819Y-79097142D02*
X93652438Y-79001904D01*
X93652438Y-79001904D02*
X93700057Y-78954285D01*
X93700057Y-78954285D02*
X93795295Y-78906666D01*
X93795295Y-78906666D02*
X93938152Y-78906666D01*
X93938152Y-78906666D02*
X94033390Y-78954285D01*
X94033390Y-78954285D02*
X94081009Y-79001904D01*
X94081009Y-79001904D02*
X94128628Y-79097142D01*
X94128628Y-79097142D02*
X94128628Y-79478094D01*
X93604819Y-78573332D02*
X93604819Y-77906666D01*
X93604819Y-77906666D02*
X94604819Y-78335237D01*
X92814819Y-68048094D02*
X91814819Y-68048094D01*
X91814819Y-68048094D02*
X91814819Y-67809999D01*
X91814819Y-67809999D02*
X91862438Y-67667142D01*
X91862438Y-67667142D02*
X91957676Y-67571904D01*
X91957676Y-67571904D02*
X92052914Y-67524285D01*
X92052914Y-67524285D02*
X92243390Y-67476666D01*
X92243390Y-67476666D02*
X92386247Y-67476666D01*
X92386247Y-67476666D02*
X92576723Y-67524285D01*
X92576723Y-67524285D02*
X92671961Y-67571904D01*
X92671961Y-67571904D02*
X92767200Y-67667142D01*
X92767200Y-67667142D02*
X92814819Y-67809999D01*
X92814819Y-67809999D02*
X92814819Y-68048094D01*
X91814819Y-67143332D02*
X91814819Y-66524285D01*
X91814819Y-66524285D02*
X92195771Y-66857618D01*
X92195771Y-66857618D02*
X92195771Y-66714761D01*
X92195771Y-66714761D02*
X92243390Y-66619523D01*
X92243390Y-66619523D02*
X92291009Y-66571904D01*
X92291009Y-66571904D02*
X92386247Y-66524285D01*
X92386247Y-66524285D02*
X92624342Y-66524285D01*
X92624342Y-66524285D02*
X92719580Y-66571904D01*
X92719580Y-66571904D02*
X92767200Y-66619523D01*
X92767200Y-66619523D02*
X92814819Y-66714761D01*
X92814819Y-66714761D02*
X92814819Y-67000475D01*
X92814819Y-67000475D02*
X92767200Y-67095713D01*
X92767200Y-67095713D02*
X92719580Y-67143332D01*
X69204819Y-78906666D02*
X68728628Y-79239999D01*
X69204819Y-79478094D02*
X68204819Y-79478094D01*
X68204819Y-79478094D02*
X68204819Y-79097142D01*
X68204819Y-79097142D02*
X68252438Y-79001904D01*
X68252438Y-79001904D02*
X68300057Y-78954285D01*
X68300057Y-78954285D02*
X68395295Y-78906666D01*
X68395295Y-78906666D02*
X68538152Y-78906666D01*
X68538152Y-78906666D02*
X68633390Y-78954285D01*
X68633390Y-78954285D02*
X68681009Y-79001904D01*
X68681009Y-79001904D02*
X68728628Y-79097142D01*
X68728628Y-79097142D02*
X68728628Y-79478094D01*
X68204819Y-78573332D02*
X68204819Y-77954285D01*
X68204819Y-77954285D02*
X68585771Y-78287618D01*
X68585771Y-78287618D02*
X68585771Y-78144761D01*
X68585771Y-78144761D02*
X68633390Y-78049523D01*
X68633390Y-78049523D02*
X68681009Y-78001904D01*
X68681009Y-78001904D02*
X68776247Y-77954285D01*
X68776247Y-77954285D02*
X69014342Y-77954285D01*
X69014342Y-77954285D02*
X69109580Y-78001904D01*
X69109580Y-78001904D02*
X69157200Y-78049523D01*
X69157200Y-78049523D02*
X69204819Y-78144761D01*
X69204819Y-78144761D02*
X69204819Y-78430475D01*
X69204819Y-78430475D02*
X69157200Y-78525713D01*
X69157200Y-78525713D02*
X69109580Y-78573332D01*
X79364819Y-78906666D02*
X78888628Y-79239999D01*
X79364819Y-79478094D02*
X78364819Y-79478094D01*
X78364819Y-79478094D02*
X78364819Y-79097142D01*
X78364819Y-79097142D02*
X78412438Y-79001904D01*
X78412438Y-79001904D02*
X78460057Y-78954285D01*
X78460057Y-78954285D02*
X78555295Y-78906666D01*
X78555295Y-78906666D02*
X78698152Y-78906666D01*
X78698152Y-78906666D02*
X78793390Y-78954285D01*
X78793390Y-78954285D02*
X78841009Y-79001904D01*
X78841009Y-79001904D02*
X78888628Y-79097142D01*
X78888628Y-79097142D02*
X78888628Y-79478094D01*
X78698152Y-78049523D02*
X79364819Y-78049523D01*
X78317200Y-78287618D02*
X79031485Y-78525713D01*
X79031485Y-78525713D02*
X79031485Y-77906666D01*
X100434819Y-68048094D02*
X99434819Y-68048094D01*
X99434819Y-68048094D02*
X99434819Y-67809999D01*
X99434819Y-67809999D02*
X99482438Y-67667142D01*
X99482438Y-67667142D02*
X99577676Y-67571904D01*
X99577676Y-67571904D02*
X99672914Y-67524285D01*
X99672914Y-67524285D02*
X99863390Y-67476666D01*
X99863390Y-67476666D02*
X100006247Y-67476666D01*
X100006247Y-67476666D02*
X100196723Y-67524285D01*
X100196723Y-67524285D02*
X100291961Y-67571904D01*
X100291961Y-67571904D02*
X100387200Y-67667142D01*
X100387200Y-67667142D02*
X100434819Y-67809999D01*
X100434819Y-67809999D02*
X100434819Y-68048094D01*
X99434819Y-66571904D02*
X99434819Y-67048094D01*
X99434819Y-67048094D02*
X99911009Y-67095713D01*
X99911009Y-67095713D02*
X99863390Y-67048094D01*
X99863390Y-67048094D02*
X99815771Y-66952856D01*
X99815771Y-66952856D02*
X99815771Y-66714761D01*
X99815771Y-66714761D02*
X99863390Y-66619523D01*
X99863390Y-66619523D02*
X99911009Y-66571904D01*
X99911009Y-66571904D02*
X100006247Y-66524285D01*
X100006247Y-66524285D02*
X100244342Y-66524285D01*
X100244342Y-66524285D02*
X100339580Y-66571904D01*
X100339580Y-66571904D02*
X100387200Y-66619523D01*
X100387200Y-66619523D02*
X100434819Y-66714761D01*
X100434819Y-66714761D02*
X100434819Y-66952856D01*
X100434819Y-66952856D02*
X100387200Y-67048094D01*
X100387200Y-67048094D02*
X100339580Y-67095713D01*
X54514761Y-70150057D02*
X54419523Y-70102438D01*
X54419523Y-70102438D02*
X54324285Y-70007200D01*
X54324285Y-70007200D02*
X54181428Y-69864342D01*
X54181428Y-69864342D02*
X54086190Y-69816723D01*
X54086190Y-69816723D02*
X53990952Y-69816723D01*
X54038571Y-70054819D02*
X53943333Y-70007200D01*
X53943333Y-70007200D02*
X53848095Y-69911961D01*
X53848095Y-69911961D02*
X53800476Y-69721485D01*
X53800476Y-69721485D02*
X53800476Y-69388152D01*
X53800476Y-69388152D02*
X53848095Y-69197676D01*
X53848095Y-69197676D02*
X53943333Y-69102438D01*
X53943333Y-69102438D02*
X54038571Y-69054819D01*
X54038571Y-69054819D02*
X54229047Y-69054819D01*
X54229047Y-69054819D02*
X54324285Y-69102438D01*
X54324285Y-69102438D02*
X54419523Y-69197676D01*
X54419523Y-69197676D02*
X54467142Y-69388152D01*
X54467142Y-69388152D02*
X54467142Y-69721485D01*
X54467142Y-69721485D02*
X54419523Y-69911961D01*
X54419523Y-69911961D02*
X54324285Y-70007200D01*
X54324285Y-70007200D02*
X54229047Y-70054819D01*
X54229047Y-70054819D02*
X54038571Y-70054819D01*
X55419523Y-70054819D02*
X54848095Y-70054819D01*
X55133809Y-70054819D02*
X55133809Y-69054819D01*
X55133809Y-69054819D02*
X55038571Y-69197676D01*
X55038571Y-69197676D02*
X54943333Y-69292914D01*
X54943333Y-69292914D02*
X54848095Y-69340533D01*
X37856666Y-146487319D02*
X37856666Y-147201604D01*
X37856666Y-147201604D02*
X37809047Y-147344461D01*
X37809047Y-147344461D02*
X37713809Y-147439700D01*
X37713809Y-147439700D02*
X37570952Y-147487319D01*
X37570952Y-147487319D02*
X37475714Y-147487319D01*
X38856666Y-147487319D02*
X38285238Y-147487319D01*
X38570952Y-147487319D02*
X38570952Y-146487319D01*
X38570952Y-146487319D02*
X38475714Y-146630176D01*
X38475714Y-146630176D02*
X38380476Y-146725414D01*
X38380476Y-146725414D02*
X38285238Y-146773033D01*
X88354819Y-102361904D02*
X89164342Y-102361904D01*
X89164342Y-102361904D02*
X89259580Y-102314285D01*
X89259580Y-102314285D02*
X89307200Y-102266666D01*
X89307200Y-102266666D02*
X89354819Y-102171428D01*
X89354819Y-102171428D02*
X89354819Y-101980952D01*
X89354819Y-101980952D02*
X89307200Y-101885714D01*
X89307200Y-101885714D02*
X89259580Y-101838095D01*
X89259580Y-101838095D02*
X89164342Y-101790476D01*
X89164342Y-101790476D02*
X88354819Y-101790476D01*
X88354819Y-101409523D02*
X88354819Y-100790476D01*
X88354819Y-100790476D02*
X88735771Y-101123809D01*
X88735771Y-101123809D02*
X88735771Y-100980952D01*
X88735771Y-100980952D02*
X88783390Y-100885714D01*
X88783390Y-100885714D02*
X88831009Y-100838095D01*
X88831009Y-100838095D02*
X88926247Y-100790476D01*
X88926247Y-100790476D02*
X89164342Y-100790476D01*
X89164342Y-100790476D02*
X89259580Y-100838095D01*
X89259580Y-100838095D02*
X89307200Y-100885714D01*
X89307200Y-100885714D02*
X89354819Y-100980952D01*
X89354819Y-100980952D02*
X89354819Y-101266666D01*
X89354819Y-101266666D02*
X89307200Y-101361904D01*
X89307200Y-101361904D02*
X89259580Y-101409523D01*
X37554819Y-94313333D02*
X38269104Y-94313333D01*
X38269104Y-94313333D02*
X38411961Y-94360952D01*
X38411961Y-94360952D02*
X38507200Y-94456190D01*
X38507200Y-94456190D02*
X38554819Y-94599047D01*
X38554819Y-94599047D02*
X38554819Y-94694285D01*
X37650057Y-93884761D02*
X37602438Y-93837142D01*
X37602438Y-93837142D02*
X37554819Y-93741904D01*
X37554819Y-93741904D02*
X37554819Y-93503809D01*
X37554819Y-93503809D02*
X37602438Y-93408571D01*
X37602438Y-93408571D02*
X37650057Y-93360952D01*
X37650057Y-93360952D02*
X37745295Y-93313333D01*
X37745295Y-93313333D02*
X37840533Y-93313333D01*
X37840533Y-93313333D02*
X37983390Y-93360952D01*
X37983390Y-93360952D02*
X38554819Y-93932380D01*
X38554819Y-93932380D02*
X38554819Y-93313333D01*
X64224819Y-148081904D02*
X65034342Y-148081904D01*
X65034342Y-148081904D02*
X65129580Y-148034285D01*
X65129580Y-148034285D02*
X65177200Y-147986666D01*
X65177200Y-147986666D02*
X65224819Y-147891428D01*
X65224819Y-147891428D02*
X65224819Y-147700952D01*
X65224819Y-147700952D02*
X65177200Y-147605714D01*
X65177200Y-147605714D02*
X65129580Y-147558095D01*
X65129580Y-147558095D02*
X65034342Y-147510476D01*
X65034342Y-147510476D02*
X64224819Y-147510476D01*
X64320057Y-147081904D02*
X64272438Y-147034285D01*
X64272438Y-147034285D02*
X64224819Y-146939047D01*
X64224819Y-146939047D02*
X64224819Y-146700952D01*
X64224819Y-146700952D02*
X64272438Y-146605714D01*
X64272438Y-146605714D02*
X64320057Y-146558095D01*
X64320057Y-146558095D02*
X64415295Y-146510476D01*
X64415295Y-146510476D02*
X64510533Y-146510476D01*
X64510533Y-146510476D02*
X64653390Y-146558095D01*
X64653390Y-146558095D02*
X65224819Y-147129523D01*
X65224819Y-147129523D02*
X65224819Y-146510476D01*
X107304819Y-78906666D02*
X106828628Y-79239999D01*
X107304819Y-79478094D02*
X106304819Y-79478094D01*
X106304819Y-79478094D02*
X106304819Y-79097142D01*
X106304819Y-79097142D02*
X106352438Y-79001904D01*
X106352438Y-79001904D02*
X106400057Y-78954285D01*
X106400057Y-78954285D02*
X106495295Y-78906666D01*
X106495295Y-78906666D02*
X106638152Y-78906666D01*
X106638152Y-78906666D02*
X106733390Y-78954285D01*
X106733390Y-78954285D02*
X106781009Y-79001904D01*
X106781009Y-79001904D02*
X106828628Y-79097142D01*
X106828628Y-79097142D02*
X106828628Y-79478094D01*
X106304819Y-78049523D02*
X106304819Y-78239999D01*
X106304819Y-78239999D02*
X106352438Y-78335237D01*
X106352438Y-78335237D02*
X106400057Y-78382856D01*
X106400057Y-78382856D02*
X106542914Y-78478094D01*
X106542914Y-78478094D02*
X106733390Y-78525713D01*
X106733390Y-78525713D02*
X107114342Y-78525713D01*
X107114342Y-78525713D02*
X107209580Y-78478094D01*
X107209580Y-78478094D02*
X107257200Y-78430475D01*
X107257200Y-78430475D02*
X107304819Y-78335237D01*
X107304819Y-78335237D02*
X107304819Y-78144761D01*
X107304819Y-78144761D02*
X107257200Y-78049523D01*
X107257200Y-78049523D02*
X107209580Y-78001904D01*
X107209580Y-78001904D02*
X107114342Y-77954285D01*
X107114342Y-77954285D02*
X106876247Y-77954285D01*
X106876247Y-77954285D02*
X106781009Y-78001904D01*
X106781009Y-78001904D02*
X106733390Y-78049523D01*
X106733390Y-78049523D02*
X106685771Y-78144761D01*
X106685771Y-78144761D02*
X106685771Y-78335237D01*
X106685771Y-78335237D02*
X106733390Y-78430475D01*
X106733390Y-78430475D02*
X106781009Y-78478094D01*
X106781009Y-78478094D02*
X106876247Y-78525713D01*
X88566666Y-151644819D02*
X88566666Y-152359104D01*
X88566666Y-152359104D02*
X88519047Y-152501961D01*
X88519047Y-152501961D02*
X88423809Y-152597200D01*
X88423809Y-152597200D02*
X88280952Y-152644819D01*
X88280952Y-152644819D02*
X88185714Y-152644819D01*
X88947619Y-151644819D02*
X89566666Y-151644819D01*
X89566666Y-151644819D02*
X89233333Y-152025771D01*
X89233333Y-152025771D02*
X89376190Y-152025771D01*
X89376190Y-152025771D02*
X89471428Y-152073390D01*
X89471428Y-152073390D02*
X89519047Y-152121009D01*
X89519047Y-152121009D02*
X89566666Y-152216247D01*
X89566666Y-152216247D02*
X89566666Y-152454342D01*
X89566666Y-152454342D02*
X89519047Y-152549580D01*
X89519047Y-152549580D02*
X89471428Y-152597200D01*
X89471428Y-152597200D02*
X89376190Y-152644819D01*
X89376190Y-152644819D02*
X89090476Y-152644819D01*
X89090476Y-152644819D02*
X88995238Y-152597200D01*
X88995238Y-152597200D02*
X88947619Y-152549580D01*
D11*
%TO.C,D2*%
X82469000Y-65250000D02*
X82150000Y-65250000D01*
X79990000Y-65250000D02*
X79671000Y-65250000D01*
X82150724Y-69553241D02*
G75*
G03*
X82468749Y-65250001I-1080724J2243241D01*
G01*
X82150960Y-68992712D02*
G75*
G03*
X82149999Y-65626671I-1080960J1682712D01*
G01*
X79990001Y-65626671D02*
G75*
G03*
X79989040Y-68992712I1079999J-1683329D01*
G01*
X79671251Y-65250001D02*
G75*
G03*
X79989276Y-69553241I1398749J-2059999D01*
G01*
%TO.C,D4*%
X108079000Y-65250000D02*
X107760000Y-65250000D01*
X105600000Y-65250000D02*
X105281000Y-65250000D01*
X107760724Y-69553241D02*
G75*
G03*
X108078749Y-65250001I-1080724J2243241D01*
G01*
X107760960Y-68992712D02*
G75*
G03*
X107759999Y-65626671I-1080960J1682712D01*
G01*
X105600001Y-65626671D02*
G75*
G03*
X105599040Y-68992712I1079999J-1683329D01*
G01*
X105281251Y-65250001D02*
G75*
G03*
X105599276Y-69553241I1398749J-2059999D01*
G01*
%TO.C,LS1*%
X48020000Y-71120000D02*
G75*
G03*
X48020000Y-71120000I-6100000J0D01*
G01*
%TO.C,R2*%
X55880000Y-82780000D02*
X55880000Y-82010000D01*
X54510000Y-82010000D02*
X57250000Y-82010000D01*
X57250000Y-82010000D02*
X57250000Y-75470000D01*
X54510000Y-75470000D02*
X54510000Y-82010000D01*
X57250000Y-75470000D02*
X54510000Y-75470000D01*
X55880000Y-74700000D02*
X55880000Y-75470000D01*
%TO.C,R5*%
X88900000Y-82780000D02*
X88900000Y-82010000D01*
X87530000Y-82010000D02*
X90270000Y-82010000D01*
X90270000Y-82010000D02*
X90270000Y-75470000D01*
X87530000Y-75470000D02*
X87530000Y-82010000D01*
X90270000Y-75470000D02*
X87530000Y-75470000D01*
X88900000Y-74700000D02*
X88900000Y-75470000D01*
%TO.C,D1*%
X72519000Y-65250000D02*
X72200000Y-65250000D01*
X70040000Y-65250000D02*
X69721000Y-65250000D01*
X72200724Y-69553241D02*
G75*
G03*
X72518749Y-65250001I-1080724J2243241D01*
G01*
X72200960Y-68992712D02*
G75*
G03*
X72199999Y-65626671I-1080960J1682712D01*
G01*
X70040001Y-65626671D02*
G75*
G03*
X70039040Y-68992712I1079999J-1683329D01*
G01*
X69721251Y-65250001D02*
G75*
G03*
X70039276Y-69553241I1398749J-2059999D01*
G01*
%TO.C,R7*%
X96520000Y-82780000D02*
X96520000Y-82010000D01*
X95150000Y-82010000D02*
X97890000Y-82010000D01*
X97890000Y-82010000D02*
X97890000Y-75470000D01*
X95150000Y-75470000D02*
X95150000Y-82010000D01*
X97890000Y-75470000D02*
X95150000Y-75470000D01*
X96520000Y-74700000D02*
X96520000Y-75470000D01*
%TO.C,D3*%
X90299000Y-65250000D02*
X89980000Y-65250000D01*
X87820000Y-65250000D02*
X87501000Y-65250000D01*
X89980724Y-69553241D02*
G75*
G03*
X90298749Y-65250001I-1080724J2243241D01*
G01*
X89980960Y-68992712D02*
G75*
G03*
X89979999Y-65626671I-1080960J1682712D01*
G01*
X87820001Y-65626671D02*
G75*
G03*
X87819040Y-68992712I1079999J-1683329D01*
G01*
X87501251Y-65250001D02*
G75*
G03*
X87819276Y-69553241I1398749J-2059999D01*
G01*
%TO.C,R3*%
X71120000Y-82780000D02*
X71120000Y-82010000D01*
X69750000Y-82010000D02*
X72490000Y-82010000D01*
X72490000Y-82010000D02*
X72490000Y-75470000D01*
X69750000Y-75470000D02*
X69750000Y-82010000D01*
X72490000Y-75470000D02*
X69750000Y-75470000D01*
X71120000Y-74700000D02*
X71120000Y-75470000D01*
%TO.C,R4*%
X81280000Y-82780000D02*
X81280000Y-82010000D01*
X79910000Y-82010000D02*
X82650000Y-82010000D01*
X82650000Y-82010000D02*
X82650000Y-75470000D01*
X79910000Y-75470000D02*
X79910000Y-82010000D01*
X82650000Y-75470000D02*
X79910000Y-75470000D01*
X81280000Y-74700000D02*
X81280000Y-75470000D01*
%TO.C,D5*%
X97919000Y-65250000D02*
X97600000Y-65250000D01*
X95440000Y-65250000D02*
X95121000Y-65250000D01*
X97600724Y-69553241D02*
G75*
G03*
X97918749Y-65250001I-1080724J2243241D01*
G01*
X97600960Y-68992712D02*
G75*
G03*
X97599999Y-65626671I-1080960J1682712D01*
G01*
X95440001Y-65626671D02*
G75*
G03*
X95439040Y-68992712I1079999J-1683329D01*
G01*
X95121251Y-65250001D02*
G75*
G03*
X95439276Y-69553241I1398749J-2059999D01*
G01*
%TO.C,Q1*%
X56410000Y-64190000D02*
X52810000Y-64190000D01*
X54610000Y-68640000D02*
G75*
G03*
X56448478Y-64201522I0J2600000D01*
G01*
X52771522Y-64201522D02*
G75*
G03*
X54610000Y-68640000I1838478J-1838478D01*
G01*
%TO.C,J1*%
X32840000Y-141762500D02*
X47540000Y-141762500D01*
X32840000Y-150962500D02*
X32840000Y-141762500D01*
X41640000Y-150962500D02*
X32840000Y-150962500D01*
X46690000Y-141562500D02*
X47740000Y-141562500D01*
X47540000Y-141762500D02*
X47540000Y-144362500D01*
X47540000Y-148262500D02*
X47540000Y-150962500D01*
X47540000Y-150962500D02*
X45640000Y-150962500D01*
X47740000Y-142612500D02*
X47740000Y-141562500D01*
D12*
%TO.C,U3*%
X114375000Y-87320000D02*
X114375000Y-98389000D01*
X114375000Y-87320000D02*
X114375000Y-115830000D01*
X63425000Y-87320000D02*
X114375000Y-87320000D01*
X63425000Y-87320000D02*
X114375000Y-87320000D01*
X63425000Y-87320000D02*
X63425000Y-92690000D01*
X63425000Y-92690000D02*
X63425000Y-110380000D01*
X114375000Y-98389000D02*
X114375000Y-105100000D01*
X114375000Y-105100000D02*
X114375000Y-115830000D01*
X63425000Y-110380000D02*
X63425000Y-115830000D01*
X114375000Y-115830000D02*
X63425000Y-115830000D01*
X114375000Y-115830000D02*
X63425000Y-115830000D01*
X63425000Y-115830000D02*
X63425000Y-87320000D01*
D13*
X104515000Y-86750000D02*
G75*
G03*
X104515000Y-86750000I-100000J0D01*
G01*
D11*
%TO.C,J2*%
X36770000Y-97790000D02*
X36770000Y-110550000D01*
X36770000Y-97790000D02*
X39430000Y-97790000D01*
X36770000Y-110550000D02*
X39430000Y-110550000D01*
X38100000Y-95190000D02*
X39430000Y-95190000D01*
X39430000Y-95190000D02*
X39430000Y-96520000D01*
X39430000Y-97790000D02*
X39430000Y-110550000D01*
%TO.C,U2*%
X52070000Y-154940000D02*
X77470000Y-154940000D01*
X77470000Y-154940000D02*
X77470000Y-139700000D01*
X77470000Y-139700000D02*
X52070000Y-139700000D01*
X52070000Y-139700000D02*
X52070000Y-154940000D01*
%TO.C,R6*%
X106680000Y-82780000D02*
X106680000Y-82010000D01*
X105310000Y-82010000D02*
X108050000Y-82010000D01*
X108050000Y-82010000D02*
X108050000Y-75470000D01*
X105310000Y-75470000D02*
X105310000Y-82010000D01*
X108050000Y-75470000D02*
X105310000Y-75470000D01*
X106680000Y-74700000D02*
X106680000Y-75470000D01*
%TO.C,J3*%
X90230000Y-151190000D02*
X88900000Y-151190000D01*
X90230000Y-149860000D02*
X90230000Y-151190000D01*
X90230000Y-148590000D02*
X90230000Y-143450000D01*
X90230000Y-148590000D02*
X87570000Y-148590000D01*
X90230000Y-143450000D02*
X87570000Y-143450000D01*
X87570000Y-148590000D02*
X87570000Y-143450000D01*
%TD*%
M02*
