%TF.GenerationSoftware,KiCad,Pcbnew,7.0.7*%
%TF.CreationDate,2023-11-04T11:15:44-05:00*%
%TF.ProjectId,proyectointroducci_n,70726f79-6563-4746-9f69-6e74726f6475,rev?*%
%TF.SameCoordinates,Original*%
%TF.FileFunction,Legend,Bot*%
%TF.FilePolarity,Positive*%
%FSLAX46Y46*%
G04 Gerber Fmt 4.6, Leading zero omitted, Abs format (unit mm)*
G04 Created by KiCad (PCBNEW 7.0.7) date 2023-11-04 11:15:44*
%MOMM*%
%LPD*%
G01*
G04 APERTURE LIST*
%ADD10C,0.150000*%
%ADD11C,0.120000*%
G04 APERTURE END LIST*
D10*
X75375714Y-138811009D02*
X75232857Y-138858628D01*
X75232857Y-138858628D02*
X75185238Y-138906247D01*
X75185238Y-138906247D02*
X75137619Y-139001485D01*
X75137619Y-139001485D02*
X75137619Y-139144342D01*
X75137619Y-139144342D02*
X75185238Y-139239580D01*
X75185238Y-139239580D02*
X75232857Y-139287200D01*
X75232857Y-139287200D02*
X75328095Y-139334819D01*
X75328095Y-139334819D02*
X75709047Y-139334819D01*
X75709047Y-139334819D02*
X75709047Y-138334819D01*
X75709047Y-138334819D02*
X75375714Y-138334819D01*
X75375714Y-138334819D02*
X75280476Y-138382438D01*
X75280476Y-138382438D02*
X75232857Y-138430057D01*
X75232857Y-138430057D02*
X75185238Y-138525295D01*
X75185238Y-138525295D02*
X75185238Y-138620533D01*
X75185238Y-138620533D02*
X75232857Y-138715771D01*
X75232857Y-138715771D02*
X75280476Y-138763390D01*
X75280476Y-138763390D02*
X75375714Y-138811009D01*
X75375714Y-138811009D02*
X75709047Y-138811009D01*
X74851904Y-138334819D02*
X74280476Y-138334819D01*
X74566190Y-139334819D02*
X74566190Y-138334819D01*
X73423333Y-139334819D02*
X73994761Y-139334819D01*
X73709047Y-139334819D02*
X73709047Y-138334819D01*
X73709047Y-138334819D02*
X73804285Y-138477676D01*
X73804285Y-138477676D02*
X73899523Y-138572914D01*
X73899523Y-138572914D02*
X73994761Y-138620533D01*
D11*
%TO.C,BT1*%
X30840000Y-133380000D02*
X33340000Y-133380000D01*
X32090000Y-132130000D02*
X32090000Y-134630000D01*
X35950000Y-116940000D02*
X35950000Y-123940000D01*
X35950000Y-130820000D02*
X31590000Y-130820000D01*
X35950000Y-137820000D02*
X35950000Y-130820000D01*
X113230000Y-116940000D02*
X35950000Y-116940000D01*
X113230000Y-123940000D02*
X113230000Y-116940000D01*
X113230000Y-130820000D02*
X113230000Y-137800000D01*
X113230000Y-137820000D02*
X35950000Y-137820000D01*
X118340000Y-133380000D02*
X115840000Y-133380000D01*
%TD*%
M02*
